<svg width="70" height="70" viewBox="0 0 70 70" fill="none" xmlns="http://www.w3.org/2000/svg">
<path d="M56.605 24.7151C61.1582 20.996 59.5855 13.6411 53.8959 12.1168C52.4093 11.7185 50.8702 11.8014 49.4594 12.3388L44.9388 4.50865C43.0992 1.32226 38.5367 1.23782 36.5778 4.34458C31.0174 13.1639 23.6098 20.6649 14.8152 26.3571C14.3144 26.6805 14.1288 27.3491 14.4251 27.8932C14.4727 27.9802 21.9608 40.9485 22.0104 41.0344C22.3324 41.5921 23.0456 41.7837 23.6041 41.4614C24.1621 41.1392 24.3533 40.4257 24.0311 39.8677L17.0091 27.7049C25.3948 22.0989 32.8217 14.6771 38.5517 5.58901C39.5765 3.96337 41.9586 4.01382 42.9179 5.67534L59.1052 33.7126C60.0657 35.3764 58.9142 37.4624 56.9968 37.5371C46.2403 37.9562 35.709 40.7074 26.0804 45.632C26.0394 45.6529 15.1227 51.9567 14.3709 52.3907C12.4194 53.5174 9.91542 52.8465 8.78897 50.895L2.87951 40.6591C1.75292 38.7079 2.42392 36.2038 4.37522 35.0772L11.4875 30.9709C12.0455 30.6488 12.2367 29.9352 11.9146 29.3772C11.5924 28.8191 10.8787 28.628 10.3208 28.9502L3.20852 33.0565C0.143025 34.8263 -0.911084 38.7602 0.858794 41.8258L6.7684 52.0616C8.53842 55.1273 12.4724 56.1812 15.5379 54.4113L15.8069 54.256L23.103 66.8932C24.151 68.7084 26.4684 69.3301 28.2846 68.2817L30.8436 66.8042C32.6593 65.7559 33.2803 63.4384 32.232 61.6226L27.061 52.6663C26.7389 52.1084 26.0253 51.9172 25.4673 52.2393C24.9094 52.5615 24.7182 53.2751 25.0403 53.833L30.2113 62.7893C30.6146 63.488 30.3758 64.38 29.6769 64.7834L27.1179 66.2608C26.4192 66.6642 25.5273 66.4252 25.1239 65.7265L17.8278 53.0893L27.1694 47.6958C36.3106 43.0252 46.4801 40.2817 57.0879 39.8686C60.7641 39.7252 62.9629 35.7269 61.1259 32.5458L56.605 24.7151ZM56.2717 16.657C57.4236 18.6521 57.0098 21.1278 55.4154 22.6546L50.6487 14.3983C52.7384 13.7853 55.1014 14.6297 56.2717 16.657ZM67.6829 11.47L64.6642 13.2129C64.1058 13.5352 63.3925 13.3437 63.0705 12.7859C62.7482 12.2279 62.9396 11.5144 63.4975 11.1922L66.5162 9.44931C67.0746 9.12701 67.7879 9.3185 68.1099 9.87632C68.4321 10.4343 68.2409 11.1479 67.6829 11.47ZM54.7008 4.82045L55.437 2.07346C55.6038 1.45103 56.2432 1.08192 56.866 1.24846C57.4885 1.4153 57.8577 2.05509 57.6909 2.67737L56.9547 5.42436C56.7883 6.04519 56.1501 6.4162 55.5256 6.24936C54.9034 6.08252 54.5341 5.44288 54.7008 4.82045ZM69.9599 23.9279C69.8202 24.4491 69.3488 24.7928 68.8336 24.7928C68.6224 24.7928 68.7701 24.8169 65.7838 24.0167C65.1614 23.8498 64.792 23.2102 64.9588 22.5878C65.1257 21.9653 65.7654 21.5964 66.3877 21.7628L69.1349 22.4988C69.7571 22.6656 70.1267 23.3054 69.9599 23.9279Z" fill="url(#paint0_linear)"/>
<defs>
<linearGradient id="paint0_linear" x1="0" y1="34.9998" x2="69.9999" y2="34.9998" gradientUnits="userSpaceOnUse">
<stop stop-color="#0E0F0D"/>
<stop offset="1" stop-color="#444444"/>
</linearGradient>
</defs>
</svg>
