<svg width="50" height="70" viewBox="0 0 50 70" fill="none" xmlns="http://www.w3.org/2000/svg">
<g clip-path="url(#clip0)">
<path d="M39.1813 2.59021H35.0339L39.3479 7.23578V9.44515H30.4602V6.85775H34.7742L30.4602 2.21218V0H39.1841L39.1813 2.59021ZM28.6957 2.59021H24.5427L28.8623 7.23578V9.44515H19.9718V6.85775H24.2858L19.9718 2.21218V0H28.6957V2.59021ZM18.3117 2.69661H13.8369V6.75134H18.3117V9.44795H10.6522V0H18.3117V2.69661Z" fill="url(#paint0_linear)"/>
<path d="M4.5511 64.3799L0 13.7603H50L45.4433 64.3715L24.9689 69.9999L4.5511 64.3799Z" fill="#0E0F0D"/>
<path d="M25 65.6987L41.5443 61.1484L45.4348 17.8989H25V65.6987Z" fill="#444444"/>
<path d="M25 36.2378H33.2835L33.8538 29.8813H25V23.676H40.6973L40.5477 25.3422L39.009 42.4515H25V36.2378Z" fill="#C4C4C4"/>
<path d="M25.0338 52.3615H25.0056L18.0349 50.4938L17.5889 45.543H11.3099L12.188 55.2906L25.0112 58.83H25.0479V52.3615H25.0338Z" fill="#444444"/>
<path d="M32.7527 42.1798L31.9989 50.4881L25.017 52.3558V58.8243L37.8487 55.296L37.9419 54.246L39.0316 42.177H32.7527V42.1798Z" fill="#C4C4C4"/>
<path d="M25.0226 23.676V29.8841H9.90682L9.77695 28.4896L9.4918 25.3422L9.34216 23.676H25.0226ZM25 36.2378V42.4459H18.1084L17.987 41.0514L17.7018 37.904L17.5522 36.2378H24.9972H25Z" fill="#444444"/>
</g>
<defs>
<linearGradient id="paint0_linear" x1="10.6522" y1="4.72398" x2="39.3479" y2="4.72398" gradientUnits="userSpaceOnUse">
<stop stop-color="#0E0F0D"/>
<stop offset="1" stop-color="#444444"/>
</linearGradient>
<clipPath id="clip0">
<rect width="50" height="70" fill="white"/>
</clipPath>
</defs>
</svg>
