<svg width="1771" height="2009" viewBox="0 0 1771 2009" fill="none" xmlns="http://www.w3.org/2000/svg">
<path d="M161.2 1808.1L0 0.399902H1771L1609.6 1807.8L884.4 2008.8L161.2 1808.1Z" fill="#1572B6"/>
<path d="M885.5 1855.2L1471.5 1692.7L1609.3 148.2H885.5V1855.2Z" fill="#33A9DC"/>
<path d="M885.5 803.1H1178.9L1199.1 576.1H885.5V354.5H1441.5L1436.2 414L1381.7 1025H885.5V803.1Z" fill="white"/>
<path d="M886.7 1378.9H885.7L638.8 1312.2L623 1135.4H400.6L431.7 1483.5L885.9 1609.9H887.2V1378.9H886.7Z" fill="#EBEBEB"/>
<path d="M1160.1 1015.3L1133.4 1312L886.1 1378.7V1609.7L1340.6 1483.7L1343.9 1446.2L1382.5 1015.2H1160.1V1015.3Z" fill="white"/>
<path d="M886.3 354.5V576.2H350.9L346.3 526.4L336.2 414L330.9 354.5H886.3ZM885.5 803.1V1024.8H641.4L637.1 975L627 862.6L621.7 803.1H885.4H885.5Z" fill="#EBEBEB"/>
</svg>
