<svg width="50" height="70" viewBox="0 0 50 70" fill="none" xmlns="http://www.w3.org/2000/svg">
<g clip-path="url(#clip0)">
<path d="M4.50426 64.3747L0 13.7583H49.4949L44.9857 64.3667L24.7171 69.9965L4.50426 64.3747Z" fill="black"/>
<path d="M24.7474 65.6935L41.1253 61.1442L44.9789 17.8972H24.7474V65.6935Z" fill="#444444"/>
<path d="M24.7474 36.6702H16.5484L15.982 30.3132H24.7474V24.1052H9.21008L9.35857 25.7707L10.8814 42.8779H24.7474V36.6702ZM24.7474 52.7926L24.7202 52.8L17.8195 50.933L17.3783 45.9821H11.1584L12.0266 55.7294L24.7191 59.2595L24.7474 59.2515V52.7926Z" fill="#444444"/>
<path d="M4.6051 0.00317383H7.75388V3.12001H10.6343V0.00317383H13.7832V9.4418H10.6343V6.28124H7.75388V9.4418H4.60533L4.6051 0.00317383ZM17.9242 3.1333H15.1523V0.00317383H23.8468V3.1333H21.0735V9.4418H17.9243V3.1333H17.9242ZM25.2265 0.00317383H28.51L30.5298 3.31971L32.5476 0.00317383H35.8323V9.4418H32.6959V4.7634L30.5294 8.11938H30.4753L28.3075 4.7634V9.4418H25.2264V0.00317383H25.2265ZM37.3991 0.00317383H40.5488V6.32204H44.9772V9.4418H37.3991V0.00317383Z" fill="url(#paint0_linear)"/>
<path d="M24.7261 36.6701V42.8779H32.3562L31.6368 50.9292L24.7261 52.7977V59.2562L37.4287 55.7294L37.5216 54.6803L38.9779 38.3372L39.1291 36.6701H37.4595H24.7261ZM24.7261 24.1052V30.3132H39.693L39.8171 28.9177L40.0994 25.7707L40.2477 24.1052H24.7261Z" fill="#C4C4C4"/>
</g>
<defs>
<linearGradient id="paint0_linear" x1="4.6051" y1="4.72249" x2="44.9772" y2="4.72249" gradientUnits="userSpaceOnUse">
<stop stop-color="#0E0F0D"/>
<stop offset="1" stop-color="#444444"/>
</linearGradient>
<clipPath id="clip0">
<rect width="49.4949" height="70" fill="white"/>
</clipPath>
</defs>
</svg>
