<svg width="1767" height="2004" viewBox="0 0 1767 2004" fill="none" xmlns="http://www.w3.org/2000/svg">
<path d="M1766.69 0L1605.74 1803.05L882.265 2003.62L160.783 1803.32L0 0H1766.69Z" fill="#E44D26"/>
<path d="M883.345 1850.3L1467.95 1688.23L1605.48 147.444H883.345V1850.3Z" fill="#F16529"/>
<path d="M570.464 589.792H883.345V368.622H328.753L334.044 427.957L388.407 1037.44H883.345V816.274H590.679L570.464 589.792V589.792ZM620.312 1148.03H398.289L429.273 1495.3L882.327 1621.07L883.345 1620.79V1390.68L882.375 1390.94L636.06 1324.43L620.312 1148.03V1148.03Z" fill="#EBEBEB"/>
<path d="M882.583 1037.44H1154.93L1129.25 1324.29L882.576 1390.87V1620.96L1335.99 1495.3L1339.31 1457.94L1391.3 875.665L1396.69 816.274H882.583V1037.44ZM882.583 589.252V589.792H1416.81L1421.25 540.083L1431.33 427.957L1436.61 368.622H882.583V589.259V589.252Z" fill="white"/>
</svg>
