<svg width="1954" height="1946" viewBox="0 0 1954 1946" fill="none" xmlns="http://www.w3.org/2000/svg">
<path fill-rule="evenodd" clip-rule="evenodd" d="M1150.3 0C1136.18 0 1123.06 3.02933 1110.95 7.06583C1136.68 24.219 1150.81 46.9233 1157.87 72.6492C1158.38 76.186 1159.39 78.7078 1159.89 82.2368C1160.4 85.2661 1160.9 88.2877 1160.9 91.317C1162.92 135.718 1149.29 141.262 1139.71 167.503C1125.07 201.31 1129.11 237.63 1146.77 266.893C1148.29 270.422 1150.3 274.458 1152.83 277.987C1133.65 150.35 1240.11 131.174 1259.79 91.317C1261.3 56.5032 1232.54 33.2992 1209.84 17.1532C1188.14 4.0365 1168.46 0 1150.3 0ZM1310.75 28.7552C1308.72 40.365 1310.24 37.3357 1309.73 43.3865C1309.23 47.423 1309.23 52.4667 1308.72 56.5032C1307.72 60.5397 1306.71 64.5762 1305.19 68.6127C1304.18 72.6492 1302.67 76.6857 1301.16 80.7222C1299.14 84.7587 1297.63 88.2955 1295.61 92.3242C1294.09 94.3463 1293.08 96.3607 1291.57 98.3828L1288.54 102.919C1286.02 106.456 1283.5 109.985 1280.98 113.014C1277.95 116.043 1275.43 119.572 1271.9 122.094V122.602C1268.87 125.124 1265.84 128.145 1262.31 130.675C1251.71 138.74 1239.6 144.799 1228.5 152.364C1224.97 154.886 1221.44 156.908 1218.41 159.937C1214.88 162.459 1211.86 164.981 1208.83 168.003C1205.3 171.032 1202.78 174.061 1199.75 177.59C1197.22 180.62 1194.2 184.149 1192.18 187.685C1189.66 191.214 1187.14 194.743 1185.11 198.28C1183.1 202.317 1181.59 205.846 1179.57 209.882C1178.06 213.919 1176.54 217.456 1175.53 221.484C1174.19 225.641 1173.01 229.85 1172 234.101C1171.5 236.116 1171.5 238.637 1170.99 240.66C1170.48 242.674 1170.48 244.696 1169.98 246.71C1169.98 250.747 1169.48 255.291 1169.48 259.327C1169.48 262.349 1169.48 265.378 1169.98 268.408C1169.98 272.444 1170.49 276.481 1171.5 281.017C1172.01 285.053 1173.01 289.09 1174.02 293.126C1175.53 297.163 1176.54 301.199 1178.06 305.228C1179.07 307.758 1180.58 310.279 1181.59 312.302L1065.55 267.393C1045.87 261.849 1026.7 256.798 1007.02 252.262L975.24 244.688C944.878 238.635 914.235 234.091 883.423 231.072C882.408 231.072 881.901 230.564 880.894 230.564C850.624 227.535 820.854 226.028 790.584 226.028C768.387 226.028 746.19 227.035 724.493 228.55C693.716 230.564 662.938 234.601 632.169 239.645C624.595 240.66 617.022 242.166 609.464 243.681C593.818 246.71 578.687 250.239 564.056 253.776L541.351 259.827C533.778 262.856 526.72 266.385 519.654 269.415L503.009 276.988C501.994 277.488 500.986 277.488 500.487 277.987C495.443 280.509 490.899 282.531 486.355 285.053C484.848 285.561 483.833 286.068 482.826 286.568C477.283 289.09 471.732 292.111 467.188 294.641C463.659 296.156 460.122 298.17 457.1 299.685C455.586 300.7 453.563 301.707 452.556 302.206C448.012 304.728 443.476 307.25 439.44 309.78C434.896 312.294 430.859 314.823 427.33 317.345C423.801 319.867 420.264 321.881 417.243 324.403C416.735 324.911 416.228 324.911 415.728 325.418C412.699 327.433 409.17 329.954 406.14 332.476L405.125 333.491L397.568 339.542C396.553 340.042 395.538 341.057 394.538 341.556C392.017 343.579 389.495 346.1 386.965 348.115C386.465 349.13 385.458 349.629 384.951 350.137C381.921 353.166 378.9 355.68 375.871 358.71C375.363 358.71 375.363 359.217 374.856 359.725C371.834 362.246 368.805 365.268 365.775 368.297C365.276 368.805 365.276 369.312 364.768 369.312C362.122 371.881 359.598 374.573 357.203 377.377C356.188 378.392 354.681 379.4 353.674 380.407C351.152 383.436 348.123 386.458 345.093 389.487C344.586 390.502 343.579 391.002 343.079 392.009C339.042 396.045 335.506 400.082 331.469 404.118L329.962 405.633C321.889 414.206 313.309 422.786 304.229 430.352C295.283 438.334 285.846 445.747 275.973 452.548C266.189 459.411 256.088 465.81 245.703 471.724C235.406 477.373 224.794 482.427 213.919 486.863C203.189 491.42 192.245 495.459 181.127 498.964C159.937 503.508 138.24 512.081 119.572 513.596C115.536 513.596 111 514.611 106.963 515.11C102.419 516.125 98.3828 517.132 94.3463 518.14L82.2446 522.684C78.2003 524.19 74.1638 526.213 70.1273 528.227C66.5983 530.749 62.5618 532.771 59.0328 535.293C55.496 537.815 51.967 540.836 48.9377 543.873C45.4087 546.395 41.8796 549.924 38.8503 552.953C35.821 556.482 32.7995 559.512 30.2698 563.041C27.748 567.077 24.7265 570.614 22.7043 574.643C20.1825 578.18 17.6607 582.216 15.6463 586.253C13.6164 590.789 11.6098 594.825 10.0951 599.369C8.50256 603.714 6.98765 608.087 5.55116 612.486C4.54399 616.522 3.53682 620.559 3.02933 624.588C3.02933 625.103 2.52184 625.603 2.52184 626.11C1.51466 630.646 1.51466 636.705 1.00717 639.726C0.507492 643.263 0 646.285 0 649.822C0 651.836 4.17233e-07 654.358 0.507491 656.38C1.01498 659.909 1.52247 662.938 2.52964 665.968C3.53681 668.989 4.54399 672.018 6.05865 675.048V675.547C7.57331 678.577 9.58766 681.606 11.602 684.635C13.632 687.657 15.6463 690.686 18.1603 693.716C20.69 696.237 23.7193 699.259 26.7486 701.789C29.7702 704.81 32.7995 707.332 36.3285 709.862C48.438 720.456 51.4673 723.985 67.1058 732.058C69.6276 733.573 72.1495 734.58 75.1788 736.095C75.6863 736.095 76.186 736.595 76.6935 736.595C76.6935 737.61 76.6935 738.109 77.1931 739.124C77.7006 743.161 78.7078 747.197 79.7228 751.226C80.6831 755.38 82.0319 759.434 83.7515 763.335C85.2661 766.365 86.2811 769.394 87.788 772.423C88.2955 773.431 88.803 774.438 89.3026 774.945C91.3248 778.982 93.3391 782.511 95.3613 786.04L102.927 796.635C105.449 799.664 108.47 803.193 111.507 806.222C114.529 809.251 117.558 811.766 121.087 814.803C121.087 814.803 121.595 815.302 122.102 815.302C125.124 817.824 128.153 820.354 131.182 822.368C134.711 824.89 138.24 826.912 142.277 828.927C145.814 830.949 149.85 832.963 153.887 834.47C156.908 835.992 160.445 837 163.974 838.007C164.481 838.514 164.981 838.514 165.988 839.022C168.018 839.521 170.532 840.029 172.547 840.529C171.04 867.777 170.532 893.503 174.577 902.583C179.105 912.678 201.31 881.901 223.506 846.587C220.477 881.393 218.463 922.266 223.506 934.367C229.058 946.984 259.327 907.634 285.561 864.24C643.271 781.504 969.697 1028.72 1004 1377.84C997.445 1323.35 930.339 1293.08 899.561 1300.65C884.43 1337.99 858.697 1385.92 817.325 1415.69C820.938 1382 819.236 1347.95 812.281 1314.78C801.186 1361.2 779.489 1404.58 749.719 1441.92C701.796 1445.45 653.866 1422.24 628.64 1387.42C626.618 1385.92 626.118 1382.89 624.603 1380.86C623.089 1377.34 621.574 1373.81 620.567 1370.28C619.095 1366.9 618.076 1363.33 617.537 1359.68C617.03 1356.15 617.03 1352.62 617.03 1348.58V1341.01C617.537 1337.48 618.545 1333.95 619.552 1330.42C620.567 1326.88 621.574 1323.35 623.089 1319.83C625.103 1316.29 626.618 1312.76 629.139 1309.23C637.72 1285.01 637.72 1265.34 622.081 1253.73C619.052 1251.75 615.842 1250.06 612.494 1248.68C610.472 1248.18 607.95 1247.18 605.935 1246.67C604.421 1246.16 603.414 1245.65 601.899 1245.15C598.362 1244.14 594.833 1243.13 591.304 1242.63C587.86 1241.64 584.294 1241.13 580.709 1241.12C577.172 1240.61 573.136 1240.1 569.607 1240.1C567.085 1240.1 564.563 1240.62 562.034 1240.62C558.005 1240.62 554.476 1241.12 550.947 1242.12C547.41 1242.63 543.881 1243.14 540.344 1244.15C536.815 1245.16 533.278 1246.17 529.749 1247.68C526.22 1249.19 523.191 1250.71 519.662 1252.22C516.633 1253.73 513.603 1255.75 510.074 1257.26C392.524 1333.95 462.651 1513.56 542.866 1565.53C512.596 1571.07 481.819 1577.63 473.246 1584.19L472.231 1585.2C493.936 1598.32 516.633 1609.42 540.344 1619.01C572.636 1629.6 606.943 1639.19 622.081 1643.22V1643.73C663.882 1652.3 706.625 1655.35 749.219 1652.81C972.718 1637.17 1155.86 1467.15 1189.16 1243.14C1190.17 1247.68 1191.18 1251.71 1192.19 1256.26C1193.7 1265.34 1195.72 1274.92 1196.72 1284.51V1285.01C1197.74 1289.56 1198.24 1294.1 1198.75 1298.13V1300.16C1199.25 1304.69 1199.76 1309.23 1199.76 1313.28C1200.26 1318.82 1200.76 1324.36 1200.76 1329.92V1337.99C1200.76 1340.52 1201.27 1343.54 1201.27 1346.06C1201.27 1349.09 1200.76 1352.12 1200.76 1355.15V1362.2C1200.76 1365.74 1200.25 1368.76 1200.25 1372.3C1200.25 1374.31 1200.25 1376.34 1199.75 1378.86C1199.75 1382.39 1199.25 1385.92 1199.25 1389.95C1198.74 1391.47 1198.74 1392.98 1198.74 1394.5C1198.24 1398.53 1197.73 1402.07 1197.22 1406.1C1197.22 1407.61 1197.22 1409.13 1196.72 1410.64C1196.22 1415.69 1195.21 1420.23 1194.7 1425.27V1426.28C1193.69 1430.83 1192.69 1435.87 1191.67 1440.41V1441.92L1188.65 1455.54C1188.65 1456.05 1188.14 1457.06 1188.14 1457.57C1187.13 1462.1 1186.12 1466.65 1184.61 1471.18V1472.7C1183.1 1477.75 1181.59 1482.28 1180.58 1486.83C1180.07 1487.33 1180.07 1487.84 1180.07 1487.84L1175.53 1502.97C1173.51 1508.02 1172 1512.55 1169.98 1517.6C1167.96 1522.65 1166.45 1527.69 1164.43 1532.23C1162.41 1537.28 1160.4 1541.82 1158.37 1546.86H1157.87C1155.84 1551.4 1153.84 1556.45 1151.32 1560.99C1150.81 1562.51 1150.3 1563.51 1149.8 1564.52C1149.29 1565.03 1149.29 1565.54 1148.79 1566.04C1115.99 1632.13 1067.56 1690.14 1007.02 1735.55C1002.98 1738.08 998.944 1741.1 994.915 1744.13C993.9 1745.14 992.385 1745.64 991.378 1746.66C987.849 1749.18 984.312 1751.7 980.284 1754.22L981.79 1757.25H982.298L1003.49 1754.22H1003.99C1017.11 1752.2 1030.23 1749.68 1043.35 1747.16C1046.87 1746.65 1050.92 1745.64 1054.45 1744.63C1056.97 1744.13 1058.98 1743.63 1061.51 1743.12C1065.04 1742.62 1068.57 1741.6 1072.1 1741.1C1075.13 1740.09 1078.16 1739.59 1081.19 1738.58C1131.64 1726.47 1180.58 1709.82 1227.5 1690.15C1147.28 1799.63 1039.81 1887.92 914.185 1945.94C972.211 1941.9 1030.23 1932.32 1086.23 1916.17C1289.56 1856.13 1460.59 1719.41 1563 1535.26C1542.21 1652.07 1495.87 1762.85 1427.29 1859.66C1476.18 1827.41 1521.36 1789.85 1561.99 1747.66C1675.01 1629.61 1749.17 1479.76 1774.4 1318.82C1791.61 1398.66 1796.54 1480.67 1789.03 1562C2153.29 1053.95 1819.3 527.228 1679.54 388.488C1679.04 387.473 1678.54 386.973 1678.54 385.966C1678.04 386.465 1678.04 386.465 1678.04 386.973C1678.04 386.465 1678.04 386.465 1677.53 385.958C1677.53 392.017 1677.02 398.067 1676.51 404.126C1675.01 415.728 1673.49 426.83 1671.47 437.933C1668.95 449.027 1665.93 460.13 1662.9 471.224C1659.31 482.149 1655.27 492.922 1650.8 503.516C1646.15 513.971 1641.1 524.238 1635.65 534.293C1630.11 543.873 1624.05 553.968 1617.49 563.049C1611 572.433 1604.09 581.525 1596.8 590.297C1589.23 599.377 1581.17 607.45 1573.09 615.515C1568.34 619.865 1563.46 624.072 1558.46 628.132C1554.43 631.661 1550.89 634.691 1546.85 638.22C1537.77 645.285 1528.69 651.844 1518.61 657.895C1509.02 663.953 1498.93 670.004 1488.84 675.056C1478.24 680.099 1467.65 684.635 1457.06 689.179C1446.46 693.216 1435.35 696.753 1424.26 699.774C1413.1 702.778 1401.82 705.305 1390.45 707.347C1378.85 709.362 1367.25 710.369 1356.15 711.376C1348.07 711.884 1340 712.391 1331.93 712.391C1320.33 712.391 1308.72 711.376 1297.62 710.361C1286.02 709.362 1274.42 707.847 1263.31 705.325C1251.71 703.295 1240.61 700.274 1229.51 696.745H1229.01C1240.11 695.73 1251.21 694.723 1262.31 692.708C1273.69 690.719 1284.97 688.192 1296.11 685.135C1307.21 682.139 1318.15 678.605 1328.91 674.548C1340 670.512 1350.6 665.468 1360.68 660.416C1371.29 655.373 1380.87 649.822 1390.96 643.771C1400.55 637.212 1410.13 630.654 1419.22 623.588C1428.25 616.561 1436.85 608.979 1444.94 600.884C1453.52 593.311 1461.09 584.738 1468.65 576.165C1476.03 567.33 1483.1 558.242 1489.84 548.917C1490.86 547.41 1491.86 545.388 1492.87 543.873C1497.92 535.8 1502.96 527.727 1507.5 519.654C1513.05 509.653 1518.1 499.384 1522.64 488.885C1527.2 478.324 1531.24 467.547 1534.74 456.593C1538.28 445.998 1540.8 434.896 1543.32 423.801C1545.35 412.199 1547.36 401.097 1548.37 389.994C1549.38 378.392 1550.39 366.79 1550.39 355.688C1550.39 347.615 1549.88 339.542 1549.38 331.469C1548.38 319.867 1546.86 308.773 1545.35 297.662C1543.36 286.283 1540.83 275.004 1537.77 263.864C1534.24 253.269 1530.72 242.174 1526.68 231.579C1522.64 220.985 1517.6 210.39 1512.55 200.295C1507 190.207 1501.45 180.12 1495.39 170.532C1488.96 161.078 1482.23 151.824 1475.22 142.784C1467.62 134.081 1459.88 125.502 1452.01 117.051C1447.76 112.722 1443.38 108.518 1438.89 104.441C1416.29 86.8884 1392.89 70.389 1368.76 54.9963C1365.23 52.9742 1362.2 51.4673 1358.67 49.9526C1342.02 39.3578 1326.38 33.8066 1310.75 28.763V28.7552Z" fill="#E0234E"/>
</svg>
