<svg width="62" height="70" viewBox="0 0 62 70" fill="none" xmlns="http://www.w3.org/2000/svg">
<path d="M29.0887 0.443909L1.65748 16.2772C0.631261 16.8687 0 17.9628 0 19.1464V50.8391C0 52.0233 0.631262 53.1168 1.65618 53.7095L29.0874 69.5559C30.113 70.148 31.3768 70.148 32.403 69.5559L59.8401 53.7095C60.8657 53.1168 61.4969 52.0233 61.4969 50.8391V19.1477C61.4969 17.9628 60.8657 16.8687 59.8394 16.2772L32.4017 0.443909C31.8893 0.14753 31.3174 0 30.7449 0C30.173 0 29.6005 0.14753 29.0887 0.443909Z" fill="url(#paint0_linear)"/>
<g opacity="0.660004">
<g opacity="0.660004">
<path opacity="0.660004" d="M59.7007 16.2774L32.385 0.44339C32.1115 0.285408 31.819 0.173126 31.5188 0.0993576L0.643311 52.9171C0.90313 53.2298 1.21648 53.5021 1.57553 53.7097L29.0544 69.556C29.8737 70.0287 30.8216 70.1175 31.6937 69.8354L60.5402 17.0137C60.3143 16.7252 60.0382 16.4719 59.7007 16.2774Z" fill="#0E0F0D"/>
</g>
</g>
<path d="M30.5473 0.00579834C30.0439 0.0371323 29.5465 0.183357 29.0954 0.443832L1.91943 16.1257L31.4416 69.9077C31.7504 69.8346 32.052 69.721 32.3379 69.5558L59.7104 53.7095C60.7346 53.1167 61.236 52.0233 61.236 50.8391V50.715L31.6244 0.126572C31.3274 0.043663 31.0212 0.00187683 30.7157 0.00187683C30.6595 0.00187683 30.6034 0.00318909 30.5473 0.00579834Z" fill="url(#paint1_linear)"/>
<defs>
<linearGradient id="paint0_linear" x1="-0.000463497" y1="34.9999" x2="61.497" y2="34.9999" gradientUnits="userSpaceOnUse">
<stop stop-color="#EAEAEA"/>
<stop offset="0.00530134" stop-color="#444444"/>
<stop offset="0.725388" stop-color="#0E0F0D"/>
<stop offset="1" stop-color="#444444"/>
</linearGradient>
<linearGradient id="paint1_linear" x1="-0.425445" y1="34.9548" x2="63.0135" y2="34.9548" gradientUnits="userSpaceOnUse">
<stop stop-color="#444444"/>
<stop offset="0.274612" stop-color="#0E0F0D"/>
<stop offset="0.994699" stop-color="white"/>
<stop offset="1" stop-color="#C4C4C4"/>
</linearGradient>
</defs>
</svg>
