<svg width="813" height="981" viewBox="0 0 813 981" fill="none" xmlns="http://www.w3.org/2000/svg">
<path fill-rule="evenodd" clip-rule="evenodd" d="M731.215 777.789L290.881 908.022C277.429 912.005 264.536 900.369 267.363 886.801L424.669 133.441C427.611 119.36 447.084 117.123 453.228 130.17L744.491 748.67C749.984 760.337 743.717 774.096 731.215 777.789ZM806.727 747.069L469.485 30.9242V30.9089C465.294 22.0903 458.796 14.57 450.678 9.14543C442.56 3.72089 433.125 0.594309 423.374 0.0972217C402.851 -1.09786 384.465 8.79987 374.093 25.6459L8.33649 618.054C2.77995 627.003 -0.110728 637.35 0.00324471 647.883C0.117217 658.416 3.23112 668.698 8.97999 677.524L187.767 954.477C198.423 971.009 216.886 980.577 236.076 980.577C241.515 980.577 246.985 979.811 252.363 978.218L771.335 824.726C779.147 822.437 786.377 818.498 792.535 813.174C798.694 807.851 803.638 801.267 807.034 793.869C810.385 786.512 812.094 778.515 812.041 770.431C811.988 762.348 810.175 754.373 806.727 747.061V747.069Z" fill="#0C344B"/>
</svg>
