<svg width="995" height="1638" viewBox="0 0 995 1638" fill="none" xmlns="http://www.w3.org/2000/svg">
<path d="M110.695 1563.66C115.318 1567.7 123.984 1576.08 130.051 1581.86C139.006 1590.81 142.184 1594.86 127.74 1595.44C118.206 1595.72 121.384 1587.35 115.318 1573.77C112.14 1566.26 100.873 1555.28 110.695 1563.66ZM98.2731 1562.79C93.362 1570.01 74.2953 1563.08 96.2509 1571.17C111.562 1576.95 113.584 1587.35 106.94 1602.66C103.184 1611.32 103.184 1605.26 95.0953 1592.84C77.1842 1565.68 77.4731 1578.39 81.2287 1554.99C83.5398 1541.41 101.451 1557.88 98.2731 1562.79ZM65.6287 1548.92C82.962 1547.48 75.162 1554.41 63.8953 1562.21C63.8953 1556.44 62.162 1549.21 65.6287 1548.92ZM65.0509 1576.08C67.362 1575.21 115.895 1622.88 75.7398 1602.08C25.1842 1576.08 36.4509 1592.55 13.6286 1600.06C11.8953 1600.64 17.3842 1588.21 27.4953 1584.46C37.3175 1580.41 54.6509 1578.68 65.0509 1576.08ZM23.4509 1597.75C43.0953 1580.99 66.2064 1607.86 93.9398 1614.21C102.606 1616.24 98.562 1620.86 89.6064 1617.1C36.4509 1595.15 40.2064 1588.21 14.2064 1613.92C7.56198 1620.57 17.3842 1602.66 23.4509 1597.75ZM6.40641 1592.55C-1.1047 1599.48 -1.39358 1611.9 2.36198 1620.86C7.27309 1632.99 30.6731 1634.44 41.9398 1634.72C61.0064 1635.3 89.6064 1632.7 108.384 1628.37C117.918 1626.06 126.584 1622.88 132.362 1616.24C138.14 1609.3 141.606 1598.9 145.073 1588.5V1588.21C173.095 1520.9 327.94 1281.99 382.251 1204.57C494.34 1044.52 471.229 1048.28 513.407 1111.84C563.384 1187.24 623.184 1272.46 658.718 1354.5C676.918 1395.81 716.496 1431.06 715.051 1478.44C713.318 1527.84 712.451 1574.64 709.562 1624.04C708.984 1633.57 709.562 1633.57 712.162 1633.57C725.74 1633.57 724.007 1634.15 725.162 1620.28C734.118 1494.61 715.34 1446.08 785.829 1574.64C787.562 1577.81 789.007 1581.28 790.451 1584.46C791.896 1587.64 792.762 1590.81 795.362 1591.97C797.962 1593.41 802.007 1593.41 805.762 1592.26C809.518 1591.39 812.985 1589.95 815.873 1588.5L816.451 1588.21C816.162 1589.66 815.873 1591.68 815.296 1593.99C813.851 1599.48 811.54 1607.57 810.096 1613.64C807.207 1626.92 806.629 1633.57 822.229 1635.88C833.496 1637.61 854.585 1637.9 879.429 1637.61C904.273 1637.32 932.585 1636.17 951.074 1634.44C969.562 1632.7 977.94 1630.1 983.14 1627.21C990.651 1623.17 994.696 1614.5 994.985 1606.12C995.273 1594.28 991.518 1594.57 982.851 1591.1L981.407 1590.52C962.629 1584.17 891.273 1576.66 884.34 1561.35C882.896 1558.46 885.207 1549.21 875.385 1527.84C856.896 1486.52 751.451 1273.9 751.162 1265.52C750.873 1243.86 760.985 1042.21 767.051 1034.99C779.473 1020.55 767.629 1016.21 789.007 1004.08C819.34 986.747 810.096 925.791 788.429 905.28C766.762 884.48 783.807 875.524 786.984 855.88C793.34 819.48 764.74 838.547 757.518 827.569C728.051 784.813 745.384 759.391 704.94 710.569C682.696 683.991 723.718 605.124 679.807 559.769C591.984 469.346 569.451 541.858 589.096 426.88C596.029 385.28 582.74 311.613 526.118 318.835C492.607 323.169 500.118 301.502 461.984 341.369C451.873 352.057 451.295 373.724 448.984 388.169C446.095 406.657 446.384 393.08 433.384 384.413C420.962 376.324 408.829 380.369 401.029 367.08C391.495 350.902 388.607 322.591 382.54 308.724C375.895 293.702 370.118 301.213 364.629 285.902C348.74 241.702 325.34 195.48 314.073 148.102C308.873 126.435 275.073 99.8574 290.384 77.0352C300.207 62.3018 320.429 36.0129 305.407 17.524C271.895 -22.6316 214.984 11.4573 230.584 68.6573C236.073 88.5907 241.562 107.08 240.118 134.524C238.673 162.546 238.095 165.146 246.473 200.68C252.251 224.657 255.429 262.213 258.318 284.457C261.784 309.88 286.629 306.702 299.918 343.102C310.029 371.124 327.94 424.28 332.851 451.724C334.873 462.702 294.429 490.724 287.207 501.124C279.407 512.68 279.984 522.502 275.362 528.569C269.295 536.369 245.318 543.302 251.095 560.058C256.007 574.213 271.029 559.191 269.007 595.013C268.429 605.413 263.807 599.346 253.695 606.28C226.829 624.769 266.118 632.858 266.407 638.924C267.562 678.791 232.318 681.391 227.695 702.48C212.095 773.835 275.073 681.969 298.762 678.791C312.051 676.769 334.584 683.991 336.029 690.924C339.784 708.258 319.851 714.035 328.518 754.769C336.029 790.591 352.207 879.858 333.429 906.147C295.007 959.591 324.762 963.924 308.584 1000.04C278.54 1066.48 250.518 1141.3 228.273 1210.64C216.718 1246.17 183.206 1243.86 180.029 1291.81C177.429 1336.3 151.14 1364.9 131.784 1405.06C109.829 1450.99 76.6064 1466.3 53.2064 1525.24C42.8064 1551.81 71.6953 1545.75 24.3175 1579.26C17.6731 1583.59 11.8953 1587.64 6.40641 1592.55ZM184.94 1495.48C134.962 1589.08 145.362 1588.5 115.895 1559.61C93.362 1537.37 56.3842 1538.81 59.8509 1529.86C65.3398 1515.7 85.8509 1528.12 96.8287 1529.86C110.118 1532.17 67.362 1515.7 68.8064 1511.37C74.0065 1494.61 121.962 1512.24 129.762 1519.17C165.295 1551.52 151.718 1524.95 132.073 1511.08C101.162 1488.84 61.8731 1500.97 88.4509 1475.84C100.006 1465.15 169.918 1450.99 205.74 1413.15C217.007 1401.3 135.829 1454.17 144.784 1444.64C144.784 1444.64 201.118 1393.5 167.895 1418.64C128.606 1448.39 63.3175 1484.79 142.762 1426.44C160.673 1413.44 261.495 1334.57 269.873 1320.12C272.473 1315.5 170.206 1392.06 156.629 1402.46C97.9842 1447.52 187.829 1344.1 186.962 1310.88C186.384 1290.66 197.073 1289.79 211.518 1279.39C218.162 1274.48 212.962 1270.44 199.673 1274.48C173.673 1282.28 203.429 1246.17 227.407 1241.26C240.984 1238.37 335.451 1206.01 274.207 1223.64C190.14 1247.9 246.184 1225.95 270.74 1191.28C289.518 1164.7 237.807 1215.55 238.095 1211.5C238.095 1211.21 307.14 995.124 328.807 993.391C347.007 991.947 375.318 998.88 391.207 1006.97C411.14 1017.37 350.762 1004.66 328.807 1013.9C284.895 1032.1 419.807 1012.46 432.518 1034.99C436.562 1042.21 357.695 1042.21 330.54 1058.97C309.74 1071.97 441.184 1043.08 453.029 1048.86C466.895 1055.79 388.029 1072.55 404.495 1074.57C421.54 1076.59 492.607 1052.32 453.029 1082.37C446.962 1086.99 272.184 1154.01 356.829 1131.77C363.473 1130.04 475.273 1084.39 429.051 1119.92C422.407 1125.12 356.54 1157.77 354.518 1153.72C353.073 1150.84 382.829 1135.52 324.762 1155.46C230.873 1187.52 336.607 1162.97 340.362 1163.26C344.695 1163.55 330.54 1171.35 353.651 1164.41C390.629 1153.15 443.784 1111.26 399.873 1169.9C373.295 1205.72 255.14 1244.44 256.007 1245.3C262.073 1251.66 388.607 1200.24 353.651 1227.68C353.651 1227.68 246.184 1279.39 284.895 1267.55C378.784 1238.95 348.162 1227.97 232.029 1419.5C215.562 1446.66 199.384 1468.04 184.94 1495.48ZM421.251 1013.04C406.229 1011.59 380.518 990.213 327.073 985.591C310.895 984.147 325.629 976.058 342.673 978.947C391.495 987.613 434.251 1014.19 421.251 1013.04ZM426.74 1004.95C367.229 973.458 319.562 973.458 320.14 963.636C324.762 891.124 361.162 960.169 361.451 953.524C362.029 945.147 336.607 918.858 336.607 918.858C350.762 892.569 341.229 882.169 397.273 876.68C431.651 873.213 416.34 876.391 427.318 905.28C440.895 940.524 464.295 957.858 434.251 1001.48C431.073 1005.81 430.784 1006.97 426.74 1004.95ZM518.318 972.013C489.14 954.391 470.073 945.724 447.54 915.102C440.318 905.28 424.718 863.391 444.073 880.436C453.896 889.391 479.029 924.924 491.451 935.324C510.229 950.636 446.673 873.213 455.051 868.302C468.34 860.502 513.407 853.28 532.762 847.791C552.984 842.013 548.94 860.213 561.94 907.591C566.851 925.502 570.029 931.858 556.74 928.391C497.518 914.235 577.54 943.413 577.829 945.436C578.118 947.458 546.34 952.369 556.74 955.258C593.429 965.369 587.073 946.302 567.718 975.191C563.673 980.969 588.229 963.635 597.184 983.28C624.051 1042.21 643.984 1136.1 672.584 1193.59C688.473 1225.95 649.184 1178.57 639.362 1169.61C622.607 1154.3 613.651 1153.72 634.74 1176.84C685.873 1232.88 732.673 1245.59 724.584 1326.19C723.14 1342.08 637.918 1270.72 637.629 1278.52C637.34 1289.21 694.829 1328.5 694.829 1328.5C647.451 1324.46 674.318 1336.59 703.496 1339.48C726.607 1341.79 732.096 1340.35 718.229 1426.15C714.473 1449.55 688.184 1388.59 674.896 1361.72C629.54 1269.28 572.629 1185.5 512.829 1097.39C445.518 998.013 584.762 1138.99 598.051 1148.24C633.296 1173.08 523.229 1066.77 496.651 1052.61C483.94 1045.68 425.584 1021.12 447.54 994.547C455.918 984.147 504.451 1041.92 521.496 1055.79C556.74 1084.1 468.34 992.813 464.873 988.191C458.229 978.947 453.029 947.747 460.829 949.191C464.873 950.058 473.54 958.724 482.784 965.658C502.14 980.102 539.984 990.502 522.362 991.658C512.54 992.236 481.629 988.48 511.673 1005.81C530.74 1016.79 577.829 1019.1 552.984 1012.17C486.54 992.524 563.384 998.88 518.318 972.013ZM570.607 838.547C557.896 827.28 564.54 809.08 575.229 831.035C578.984 839.124 574.362 842.013 570.607 838.547ZM520.34 843.458C469.496 857.324 458.807 869.458 451.007 827.569C448.696 814.569 528.14 794.924 536.518 799.835C544.029 804.458 557.607 826.413 546.918 833.347C542.873 835.947 535.073 839.413 520.34 843.458ZM592.273 771.524C549.807 836.813 544.607 800.124 555.007 792.613C559.34 789.147 618.273 731.369 592.273 771.524ZM603.54 952.08C578.407 889.969 604.407 928.102 622.318 981.258C642.829 1042.5 673.451 1099.7 686.451 1161.81C691.362 1185.5 701.473 1206.01 709.562 1227.1C716.496 1245.3 695.985 1225.95 675.185 1143.61C668.829 1119.06 617.118 985.591 603.54 952.08ZM657.562 1041.06C648.607 1004.66 635.029 974.324 617.696 941.68C609.318 926.08 622.896 919.724 615.673 903.835C578.984 823.524 597.473 874.369 603.54 779.035C604.118 771.235 605.273 692.08 611.918 706.235C635.318 755.635 619.14 785.969 635.896 820.347C646.007 841.724 698.007 929.258 714.473 946.302C730.073 962.769 737.873 963.636 740.762 977.213C745.384 999.458 737.873 975.769 740.185 994.547C742.785 1016.5 753.185 999.747 751.74 1028.06C748.273 1092.19 745.384 1186.37 737.584 1246.46C735.851 1260.04 723.429 1234.32 719.962 1227.97C710.14 1210.35 714.473 1199.95 710.429 1179.44C706.096 1160.08 666.229 1076.59 657.562 1041.06ZM858.629 1559.32C822.807 1576.66 807.496 1613.92 770.518 1529.86C765.029 1517.15 776.873 1513.39 762.718 1515.12C757.807 1515.7 735.562 1481.32 737.873 1441.75C739.318 1415.17 743.94 1428.46 762.429 1462.55C777.451 1489.99 795.362 1528.7 811.251 1551.52C824.829 1570.88 838.118 1574.06 833.785 1567.41C824.251 1553.26 820.207 1553.84 808.94 1531.59C791.607 1497.79 760.407 1445.5 751.162 1405.92C731.229 1322.15 759.54 1309.44 780.051 1391.77C782.651 1402.17 828.585 1544.01 853.718 1522.64C862.673 1515.12 868.162 1533.9 871.918 1541.7C877.407 1552.68 876.54 1550.66 858.629 1559.32ZM855.74 1608.44C853.429 1622.3 812.407 1596.3 831.185 1585.04C834.362 1583.01 862.096 1560.48 855.451 1571.75C851.696 1578.1 845.051 1586.48 838.696 1590.24C825.407 1598.04 837.54 1599.77 849.962 1585.32C860.073 1573.48 859.785 1568.57 868.162 1574.64C901.962 1598.9 899.94 1574.92 889.54 1603.24C875.673 1641.66 886.651 1600.92 886.362 1590.81C886.073 1572.32 868.74 1621.72 867.007 1617.68C862.673 1608.15 875.096 1587.92 874.518 1584.17C873.651 1580.12 859.207 1587.35 855.74 1608.44ZM347.295 797.524C346.14 791.169 332.851 722.991 336.318 727.902C337.473 729.347 340.362 756.791 364.34 780.191C390.34 805.613 344.407 743.502 344.984 722.124C346.429 683.413 354.518 727.613 366.94 739.458C374.451 746.391 390.918 752.458 380.229 738.302C327.073 666.658 372.14 641.813 376.762 571.324C382.54 483.213 372.14 478.013 391.495 497.658C411.718 518.169 459.095 468.769 456.207 494.769C449.851 551.969 396.984 589.813 399.007 602.524C399.007 603.102 436.851 622.458 442.918 627.369C465.74 646.147 453.318 631.124 472.673 631.124C480.762 631.124 484.229 591.835 487.407 641.524C488.273 656.546 487.696 653.946 478.451 659.724C472.962 663.191 486.829 664.346 494.629 669.835C505.029 677.346 499.251 688.902 457.651 669.547C448.407 665.213 440.029 660.013 434.829 657.991C422.984 652.791 431.94 664.924 446.673 672.724C465.162 682.546 516.296 694.102 500.407 694.102C440.318 694.68 392.651 686.88 493.184 701.613C520.918 705.658 463.718 707.391 467.762 712.013C469.784 714.035 505.029 719.813 498.095 719.813C459.095 720.391 534.496 732.524 518.896 758.813C516.584 762.858 441.473 730.502 471.807 746.969C476.718 749.569 552.118 787.991 507.918 776.435C470.362 766.613 409.118 728.191 478.74 771.813C496.651 783.08 424.429 755.635 416.34 750.724C392.073 735.991 399.007 753.035 426.74 766.035C447.54 775.858 578.118 796.947 507.34 797.524C486.251 797.524 447.54 777.013 423.851 778.169C403.051 779.035 486.54 796.947 484.229 800.413C482.496 803.302 398.429 826.413 392.651 827.569C334.295 836.235 355.962 840.858 347.295 797.524ZM545.473 753.613C527.851 765.169 520.918 742.635 547.207 727.902C559.629 720.969 621.451 669.835 595.74 714.324C588.229 727.324 558.184 745.524 545.473 753.613ZM527.562 716.347C531.318 728.769 526.118 728.191 523.229 724.147C511.096 707.68 519.762 690.058 527.562 716.347ZM581.873 666.08C494.629 718.369 509.073 672.147 519.184 667.524C560.496 648.169 588.807 625.924 598.34 641.524C603.54 650.191 595.74 657.702 581.873 666.08ZM407.962 866.569C396.984 868.88 362.029 875.524 351.918 873.213C351.918 873.213 331.118 844.035 368.095 840.569C430.784 834.502 393.807 848.08 400.162 855.88C402.473 858.769 407.673 849.813 410.273 857.324C413.162 866.858 411.14 865.991 407.962 866.569ZM431.651 869.458C416.051 875.235 407.095 834.502 411.429 829.013C417.784 820.635 440.318 818.035 445.518 827.858C459.096 855.302 457.362 860.213 431.651 869.458ZM503.007 655.969C499.54 645.28 506.762 625.347 511.962 651.924C514.562 666.08 505.607 664.346 503.007 655.969ZM577.829 601.369C571.473 609.746 492.318 647.302 497.807 617.258C498.962 611.769 555.873 591.546 564.54 586.635C579.562 578.258 581.584 596.458 577.829 601.369ZM551.251 784.235C550.384 786.258 547.784 786.835 544.896 784.235C518.029 759.68 558.473 764.013 551.251 784.235ZM561.94 771.813C533.918 767.769 580.718 739.747 585.918 735.991C614.229 714.902 579.851 774.413 561.94 771.813ZM596.896 667.813C615.962 655.969 609.029 681.102 552.118 714.035C544.318 718.658 542.296 719.235 539.984 716.058C522.362 692.369 566.851 686.591 596.896 667.813ZM632.718 732.235C697.14 780.769 604.984 708.835 613.073 669.258C627.518 598.769 628.096 640.369 639.362 627.946C666.807 597.902 637.051 623.324 626.362 614.08C609.318 599.635 617.984 685.147 607.296 628.524C605.562 618.702 592.851 586.924 588.229 575.369C567.429 521.346 600.651 553.991 647.162 570.458C660.451 575.08 627.518 554.569 627.229 554.28C619.718 549.08 656.984 565.546 664.784 561.502C664.784 561.502 609.607 549.369 623.473 537.235C633.873 528.28 634.74 527.413 646.007 537.813C700.318 586.924 693.962 598.48 692.518 668.68C692.229 675.324 691.94 672.724 690.207 664.635C674.318 599.346 652.073 587.213 661.318 613.502C702.34 731.369 694.251 671.858 636.473 643.547C622.607 636.902 680.096 687.169 682.696 689.769C694.829 701.613 689.34 705.08 668.251 686.88C658.718 678.791 646.584 666.946 638.496 660.302C604.407 631.413 657.273 688.035 675.185 700.458C693.962 714.035 698.873 709.991 708.984 726.169C743.073 780.48 714.473 761.702 708.407 768.635C706.673 770.658 731.229 779.324 731.229 779.324C733.54 788.569 729.207 800.991 735.273 811.391C745.096 828.724 759.251 832.191 750.296 837.391C728.051 849.813 769.651 878.124 742.785 886.213C714.473 894.88 745.962 879.858 744.229 879.858C738.74 879.569 725.162 885.924 721.984 885.058C720.829 884.769 724.584 863.68 702.918 900.369C688.762 924.636 726.318 878.702 721.984 892.569C721.118 895.169 714.473 902.68 711.296 915.391C707.829 929.835 710.14 935.036 702.34 922.036C653.807 841.147 674.318 867.435 711.584 853.28C726.896 847.502 735.851 835.369 729.785 833.635C726.607 832.769 648.607 865.991 695.696 825.258C710.718 811.969 685.584 824.102 682.118 820.635C680.384 818.902 700.029 797.813 697.14 792.902C691.94 784.235 672.007 813.124 680.384 781.347C689.918 744.947 668.829 767.48 671.14 804.747C672.007 819.191 672.873 822.369 671.429 841.724C668.54 878.991 644.562 818.035 640.518 803.013C636.184 788.28 631.562 731.369 632.718 732.235ZM497.807 603.102C490.007 607.724 491.451 572.191 501.851 581.146C507.918 586.058 504.74 598.769 497.807 603.102ZM509.073 571.902C501.273 567.569 501.273 560.635 507.629 555.435C510.518 553.124 510.518 561.502 525.54 563.235C553.851 566.702 563.384 528.858 568.296 556.88C569.162 562.08 516.296 575.946 509.073 571.902ZM441.473 573.924C443.495 643.258 444.073 601.946 412.296 599.924C399.584 599.058 433.384 568.435 436.851 566.124C441.473 562.658 441.184 565.835 441.473 573.924ZM459.384 519.902C462.851 503.724 462.851 493.902 467.762 512.68C480.184 560.058 506.184 512.102 474.984 606.28C472.673 613.213 457.651 636.902 453.607 625.635C440.607 590.969 451.873 555.435 459.384 519.902ZM434.251 440.458C435.118 439.302 481.918 476.858 431.94 487.258C412.584 491.591 429.051 447.102 434.251 440.458ZM485.095 504.88C466.029 484.369 471.518 490.724 461.118 467.324C456.784 457.502 450.718 455.48 445.229 442.769C431.362 410.124 450.429 412.146 456.495 440.458C459.962 456.635 444.651 413.88 444.94 427.457C445.229 446.235 467.184 473.68 472.962 442.48C473.829 438.146 477.295 444.502 480.762 432.08C494.051 382.68 472.962 404.924 510.518 416.191C561.651 431.502 559.34 375.169 569.74 391.346C574.94 399.435 590.251 455.191 572.051 460.391C556.451 465.013 599.207 433.235 554.429 460.68C544.318 466.746 543.162 463.28 542.296 470.213C542.296 470.502 540.273 494.48 542.584 486.391C548.651 466.746 555.873 478.013 571.762 466.458C597.184 447.68 563.096 519.902 562.807 519.613C561.362 518.169 543.451 491.88 541.718 494.48C541.429 494.769 546.051 525.391 525.54 508.346C516.584 500.835 525.829 493.902 524.962 493.613C524.962 493.035 524.096 489.28 524.096 486.391C524.962 460.391 544.029 476.858 505.029 461.258C467.473 446.235 502.718 467.902 502.14 467.902C496.073 468.191 486.54 460.969 486.54 464.724C486.829 486.102 521.784 467.324 521.207 481.769C520.918 485.235 506.762 477.435 521.496 494.769C500.118 504.88 530.74 506.613 507.629 513.546C494.34 517.591 515.14 540.702 523.807 543.013C547.495 549.08 550.962 516.146 558.184 525.391C562.807 531.169 539.984 566.702 516.296 553.413C444.362 512.969 489.429 509.502 485.095 504.88ZM273.918 683.702C260.918 694.102 232.895 735.991 239.251 702.48C245.029 671.858 375.895 621.302 285.762 648.458C268.14 653.658 278.54 644.413 271.029 633.147C265.829 625.058 249.94 623.035 255.718 616.68C263.807 607.724 274.207 613.502 275.073 580.569C275.651 558.035 246.762 561.213 263.807 544.746C319.562 490.435 272.184 496.791 337.184 481.48C362.318 475.702 364.051 445.946 360.007 488.124C358.851 519.324 360.584 543.88 360.584 571.613C360.295 597.035 338.918 635.169 341.807 638.058C349.607 645.569 358.273 607.435 340.073 673.013C333.718 695.835 317.251 649.324 273.918 683.702ZM382.54 467.324C333.718 457.213 383.695 416.191 399.873 416.48C402.473 416.48 391.495 469.058 382.54 467.324ZM340.362 472.235C340.073 472.813 317.54 488.413 336.895 459.235C340.073 454.324 350.184 462.702 347.007 453.458C344.118 445.658 359.14 429.769 370.984 420.813C406.518 394.524 355.384 440.458 353.94 442.48C351.629 447.68 357.695 457.791 351.629 462.413C349.607 464.146 340.94 462.413 339.784 465.88C339.207 467.902 341.229 470.213 340.362 472.235ZM344.984 411.569C344.695 390.48 349.029 360.146 351.629 342.524C353.073 334.146 340.651 346.569 337.184 368.813C334.007 390.191 340.651 446.235 333.14 424.569C327.362 407.235 312.051 238.524 312.34 319.702C312.629 390.48 307.718 333.28 291.54 298.902C273.629 260.769 279.407 313.924 271.029 291.969C268.14 284.746 248.495 209.635 259.473 206.169C329.095 184.213 319.273 194.902 330.251 221.191C372.14 322.88 334.007 273.48 335.162 318.546C335.162 319.413 348.451 285.324 370.695 308.146C376.762 314.502 365.495 315.657 357.984 319.991C352.207 323.169 368.673 320.569 372.14 321.146C377.918 322.302 357.984 335.302 353.362 365.057C351.051 380.369 372.429 337.035 378.207 332.124C384.851 326.924 378.495 344.257 391.784 365.924C406.807 390.191 414.607 374.591 379.94 389.324C374.74 391.635 372.429 396.546 372.429 395.68C371.562 393.369 389.184 351.191 380.518 358.413C372.429 364.48 345.562 478.88 344.984 411.569ZM877.407 1571.75C877.118 1569.15 882.607 1567.12 883.185 1570.3C883.762 1574.06 877.696 1574.35 877.407 1571.75ZM401.318 495.346C376.184 485.235 412.584 408.391 418.073 424.28C418.362 424.857 414.607 434.391 419.229 435.546C422.695 436.124 427.029 424.28 427.896 432.946C430.496 455.48 412.584 442.48 411.718 443.057C405.94 446.813 420.095 449.124 417.495 456.924C414.318 467.324 416.629 461.835 410.562 456.346C406.807 452.88 401.607 460.391 406.807 462.413C416.34 466.458 403.629 463.28 403.629 469.346C404.207 488.991 418.362 444.502 414.029 484.08C413.162 490.435 405.94 475.991 403.34 478.591C393.229 488.991 424.429 488.413 408.251 494.769C405.94 495.635 403.629 496.213 401.318 495.346ZM728.918 925.791C719.096 977.502 724.873 930.413 720.829 927.235C720.54 926.947 715.918 946.88 713.896 936.48C709.851 918.28 734.984 893.147 728.918 925.791ZM751.451 905.28C750.296 908.169 743.073 914.524 738.74 911.058C719.673 895.458 748.273 898.635 746.251 896.035C738.451 886.213 758.096 890.258 751.451 905.28ZM738.74 955.547C745.096 939.08 751.162 987.036 739.029 961.036C738.162 959.302 738.162 957.569 738.74 955.547ZM103.762 1617.68C103.762 1617.68 114.162 1587.92 116.473 1600.06C119.362 1615.08 107.518 1627.79 103.762 1617.68ZM21.4287 1615.37C35.0064 1592.55 69.0953 1608.44 85.8509 1619.99C86.7176 1620.28 17.0953 1622.3 21.4287 1615.37ZM52.6286 1567.99C58.4064 1568.28 47.4287 1572.61 43.3842 1576.95C44.2509 1573.19 45.6953 1567.7 52.6286 1567.99ZM825.118 1472.08C809.807 1448.97 781.496 1351.9 784.385 1353.64C788.718 1356.52 812.118 1439.44 844.185 1482.77C847.651 1487.39 861.229 1507.61 856.607 1510.21C854.585 1511.37 828.873 1477.57 825.118 1472.08ZM901.096 1605.84C901.962 1583.59 902.829 1582.72 926.518 1587.92C944.429 1591.97 989.207 1602.66 938.94 1596.3C893.585 1590.24 933.74 1597.75 926.229 1601.79C922.762 1603.52 900.807 1615.66 901.096 1605.84ZM892.718 1580.7C887.518 1579.26 885.496 1574.35 890.118 1575.5C895.607 1577.52 897.918 1582.44 892.718 1580.7ZM748.273 1307.41C738.451 1272.75 769.073 1336.59 757.518 1325.32C753.185 1320.99 750.007 1314.06 748.273 1307.41ZM776.296 1003.79C770.518 985.013 823.673 979.236 779.185 1004.08C777.162 1005.24 776.585 1005.24 776.296 1003.79ZM778.029 988.48C777.162 980.68 814.718 941.102 799.407 974.613C797.673 978.369 778.607 993.68 778.029 988.48ZM575.807 630.835C560.207 638.635 520.918 668.68 519.184 639.791C518.896 636.035 580.718 610.035 584.184 615.235C590.54 625.058 588.807 624.48 575.807 630.835ZM557.607 581.724C549.807 586.346 522.94 599.346 515.718 590.391C508.784 582.013 511.962 581.435 521.496 580.28C531.896 579.413 604.118 553.991 557.607 581.724ZM581.584 588.658C577.251 574.502 558.184 533.191 581.007 535.502C594.007 536.946 608.74 545.613 605.273 545.035C590.251 542.724 570.318 528.858 578.407 554.569C581.296 563.813 621.74 686.302 592.562 618.991C588.518 610.324 585.34 601.658 581.584 588.658ZM612.496 537.235C611.629 537.813 574.651 533.769 581.584 527.124C594.873 514.702 583.607 500.546 583.607 500.835C608.451 515.569 638.207 517.013 612.496 537.235ZM434.251 422.546C431.651 423.124 417.495 402.613 382.829 408.969C364.918 412.146 387.451 391.346 395.54 391.057C410.562 390.48 427.029 380.657 439.451 395.969C449.273 408.391 440.607 420.813 434.251 422.546ZM315.518 181.902C314.94 186.235 258.607 200.391 255.14 200.102C236.651 198.946 317.829 167.746 315.518 181.902ZM283.162 179.013C259.473 184.502 250.518 198.946 246.762 170.635C245.029 158.213 306.273 138.28 308.584 152.435C314.073 184.791 316.962 171.213 283.162 179.013ZM303.962 137.991C304.829 139.724 254.851 155.902 249.362 157.057C217.873 163.991 295.584 124.124 303.962 137.991ZM293.273 123.257C295.295 128.746 251.095 145.502 248.207 141.746C238.095 129.902 287.495 105.635 293.273 123.257ZM284.029 111.413C239.251 115.746 237.229 146.369 247.34 89.7463C248.784 81.0796 271.607 60.5685 242.429 79.6351C237.807 82.524 236.94 62.0129 237.229 59.124C237.807 52.1907 242.718 64.0351 249.073 60.8574C252.251 59.4129 252.251 55.0796 252.829 55.0796C262.94 53.924 266.695 46.7018 267.851 46.7018C278.54 47.5685 303.095 32.8351 282.295 23.0129C268.429 16.6573 269.584 0.768424 297.029 18.6795C306.273 24.7462 312.629 51.6129 285.184 73.2796C249.651 101.302 266.984 70.9685 286.34 107.368C288.651 110.257 288.362 111.124 284.029 111.413ZM240.407 35.4351C241.851 39.7684 252.829 64.9018 240.118 52.7685C230.584 43.8129 235.784 21.2795 240.407 35.4351ZM251.384 47.2796C244.74 37.1685 239.54 27.0574 250.229 17.8129C257.74 11.4574 262.94 65.1907 251.384 47.2796ZM867.007 1565.39C864.118 1563.08 870.762 1558.17 874.807 1559.9C877.985 1561.06 871.34 1568.86 867.007 1565.39ZM822.807 1623.17C816.74 1598.32 834.94 1610.17 848.229 1617.68C878.562 1635.3 825.407 1633.86 822.807 1623.17ZM923.918 1629.81C864.118 1627.79 962.629 1626.64 901.962 1620.86C886.362 1619.41 1015.21 1583.88 978.229 1613.92C971.873 1618.84 903.407 1628.08 956.851 1623.75C997.007 1620.57 931.429 1630.1 923.918 1629.81ZM750.873 1002.64C750.007 1002.35 745.096 995.413 746.829 994.547C755.207 990.213 754.051 1003.79 750.873 1002.64ZM794.207 935.036C819.051 965.08 752.896 981.258 748.562 957.28C747.407 948.902 777.162 964.502 784.385 941.102C786.696 934.169 775.429 912.213 794.207 935.036ZM579.273 515.569C578.118 524.813 548.362 564.969 571.762 518.458C575.229 511.524 580.429 504.591 579.273 515.569ZM275.073 35.724C269.584 25.0351 282.007 21.8573 283.451 29.9462C285.184 39.4796 277.962 41.2129 275.073 35.724ZM265.251 41.5018C259.184 34.5685 253.695 14.924 263.518 8.85733C272.473 3.36844 271.318 48.1462 265.251 41.5018ZM758.385 860.502C745.384 850.969 766.473 835.947 759.829 846.635C756.651 851.547 765.029 865.702 758.385 860.502ZM766.762 880.147C747.984 883.035 764.162 873.502 771.962 874.369C773.985 874.947 773.984 878.991 766.762 880.147ZM588.229 902.102C551.54 835.369 599.207 823.235 594.296 904.991C593.718 910.48 592.851 910.769 588.229 902.102ZM582.162 817.747C564.251 840.28 592.851 773.835 595.74 785.68C597.762 794.347 587.073 811.391 582.162 817.747ZM750.873 984.436C746.54 983.569 740.473 972.591 745.096 973.169C751.74 973.458 755.207 985.302 750.873 984.436ZM748.851 943.413C747.985 948.324 740.473 935.035 739.896 934.169C734.407 924.347 754.918 913.947 748.851 943.413ZM502.718 549.08C503.296 549.946 489.429 585.48 490.873 568.146C492.607 552.835 501.273 546.769 502.718 549.08ZM543.451 530.591C538.829 536.946 531.607 540.991 524.096 537.813C519.762 536.08 514.562 526.546 520.918 529.435C536.807 536.658 548.651 523.946 543.451 530.591Z" fill="black"/>
</svg>
