<svg width="800" height="1317" viewBox="0 0 800 1317" fill="none" xmlns="http://www.w3.org/2000/svg">
<path d="M623.693 721.258L609.06 714.057L583.51 721.258L570.503 743.788V751.221L532.178 692.92L508.254 646.001L504.073 588.166L490.369 560.061L483.633 552.396L479.684 627.652L472.716 665.745L467.838 674.803L453.205 677.823L438.34 651.111L420.455 609.07L411.628 582.126L402.802 541.246L396.298 511.748L391.653 485.269L399.318 462.971L404.196 441.602L417.435 449.963L436.249 447.408L446.934 439.511L463.657 402.812H475.503L487.117 410.012L519.403 432.543L540.772 447.408L551.224 460.648L556.334 485.269L560.283 516.161L557.728 560.061L580.258 593.74L588.62 624.632L605.344 665.745L619.28 680.145L620.674 703.14L623.693 721.258Z" fill="#F3E200"/>
<path d="M184.929 577.481C184.929 577.481 178.193 569.119 200.956 552.396C223.951 535.672 220.467 518.948 220.467 518.948L205.834 500.366C205.834 500.366 201.885 495.489 210.711 487.824C219.538 480.159 222.789 463.435 220.699 460.416C218.609 457.396 205.834 443.81 205.834 443.81C205.834 443.81 228.596 419.768 230.222 417.445C231.151 416.052 235.332 403.741 241.139 397.237C245.784 391.895 252.056 392.128 252.056 392.128L264.599 375.868L278.303 357.751L247.643 294.108L236.029 264.842L210.944 238.131V221.175L193.523 127.104L196.543 104.342L230.454 86.4568C230.454 86.4568 291.774 220.943 286.664 223.73C281.554 226.517 313.144 266.468 313.144 266.468L322.667 295.27L342.642 311.529L360.527 321.052L352.398 351.015L370.979 375.868L360.063 390.037L340.087 395.379L321.97 401.418L315.698 392.128L302.459 386.321L299.904 422.323L278.303 548.215C278.303 548.215 249.733 542.64 235.564 544.963C230.454 545.66 201.188 576.552 195.381 577.713C171.922 582.126 187.716 566.332 184.929 577.481Z" fill="#F3E200"/>
<path d="M184.017 573.441C184.274 569.422 187.329 562.407 200.956 552.396C223.951 535.672 220.467 518.948 220.467 518.948L205.834 500.366C205.834 500.366 201.885 495.489 210.711 487.824C219.538 480.159 222.789 463.435 220.699 460.416C218.609 457.396 205.834 443.81 205.834 443.81C205.834 443.81 228.596 419.768 230.222 417.445C231.151 416.052 235.332 403.741 241.139 397.237C245.784 391.895 291.502 375.868 291.502 375.868L299.904 422.323L278.303 548.215C278.303 548.215 249.733 542.64 235.564 544.963C230.454 545.66 201.188 576.552 195.381 577.713C178.874 580.819 181.802 573.919 184.017 573.441Z" fill="black"/>
<path d="M89.0013 1257.34C92.7176 1260.59 99.6858 1267.33 104.564 1271.98C111.764 1279.18 114.319 1282.43 102.705 1282.89C95.0404 1283.12 97.5953 1276.39 92.7176 1265.47C90.1626 1259.43 81.104 1250.61 89.0013 1257.34ZM79.0136 1256.65C75.0649 1262.45 59.7349 1256.88 77.3877 1263.38C89.6981 1268.03 91.324 1276.39 85.9817 1288.7C82.9622 1295.67 82.9622 1290.79 76.4585 1280.8C62.0576 1258.97 62.2899 1269.19 65.3095 1250.37C67.1677 1239.46 81.5686 1252.7 79.0136 1256.65ZM52.7668 1245.5C66.7031 1244.34 60.4318 1249.91 51.3731 1256.18C51.3731 1251.54 49.9795 1245.73 52.7668 1245.5ZM52.3022 1267.33C54.1604 1266.63 93.1822 1304.96 60.8963 1288.23C20.2486 1267.33 29.3072 1280.57 10.9577 1286.61C9.56406 1287.07 13.9772 1277.09 22.1068 1274.07C30.0041 1270.81 43.9404 1269.42 52.3022 1267.33ZM18.855 1284.75C34.6495 1271.28 53.2313 1292.88 75.5295 1297.99C82.4976 1299.62 79.2458 1303.33 72.0454 1300.31C29.3072 1282.66 32.3268 1277.09 11.4223 1297.76C6.07998 1303.1 13.9772 1288.7 18.855 1284.75ZM5.15088 1280.57C-0.888204 1286.14 -1.12046 1296.13 1.89908 1303.33C5.84771 1313.09 24.6618 1314.25 33.7204 1314.48C49.0504 1314.95 72.0454 1312.86 87.1431 1309.37C94.8081 1307.51 101.776 1304.96 106.422 1299.62C111.067 1294.04 113.854 1285.68 116.642 1277.32V1277.09C139.172 1222.97 263.67 1030.88 307.337 968.628C397.459 839.949 378.877 842.968 412.789 894.068C452.972 954.691 501.053 1023.21 529.622 1089.18C544.255 1122.39 576.077 1150.73 574.915 1188.82C573.522 1228.54 572.825 1266.17 570.502 1305.89C570.038 1313.55 570.502 1313.55 572.593 1313.55C583.51 1313.55 582.116 1314.02 583.045 1302.87C590.245 1201.83 575.148 1162.81 631.822 1266.17C633.216 1268.72 634.377 1271.51 635.539 1274.07C636.7 1276.62 637.397 1279.18 639.487 1280.11C641.578 1281.27 644.829 1281.27 647.849 1280.34C650.869 1279.64 653.656 1278.48 655.979 1277.32L656.443 1277.09C656.211 1278.25 655.979 1279.87 655.514 1281.73C654.353 1286.14 652.494 1292.65 651.333 1297.53C649.01 1308.21 648.546 1313.55 661.089 1315.41C670.147 1316.8 687.103 1317.04 707.079 1316.8C727.054 1316.57 749.817 1315.64 764.682 1314.25C779.548 1312.86 786.283 1310.77 790.464 1308.44C796.503 1305.19 799.755 1298.22 799.988 1291.49C800.22 1281.96 797.2 1282.2 790.232 1279.41L789.071 1278.94C773.973 1273.83 716.602 1267.79 711.027 1255.48C709.866 1253.16 711.724 1245.73 703.827 1228.54C688.961 1195.33 604.182 1024.37 603.95 1017.64C603.717 1000.22 611.847 838.091 616.725 832.284C626.712 820.67 617.189 817.186 634.377 807.431C658.766 793.494 651.333 744.485 633.913 727.993C616.492 711.27 630.196 704.069 632.751 688.275C637.861 659.008 614.866 674.338 609.06 665.512C585.368 631.136 599.304 610.696 566.786 571.442C548.901 550.073 581.884 486.662 546.578 450.195C475.967 377.494 457.85 435.795 473.645 343.35C479.219 309.903 468.535 250.673 423.009 256.48C396.066 259.964 402.105 242.544 371.445 274.597C363.315 283.191 362.851 300.612 360.992 312.225C358.67 327.091 358.902 316.174 348.45 309.206C338.462 302.702 328.707 305.954 322.435 295.27C314.77 282.262 312.447 259.5 307.57 248.351C302.227 236.272 297.582 242.311 293.169 230.001C280.394 194.463 261.58 157.3 252.521 119.207C248.34 101.787 221.164 80.4175 233.475 62.068C241.372 50.2221 257.631 29.0853 245.553 14.2198C218.609 -18.0661 172.852 9.3421 185.394 55.3321C189.808 71.3589 194.221 86.2243 193.059 108.29C191.898 130.821 191.433 132.911 198.169 161.481C202.815 180.759 205.37 210.955 207.693 228.84C210.48 249.28 230.455 246.725 241.14 275.991C249.269 298.521 263.67 341.26 267.619 363.325C269.245 372.152 236.727 394.682 230.92 403.044C224.648 412.335 225.113 420.232 221.397 425.11C216.519 431.381 197.24 436.956 201.886 450.428C205.834 461.809 217.913 449.731 216.287 478.533C215.822 486.894 212.106 482.017 203.976 487.591C182.375 502.457 213.964 508.96 214.196 513.838C215.125 545.892 186.788 547.982 183.072 564.938C170.529 622.309 221.164 548.447 240.211 545.892C250.895 544.266 269.013 550.073 270.174 555.647C273.193 569.584 257.167 574.229 264.135 606.979C270.174 635.781 283.181 707.553 268.083 728.69C237.191 771.661 261.115 775.145 248.108 804.179C223.952 857.601 201.421 917.76 183.536 973.505C174.245 1002.08 147.302 1000.22 144.747 1038.77C142.656 1074.54 121.519 1097.54 105.957 1129.82C88.3045 1166.76 61.5931 1179.07 42.779 1226.45C34.4172 1247.82 57.6445 1242.94 19.5518 1269.89C14.2095 1273.37 9.56406 1276.62 5.15088 1280.57ZM148.695 1202.53C108.512 1277.78 116.874 1277.32 93.1822 1254.09C75.0649 1236.21 45.334 1237.37 48.1213 1230.17C52.5345 1218.79 69.0258 1228.77 77.8522 1230.17C88.5367 1232.02 54.1604 1218.79 55.3218 1215.3C59.5027 1201.83 98.0599 1216 104.331 1221.57C132.901 1247.59 121.984 1226.22 106.189 1215.07C81.3363 1197.18 49.7472 1206.94 71.1163 1186.73C80.4072 1178.14 136.617 1166.76 165.419 1136.33C174.478 1126.81 109.209 1169.31 116.409 1161.65C116.409 1161.65 161.703 1120.53 134.991 1140.74C103.402 1164.67 50.9086 1193.93 114.784 1147.01C129.184 1136.56 210.248 1073.15 216.983 1061.54C219.074 1057.82 136.849 1119.37 125.933 1127.73C78.7813 1163.97 151.018 1080.82 150.321 1054.1C149.857 1037.85 158.451 1037.15 170.064 1028.79C175.407 1024.84 171.226 1021.59 160.541 1024.84C139.637 1031.11 163.561 1002.07 182.839 998.126C193.756 995.804 269.709 969.789 220.468 983.958C152.876 1003.47 197.937 985.816 217.68 957.943C232.778 936.574 191.201 977.454 191.433 974.202C191.433 973.97 246.947 800.23 264.367 798.836C279 797.675 301.763 803.25 314.538 809.753C330.565 818.115 282.02 807.895 264.367 815.328C229.062 829.961 337.533 814.167 347.753 832.284C351.005 838.091 287.594 838.091 265.761 851.562C249.037 862.015 354.721 838.787 364.244 843.433C375.393 849.007 311.983 862.479 325.222 864.105C338.927 865.731 396.066 846.22 364.244 870.376C359.367 874.093 218.842 927.98 286.898 910.095C292.24 908.701 382.129 872.002 344.966 900.572C339.623 904.753 286.665 931 285.039 927.748C283.878 925.425 307.802 913.115 261.115 929.141C185.627 954.924 270.638 935.18 273.658 935.413C277.142 935.645 265.761 941.916 284.342 936.342C314.073 927.283 356.812 893.604 321.506 940.755C300.137 969.557 205.138 1000.68 205.834 1001.38C210.712 1006.49 312.447 965.144 284.342 987.21C284.342 987.21 197.937 1028.79 229.062 1019.26C304.55 996.268 279.929 987.442 186.556 1141.44C173.316 1163.27 160.309 1180.46 148.695 1202.53ZM338.694 814.631C326.616 813.47 305.944 796.282 262.973 792.565C249.966 791.404 261.812 784.9 275.516 787.223C314.77 794.191 349.147 815.56 338.694 814.631ZM343.107 808.127C295.259 782.81 256.934 782.81 257.399 774.912C261.115 716.612 290.382 772.125 290.614 766.783C291.078 760.047 270.638 738.91 270.638 738.91C282.02 717.773 274.355 709.412 319.416 704.998C347.056 702.211 334.746 704.766 343.572 727.993C354.489 756.331 373.303 770.267 349.147 805.34C346.592 808.824 346.359 809.753 343.107 808.127ZM416.738 781.648C393.278 767.48 377.948 760.512 359.831 735.891C354.024 727.993 341.482 694.314 357.044 708.018C364.941 715.218 385.149 743.788 395.137 752.15C410.234 764.46 359.134 702.211 365.87 698.263C376.555 691.991 412.789 686.184 428.351 681.771C444.611 677.126 441.359 691.759 451.811 729.852C455.76 744.252 458.315 749.362 447.63 746.575C400.014 735.194 464.354 758.653 464.586 760.279C464.818 761.905 439.268 765.854 447.63 768.177C477.129 776.306 472.019 760.976 456.456 784.203C453.205 788.849 472.948 774.912 480.148 790.707C501.75 838.091 517.776 913.579 540.771 959.801C553.546 985.816 521.957 947.723 514.06 940.523C500.588 928.212 493.388 927.748 510.344 946.33C551.456 991.39 589.084 1001.61 582.58 1066.41C581.419 1079.19 512.899 1021.82 512.666 1028.09C512.434 1036.68 558.656 1068.27 558.656 1068.27C520.564 1065.02 542.165 1074.78 565.625 1077.1C584.206 1078.96 588.62 1077.8 577.47 1146.78C574.451 1165.59 553.314 1116.59 542.63 1094.98C506.163 1020.66 460.405 953.298 412.325 882.455C358.205 802.553 470.161 915.902 480.845 923.335C509.182 943.31 420.686 857.834 399.317 846.452C389.097 840.878 342.178 821.135 359.831 799.766C366.567 791.404 405.589 837.858 419.293 849.007C447.63 871.77 376.555 798.372 373.767 794.656C368.425 787.223 364.244 762.137 370.516 763.299C373.767 763.996 380.736 770.964 388.168 776.538C403.731 788.152 434.158 796.514 419.99 797.443C412.092 797.907 387.239 794.888 411.396 808.824C426.726 817.651 464.586 819.509 444.611 813.934C391.188 798.14 452.972 803.25 416.738 781.648ZM458.779 674.338C448.559 665.28 453.901 650.647 462.496 668.299C465.515 674.803 461.799 677.126 458.779 674.338ZM418.364 678.287C377.484 689.436 368.89 699.192 362.618 665.512C360.76 655.06 424.635 639.265 431.371 643.214C437.41 646.93 448.327 664.583 439.733 670.158C436.481 672.248 430.21 675.035 418.364 678.287ZM476.2 620.451C442.056 672.945 437.875 643.446 446.236 637.407C449.721 634.62 497.104 588.165 476.2 620.451ZM485.258 765.622C465.051 715.683 485.955 746.343 500.356 789.081C516.847 838.323 541.468 884.313 551.921 934.251C555.869 953.298 563.999 969.789 570.502 986.745C576.077 1001.38 559.586 985.816 542.862 919.618C537.752 899.875 496.175 792.565 485.258 765.622ZM528.693 837.161C521.493 807.895 510.576 783.507 496.64 757.26C489.904 744.717 500.821 739.607 495.014 726.832C465.515 662.26 480.381 703.14 485.258 626.49C485.723 620.219 486.652 556.576 491.994 567.958C510.808 607.676 497.801 632.065 511.273 659.705C519.402 676.893 561.211 747.272 574.451 760.976C586.994 774.216 593.265 774.912 595.588 785.829C599.304 803.714 593.265 784.668 595.123 799.766C597.214 817.418 605.575 803.946 604.414 826.709C601.627 878.274 599.304 953.995 593.033 1002.31C591.639 1013.22 581.651 992.552 578.864 987.442C570.967 973.273 574.451 964.911 571.199 948.42C567.715 932.858 535.661 865.731 528.693 837.161ZM690.355 1253.86C661.553 1267.79 649.243 1297.76 619.512 1230.17C615.099 1219.95 624.622 1216.93 613.24 1218.32C609.292 1218.79 591.407 1191.14 593.265 1159.32C594.426 1137.95 598.143 1148.64 613.008 1176.05C625.086 1198.11 639.487 1229.24 652.262 1247.59C663.179 1263.15 673.864 1265.7 670.38 1260.36C662.715 1248.98 659.463 1249.45 650.404 1231.56C636.468 1204.38 611.382 1162.34 603.95 1130.52C587.923 1063.16 610.685 1052.94 627.177 1119.14C629.267 1127.5 666.199 1241.55 686.406 1224.36C693.607 1218.32 698.02 1233.42 701.039 1239.69C705.453 1248.52 704.756 1246.89 690.355 1253.86ZM688.032 1293.34C686.174 1304.49 653.191 1283.59 668.289 1274.53C670.844 1272.9 693.142 1254.79 687.8 1263.85C684.78 1268.96 679.438 1275.69 674.328 1278.71C663.644 1284.98 673.399 1286.38 683.387 1274.76C691.516 1265.24 691.284 1261.29 698.02 1266.17C725.196 1285.68 723.57 1266.4 715.208 1289.16C704.059 1320.06 712.885 1287.31 712.653 1279.18C712.421 1264.31 698.484 1304.03 697.091 1300.78C693.607 1293.11 703.594 1276.85 703.13 1273.83C702.433 1270.58 690.82 1276.39 688.032 1293.34ZM279.233 641.356C278.303 636.246 267.619 581.429 270.406 585.378C271.335 586.539 273.658 608.605 292.937 627.419C313.841 647.859 276.91 597.921 277.374 580.733C278.536 549.608 285.039 585.146 295.027 594.669C301.066 600.243 314.306 605.121 305.712 593.74C262.973 536.136 299.208 516.161 302.924 459.486C307.57 388.643 299.208 384.462 314.77 400.257C331.029 416.748 369.122 377.03 366.799 397.934C361.689 443.924 319.183 474.352 320.809 484.572C320.809 485.036 351.237 500.599 356.115 504.547C374.464 519.645 364.477 507.567 380.039 507.567C386.542 507.567 389.33 475.978 391.885 515.929C392.582 528.007 392.117 525.916 384.684 530.562C380.271 533.349 391.42 534.278 397.692 538.691C406.053 544.73 401.408 554.021 367.961 538.459C360.528 534.975 353.792 530.794 349.611 529.168C340.088 524.987 347.288 534.743 359.134 541.014C374 548.911 415.112 558.202 402.337 558.202C354.024 558.667 315.699 552.395 396.53 564.241C418.828 567.493 372.838 568.887 376.09 572.603C377.716 574.229 406.053 578.874 400.479 578.874C369.122 579.339 429.745 589.094 417.202 610.231C415.344 613.483 354.953 587.469 379.342 600.708C383.291 602.798 443.914 633.691 408.376 624.4C378.181 616.503 328.939 585.61 384.917 620.683C399.317 629.742 341.249 607.676 334.746 603.728C315.235 591.882 320.809 605.586 343.107 616.038C359.831 623.935 464.818 640.891 407.912 641.356C390.956 641.356 359.831 624.864 340.785 625.793C324.061 626.49 391.188 640.891 389.33 643.678C387.936 646.001 320.345 664.583 315.699 665.512C268.78 672.48 286.201 676.197 279.233 641.356ZM438.571 606.05C424.403 615.341 418.828 597.224 439.965 585.378C449.953 579.803 499.659 538.691 478.987 574.461C472.948 584.914 448.791 599.547 438.571 606.05ZM424.171 576.087C427.19 586.075 423.009 585.61 420.687 582.359C410.931 569.119 417.899 554.95 424.171 576.087ZM467.838 535.672C397.691 577.713 409.305 540.549 417.435 536.833C450.65 521.271 473.412 503.386 481.077 515.929C485.258 522.897 478.987 528.936 467.838 535.672ZM328.01 696.869C319.183 698.727 291.078 704.069 282.949 702.211C282.949 702.211 266.225 678.752 295.956 675.964C346.359 671.087 316.628 682.003 321.738 688.275C323.597 690.598 327.777 683.397 329.868 689.436C332.191 697.101 330.565 696.404 328.01 696.869ZM347.056 699.192C334.513 703.837 327.313 671.087 330.797 666.673C335.907 659.938 354.024 657.847 358.205 665.744C369.122 687.81 367.728 691.759 347.056 699.192ZM404.427 527.542C401.64 518.948 407.447 502.921 411.628 524.29C413.718 535.672 406.518 534.278 404.427 527.542ZM464.586 483.643C459.476 490.379 395.833 520.574 400.246 496.418C401.176 492.004 446.933 475.745 453.901 471.797C465.98 465.061 467.606 479.694 464.586 483.643ZM443.217 630.671C442.52 632.297 440.43 632.762 438.107 630.671C416.506 610.928 449.024 614.412 443.217 630.671ZM451.811 620.683C429.281 617.432 466.909 594.901 471.09 591.882C493.852 574.926 466.212 622.774 451.811 620.683ZM479.916 537.065C495.246 527.542 489.671 547.75 443.914 574.229C437.642 577.945 436.016 578.41 434.158 575.855C419.99 556.808 455.76 552.163 479.916 537.065ZM508.718 588.862C560.515 627.884 486.42 570.048 492.923 538.227C504.537 481.552 505.001 514.999 514.06 505.012C536.126 480.855 512.202 501.295 503.608 493.863C489.904 482.249 496.872 551.002 488.278 505.476C486.884 497.579 476.664 472.029 472.948 462.738C456.224 419.303 482.936 445.55 520.331 458.789C531.016 462.506 504.537 446.014 504.305 445.782C498.266 441.601 528.229 454.841 534.5 451.589C534.5 451.589 490.136 441.834 501.285 432.078C509.647 424.878 510.344 424.181 519.402 432.543C563.07 472.029 557.96 481.32 556.798 537.762C556.566 543.104 556.334 541.014 554.94 534.51C542.165 482.017 524.28 472.261 531.713 493.398C564.695 588.165 558.192 540.317 511.737 517.554C500.588 512.212 546.81 552.628 548.901 554.718C558.656 564.241 554.243 567.029 537.287 552.395C529.622 545.892 519.867 536.369 513.363 531.026C485.955 507.799 528.461 553.324 542.862 563.312C557.96 574.229 561.908 570.977 570.038 583.984C597.446 627.652 574.451 612.554 569.573 618.128C568.18 619.754 587.923 626.723 587.923 626.723C589.781 634.155 586.297 644.143 591.175 652.505C599.072 666.441 610.453 669.228 603.253 673.409C585.368 683.397 618.815 706.16 597.214 712.663C574.451 719.632 599.769 707.553 598.375 707.553C593.962 707.321 583.045 712.431 580.49 711.734C579.561 711.502 582.58 694.546 565.16 724.045C553.779 743.556 583.974 706.624 580.49 717.773C579.793 719.864 574.451 725.903 571.896 736.123C569.109 747.737 570.967 751.917 564.695 741.465C525.674 676.429 542.165 697.566 572.128 686.184C584.439 681.539 591.639 671.783 586.761 670.39C584.206 669.693 521.493 696.404 559.353 663.654C571.431 652.969 551.224 662.725 548.436 659.938C547.043 658.544 562.837 641.588 560.515 637.639C556.334 630.671 540.307 653.898 547.043 628.348C554.708 599.082 537.752 617.199 539.61 647.163C540.307 658.776 541.004 661.331 539.842 676.893C537.52 706.857 518.241 657.847 514.989 645.769C511.505 633.923 507.789 588.165 508.718 588.862ZM400.246 485.036C393.975 488.753 395.137 460.183 403.498 467.384C408.376 471.332 405.821 481.552 400.246 485.036ZM409.305 459.951C403.034 456.467 403.034 450.892 408.144 446.711C410.467 444.853 410.466 451.589 422.545 452.983C445.307 455.77 452.972 425.342 456.921 447.873C457.618 452.054 415.112 463.203 409.305 459.951ZM354.953 461.577C356.579 517.322 357.044 484.107 331.494 482.481C321.274 481.785 348.45 457.164 351.237 455.305C354.953 452.518 354.721 455.073 354.953 461.577ZM369.354 418.142C372.142 405.135 372.142 397.237 376.09 412.335C386.078 450.428 406.982 411.87 381.897 487.591C380.039 493.166 367.961 512.212 364.709 503.154C354.257 475.281 363.315 446.711 369.354 418.142ZM349.147 354.267C349.843 353.338 387.472 383.533 347.288 391.895C331.726 395.379 344.966 359.609 349.147 354.267ZM390.027 406.064C374.697 389.572 379.11 394.682 370.748 375.868C367.264 367.971 362.386 366.345 357.973 356.125C346.824 329.878 362.154 331.504 367.032 354.267C369.819 367.274 357.508 332.898 357.741 343.815C357.973 358.912 375.626 380.978 380.271 355.893C380.968 352.409 383.755 357.519 386.542 347.531C397.227 307.812 380.271 325.697 410.467 334.756C451.579 347.066 449.721 301.773 458.082 314.781C462.263 321.284 474.574 366.113 459.941 370.294C447.398 374.01 481.774 348.46 445.772 370.526C437.642 375.404 436.713 372.616 436.017 378.191C436.017 378.423 434.391 397.702 436.249 391.198C441.126 375.404 446.933 384.462 459.708 375.171C480.148 360.074 452.74 418.142 452.508 417.91C451.346 416.748 436.946 395.611 435.552 397.702C435.32 397.934 439.036 422.555 422.545 408.851C415.344 402.812 422.777 397.237 422.08 397.005C422.08 396.54 421.383 393.521 421.383 391.198C422.08 370.294 437.41 383.533 406.053 370.99C375.858 358.912 404.195 376.333 403.731 376.333C398.853 376.565 391.188 370.758 391.188 373.778C391.42 390.966 419.525 375.868 419.061 387.482C418.828 390.269 407.447 383.998 419.293 397.934C402.105 406.064 426.726 407.457 408.144 413.032C397.459 416.284 414.183 434.865 421.151 436.724C440.197 441.601 442.985 415.122 448.792 422.555C452.508 427.2 434.158 455.77 415.112 445.085C357.276 412.567 393.511 409.78 390.027 406.064ZM220.235 549.84C209.783 558.202 187.253 591.882 192.363 564.938C197.008 540.317 302.227 499.669 229.758 521.503C215.59 525.684 223.952 518.251 217.913 509.193C213.732 502.689 200.957 501.063 205.602 495.953C212.106 488.753 220.468 493.398 221.164 466.919C221.629 448.802 198.402 451.357 212.106 438.117C256.934 394.45 218.842 399.56 271.103 387.25C291.311 382.604 292.704 358.68 289.453 392.592C288.523 417.677 289.917 437.42 289.917 459.719C289.685 480.159 272.497 510.819 274.819 513.141C281.091 519.18 288.059 488.52 273.426 541.246C268.316 559.596 255.076 522.2 220.235 549.84ZM307.57 375.868C268.316 367.739 308.499 334.756 321.506 334.988C323.597 334.988 314.77 377.262 307.57 375.868ZM273.658 379.817C273.426 380.281 255.308 392.824 270.871 369.365C273.426 365.416 281.555 372.152 279 364.719C276.678 358.448 288.756 345.673 298.279 338.472C326.848 317.336 285.736 354.267 284.575 355.893C282.717 360.074 287.594 368.203 282.717 371.92C281.091 373.313 274.123 371.92 273.193 374.707C272.729 376.333 274.355 378.191 273.658 379.817ZM277.374 331.04C277.142 314.084 280.626 289.695 282.717 275.526C283.878 268.791 273.89 278.778 271.103 296.663C268.548 313.851 273.89 358.912 267.851 341.492C263.206 327.555 250.895 191.908 251.128 257.177C251.36 314.084 247.411 268.094 234.404 240.453C220.003 209.793 224.648 252.531 217.913 234.879C215.59 229.072 199.795 168.681 208.622 165.894C264.599 148.241 256.702 156.835 265.528 177.972C299.208 259.732 268.548 220.013 269.477 256.248C269.477 256.945 280.162 229.536 298.047 247.886C302.924 252.996 293.866 253.925 287.827 257.409C283.181 259.964 296.421 257.874 299.208 258.338C303.853 259.267 287.827 269.72 284.11 293.644C282.252 305.954 299.44 271.113 304.086 267.165C309.428 262.984 304.318 276.92 315.002 294.341C327.081 313.851 333.352 301.309 305.479 313.155C301.298 315.013 299.44 318.961 299.44 318.265C298.743 316.406 312.912 282.495 305.944 288.301C299.44 293.179 277.839 385.159 277.374 331.04ZM705.453 1263.85C705.22 1261.76 709.634 1260.13 710.098 1262.68C710.563 1265.7 705.685 1265.94 705.453 1263.85ZM322.667 398.399C302.46 390.269 331.726 328.485 336.139 341.26C336.372 341.724 333.352 349.389 337.068 350.318C339.856 350.783 343.34 341.26 344.037 348.228C346.127 366.345 331.726 355.893 331.029 356.357C326.384 359.377 337.765 361.235 335.675 367.506C333.12 375.868 334.978 371.455 330.1 367.042C327.081 364.255 322.9 370.294 327.081 371.92C334.746 375.171 324.526 372.616 324.526 377.494C324.99 393.289 336.372 357.519 332.887 389.34C332.191 394.45 326.384 382.836 324.293 384.927C316.164 393.289 341.249 392.824 328.242 397.934C326.384 398.631 324.526 399.095 322.667 398.399ZM586.065 744.485C578.167 786.062 582.813 748.201 579.561 745.646C579.329 745.414 575.612 761.441 573.986 753.079C570.735 738.446 590.942 718.238 586.065 744.485ZM604.182 727.993C603.253 730.316 597.446 735.426 593.962 732.639C578.632 720.096 601.627 722.651 600.001 720.561C593.73 712.663 609.524 715.915 604.182 727.993ZM593.962 768.409C599.072 755.169 603.95 793.727 594.194 772.822C593.497 771.428 593.497 770.035 593.962 768.409ZM83.4267 1300.78C83.4267 1300.78 91.7886 1276.85 93.6467 1286.61C95.9695 1298.69 86.4463 1308.91 83.4267 1300.78ZM17.2291 1298.92C28.1459 1280.57 55.554 1293.34 69.0258 1302.64C69.7227 1302.87 13.745 1304.49 17.2291 1298.92ZM42.3145 1260.83C46.9599 1261.06 38.1336 1264.54 34.8818 1268.03C35.5786 1265.01 36.7399 1260.59 42.3145 1260.83ZM663.411 1183.71C651.101 1165.13 628.338 1087.09 630.661 1088.48C634.145 1090.8 652.959 1157.47 678.741 1192.31C681.529 1196.02 692.445 1212.28 688.729 1214.37C687.103 1215.3 666.431 1188.13 663.411 1183.71ZM724.499 1291.25C725.196 1273.37 725.893 1272.67 744.939 1276.85C759.34 1280.11 795.342 1288.7 754.927 1283.59C718.46 1278.71 750.746 1284.75 744.707 1288C741.919 1289.4 724.267 1299.15 724.499 1291.25ZM717.763 1271.05C713.582 1269.89 711.956 1265.94 715.673 1266.87C720.086 1268.49 721.944 1272.44 717.763 1271.05ZM601.627 1051.32C593.73 1023.44 618.35 1074.78 609.06 1065.72C605.575 1062.23 603.02 1056.66 601.627 1051.32ZM624.157 807.198C619.512 792.101 662.25 787.455 626.48 807.431C624.854 808.36 624.39 808.36 624.157 807.198ZM625.551 794.888C624.854 788.617 655.05 756.795 642.739 783.739C641.345 786.758 626.015 799.069 625.551 794.888ZM462.96 507.334C450.417 513.606 418.828 537.762 417.435 514.535C417.202 511.515 466.909 490.611 469.696 494.792C474.806 502.689 473.412 502.224 462.96 507.334ZM448.327 467.848C442.056 471.564 420.454 482.017 414.647 474.816C409.073 468.08 411.628 467.616 419.293 466.687C427.655 465.99 485.723 445.55 448.327 467.848ZM467.606 473.423C464.121 462.041 448.791 428.826 467.141 430.684C477.593 431.846 489.439 438.814 486.652 438.35C474.574 436.491 458.547 425.342 465.051 446.015C467.373 453.447 499.891 551.931 476.432 497.811C473.18 490.843 470.625 483.875 467.606 473.423ZM492.459 432.078C491.762 432.543 462.031 429.291 467.606 423.949C478.29 413.961 469.231 402.58 469.231 402.812C489.207 414.658 513.131 415.819 492.459 432.078ZM349.147 339.866C347.056 340.331 335.675 323.839 307.802 328.949C293.401 331.504 311.518 314.78 318.022 314.548C330.1 314.084 343.34 306.186 353.327 318.497C361.225 328.485 354.257 338.472 349.147 339.866ZM253.683 146.383C253.218 149.867 207.925 161.248 205.138 161.016C190.272 160.087 255.541 135.002 253.683 146.383ZM227.668 144.06C208.622 148.473 201.421 160.087 198.402 137.324C197.008 127.337 246.25 111.31 248.108 122.691C252.521 148.706 254.844 137.789 227.668 144.06ZM244.392 111.077C245.088 112.471 204.905 125.478 200.492 126.407C175.174 131.982 237.656 99.9284 244.392 111.077ZM235.798 99.2316C237.423 103.645 201.886 117.117 199.563 114.097C191.433 104.574 231.152 85.063 235.798 99.2316ZM228.365 89.7084C192.363 93.1925 190.737 117.813 198.866 72.288C200.028 65.3198 218.377 48.8284 194.918 64.1584C191.201 66.4812 190.504 49.9898 190.737 47.6671C191.201 42.0925 195.15 51.6157 200.26 49.0607C202.815 47.8993 202.815 44.4153 203.279 44.4153C211.409 43.4862 214.428 37.6794 215.358 37.6794C223.952 38.3762 243.695 26.5303 226.971 18.633C215.822 13.523 216.751 0.748003 238.817 15.1489C246.25 20.0266 251.36 41.628 229.294 59.0484C200.724 81.5789 214.661 57.1903 230.223 86.4566C232.081 88.7793 231.849 89.4761 228.365 89.7084ZM193.292 28.6207C194.453 32.1048 203.279 52.3125 193.059 42.5571C185.394 35.3566 189.575 17.2394 193.292 28.6207ZM202.118 38.1439C196.776 30.0144 192.595 21.8848 201.189 14.4521C207.228 9.34212 211.409 52.5448 202.118 38.1439ZM697.091 1258.74C694.768 1256.88 700.11 1252.93 703.362 1254.32C705.917 1255.25 700.575 1261.52 697.091 1258.74ZM661.553 1305.19C656.675 1285.22 671.309 1294.74 681.993 1300.78C706.382 1314.95 663.644 1313.78 661.553 1305.19ZM742.848 1310.53C694.768 1308.91 773.973 1307.98 725.196 1303.33C712.653 1302.17 816.247 1273.6 786.516 1297.76C781.406 1301.71 726.357 1309.14 769.328 1305.66C801.614 1303.1 748.888 1310.77 742.848 1310.53ZM603.717 806.269C603.02 806.037 599.072 800.462 600.465 799.766C607.201 796.282 606.272 807.198 603.717 806.269ZM638.558 751.917C658.534 776.074 605.343 789.081 601.859 769.802C600.93 763.067 624.854 775.609 630.661 756.795C632.519 751.221 623.46 733.568 638.558 751.917ZM465.747 414.658C464.818 422.09 440.894 454.376 459.708 416.98C462.496 411.406 466.676 405.831 465.747 414.658ZM221.164 28.853C216.751 20.2589 226.739 17.7039 227.9 24.2076C229.294 31.8725 223.487 33.2662 221.164 28.853ZM213.267 33.4985C208.389 27.9239 203.976 12.1294 211.873 7.25165C219.074 2.83847 218.145 38.8407 213.267 33.4985ZM609.756 691.991C599.304 684.326 616.26 672.248 610.918 680.842C608.363 684.791 615.099 696.172 609.756 691.991ZM616.492 707.786C601.395 710.108 614.402 702.443 620.673 703.14C622.299 703.605 622.299 706.857 616.492 707.786ZM472.948 725.438C443.449 671.783 481.774 662.028 477.826 727.761C477.361 732.174 476.664 732.407 472.948 725.438ZM468.07 657.615C453.669 675.732 476.664 622.309 478.987 631.833C480.613 638.801 472.019 652.505 468.07 657.615ZM603.717 791.636C600.233 790.939 595.355 782.113 599.072 782.577C604.414 782.81 607.201 792.333 603.717 791.636ZM602.091 758.653C601.395 762.602 595.355 751.917 594.891 751.221C590.478 743.323 606.969 734.962 602.091 758.653ZM404.195 441.601C404.66 442.298 393.511 470.868 394.672 456.931C396.066 444.621 403.034 439.743 404.195 441.601ZM436.946 426.736C433.229 431.846 427.422 435.098 421.383 432.543C417.899 431.149 413.718 423.484 418.828 425.807C431.603 431.614 441.126 421.394 436.946 426.736Z" fill="black"/>
</svg>
