<svg width="507" height="376" viewBox="0 0 507 376" fill="none" xmlns="http://www.w3.org/2000/svg">
<g clip-path="url(#clip0)">
<path opacity="0.1" d="M294.607 52.7119C262.063 51.8601 231.126 44.0935 201.544 35.5754C171.963 27.0573 142.733 17.6372 110.993 13.1276C90.6021 10.2215 67.2485 9.82061 50.8256 17.9379C35.0054 25.7044 29.8826 39.1831 27.1204 51.7097C25.0612 61.1298 23.8559 71.0008 29.4808 79.8195C33.3982 85.9326 40.3792 91.0935 45.2508 96.9059C62.0755 117.299 50.1727 142.403 31.992 162.295C23.4541 171.615 13.51 180.534 6.93077 190.455C0.351571 200.426 -2.71203 211.8 3.06361 221.922C8.78902 231.943 22.3994 239.509 37.1649 244.821C67.148 255.594 102.455 258.7 136.908 260.454C213.146 264.312 289.836 262.659 366.276 260.955C394.551 260.354 422.977 259.702 450.801 256.445C466.269 254.641 482.24 251.785 493.44 244.871C507.703 236.102 511.219 221.271 501.676 210.297C485.655 191.858 441.409 187.298 430.209 167.506C424.032 156.633 430.36 144.507 439.35 134.386C458.535 112.74 490.728 93.7492 492.385 68.9965C493.54 52.0104 478.072 34.9741 454.166 26.9571C429.104 18.5392 394.3 19.5914 375.818 33.521C356.783 47.9016 323.285 53.4134 294.607 52.7119Z" fill="#6C63FF"/>
<path opacity="0.1" d="M132.036 376C192.503 376 241.522 372.523 241.522 368.233C241.522 363.944 192.503 360.467 132.036 360.467C71.5686 360.467 22.55 363.944 22.55 368.233C22.55 372.523 71.5686 376 132.036 376Z" fill="#6C63FF"/>
<path d="M195.468 325.943C196.974 323.238 198.782 320.682 200.239 317.976C201.544 315.471 202.599 312.815 203.805 310.26C205.864 305.851 208.375 301.692 210.685 297.383C212.192 294.577 213.648 291.52 213.347 288.313C213.096 285.307 211.288 282.701 210.635 279.795C207.873 267.87 201.143 256.896 197.075 245.372C196.02 242.466 195.016 239.509 193.71 236.653C191.199 231.242 187.683 226.331 184.167 221.471C182.912 219.617 181.506 217.863 179.949 216.26C178.693 215.007 177.287 213.905 176.132 212.552C173.771 209.746 172.666 205.687 169.703 203.533C169.653 203.683 169.603 203.783 169.553 203.934C167.443 198.572 160.362 195.015 156.243 190.555C153.833 187.85 151.623 184.943 149.664 181.937L140.725 169.009C139.168 166.805 137.611 164.5 137.008 161.844C136.255 158.637 136.958 155.23 136.205 152.023C135.702 150.119 134.798 148.315 133.442 146.812C133.543 146.812 133.643 146.762 133.693 146.712C135.401 146.261 137.209 146.161 138.917 145.76C142.633 144.858 145.797 142.503 149.514 141.601C151.372 141.1 153.381 141 155.088 140.098C156.796 139.096 157.65 137.092 157.248 135.187C156.043 128.924 159.357 122.51 158.805 116.147C158.654 114.393 158.202 112.639 157.901 110.936C157.198 106.877 157.348 102.718 157.599 98.6096C158.755 96.7557 160.111 95.0521 161.668 93.5489C163.928 91.3943 166.64 89.5403 168.196 86.8346C169.552 84.4295 169.904 81.5233 169.553 78.7674C169.301 76.7631 168.598 74.6587 167.041 73.4561C165.484 72.2536 163.174 72.1533 161.266 72.8047C161.015 72.9049 160.763 73.0051 160.462 73.1054C158.855 72.3037 156.947 72.2034 155.289 72.8047C153.381 73.4561 151.723 74.7088 150.217 76.0115C149.313 76.713 148.509 77.5649 147.856 78.5169C146.902 80.0201 146.601 81.874 146.249 83.6278C145.446 87.035 144.341 90.342 142.834 93.5489C142.583 94.1 141.829 95.1022 141.227 96.0542L140.172 95.8538C139.72 100.313 135.953 103.62 133.693 107.428C132.588 109.282 131.785 111.337 130.78 113.291C129.625 115.395 128.37 117.45 126.963 119.404C125.607 121.408 124.251 123.412 122.895 125.367C121.188 127.972 119.33 130.427 117.371 132.832C115.513 132.682 113.705 132.532 111.846 132.532C108.783 132.482 105.669 132.782 102.656 133.334C102.455 132.281 102.354 131.179 102.354 130.127C102.354 130.077 102.354 129.976 102.354 129.926C102.354 129.676 102.404 129.375 102.404 129.024C110.942 123.312 113.202 111.788 107.527 103.32C105.97 101.015 103.911 99.0606 101.551 97.6576C101.651 97.1064 101.701 96.5052 101.752 95.954C101.752 95.6032 101.752 95.2525 101.752 94.9519C101.752 94.8015 101.752 94.6011 101.701 94.4508C101.651 94.1 101.601 93.7994 101.551 93.4487C101.5 93.2983 101.45 93.148 101.4 92.9476C101.3 92.6469 101.149 92.3463 100.998 92.0457C100.998 92.0457 100.998 91.9956 100.948 91.9956C100.898 91.8953 100.797 91.7951 100.747 91.6949C100.697 91.5947 100.697 91.5947 100.647 91.5947C100.596 91.5446 100.546 91.4444 100.496 91.3943L100.396 91.244C100.345 91.1939 100.295 91.1437 100.245 91.0435L100.094 90.9433L99.8934 90.793L99.7427 90.6928L99.5418 90.5425L99.3409 90.4423L99.14 90.342C99.0898 90.2919 99.0396 90.2919 98.9391 90.2418L98.7382 90.1416L98.5373 90.0414L98.3364 89.9412L98.1356 89.841L97.9347 89.7408L97.6836 89.6405L97.5329 89.5904L97.2818 89.4902L97.1311 89.4401L96.8298 89.3399L96.6791 89.2898L96.3778 89.1896L96.2773 89.1395L95.976 89.0393L95.8755 88.9892L95.524 88.8889H95.4737L94.9213 88.7887C92.7115 88.3378 90.5017 87.9369 88.2919 87.6363C86.4838 87.3857 84.5754 87.1352 82.8176 87.5361C80.3567 88.0872 78.2473 89.7408 75.937 90.793C73.1748 92.0457 70.1614 92.3463 67.2485 93.0478C64.3356 93.7493 61.3222 94.9017 59.4639 97.2568C58.0577 99.0606 57.5052 101.416 57.1035 103.67C53.6381 122.51 57.3546 141.852 58.0577 161.042C58.359 168.508 58.0075 176.475 53.7385 182.588L66.0934 182.288C66.696 182.288 67.2987 182.238 67.9014 182.238C68.5041 182.238 69.1067 182.137 69.7094 182.087C71.2663 181.937 72.773 181.486 74.1792 180.734C74.8321 180.384 75.3846 179.933 75.937 179.381C77.5944 177.678 78.4984 175.273 79.3522 172.968C79.6535 172.216 79.9047 171.415 80.1558 170.613C80.2562 170.262 80.3567 169.961 80.4571 169.611L80.5073 169.46L80.658 169.51C81.1602 170.463 81.7127 171.364 82.3153 172.266C84.4749 175.423 87.187 178.129 89.899 180.835C95.2729 186.196 100.797 191.608 107.527 195.015C109.787 196.167 112.298 197.119 114.006 199.023C114.86 199.925 115.613 201.128 116.818 201.428C117.572 201.629 118.375 201.428 119.129 201.729C120.183 202.18 120.585 203.433 121.037 204.485C121.539 205.537 122.644 206.589 123.649 206.088C123.247 208.042 124 210.097 125.607 211.299C126.11 211.6 126.562 211.951 126.863 212.452C127.014 212.903 127.114 213.354 127.114 213.805C127.315 215.108 128.018 216.26 129.023 217.062C128.018 218.665 128.822 221.02 128.872 223.024C128.872 224.728 128.32 226.331 127.918 227.985C126.813 232.845 127.415 237.906 128.32 242.766C128.822 245.472 129.475 248.228 131.232 250.332C131.785 250.984 132.488 251.585 133.091 252.237C134.246 253.539 135.2 254.992 135.903 256.546C137.41 259.652 138.465 262.959 138.967 266.367C139.218 268.07 139.72 269.774 140.423 271.327C141.528 273.732 140.524 276.689 141.478 279.094C141.93 280.196 142.733 281.148 143.035 282.25C143.437 283.904 142.533 285.608 142.281 287.261C141.729 291.219 144.592 294.927 144.843 298.936C144.893 299.186 144.843 299.437 144.692 299.587C144.491 299.788 144.14 299.788 143.889 299.938C143.386 300.189 143.236 300.84 143.085 301.441C142.934 302.042 142.482 302.644 141.93 302.443C133.693 306.853 125.155 310.911 116.869 315.321L113.102 317.325L92.9626 328.048C92.4604 328.298 92.159 328.799 92.159 329.351C92.159 329.601 92.2093 329.852 92.2093 330.102C90.803 330.453 89.447 330.854 88.4928 331.054C88.091 331.154 87.6892 331.205 87.2874 331.305C87.3879 331.154 87.4381 331.004 87.4883 330.804C87.4883 330.303 87.0865 329.852 86.5843 329.802C86.0821 329.751 85.5798 329.802 85.1278 330.002C83.9727 330.303 82.8176 330.553 81.6122 330.653C80.206 330.804 78.7495 330.804 77.3935 331.154C76.0375 331.505 74.6815 332.357 74.129 333.66C73.8277 334.411 73.7272 335.213 73.7775 336.015C73.7272 339.121 74.129 342.178 74.8824 345.184C74.8824 345.435 75.033 345.635 75.2339 345.786C75.4348 345.836 75.6357 345.786 75.7864 345.886C75.937 345.986 76.0375 346.136 76.0877 346.287C76.9415 348.191 77.1424 350.345 77.3433 352.4C77.6948 355.506 78.0966 358.563 78.5989 361.669C78.9002 363.473 79.2517 365.327 80.4571 366.73C81.7629 368.233 83.7718 368.885 85.7305 369.185C89.8488 369.737 94.0675 368.885 98.1356 368.033C98.8889 367.883 99.6925 367.682 100.245 367.081C100.596 366.63 100.797 366.029 100.747 365.427C100.647 363.373 98.7885 361.92 97.0809 360.767L94.7706 359.164C94.3688 358.964 94.1679 358.463 94.2684 358.012L94.4191 354.955H93.9671C94.4693 352.801 95.2729 350.746 96.88 349.293C97.9849 348.291 99.3911 347.589 100.546 346.688C102.003 347.79 103.761 348.441 105.619 348.541C108.632 344.483 112.901 341.727 117.12 339.021C120.585 336.867 124.151 334.862 127.767 333.058C130.73 331.605 133.744 330.202 136.807 328.95C141.126 327.146 145.546 325.542 149.915 323.939C152.879 322.887 155.842 321.835 158.503 320.281C165.535 316.223 170.507 308.156 169.553 300.038C168.347 289.816 170.909 279.144 170.758 268.872C170.708 265.866 170.607 262.859 169.703 259.953C169.904 260.103 170.105 260.254 170.306 260.454C172.114 262.158 172.566 264.863 174.324 266.818C175.68 268.321 177.739 269.323 178.593 271.177C179.195 272.58 179.145 274.534 180.451 275.336C180.802 275.586 181.254 275.686 181.656 275.887C182.108 276.187 182.46 276.588 182.761 277.089C184.167 279.094 185.574 281.198 185.724 283.603C185.774 284.555 185.724 285.658 186.427 286.309C186.628 286.509 186.879 286.61 186.98 286.86C187.181 287.361 186.628 287.912 186.528 288.464C186.377 289.215 187.131 289.816 187.633 290.468C188.436 291.57 188.436 293.073 187.633 294.176C183.514 299.537 182.761 306.702 179.145 312.415C177.89 314.369 176.533 316.273 175.328 318.227C171.612 324.34 169.753 331.405 167.945 338.32C168.699 339.673 169.753 340.825 171.009 341.777C170.306 344.132 169.151 346.287 167.544 348.141C167.142 348.592 166.74 349.042 166.388 349.544C166.087 349.193 165.685 348.892 165.284 348.692C164.631 351.548 164.279 354.504 164.279 357.46C164.279 359.415 164.53 361.619 166.137 362.722C166.79 363.122 167.443 363.423 168.196 363.573L171.662 364.576C172.265 364.826 172.917 364.876 173.57 364.776C173.972 364.676 174.324 364.425 174.776 364.325C175.228 364.275 175.68 364.325 176.132 364.475L179.095 365.327C180.099 365.578 181.104 365.928 182.058 366.379C182.912 366.78 183.665 367.331 184.519 367.782C185.925 368.484 187.331 369.085 188.838 369.536L193.961 371.29C195.367 371.841 196.874 372.242 198.431 372.442C199.485 372.542 200.54 372.442 201.595 372.643C202.398 372.793 203.152 373.044 203.955 373.144C205.261 373.194 206.567 372.793 207.672 372.041C208.073 371.791 208.475 371.49 208.726 371.089C209.48 369.937 208.827 368.384 208.124 367.181C206.768 364.976 205.06 362.922 202.8 361.669C201.896 361.168 200.892 360.818 199.988 360.316C197.326 359.014 195.317 356.859 192.755 355.356C192.103 354.905 191.199 354.955 190.596 355.506C188.487 354.153 186.227 352.8 185.071 350.596C184.569 349.544 184.218 348.391 184.067 347.189C185.272 347.489 186.427 347.69 187.633 347.89C189.491 340.474 191.6 332.758 195.468 325.943ZM147.203 112.239C147.103 112.79 147.002 113.341 146.852 113.942C145.847 118.652 144.391 123.913 141.126 127.421C140.021 128.423 138.766 129.275 137.41 129.876L137.058 130.077C139.419 123.713 143.185 117.901 147.203 112.239Z" fill="url(#paint0_linear)"/>
<path d="M152.075 84.3294C152.426 82.5757 152.728 80.7718 153.682 79.2185C154.335 78.2665 155.138 77.4147 156.043 76.7132C157.599 75.4104 159.207 74.1578 161.115 73.5565C163.023 72.9552 165.284 73.0053 166.891 74.2079C168.498 75.4104 169.151 77.5149 169.402 79.5192C169.753 82.275 169.402 85.1311 168.046 87.5362C166.489 90.242 163.777 92.0458 161.517 94.2004C159.859 95.7537 158.453 97.5576 157.248 99.5117C156.695 100.514 156.043 101.466 155.289 102.318C154.536 103.169 153.381 103.671 152.226 103.57C151.271 103.42 150.468 102.769 149.714 102.117C148.76 101.316 146.299 99.8625 146.199 98.5597C146.149 97.5074 148.107 95.1524 148.559 94.1503C150.116 91.0437 151.271 87.7367 152.075 84.3294Z" fill="#FBBEBE"/>
<path opacity="0.1" d="M152.075 84.3294C152.426 82.5757 152.728 80.7718 153.682 79.2185C154.335 78.2665 155.138 77.4147 156.043 76.7132C157.599 75.4104 159.207 74.1578 161.115 73.5565C163.023 72.9552 165.284 73.0053 166.891 74.2079C168.498 75.4104 169.151 77.5149 169.402 79.5192C169.753 82.275 169.402 85.1311 168.046 87.5362C166.489 90.242 163.777 92.0458 161.517 94.2004C159.859 95.7537 158.453 97.5576 157.248 99.5117C156.695 100.514 156.043 101.466 155.289 102.318C154.536 103.169 153.381 103.671 152.226 103.57C151.271 103.42 150.468 102.769 149.714 102.117C148.76 101.316 146.299 99.8625 146.199 98.5597C146.149 97.5074 148.107 95.1524 148.559 94.1503C150.116 91.0437 151.271 87.7367 152.075 84.3294Z" fill="black"/>
<path d="M99.3408 134.436C103.359 133.384 107.527 132.883 111.696 132.933C118.626 133.033 125.808 134.686 132.387 132.582C134.095 131.981 135.752 131.279 137.36 130.427C138.665 129.776 140.072 129.075 141.076 128.022C144.341 124.565 145.797 119.304 146.801 114.644C147.806 109.984 148.107 105.174 148.358 100.414C150.066 101.215 151.874 102.017 153.782 101.817C155.691 101.616 157.549 100.213 157.549 98.3091C157.248 102.718 157.047 107.228 157.8 111.587C158.102 113.341 158.554 115.045 158.704 116.798C159.257 123.112 155.942 129.475 157.147 135.689C157.549 137.593 156.695 139.597 154.988 140.599C153.28 141.501 151.271 141.651 149.413 142.102C145.747 143.054 142.533 145.359 138.816 146.261C137.108 146.662 135.3 146.762 133.593 147.213C131.132 147.864 128.922 149.267 126.461 149.668C124.603 150.019 122.694 149.769 120.786 149.919C119.129 150.069 117.522 150.47 115.914 150.52C111.897 150.62 108.08 148.366 105.418 145.359C102.756 142.353 100.998 138.044 99.3408 134.436Z" fill="url(#paint1_linear)"/>
<path opacity="0.1" d="M99.3408 134.436C103.359 133.384 107.527 132.883 111.696 132.933C118.626 133.033 125.808 134.686 132.387 132.582C134.095 131.981 135.752 131.279 137.36 130.427C138.665 129.776 140.072 129.075 141.076 128.022C144.341 124.565 145.797 119.304 146.801 114.644C147.806 109.984 148.107 105.174 148.358 100.414C150.066 101.215 151.874 102.017 153.782 101.817C155.691 101.616 157.549 100.213 157.549 98.3091C157.248 102.718 157.047 107.228 157.8 111.587C158.102 113.341 158.554 115.045 158.704 116.798C159.257 123.112 155.942 129.475 157.147 135.689C157.549 137.593 156.695 139.597 154.988 140.599C153.28 141.501 151.271 141.651 149.413 142.102C145.747 143.054 142.533 145.359 138.816 146.261C137.108 146.662 135.3 146.762 133.593 147.213C131.132 147.864 128.922 149.267 126.461 149.668C124.603 150.019 122.694 149.769 120.786 149.919C119.129 150.069 117.522 150.47 115.914 150.52C111.897 150.62 108.08 148.366 105.418 145.359C102.756 142.353 100.998 138.044 99.3408 134.436Z" fill="url(#paint2_linear)"/>
<path d="M279.942 140.549C299.027 140.549 314.496 155.982 314.496 175.022C314.496 194.063 299.027 209.496 279.942 209.496C260.858 209.496 245.389 194.063 245.389 175.022C245.389 156.032 260.858 140.549 279.942 140.549ZM279.942 132.031C256.137 132.031 236.851 151.272 236.851 175.022C236.851 198.773 256.137 218.014 279.942 218.014C303.748 218.014 323.034 198.773 323.034 175.022C323.034 151.322 303.748 132.081 279.942 132.031Z" fill="#3F3D56"/>
<path d="M283.659 122.01H273.564V132.632H283.659V122.01Z" fill="#3F3D56"/>
<path d="M301.708 126.276L296.225 135.381L304.878 140.568L310.362 131.462L301.708 126.276Z" fill="#3F3D56"/>
<path d="M323.218 143.661L313.906 148.811L318.799 157.62L328.112 152.47L323.218 143.661Z" fill="#3F3D56"/>
<path d="M319.395 191.997L314.046 200.537L323.075 206.166L328.424 197.625L319.395 191.997Z" fill="#3F3D56"/>
<path d="M236.68 143.68L231.786 152.489L241.098 157.639L245.992 148.83L236.68 143.68Z" fill="#3F3D56"/>
<path d="M240.471 191.953L231.442 197.582L236.791 206.122L245.82 200.493L240.471 191.953Z" fill="#3F3D56"/>
<path d="M258.196 126.298L249.543 131.485L255.026 140.591L263.679 135.404L258.196 126.298Z" fill="#3F3D56"/>
<path d="M283.659 217.513H273.564V228.135H283.659V217.513Z" fill="#3F3D56"/>
<path d="M304.873 209.584L296.22 214.771L301.703 223.877L310.356 218.69L304.873 209.584Z" fill="#3F3D56"/>
<path d="M255.011 209.536L249.527 218.642L258.18 223.829L263.664 214.723L255.011 209.536Z" fill="#3F3D56"/>
<path d="M237.956 170.813H225.702V179.833H237.956V170.813Z" fill="#3F3D56"/>
<path d="M334.233 170.813H321.979V179.833H334.233V170.813Z" fill="#3F3D56"/>
<path d="M360.249 78.4669C379.333 78.4669 394.802 93.8997 394.802 112.94C394.802 131.981 379.333 147.414 360.249 147.414C341.164 147.414 325.695 131.981 325.695 112.94C325.695 93.9498 341.164 78.4669 360.249 78.4669ZM360.249 69.9487C336.443 69.9487 317.157 89.1897 317.157 112.94C317.157 136.691 336.443 155.932 360.249 155.932C384.054 155.932 403.34 136.691 403.34 112.94C403.34 89.2398 384.054 69.9988 360.249 69.9487Z" fill="#3F3D56"/>
<path d="M363.965 59.9272H353.87V70.5498H363.965V59.9272Z" fill="#3F3D56"/>
<path d="M381.98 64.1751L376.497 73.2808L385.15 78.4675L390.634 69.3618L381.98 64.1751Z" fill="#3F3D56"/>
<path d="M403.528 81.5865L394.216 86.7363L399.11 95.5448L408.422 90.395L403.528 81.5865Z" fill="#3F3D56"/>
<path d="M399.711 129.925L394.361 138.465L403.39 144.094L408.739 135.554L399.711 129.925Z" fill="#3F3D56"/>
<path d="M316.989 81.6066L312.095 90.415L321.407 95.5649L326.301 86.7564L316.989 81.6066Z" fill="#3F3D56"/>
<path d="M320.777 129.879L311.748 135.508L317.097 144.048L326.126 138.419L320.777 129.879Z" fill="#3F3D56"/>
<path d="M338.512 64.2209L329.859 69.4077L335.342 78.5134L343.995 73.3266L338.512 64.2209Z" fill="#3F3D56"/>
<path d="M363.965 155.431H353.87V166.053H363.965V155.431Z" fill="#3F3D56"/>
<path d="M385.162 147.465L376.508 152.652L381.992 161.758L390.645 156.571L385.162 147.465Z" fill="#3F3D56"/>
<path d="M335.347 147.413L329.863 156.519L338.517 161.706L344 152.6L335.347 147.413Z" fill="#3F3D56"/>
<path d="M318.262 108.731H306.008V117.751H318.262V108.731Z" fill="#3F3D56"/>
<path d="M414.54 108.731H402.285V117.751H414.54V108.731Z" fill="#3F3D56"/>
<path d="M199.586 75.8116C199.988 75.8116 200.389 75.8116 200.791 75.8116C219.876 76.463 234.792 92.3969 234.189 111.437C233.536 130.027 218.269 144.758 199.636 144.758C199.234 144.758 198.832 144.758 198.431 144.758C179.346 144.107 164.43 128.173 165.032 109.132C165.685 90.5429 180.953 75.8116 199.586 75.8116ZM199.586 67.2935C175.78 67.2935 156.495 86.5344 156.444 110.285C156.444 133.484 174.876 152.475 198.079 153.276C198.581 153.276 199.084 153.276 199.586 153.276C223.391 153.276 242.677 134.035 242.677 110.285C242.677 87.0856 224.245 68.0952 201.042 67.2935C200.59 67.3436 200.088 67.2935 199.586 67.2935Z" fill="#3F3D56"/>
<path d="M195.097 57.0859L194.727 67.7021L204.816 68.0519L205.186 57.4357L195.097 57.0859Z" fill="#3F3D56"/>
<path d="M223.046 62.3198L217.249 71.23L225.716 76.7139L231.514 67.8036L223.046 62.3198Z" fill="#3F3D56"/>
<path d="M243.962 80.4673L234.476 85.291L239.06 94.2636L248.546 89.4399L243.962 80.4673Z" fill="#3F3D56"/>
<path d="M238.475 128.579L232.832 136.93L241.66 142.868L247.303 134.518L238.475 128.579Z" fill="#3F3D56"/>
<path d="M157.491 77.4561L152.293 86.0903L161.421 91.5599L166.619 82.9257L157.491 77.4561Z" fill="#3F3D56"/>
<path d="M158.879 126.64L149.604 131.958L154.659 140.733L163.934 135.415L158.879 126.64Z" fill="#3F3D56"/>
<path d="M179.583 60.7955L170.755 65.6802L175.919 74.9696L184.747 70.085L179.583 60.7955Z" fill="#3F3D56"/>
<path d="M191.774 152.536L191.404 163.152L201.493 163.502L201.863 152.885L191.774 152.536Z" fill="#3F3D56"/>
<path d="M223.332 145.624L214.504 150.509L219.668 159.798L228.496 154.914L223.332 145.624Z" fill="#3F3D56"/>
<path d="M173.532 143.89L167.735 152.8L176.203 158.284L182 149.373L173.532 143.89Z" fill="#3F3D56"/>
<path d="M145.551 104.193L145.237 113.207L157.484 113.631L157.798 104.617L145.551 104.193Z" fill="#3F3D56"/>
<path d="M241.757 107.507L241.443 116.521L253.69 116.946L254.004 107.932L241.757 107.507Z" fill="#3F3D56"/>
<path d="M88.2919 330.253C87.0363 330.403 85.8309 330.804 84.726 331.355C83.2194 332.257 82.2651 333.91 81.6122 335.514C79.9549 339.622 79.6033 344.132 79.5531 348.541C79.5029 352.099 79.6033 355.757 80.9091 359.064C81.2607 360.116 81.8633 361.068 82.6669 361.82C83.37 362.371 84.2238 362.772 85.0776 362.972C86.9861 363.473 89.1959 363.473 90.7528 362.271C92.5106 360.918 92.9124 358.513 93.3142 356.358C93.8164 353.452 94.5195 350.345 96.6791 348.291C98.2862 346.788 100.596 346.036 101.802 344.182C103.208 341.977 102.455 339.071 101.551 336.616C100.797 334.461 99.6422 330.152 97.3822 329.05C95.1222 327.948 90.6021 329.852 88.2919 330.253Z" fill="#FBBEBE"/>
<path d="M170.858 340.775C170.205 343.18 169 345.385 167.343 347.239C166.338 348.391 165.083 349.744 165.635 351.197C165.836 351.698 166.187 352.099 166.589 352.45C173.972 359.615 184.268 363.123 194.463 364.425C194.614 364.475 194.814 364.475 194.965 364.425C195.266 364.275 195.317 363.924 195.367 363.574C195.518 362.521 195.518 361.419 195.367 360.367C194.865 357.861 192.655 356.108 190.546 354.755C188.436 353.402 186.076 352.049 184.87 349.794C183.364 346.988 184.017 343.381 182.259 340.775C180.802 338.671 178.14 337.769 175.629 337.368C174.725 337.217 172.867 336.265 172.114 336.716C171.31 337.117 171.16 339.873 170.858 340.775Z" fill="#FBBEBE"/>
<path d="M87.2874 330.002C87.2874 329.501 86.8856 329.05 86.3834 329C85.8811 328.95 85.3789 329 84.9269 329.2C83.7718 329.501 82.6166 329.752 81.4113 329.852C80.0051 330.002 78.5486 330.002 77.1926 330.353C75.8365 330.704 74.4805 331.555 73.9281 332.858C73.677 333.61 73.5263 334.412 73.5765 335.213C73.5263 338.27 73.9281 341.376 74.6814 344.333C74.7316 344.583 74.8321 344.784 75.033 344.934C75.2339 344.984 75.4348 344.934 75.5854 345.034C75.7361 345.134 75.8366 345.285 75.8868 345.435C76.7406 347.339 76.9415 349.444 77.1423 351.548C77.4939 354.604 77.8957 357.661 78.3979 360.718C78.6993 362.471 79.0508 364.375 80.2562 365.728C81.562 367.231 83.5709 367.883 85.5296 368.133C89.6981 368.684 93.8666 367.833 97.9848 366.981C98.7884 366.881 99.4915 366.58 100.094 366.029C100.446 365.578 100.647 364.977 100.596 364.375C100.496 362.321 98.6377 360.868 96.9302 359.765L94.5697 358.162C94.419 358.062 94.2683 357.962 94.1679 357.811C94.0675 357.561 94.0172 357.31 94.0675 357.06L94.2181 354.053C91.0541 354.103 88.1412 355.907 86.6847 358.713C86.3834 359.365 86.0318 360.116 85.3789 360.367C84.5251 360.667 83.6211 359.966 83.3198 359.114C83.1189 358.262 83.1691 357.31 83.37 356.458C84.726 349.093 84.4247 341.527 85.2785 334.111C85.3287 333.259 85.5798 332.457 86.0318 331.756C86.4336 331.155 87.1869 330.704 87.2874 330.002Z" fill="#3F3D56"/>
<path d="M189.842 358.513C190.194 359.064 190.746 359.515 191.048 360.116C191.349 360.718 191.349 361.569 190.797 361.92C190.445 362.07 190.094 362.121 189.692 362.02C182.309 361.118 175.378 357.962 169.854 353.051C168.95 352.25 168.096 351.398 167.443 350.396C166.79 349.393 166.238 348.241 165.133 347.79C164.48 350.646 164.128 353.552 164.128 356.509C164.128 358.413 164.379 360.617 165.987 361.77C166.639 362.171 167.292 362.421 168.046 362.622L171.511 363.574C172.114 363.824 172.767 363.874 173.42 363.774C173.821 363.674 174.173 363.423 174.625 363.323C175.077 363.273 175.529 363.323 175.981 363.473L178.944 364.325C179.948 364.576 180.953 364.926 181.907 365.327C182.761 365.728 183.565 366.229 184.368 366.68C185.774 367.382 187.181 367.983 188.687 368.434L193.86 370.288C195.317 370.839 196.773 371.24 198.33 371.44C199.385 371.541 200.439 371.44 201.494 371.641C202.298 371.791 203.051 372.042 203.855 372.142C205.16 372.192 206.466 371.791 207.571 371.04C207.973 370.789 208.375 370.488 208.626 370.087C209.379 368.935 208.726 367.382 207.973 366.179C206.617 364.025 204.909 361.97 202.649 360.718C201.745 360.216 200.741 359.866 199.837 359.365C197.175 358.062 195.116 355.907 192.605 354.454C190.244 353.101 188.738 356.659 189.842 358.513Z" fill="#3F3D56"/>
<path d="M116.216 147.915C113.454 149.819 110.289 151.021 106.925 151.522C105.167 151.723 103.409 151.823 101.651 151.823C94.3186 151.823 87.0363 151.222 79.8042 150.019C82.6669 146.862 85.5798 143.505 86.6847 139.346C87.2372 137.142 87.3376 134.887 86.9861 132.682C86.5341 129.826 85.8812 127.02 84.9269 124.264C87.9905 124.415 91.1044 124.365 94.1679 124.014C95.9258 123.813 100.195 122.26 101.701 123.463C103.108 124.565 102.053 128.523 102.003 130.377C102.003 130.427 102.003 130.528 102.003 130.578C102.103 133.334 102.656 136.089 103.761 138.645C106.071 143.505 110.792 147.564 116.216 147.915Z" fill="#FBBEBE"/>
<path opacity="0.1" d="M102.103 130.327C97.6332 133.233 92.1589 134.085 87.0362 132.632C86.5842 129.776 85.9313 126.97 84.9771 124.214C88.0406 124.364 91.1545 124.314 94.2181 123.963C95.9759 123.763 100.245 122.21 101.751 123.412C103.208 124.565 102.153 128.473 102.103 130.327Z" fill="black"/>
<path d="M92.0586 132.432C102.21 132.432 110.44 124.221 110.44 114.093C110.44 103.965 102.21 95.7539 92.0586 95.7539C81.9067 95.7539 73.677 103.965 73.677 114.093C73.677 124.221 81.9067 132.432 92.0586 132.432Z" fill="#FBBEBE"/>
<path d="M170.055 206.89C170.055 209.896 168.498 212.702 165.936 214.256C164.53 215.007 162.973 215.508 161.416 215.809C153.029 217.813 144.391 219.467 135.752 218.966C133.894 218.865 131.986 218.665 130.328 217.813C128.671 216.961 127.215 215.458 126.963 213.604C126.963 213.153 126.863 212.702 126.712 212.251C126.361 211.8 125.959 211.4 125.457 211.099C123.85 209.896 123.096 207.892 123.498 205.938C122.443 206.389 121.338 205.337 120.886 204.335C120.384 203.282 119.982 202.03 118.928 201.629C118.225 201.328 117.371 201.529 116.618 201.328C115.412 201.028 114.659 199.825 113.805 198.923C112.047 197.069 109.586 196.117 107.326 194.965C100.546 191.557 95.0217 186.196 89.6478 180.885C86.9358 178.229 84.1735 175.523 82.0642 172.367C81.4615 171.465 80.909 170.563 80.4068 169.611C78.7495 166.504 77.3432 163.247 76.1881 159.94C75.485 158.186 74.8321 156.282 75.0832 154.428C75.0832 154.278 75.1334 154.078 75.1836 153.927C75.5352 152.725 76.0876 151.572 76.841 150.57C78.6992 147.814 81.1602 145.209 84.3744 144.407C87.5887 143.605 90.8029 144.607 94.0674 145.259C95.1723 145.509 96.227 145.66 97.3319 145.76C100.797 146.01 104.212 145.058 107.577 144.157L111.244 143.154C113.052 142.653 114.006 140.449 115.814 140.048C116.618 139.948 117.471 139.948 118.275 140.148C122.042 140.849 125.808 141.751 129.123 143.655C129.876 144.056 130.579 144.557 131.232 145.109C133.593 146.962 135.451 149.418 136.104 152.324C136.857 155.481 136.154 158.888 136.908 162.045C137.51 164.65 139.117 166.955 140.674 169.16L149.664 181.937C151.673 184.943 153.883 187.799 156.243 190.505C160.964 195.867 169.904 199.825 170.055 206.89Z" fill="url(#paint3_linear)"/>
<path d="M146.048 84.3294C146.4 82.5757 146.701 80.7718 147.655 79.2185C148.308 78.2665 149.112 77.4147 150.016 76.7132C151.573 75.4104 153.18 74.1578 155.088 73.5565C156.997 72.9552 159.257 73.0053 160.864 74.2079C162.471 75.4104 163.124 77.5149 163.375 79.5192C163.727 82.275 163.375 85.1311 162.019 87.5362C160.462 90.242 157.75 92.0458 155.49 94.2004C153.833 95.7537 152.426 97.5576 151.221 99.5117C150.669 100.514 150.016 101.466 149.262 102.318C148.509 103.169 147.354 103.671 146.199 103.57C145.245 103.42 144.441 102.769 143.688 102.117C142.733 101.316 140.273 99.8625 140.172 98.5597C140.122 97.5074 142.081 95.1524 142.533 94.1503C144.14 91.0437 145.295 87.7367 146.048 84.3294Z" fill="#FBBEBE"/>
<path d="M210.685 296.781C208.375 301.04 205.864 305.199 203.804 309.558C202.599 312.114 201.544 314.77 200.239 317.225C198.782 319.931 196.974 322.486 195.467 325.142C191.651 331.906 189.491 339.572 187.532 347.088C182.008 346.287 176.684 344.383 171.863 341.577C171.561 341.376 171.21 341.176 170.908 340.975C169.603 340.073 168.548 338.871 167.744 337.518C169.552 330.653 171.461 323.638 175.177 317.576C176.383 315.571 177.789 313.717 178.994 311.813C182.61 306.151 183.364 298.986 187.482 293.725C188.286 292.622 188.286 291.119 187.482 290.017C186.98 289.416 186.226 288.814 186.377 288.063C186.478 287.512 187.08 287.011 186.829 286.459C186.729 286.209 186.478 286.058 186.277 285.908C185.574 285.257 185.674 284.154 185.624 283.202C185.473 280.797 184.017 278.693 182.61 276.739C182.309 276.288 181.958 275.887 181.506 275.536C181.154 275.286 180.702 275.185 180.3 274.985C178.994 274.183 179.095 272.229 178.442 270.826C177.638 268.972 175.529 268.02 174.173 266.467C172.415 264.563 172.013 261.857 170.155 260.153C169.954 259.953 169.753 259.803 169.552 259.652C170.456 262.508 170.557 265.515 170.607 268.471C170.808 278.693 168.196 289.265 169.402 299.437C170.356 307.504 165.384 315.521 158.353 319.53C155.641 321.083 152.678 322.085 149.714 323.137C145.295 324.691 140.925 326.294 136.556 328.098C133.492 329.351 130.479 330.703 127.516 332.207C123.85 333.96 120.284 335.965 116.818 338.119C112.55 340.825 108.331 343.531 105.317 347.589C102.404 347.489 99.7427 345.735 97.8844 343.481C96.0262 341.226 94.871 338.47 93.8164 335.764C92.8621 333.409 91.9581 331.004 91.8577 328.499C91.9079 327.948 92.2092 327.447 92.7115 327.246L112.901 316.573L116.668 314.569C124.955 310.21 133.492 306.151 141.729 301.792C142.281 301.942 142.733 301.341 142.884 300.79C143.035 300.239 143.185 299.537 143.688 299.337C143.939 299.237 144.29 299.237 144.491 298.986C144.642 298.786 144.692 298.535 144.642 298.335C144.391 294.326 141.478 290.668 142.081 286.71C142.332 285.006 143.185 283.353 142.834 281.699C142.583 280.547 141.729 279.645 141.277 278.543C140.273 276.137 141.277 273.181 140.172 270.826C139.469 269.273 138.967 267.619 138.716 265.916C138.213 262.508 137.159 259.201 135.652 256.145C134.899 254.592 133.944 253.138 132.84 251.886C132.237 251.234 131.534 250.633 130.981 249.982C129.223 247.927 128.571 245.121 128.068 242.466C127.164 237.605 126.562 232.595 127.667 227.785C128.068 226.131 128.621 224.528 128.621 222.824C128.621 220.619 127.616 218.014 129.173 216.41C129.826 215.859 130.58 215.458 131.433 215.258C134.999 214.206 138.716 213.705 142.382 213.254L159.257 211.049C161.165 210.798 163.174 210.548 164.882 209.596C167.142 208.343 168.699 205.988 169.603 203.583C172.566 205.738 173.671 209.746 176.031 212.552C177.186 213.905 178.593 215.007 179.848 216.26C181.405 217.863 182.811 219.617 184.067 221.471C187.582 226.281 191.098 231.142 193.609 236.553C194.915 239.359 195.919 242.265 196.974 245.171C201.092 256.646 207.772 267.519 210.585 279.344C211.288 282.25 213.046 284.856 213.297 287.812C213.648 290.919 212.192 293.975 210.685 296.781Z" fill="#3F3D56"/>
<path opacity="0.1" d="M122.443 201.579C122.042 202.33 121.841 203.182 121.841 204.084C122.242 202.23 124.754 201.178 124.955 199.374C125.005 198.522 124.854 198.572 124.352 199.023C123.498 199.675 123.146 200.877 122.443 201.579Z" fill="black"/>
<path opacity="0.1" d="M130.228 207.241C129.676 207.692 129.274 208.293 129.073 208.945C128.621 209.897 128.571 210.949 128.822 211.951C129.224 211.751 129.324 211.3 129.424 210.899C129.625 210.298 129.876 209.696 130.228 209.145C130.529 208.644 131.936 207.542 131.936 206.991C131.885 206.189 130.58 206.94 130.228 207.241Z" fill="black"/>
<path opacity="0.1" d="M131.132 145.159C129.927 146.161 128.671 147.063 127.265 147.714C123.649 149.568 119.581 150.52 115.914 152.324C114.106 153.226 112.349 154.278 110.641 155.381L99.7426 162.295C98.8888 162.796 98.035 163.398 97.3319 164.099C96.0261 165.502 96.0261 167.957 94.8207 169.461C93.6154 170.964 91.5563 171.816 89.5473 171.916C87.5384 171.916 85.5295 171.565 83.6713 170.914C82.5161 170.563 81.4112 170.162 80.3063 169.711C79.1512 169.21 78.0965 168.609 77.0921 167.857C75.1334 166.404 73.5765 164.249 73.2751 161.844C73.1244 160.191 73.3756 158.537 73.928 156.934C74.2294 155.932 74.6311 154.93 75.0831 153.978C75.3343 153.426 75.6356 152.925 75.9872 152.424C78.4983 148.867 82.9179 147.213 87.1869 146.411C89.4469 145.961 91.7069 145.71 93.967 145.309C95.0719 145.56 96.1265 145.71 97.2314 145.81C100.697 146.061 104.112 145.109 107.477 144.207L111.143 143.205C112.951 142.704 113.905 140.499 115.713 140.098C116.517 139.998 117.371 139.998 118.174 140.198C121.941 140.9 125.708 141.802 129.023 143.706C129.726 144.157 130.429 144.608 131.132 145.159Z" fill="black"/>
<path d="M140.021 96.5054C139.569 100.965 135.803 104.222 133.492 108.03C132.387 109.884 131.584 111.938 130.579 113.842C129.424 115.947 128.169 117.951 126.763 119.905L122.694 125.818C120.284 129.275 117.873 132.783 114.809 135.739C109.486 136.641 104.966 140.599 99.8933 142.553C95.8252 144.107 91.4056 144.307 87.1367 145.109C82.8677 145.91 78.4481 147.614 75.9872 151.122C75.033 152.525 74.3299 154.028 73.8778 155.631C73.3254 157.184 73.0743 158.888 73.2249 160.542C73.5263 162.947 75.0832 165.101 77.0419 166.554C79.0006 168.007 81.3108 168.909 83.6211 169.611C85.5296 170.262 87.4882 170.613 89.4972 170.613C91.5061 170.513 93.5652 169.761 94.7706 168.158C95.9759 166.554 95.9759 164.199 97.2817 162.847C97.9848 162.145 98.7884 161.544 99.6924 161.043L110.591 154.128C112.298 153.026 114.056 152.023 115.864 151.071C119.53 149.268 123.548 148.316 127.215 146.462C130.831 144.608 134.246 141.601 134.999 137.593C137.209 125.267 145.747 114.894 153.079 104.723C152.828 104.673 152.929 104.122 152.828 103.921C151.874 101.516 149.815 99.6621 147.454 98.5597C145.094 97.4574 142.533 97.0064 140.021 96.5054Z" fill="url(#paint4_linear)"/>
<path d="M101.45 96.5556C101.601 95.2027 101.3 93.8498 100.697 92.6974C99.4916 90.6931 96.9302 89.9916 94.6702 89.4905C92.4604 89.0396 90.2506 88.6387 88.0407 88.3381C86.2327 88.0876 84.3243 87.837 82.5162 88.2379C80.0051 88.7891 77.9459 90.4426 75.6357 91.4948C72.8734 92.6974 69.8601 93.0481 66.8969 93.6995C63.984 94.401 60.9706 95.5033 59.1124 97.9085C57.7061 99.7123 57.1537 102.017 56.7519 104.272C53.2865 123.012 57.003 142.203 57.7061 161.243C58.0075 168.659 57.6559 176.576 53.387 182.689L65.7418 182.338C68.9058 182.238 72.321 182.088 74.7819 180.133C76.9917 178.43 77.9962 175.674 78.9504 173.068C79.7037 171.014 80.4571 168.91 80.5073 166.705C80.7082 162.245 78.1468 157.836 79.0006 153.427C79.6033 150.12 82.014 147.464 84.5754 145.309C87.1367 143.155 89.9994 141.301 92.0586 138.645C95.7751 133.985 96.4782 127.572 96.0262 121.659C95.7751 118.152 95.1222 114.594 95.4235 111.086C95.6746 108.431 96.4782 105.725 98.236 103.671C100.295 101.366 101.3 99.8626 101.45 96.5556Z" fill="#3F3D56"/>
<path opacity="0.1" d="M100.697 92.6972C99.4915 90.7431 97.0306 89.9915 94.7706 89.5405C95.9759 89.9915 96.9804 90.7932 97.6835 91.8454C98.3364 93.048 98.5875 94.4009 98.4368 95.7036C98.2862 99.0107 97.2315 100.464 95.2728 102.819C93.515 104.873 92.7114 107.579 92.4603 110.235C92.159 113.742 92.7617 117.3 93.063 120.807C93.515 126.77 92.8119 133.133 89.0954 137.793C87.0362 140.399 84.1735 142.303 81.6122 144.457C79.0508 146.612 76.6401 149.268 76.0374 152.575C75.2339 156.984 77.745 161.393 77.5441 165.853C77.4437 168.058 76.6903 170.112 75.9872 172.216C75.033 174.822 74.0285 177.578 71.8187 179.281C69.3076 181.236 65.9426 181.386 62.7786 181.486L54.0398 181.737C53.8389 182.037 53.638 182.388 53.4371 182.689L65.792 182.388C68.956 182.288 72.3712 182.138 74.8321 180.183C77.0419 178.48 78.0463 175.724 79.0006 173.118C79.7539 171.064 80.5073 168.96 80.5575 166.755C80.7584 162.295 78.197 157.886 79.0508 153.477C79.6535 150.17 82.0642 147.514 84.6255 145.359C87.1869 143.205 90.0496 141.351 92.1087 138.695C95.8252 134.035 96.5284 127.622 96.0764 121.709C95.8252 118.202 95.1723 114.644 95.4737 111.136C95.7248 108.481 96.5284 105.775 98.2862 103.721C100.245 101.366 101.3 99.9126 101.45 96.6056C101.601 95.2527 101.35 93.8998 100.697 92.6972Z" fill="black"/>
<path opacity="0.1" d="M193.559 285.808L170.858 341.025C169.552 340.123 168.498 338.921 167.694 337.568C169.502 330.703 171.411 323.689 175.127 317.626C176.333 315.621 177.739 313.767 178.944 311.863C182.56 306.201 183.314 299.036 187.432 293.775C188.235 292.673 188.235 291.169 187.432 290.067C186.93 289.466 186.176 288.864 186.327 288.113C186.427 287.562 187.03 287.061 186.779 286.509C186.678 286.259 186.427 286.109 186.226 285.958C185.523 285.307 185.624 284.205 185.574 283.252C185.423 280.847 183.966 278.743 182.56 276.789C182.259 276.338 181.907 275.937 181.455 275.586C181.104 275.336 180.652 275.235 180.25 275.035C178.944 274.233 179.045 272.279 178.392 270.876C177.588 269.022 175.479 268.07 174.123 266.517C172.365 264.613 171.963 261.907 170.105 260.203L169.954 259.803L171.712 249.13L193.559 285.808Z" fill="black"/>
</g>
<defs>
<linearGradient id="paint0_linear" x1="133.541" y1="373.227" x2="133.541" y2="72.2904" gradientUnits="userSpaceOnUse">
<stop stop-color="#808080" stop-opacity="0.25"/>
<stop offset="0.54" stop-color="#808080" stop-opacity="0.12"/>
<stop offset="1" stop-color="#808080" stop-opacity="0.1"/>
</linearGradient>
<linearGradient id="paint1_linear" x1="99.3408" y1="124.416" x2="158.767" y2="124.416" gradientUnits="userSpaceOnUse">
<stop offset="0.286458" stop-color="#007CF0"/>
<stop offset="1" stop-color="#00DFD8"/>
</linearGradient>
<linearGradient id="paint2_linear" x1="99.3408" y1="124.416" x2="158.767" y2="124.416" gradientUnits="userSpaceOnUse">
<stop offset="0.286458" stop-color="#007CF0"/>
<stop offset="1" stop-color="#00DFD8"/>
</linearGradient>
<linearGradient id="paint3_linear" x1="75.0283" y1="179.519" x2="170.055" y2="179.519" gradientUnits="userSpaceOnUse">
<stop offset="0.286458" stop-color="#007CF0"/>
<stop offset="1" stop-color="#00DFD8"/>
</linearGradient>
<linearGradient id="paint4_linear" x1="73.1819" y1="133.559" x2="153.079" y2="133.559" gradientUnits="userSpaceOnUse">
<stop offset="0.286458" stop-color="#007CF0"/>
<stop offset="1" stop-color="#00DFD8"/>
</linearGradient>
<clipPath id="clip0">
<rect width="507" height="376" fill="white"/>
</clipPath>
</defs>
</svg>
