<svg width="505" height="324" viewBox="0 0 505 324" fill="none" xmlns="http://www.w3.org/2000/svg">
<path d="M474.723 277.33C473.818 273.561 470.782 270.748 468.598 267.509C463.166 259.494 462.527 249.195 466.947 240.596C469.078 236.561 472.433 232.368 471.208 227.962C470.409 224.989 467.693 222.972 465.083 221.379C455.071 215.381 443.46 212.408 431.743 212.833C417.416 213.417 403.09 219.15 389.029 216.283C375.342 213.523 363.731 206.675 349.405 205.879C338.7 205.295 328.101 205.932 317.343 204.764C290.82 201.898 264.137 201.261 237.507 202.853C210.878 201.261 184.195 201.898 157.672 204.764C146.967 205.932 136.368 205.242 125.663 205.879C111.283 206.675 99.673 213.523 85.9854 216.283C71.925 219.097 57.5984 213.417 43.2717 212.833C31.5547 212.355 19.9975 215.328 9.93152 221.379C7.26856 222.972 4.60561 224.989 3.80673 227.962C2.58177 232.368 5.93709 236.561 8.06745 240.596C12.4879 249.195 11.8488 259.494 6.41642 267.509C4.17954 270.695 1.19703 273.561 0.291629 277.33C-1.57244 284.921 5.83057 291.61 13.0738 294.582C32.7796 302.81 56.7995 298.829 74.8543 310.295C82.9497 315.444 90.0331 323.672 99.6198 323.991C106.117 324.203 111.976 320.594 117.675 317.462C126.143 312.737 134.984 308.703 144.144 305.465C152.133 302.651 160.601 300.369 169.016 301.324C181.905 302.757 237.561 329.512 262.646 313.693C279.848 302.81 293.216 302.757 306.158 301.324C314.573 300.369 323.041 302.651 331.03 305.465C340.191 308.703 349.032 312.737 357.5 317.462C363.146 320.647 369.057 324.203 375.555 323.991C385.142 323.672 392.225 315.444 400.32 310.295C418.375 298.829 442.342 302.81 462.101 294.582C469.131 291.557 476.534 284.921 474.723 277.33Z" fill="#3F3D56"/>
<path d="M471.721 277.111C470.817 273.411 467.84 270.61 465.661 267.439C460.345 259.563 459.707 249.414 464.066 240.904C466.192 236.94 469.488 232.817 468.265 228.483C467.468 225.576 464.81 223.567 462.205 221.982C452.318 216.062 440.889 213.102 429.301 213.578C415.161 214.159 401.021 219.762 387.147 217.013C373.591 214.318 362.163 207.552 347.969 206.759C337.391 206.178 326.919 206.812 316.341 205.702C290.187 202.9 263.821 202.266 237.508 203.852C211.248 202.266 184.881 202.9 158.675 205.702C148.096 206.865 137.624 206.178 127.046 206.759C112.853 207.552 101.424 214.318 87.8686 217.013C73.9944 219.815 59.8544 214.159 45.7145 213.578C34.1793 213.155 22.7503 216.062 12.8098 221.982C10.2051 223.567 7.54721 225.576 6.74985 228.483C5.58038 232.817 8.87616 236.94 10.9493 240.904C15.3082 249.362 14.6704 259.51 9.35458 267.439C7.17511 270.557 4.19828 273.359 3.29459 277.111C1.43407 284.564 8.71668 291.171 15.8398 294.078C35.3487 302.165 59.0039 298.254 76.8118 309.512C84.7854 314.587 91.8022 322.727 101.264 322.991C107.643 323.202 113.491 319.661 119.072 316.542C127.418 311.891 136.189 307.927 145.226 304.755C153.146 301.954 161.439 299.734 169.785 300.633C182.543 302.06 237.454 328.435 262.173 312.842C279.13 302.165 292.366 302.06 305.124 300.633C313.47 299.681 321.816 301.954 329.683 304.755C338.72 307.927 347.438 311.891 355.837 316.542C361.418 319.661 367.266 323.202 373.645 322.991C383.107 322.674 390.124 314.587 398.097 309.512C415.905 298.254 439.613 302.165 459.069 294.078C466.245 291.118 473.528 284.564 471.721 277.111Z" fill="#3F3D56"/>
<path d="M38 0V13.2775V263H426V13.2775V0H38Z" fill="url(#paint0_linear)"/>
<path d="M421 12H44V258H421V12Z" fill="white"/>
<path d="M421 0H44V18H421V0Z" fill="#3F3D56"/>
<path d="M58.5 13C60.9853 13 63 10.9853 63 8.5C63 6.01472 60.9853 4 58.5 4C56.0147 4 54 6.01472 54 8.5C54 10.9853 56.0147 13 58.5 13Z" fill="#FF5B4F"/>
<path d="M70.5 13C72.9853 13 75 10.9853 75 8.5C75 6.01472 72.9853 4 70.5 4C68.0147 4 66 6.01472 66 8.5C66 10.9853 68.0147 13 70.5 13Z" fill="#FF5B4F"/>
<path d="M82.5 13C84.9853 13 87 10.9853 87 8.5C87 6.01472 84.9853 4 82.5 4C80.0147 4 78 6.01472 78 8.5C78 10.9853 80.0147 13 82.5 13Z" fill="#FF5B4F"/>
<path d="M199 47H59V53H199V47Z" fill="#FF5B4F"/>
<path d="M199 59H59V65H199V59Z" fill="#FF5B4F"/>
<path d="M199 71H59V76H199V71Z" fill="#FF5B4F"/>
<path d="M199 82H107V88H199V82Z" fill="#FF5B4F"/>
<path d="M133 94H59V100H133V94Z" fill="#FF5B4F"/>
<path d="M155 106H98V112H155V106Z" fill="#FF5B4F"/>
<path d="M383 88H218V183H383V88Z" fill="#E6E6E6"/>
<path d="M403 97H237V192H403V97Z" fill="#EEEEEE"/>
<path opacity="0.5" d="M502.521 185.164C502.841 184.738 503.054 184.205 503.054 183.62V183.567C503.054 183.567 503.107 183.46 503.107 183.407V183.354C503.107 183.3 503.107 183.247 503.107 183.194V183.141C503.107 183.087 503.107 183.034 503.107 182.928C502.788 180.798 490.122 166.903 486.983 149.972C486.61 148.109 486.131 146.299 485.439 144.595C485.546 143.743 485.493 142.838 485.28 141.987C484.748 139.804 483.683 137.621 484.215 135.438C484.269 135.172 484.375 134.906 484.535 134.64C485.173 133.681 485.812 132.67 486.344 131.605C486.557 131.285 486.717 130.913 486.876 130.54C488.845 125.429 482.779 120.158 483.896 114.781C484.375 112.439 486.184 110.469 486.131 108.073C486.078 105.358 483.577 103.282 481.023 102.27C478.468 101.258 475.595 100.992 473.093 99.8742C467.559 97.4252 464.526 91.5157 459.47 88.2148C453.031 84.0089 444.677 84.7543 436.96 85.8723C436.428 85.9255 436.003 86.2982 435.79 86.7241H435.736C435.683 86.8838 435.63 87.0435 435.524 87.2033C434.459 89.0134 432.65 90.3976 430.894 91.6754C428.712 93.2193 426.424 94.71 425.093 96.9461C424.881 97.2655 424.721 97.5849 424.561 97.9044C421.688 103.015 425.147 105.251 429.351 106.476C429.244 107.221 429.138 107.967 429.138 108.712C429.138 116.165 435.364 122.235 443.027 122.235C443.612 122.235 444.251 122.182 444.836 122.128L445.262 122.395H445.368C446.805 123.406 448.029 124.737 448.561 126.228L444.091 129.635C444.091 129.635 444.251 130.114 444.517 130.86L427.009 138.952C420.357 139.271 409.608 118.348 409.608 118.348C409.608 118.348 408.011 106.369 402.317 104.187C400.614 103.548 399.923 104.879 399.816 107.115C397.262 109.777 401.519 124.737 401.519 124.737L415.089 148.748C416.366 151.197 416.685 152.741 422.699 153.646C427.648 154.391 443.027 148.961 448.348 146.938L448.614 149.067C447.976 150.665 447.71 152.422 447.816 154.178C447.816 158.118 449.572 163.815 458.087 168.34C458.087 168.34 466.921 179.733 465.909 190.541C465.909 190.541 466.335 190.967 467.027 191.552C466.921 194.587 466.495 198.314 464.952 199.805C464.739 200.018 464.632 200.284 464.685 200.55C464.632 200.869 464.792 201.189 465.058 201.349L453.936 220.887C453.51 221.42 453.085 221.952 452.659 222.485C450.583 225.147 448.295 227.596 445.794 229.832C443.932 231.482 442.016 233.292 441.643 233.984C441.058 235.049 439.568 238.51 440.207 241.331C441.005 244.792 441.377 248.306 441.218 251.819L439.781 277.055C439.302 279.877 438.61 282.645 437.759 285.413H437.546C437.546 285.413 432.171 291.855 423.657 293.399C415.142 294.943 415.408 299.256 417.963 299.841C420.517 300.427 451.169 299.202 451.169 299.202C451.169 299.202 452.34 296.966 452.02 294.89C461.812 293.932 475.382 292.335 475.382 292.335C475.382 292.335 477.244 287.863 474.53 285.946C473.519 285.147 472.774 284.083 472.348 282.858C472.189 282.166 472.029 281.421 471.816 280.569C471.763 280.143 471.763 279.93 471.763 279.93H471.657C471.178 277.534 470.805 274.979 471.018 273.648C471.816 270.134 473.838 249.637 468.783 243.78C466.495 241.118 466.814 238.084 467.825 235.581C473.892 231.588 482.406 223.07 487.302 217.853C487.568 218.066 487.834 218.332 488.047 218.545L488.207 218.705C488.207 218.705 504.916 210.452 504.969 195.812C505.182 192.191 504.278 188.518 502.521 185.164ZM448.987 288.288C448.934 287.756 448.987 287.224 449.04 286.691L448.508 286.638C448.827 284.295 449.572 281.74 451.275 279.93C454.202 274.659 456.224 268.963 457.342 263.053L460.428 274.659C460.428 274.659 460.748 277.055 460.801 279.61H460.748C460.748 279.61 456.49 285.733 448.987 288.288Z" fill="url(#paint1_linear)"/>
<path d="M463 137.525C463 137.525 455.542 140.246 451.363 144.727C451.363 144.727 431.052 152.836 425.392 151.929C419.732 151.022 419.415 149.528 418.251 147.128L405.398 123.654C405.398 123.654 400.003 104.074 405.398 106.155C410.793 108.235 412.274 120.026 412.274 120.026C412.274 120.026 422.43 140.512 428.671 140.192L445.703 132.03C445.703 132.03 449.565 126.321 451.363 126.588C453.162 126.855 463 137.525 463 137.525Z" fill="#FDB797"/>
<path opacity="0.05" d="M463 137.525C463 137.525 455.542 140.246 451.363 144.727C451.363 144.727 431.052 152.836 425.392 151.929C419.732 151.022 419.415 149.528 418.251 147.128L405.398 123.654C405.398 123.654 400.003 104.074 405.398 106.155C410.793 108.235 412.274 120.026 412.274 120.026C412.274 120.026 422.43 140.512 428.671 140.192L445.703 132.03C445.703 132.03 449.565 126.321 451.363 126.588C453.162 126.855 463 137.525 463 137.525Z" fill="black"/>
<path d="M450.925 126.764L445 131.247C445 131.247 447.936 138.736 447.202 141.386C446.468 144.035 459 137.259 459 137.259L453.861 126L450.925 126.764Z" fill="#F9CE43"/>
<path opacity="0.05" d="M450.925 126.764L445 131.247C445 131.247 447.936 138.736 447.202 141.386C446.468 144.035 459 137.259 459 137.259L453.861 126L450.925 126.764Z" fill="black"/>
<path d="M440 120.985C440 120.985 453.663 125.344 447.349 133L467 123.696C467 123.696 458.726 124.281 453.5 112L440 120.985Z" fill="#FDB797"/>
<path d="M465.538 200L449 229.552L460.114 272.532C460.114 272.532 461.337 282.101 459.529 283H472.131C472.131 283 469.685 274.541 470.323 271.687C471.068 268.25 473.035 248.425 468.196 242.716C463.357 237.006 470.589 229.605 470.589 229.605L485 206.925L465.538 200Z" fill="#FDB797"/>
<path opacity="0.05" d="M465.538 200L449 229.552L460.114 272.532C460.114 272.532 461.337 282.101 459.529 283H472.131C472.131 283 469.898 274.489 470.323 271.687C470.749 268.832 473.035 248.425 468.196 242.716C463.357 237.006 470.589 229.605 470.589 229.605L485 206.925L465.538 200Z" fill="black"/>
<path d="M460.305 277C460.305 277 455.677 283.923 447.604 286.103C439.532 288.283 440.177 292.59 442.653 292.971C445.128 293.353 474.405 289.81 474.405 289.81C474.405 289.81 476.181 285.34 473.597 283.378C471.014 281.415 471.014 277.382 471.014 277.382L460.305 277Z" fill="#0D134D"/>
<path opacity="0.1" d="M466.103 188C466.103 188 466.793 197.365 464.246 199.808C463.927 200.114 463.927 200.572 464.193 200.877C464.246 200.928 464.299 200.979 464.405 201.03L472.101 205L479 192.377L466.103 188Z" fill="black"/>
<path d="M466.103 187C466.103 187 466.793 196.916 464.246 199.503C463.927 199.826 463.927 200.311 464.193 200.635C464.246 200.689 464.299 200.743 464.405 200.796L472.101 205L479 191.635L466.103 187Z" fill="#E23553"/>
<path opacity="0.1" d="M466.103 188C466.103 188 466.793 197.916 464.246 200.503C463.927 200.826 463.927 201.311 464.193 201.635C464.246 201.689 464.299 201.743 464.405 201.796L472.101 206L479 192.635L466.103 188Z" fill="#FF5B4F"/>
<path d="M466.78 207C466.78 207 462.244 209.944 452.74 222.086C450.742 224.609 448.528 226.974 446.152 229.129C444.37 230.706 442.48 232.494 442.102 233.124C441.508 234.123 440.104 237.487 440.698 240.221C441.508 243.532 441.778 246.949 441.67 250.365L440.266 274.703C440.266 274.703 438.43 285.688 436 286.897L448.528 289C448.528 289 447.61 281.273 451.282 277.436C451.282 277.436 459.814 263.191 457.708 247.159C457.708 247.159 456.79 240.063 464.998 236.173C473.206 232.283 490 213.623 490 213.623L466.78 207Z" fill="#FDB797"/>
<path d="M438.163 283C438.163 283 433.037 289.215 424.92 290.677C416.804 292.139 417.071 296.265 419.474 296.839C421.877 297.414 451.139 296.265 451.139 296.265C451.139 296.265 453.275 292.139 450.819 290.05C448.362 287.961 449.003 284.149 449.003 284.149L438.163 283Z" fill="#0D134D"/>
<path opacity="0.1" d="M474.539 190.707C474.539 190.707 470.867 202.902 466.238 206.492C465.972 206.703 465.918 207.072 466.131 207.336C466.185 207.442 466.291 207.495 466.397 207.548C470.229 208.92 482.574 213.618 486.884 217.842L487.044 218C487.044 218 512.745 205.014 498.91 183L474.539 190.707Z" fill="black"/>
<path d="M474.539 190.707C474.539 190.707 470.867 202.902 466.238 206.492C465.972 206.703 465.918 207.072 466.131 207.336C466.185 207.442 466.291 207.495 466.397 207.548C470.229 208.92 482.574 213.618 486.884 217.842L487.044 218C487.044 218 512.745 205.014 498.91 183L474.539 190.707Z" fill="#FF5B4F"/>
<path opacity="0.1" d="M453.207 129.021C451.281 130.311 449.194 131.333 447 132.031L449.087 150.578C449.087 150.578 444.218 161.491 458.13 169.124C458.13 169.124 466.584 180.36 465.621 191.004C465.621 191.004 470.169 195.896 473.165 194.66C476.162 193.423 473.486 195.251 474.075 194.982C474.663 194.713 475.894 197.401 485.258 194.982C494.622 192.563 501.31 186.22 500.989 184.123C500.668 182.026 488.629 168.318 485.686 151.599C482.743 134.881 464.925 123 464.925 123C464.925 123 464.336 123.323 463.32 123.753C459.735 125.258 456.417 126.978 453.207 129.021Z" fill="black"/>
<path opacity="0.1" d="M466 207C466 207.26 466.154 207.52 466.36 207.572C469.549 208.769 478.857 212.358 484 216C479.526 212.358 470.063 208.561 466 207Z" fill="black"/>
<path opacity="0.1" d="M498.918 183L498.384 183.158C510.234 203.641 487.922 215.994 486 217.05C486.32 217.314 486.641 217.578 486.907 217.842L487.068 218C487.014 218 512.743 205.066 498.918 183Z" fill="black"/>
<path d="M485.342 194.007C475.997 196.393 474.769 193.688 474.181 194.007C473.594 194.325 476.317 192.522 473.274 193.688C470.23 194.855 465.744 190.082 465.744 190.082C465.797 189.552 465.797 189.075 465.797 188.545C465.851 178.522 458.161 168.499 458.161 168.499C444.277 161.022 449.136 150.257 449.136 150.257L448.549 145.325L447 131.909C449.189 131.22 451.272 130.212 453.195 128.939C456.399 126.924 459.71 125.174 463.181 123.742C464.195 123.318 464.783 123 464.783 123C464.783 123 482.565 134.667 485.609 151.159C488.653 167.651 500.668 181.12 500.989 183.189C501.309 185.257 494.687 191.62 485.342 194.007Z" fill="#F9CE43"/>
<path opacity="0.1" d="M453.955 113L441 121.578C442.776 122.183 444.5 122.991 446.067 124C450.507 123.394 453.172 120.367 455 116.583C454.269 115.472 454.582 114.514 453.955 113Z" fill="black"/>
<path d="M443.5 124C450.956 124 457 118.18 457 111C457 103.82 450.956 98 443.5 98C436.044 98 430 103.82 430 111C430 118.18 436.044 124 443.5 124Z" fill="#FDB797"/>
<path opacity="0.1" d="M487.438 192.454C478.09 194.844 476.861 192.135 476.273 192.454C475.686 192.773 478.41 190.967 475.365 192.135C472.321 193.304 467.833 188.523 467.833 188.523C467.887 187.992 467.887 187.514 467.887 186.983C467.94 176.944 460.301 166.906 460.301 166.906C446.412 159.416 451.274 148.634 451.274 148.634L450.686 143.694L449.19 131C448.496 131.319 447.748 131.584 447 131.797L448.549 145.235L449.137 150.174C449.137 150.174 444.329 160.957 458.165 168.446C458.165 168.446 465.803 178.485 465.75 188.523C465.75 189.055 465.75 189.533 465.697 190.064C465.697 190.064 470.237 194.844 473.229 193.676C476.22 192.507 473.549 194.26 474.137 193.994C474.724 193.729 475.953 196.384 485.301 193.994C489.521 192.879 493.528 190.967 497 188.311C494.062 190.17 490.803 191.551 487.438 192.454Z" fill="black"/>
<path d="M462 140.525C462 140.525 454.542 143.246 450.363 147.727C450.363 147.727 430.052 155.836 424.392 154.929C418.732 154.022 418.415 152.528 417.251 150.128L404.398 126.654C404.398 126.654 399.003 107.074 404.398 109.155C409.793 111.235 411.274 123.026 411.274 123.026C411.274 123.026 421.43 143.512 427.671 143.192L444.704 135.03C444.704 135.03 448.565 129.321 450.363 129.588C452.162 129.855 462 140.525 462 140.525Z" fill="#FDB797"/>
<path opacity="0.1" d="M452.039 129.01C452.039 129.01 445.921 128.42 444.143 136.299C442.365 144.177 457.738 149 457.738 149L466 137.21L452.039 129.01Z" fill="black"/>
<path d="M452.404 129.01C452.404 129.01 446.008 128.42 444.15 136.299C442.291 144.177 458.363 149 458.363 149L467 137.21L452.404 129.01Z" fill="#F9CE43"/>
<path opacity="0.1" d="M450 131C449.018 131.3 448.036 131.533 447 131.7L447.055 132C448.036 131.7 449.018 131.367 450 131Z" fill="black"/>
<path opacity="0.1" d="M500.991 183.475C500.669 181.344 488.526 167.81 485.517 151.293C482.509 134.775 464.564 123 464.564 123C464.564 123 463.973 123.32 462.952 123.746C460.212 124.918 457.579 126.25 455 127.742C456.719 126.836 458.439 126.037 460.212 125.291C461.232 124.865 461.823 124.545 461.823 124.545C461.823 124.545 479.715 136.267 482.777 152.838C485.84 169.408 497.929 182.942 498.251 185.02C498.466 186.352 495.887 189.336 491.589 192C497.499 189.07 501.206 185.073 500.991 183.475Z" fill="black"/>
<path opacity="0.1" d="M456 129C456 129 463.595 133.095 465 141" stroke="black" stroke-miterlimit="10"/>
<path opacity="0.1" d="M436.938 110.482C438.16 110.748 439.54 111.12 440.178 112.235C440.602 113.031 440.549 114.04 440.974 114.89C442.089 116.961 445.329 116.271 447.347 117.492C451.064 119.723 448.621 126.733 452.339 128.963C453.029 129.388 453.879 129.548 454.569 129.972C457.702 131.672 457.277 136.186 456.693 139.744C456.109 143.302 456.799 148.082 460.304 148.56C462.269 148.825 464.446 147.551 466.04 148.613C466.889 149.197 467.261 150.206 468.005 150.949C469.014 151.958 470.5 152.277 471.828 151.746C473.049 151.268 473.899 150.1 475.121 149.728C477.139 149.144 479.369 150.79 481.281 149.993C483.193 149.197 483.67 146.435 483.139 144.364C482.608 142.293 481.599 140.116 482.13 137.991C482.555 136.239 483.989 134.911 484.626 133.212C486.485 128.22 480.75 123.069 481.812 117.864C482.29 115.634 483.989 113.616 483.936 111.332C483.883 108.677 481.546 106.659 479.103 105.703C476.661 104.747 473.952 104.428 471.563 103.366C466.305 100.976 463.437 95.1877 458.658 92.0014C456.534 90.6206 454.091 89.6647 451.542 89.2929C444.904 88.2308 438.16 90.0895 433.008 94.338C432.53 94.7098 432.052 95.0815 431.575 95.4533C429.503 96.9403 427.326 98.3741 426.105 100.605C421.591 108.517 432.052 109.42 436.938 110.482Z" fill="black"/>
<path d="M437.162 109.5C438.403 109.766 439.806 110.137 440.454 111.252C440.885 112.048 440.831 113.057 441.263 113.906C442.396 115.977 445.688 115.287 447.738 116.507C451.516 118.737 449.034 125.744 452.811 127.973C453.513 128.398 454.376 128.557 455.077 128.982C458.261 130.681 457.83 135.193 457.236 138.749C456.642 142.306 457.344 147.083 460.905 147.561C462.902 147.827 465.114 146.553 466.733 147.614C467.597 148.198 467.975 149.207 468.73 149.95C469.755 150.958 471.266 151.277 472.615 150.746C473.856 150.268 474.72 149.101 475.961 148.729C478.012 148.145 480.278 149.791 482.221 148.994C484.163 148.198 484.649 145.438 484.109 143.368C483.57 141.297 482.544 139.121 483.084 136.998C483.516 135.246 484.973 133.919 485.62 132.22C487.509 127.23 481.681 122.081 482.76 116.879C483.246 114.65 484.973 112.632 484.919 110.35C484.865 107.696 482.49 105.678 480.008 104.723C477.526 103.767 474.774 103.449 472.345 102.387C467.003 99.9985 464.089 94.2125 459.233 91.0275C457.236 89.7535 455.023 88.8511 452.703 88.4264C445.742 87.0993 438.565 88.9041 433.115 93.3631C432.629 93.7347 432.143 94.1063 431.658 94.4248C429.553 95.9111 427.341 97.3444 426.099 99.5739C421.567 107.536 432.197 108.439 437.162 109.5Z" fill="#444053"/>
<path d="M330 192H237V175.035C259.716 164.742 294.671 159.001 330 192Z" fill="#FF5B4F"/>
<path opacity="0.1" d="M402 189.569V192H286V191.483C286 191.483 343.091 137.695 402 189.569Z" fill="black"/>
<path d="M403 189.569V192H288V191.483C288 191.483 344.599 137.695 403 189.569Z" fill="#FF5B4F"/>
<path d="M256.5 123C261.194 123 265 119.194 265 114.5C265 109.806 261.194 106 256.5 106C251.806 106 248 109.806 248 114.5C248 119.194 251.806 123 256.5 123Z" fill="url(#paint2_linear)"/>
<path d="M328.87 108.132C327.902 108.132 326.773 108.132 326.021 108.179C325.698 108.179 325.376 108.271 325.053 108.364L320 109.942C324.085 110.035 328.332 109.988 332.525 109.988L356.017 109.849C358.436 109.849 360.908 109.803 362.897 109.71C364.241 109.617 365.209 109.524 366.445 109.432C370.907 109.107 377.358 109.153 383.163 109.153C388.969 109.153 395.957 109.06 398 108.55H385.582C384.238 108.55 382.841 108.55 381.658 108.503C380.261 108.457 379.454 108.318 378.218 108.225C376.229 108.086 373.433 108.039 370.853 108.039C356.715 107.9 342.685 108.179 328.87 108.132Z" fill="#F4F4F4"/>
<path d="M342.895 118.111C342.678 118.111 342.462 118.111 342.299 118.111C342.245 118.111 342.137 118.111 342.083 118.222L341 119C341.92 119 342.841 119 343.707 119L348.85 118.889C349.392 118.889 349.933 118.889 350.366 118.778C350.637 118.778 350.854 118.667 351.124 118.667C352.099 118.444 353.506 118.556 354.752 118.556C355.834 118.667 356.917 118.556 358 118.222H355.293C355.022 118.222 354.697 118.222 354.427 118.222C354.156 118.222 353.939 118.111 353.669 118.111C353.236 118 352.64 118 352.045 118C348.959 118 345.927 118.111 342.895 118.111Z" fill="#F4F4F4"/>
<path d="M287.014 188H283.122C283.122 188 281.928 143.691 287.014 130H288C288 130 284.575 180.184 287.014 188Z" fill="#F9A826"/>
<path d="M284.758 128.002C284.758 128.002 281.569 137.005 283.033 141C283.033 141 285.229 132.743 287.843 131.464C290.458 130.186 293.124 141 293.124 141C293.124 141 294.588 134.234 291.922 128.747C291.922 128.747 297.307 131.731 300.026 137.537C300.026 137.537 300.497 133.808 294.118 126.03C294.118 126.03 299.765 127.522 303.477 131.038C303.477 131.038 304.68 128.268 297.098 123.793C297.098 123.793 298.092 120.543 304 122.035C304 122.035 304 117.773 294.641 118.519C294.641 118.519 294.641 115.749 300.81 116.282C300.81 116.282 300.81 112.766 293.699 114.044C293.699 114.044 295.163 111.807 296.157 111.274C294.902 111.167 293.699 111.54 292.706 112.286C292.706 112.286 292.967 107.758 289.255 106L288.784 112.286C288.784 112.286 284.654 107.332 285.595 108.291C285.856 108.557 286.588 111.54 286.327 113.032C286.327 113.032 282.144 109.516 276.967 113.298C276.967 113.298 283.346 113.778 284.34 116.068C284.34 116.068 278.954 115.056 277.699 115.802C277.699 115.802 281.882 117.294 281.621 118.306C281.621 118.306 274.248 118.306 273.255 121.076C273.255 121.076 280.889 122.088 281.359 122.834C281.359 122.834 272.523 129.333 272 131.091C272 131.091 281.098 125.604 282.562 125.604C284.026 125.604 275.922 133.595 276.392 135.619C276.444 135.513 283.085 127.469 284.758 128.002Z" fill="#F9A826"/>
<path d="M336.769 186H339.896C339.896 186 340.884 152.384 336.769 142H336.001C335.946 141.947 338.744 180.005 336.769 186Z" fill="#F9A826"/>
<path d="M339 140.942C339 140.942 341.527 147.88 340.344 151C340.344 151 338.624 144.6 336.581 143.685C334.538 142.771 332.441 151 332.441 151C332.441 151 331.258 145.783 333.409 141.534C330.667 143.147 328.462 145.46 327.064 148.311C327.064 148.311 326.688 145.406 331.688 139.436C331.688 139.436 327.226 140.566 324.376 143.309C324.376 143.309 323.409 141.157 329.376 137.715C329.376 137.715 328.624 135.187 324 136.371C324 136.371 324 133.09 331.312 133.681C331.312 133.681 331.312 131.53 326.473 131.96C326.473 131.96 326.473 129.271 332.065 130.239C332.065 130.239 330.882 128.518 330.129 128.088C331.097 127.98 332.064 128.303 332.817 128.841C332.817 128.841 332.602 125.345 335.505 124L335.882 128.841C335.882 128.841 339.108 125.022 338.409 125.775C337.925 126.958 337.763 128.195 337.817 129.432C337.817 129.432 341.097 126.743 345.129 129.647C345.129 129.647 340.129 130.024 339.323 131.799C339.323 131.799 343.57 131.046 344.538 131.584C344.538 131.584 341.258 132.713 341.473 133.52C341.473 133.52 347.28 133.52 348.032 135.671C348.032 135.671 342.064 136.424 341.688 137.016C341.688 137.016 348.624 142.018 349 143.416C349 143.416 341.849 139.167 340.72 139.167C339.591 139.167 345.935 145.353 345.559 146.912C345.559 146.751 340.344 140.566 339 140.942Z" fill="#F9A826"/>
<path d="M373.39 179H374.952C374.952 179 375.429 158.365 373.39 152H373C373 152 374.344 175.34 373.39 179Z" fill="#F9A826"/>
<path d="M374.545 151.679C374.545 151.679 376.145 156.038 375.428 158C375.428 158 374.324 154.022 373.055 153.369C371.786 152.715 370.407 158 370.407 158C370.407 158 369.69 154.731 371.014 152.061C369.303 153.096 367.869 154.513 366.986 156.311C366.986 156.311 366.765 154.513 369.91 150.753C368.2 151.244 366.6 152.061 365.221 153.205C365.221 153.205 364.614 151.843 368.421 149.663C368.421 149.663 367.924 148.083 365 148.792C365 148.792 365 146.721 369.69 147.103C369.69 147.103 369.69 145.74 366.6 146.013C366.6 146.013 366.6 144.324 370.186 144.923C369.855 144.433 369.469 143.942 368.972 143.561C369.579 143.506 370.186 143.67 370.683 144.051C370.683 144.051 370.572 141.872 372.393 141L372.614 144.051C372.614 144.051 374.655 141.654 374.214 142.09C373.938 142.798 373.772 143.615 373.828 144.378C375.207 143.343 377.138 143.397 378.517 144.487C378.517 144.487 375.317 144.705 374.821 145.849C374.821 145.849 377.524 145.359 378.131 145.74C378.131 145.74 376.034 146.449 376.145 146.939C376.145 146.939 379.841 146.939 380.338 148.301C380.338 148.301 376.531 148.792 376.31 149.173C376.31 149.173 380.724 152.333 381 153.151C381 153.151 376.476 150.481 375.703 150.481C374.931 150.481 379.014 154.349 378.793 155.33C378.738 155.276 375.428 151.407 374.545 151.679Z" fill="#F9A826"/>
<path d="M304 155.984L303.566 153.806C303.566 153.479 303.458 153.152 303.187 152.935L301.289 152.009C301.126 151.846 301.018 151.682 300.964 151.465L301.018 151.41C301.126 151.301 301.181 151.138 301.235 150.975C301.235 150.92 301.235 150.866 301.235 150.866C301.614 150.92 301.94 150.702 301.994 150.321V150.267C301.94 150.593 301.669 150.811 301.343 150.811C301.886 150.43 302.211 149.831 302.211 149.232V149.178C302.373 149.069 302.482 148.906 302.536 148.688V148.633C302.482 148.797 302.373 148.96 302.211 149.069C302.211 148.906 302.157 148.688 302.102 148.524H302.157C302.536 148.524 302.861 148.198 302.861 147.817V147.762C302.861 148.143 302.536 148.416 302.157 148.416H302.048V148.361C302.482 148.252 302.807 147.871 302.861 147.436V147.381C302.861 147.544 302.807 147.653 302.699 147.762C302.699 147.381 302.428 147.054 302.048 147C301.723 147 301.398 147.218 301.343 147.544L301.235 147.49C301.289 147.218 301.56 147 301.886 147H301.831C301.506 147 301.289 147.163 301.181 147.49C300.313 147.109 299.283 147.381 298.741 148.198C298.578 148.307 298.416 148.47 298.416 148.579C298.361 148.633 298.307 148.688 298.253 148.797C298.036 149.232 297.982 149.777 298.036 150.267C298.09 150.757 297.928 151.247 297.548 151.628C297.711 151.682 297.873 151.682 298.036 151.628C298.199 151.573 298.361 151.465 298.47 151.356C298.578 151.301 298.687 151.192 298.795 151.029C298.904 151.083 298.958 151.138 299.066 151.192C299.12 151.519 299.12 151.9 298.958 152.009V151.955C298.632 152.227 298.199 152.336 297.765 152.281C297.223 152.336 296.735 152.608 296.518 153.098L295.922 155.548V155.602V155.657C295.922 155.711 295.976 155.766 296.084 155.766L296.247 155.82C296.301 156.256 296.247 156.691 296.138 157.072C296.03 157.671 295.922 158.325 295.922 158.924C295.976 159.25 296.03 160.829 296.084 161.646C296.03 161.918 295.976 162.19 295.922 162.463L295.054 167.744C295.054 167.744 294.404 171.936 294.458 173.243L294.349 174.005C294.349 174.005 292.56 176.237 293.102 176.564C293.644 176.891 294.404 176.999 295.163 175.802C295.271 175.529 295.434 175.257 295.651 175.039C295.813 174.876 295.922 174.658 295.922 174.441L295.867 173.896L295.976 173.951H296.03C296.03 173.951 296.898 171.065 296.789 169.05C296.789 169.05 298.416 163.279 299.608 162.354V162.136L299.717 162.081L299.988 167.689L299.717 173.842L299.663 174.223C299.663 174.223 297.873 176.455 298.416 176.782C298.958 177.108 299.717 177.217 300.476 176.019C300.584 175.747 300.747 175.475 300.964 175.257C301.126 175.094 301.235 174.876 301.235 174.658L301.126 173.842C301.452 172.807 302.211 169.813 301.886 168.07L302.428 164.368C302.97 163.769 302.916 162.19 302.916 162.19C303.349 161.319 303.458 157.78 303.458 157.78L303.566 156.038C303.62 156.038 303.729 156.038 303.837 156.038H303.892H303.946V155.984C303.946 156.038 303.946 156.038 304 155.984ZM302.482 159.522C302.428 159.414 302.373 159.305 302.319 159.141H302.265V159.087V159.032V158.978C302.265 158.924 302.319 158.869 302.319 158.815C302.373 158.706 302.428 158.597 302.428 158.434C302.482 158.815 302.536 159.141 302.482 159.522ZM302.319 157.998L302.211 156.855L302.265 156.746L302.428 158.216L302.319 157.998ZM297.169 158.161C297.114 158.27 297.06 158.379 297.06 158.488C297.06 158.488 297.06 158.488 297.06 158.542C297.06 158.651 297.06 158.76 297.114 158.869L296.952 159.577V158.161C297.06 157.998 297.169 157.835 297.223 157.671C297.277 157.889 297.223 158.052 297.169 158.161Z" fill="url(#paint3_linear)"/>
<path d="M298.464 149.424C298.321 149.83 298.285 150.287 298.321 150.744C298.357 151.201 298.25 151.657 298 151.962C298.107 152.013 298.214 152.013 298.321 151.962C298.428 151.911 298.535 151.81 298.607 151.708C298.678 151.657 298.749 151.556 298.821 151.454C298.856 151.302 298.892 151.099 298.856 150.896C298.856 150.541 298.892 150.236 298.928 149.881C298.964 149.678 299.071 149.119 298.928 149.018C298.785 148.916 298.535 149.272 298.464 149.424Z" fill="#72351C"/>
<path d="M294.548 172.113L294.376 173.246C294.376 173.246 292.537 175.511 293.111 175.794C293.686 176.077 294.433 176.247 295.238 175.058C295.353 174.775 295.525 174.548 295.755 174.322C295.928 174.152 296.043 173.925 295.985 173.699L295.813 172L294.548 172.113Z" fill="#333333"/>
<path d="M300.032 172.113L299.917 173.246C299.917 173.246 298.691 175.511 299.074 175.794C299.457 176.077 299.955 176.247 300.492 175.058C300.569 174.775 300.683 174.548 300.837 174.322C300.952 174.152 301.028 173.925 300.99 173.699L300.875 172L300.032 172.113Z" fill="#333333"/>
<path d="M297.502 159.502C297.502 159.502 296.69 160.115 296.419 162.178L295.607 167.364C295.607 167.364 294.903 172.048 295.011 172.996L296.419 173.498C296.419 173.498 297.231 170.654 297.177 168.703C297.177 168.703 298.91 162.457 300.101 162.011L300.372 167.532L300.101 173.721L301.292 174C301.292 174 302.538 170.041 302.104 167.922L302.754 163.461C302.754 163.461 303.458 161.063 302.483 159L297.502 159.502Z" fill="#4D8AF0"/>
<path opacity="0.1" d="M300 162.106V162C298.687 162.425 296.776 168.377 296.776 168.377C296.716 169.918 296.478 171.459 296 172.947L296.179 173C296.179 173 297.075 170.29 297.015 168.43C296.955 168.377 298.687 162.957 300 162.106Z" fill="black"/>
<path opacity="0.1" d="M302.43 159H302.258C302.887 160.399 303.002 161.966 302.544 163.422L301.858 167.899C302.258 169.914 301.114 173.552 301 173.944L301.172 174C301.172 174 302.487 170.026 302.029 167.899L302.716 163.422C302.716 163.422 303.517 161.071 302.43 159Z" fill="black"/>
<path d="M296 156.212C296 156.318 296.077 156.37 296.231 156.37C296.77 156.476 297.309 156.635 297.771 156.9C298.617 157.376 296.847 156 296.847 156L296.231 156.106L296 156.212Z" fill="#F55F44"/>
<path opacity="0.1" d="M296 156.212C296 156.318 296.077 156.37 296.231 156.37C296.77 156.476 297.309 156.635 297.771 156.9C298.617 157.376 296.847 156 296.847 156L296.231 156.106L296 156.212Z" fill="black"/>
<path d="M302 157C302.529 156.596 303.176 156.365 303.824 156.307C303.941 156.307 304 156.249 304 156.133C304 156.133 302.471 155.498 302 157Z" fill="#F55F44"/>
<path opacity="0.1" d="M304 156.116C304 156.116 302.471 155.527 302 157C302 157 303.118 156.116 303.941 156.293" fill="black"/>
<path d="M300.5 152C301.328 152 302 151.105 302 150C302 148.895 301.328 148 300.5 148C299.672 148 299 148.895 299 150C299 151.105 299.672 152 300.5 152Z" fill="#72351C"/>
<path d="M299.487 150.995C299.487 150.995 299.731 152.101 299.487 152.322C299.244 152.543 298.756 152.985 299.146 153.317C299.536 153.649 300.755 154.201 301.194 153.925C301.632 153.649 302.12 153.759 301.974 153.206C301.827 152.654 300.95 152.764 300.901 150L299.487 150.995Z" fill="#FDB797"/>
<path opacity="0.1" d="M296.419 156C296.489 156.556 296.419 157.112 296.28 157.617C296.14 158.174 296.07 158.73 296 159.286C296.07 159.639 296.21 162.066 296.21 162.066C296.21 162.066 295.93 164.189 297.398 163.986C298.866 163.784 297.188 161.56 297.188 161.56L297.258 158.679C297.677 158.325 297.887 157.87 297.957 157.415C298.027 156.708 296.419 156 296.419 156Z" fill="black"/>
<path d="M296.419 156C296.489 156.556 296.419 157.112 296.28 157.617C296.14 158.174 296.07 158.73 296 159.286C296.07 159.639 296.21 162.066 296.21 162.066C296.21 162.066 295.93 164.189 297.398 163.986C298.866 163.784 297.188 161.56 297.188 161.56L297.258 158.679C297.677 158.325 297.887 157.87 297.957 157.415C298.027 156.708 296.419 156 296.419 156Z" fill="#FDB797"/>
<path opacity="0.1" d="M303 156L302.843 158.44C302.843 158.44 302.738 161.801 302.371 162.668C302.371 162.668 302.476 165.053 301.428 164.999C300.38 164.945 301.585 162.397 301.585 162.397C301.585 162.397 302.162 159.741 301.847 158.927L301.585 156.054H303V156Z" fill="black"/>
<path d="M304 156L303.843 158.44C303.843 158.44 303.738 161.801 303.371 162.668C303.371 162.668 303.476 165.053 302.428 164.999C301.38 164.945 302.585 162.397 302.585 162.397C302.585 162.397 303.162 159.741 302.847 158.927L302.585 156.054H304V156Z" fill="#FDB797"/>
<path opacity="0.1" d="M299.972 153.133C299.972 153.133 300.923 153.565 301.371 152.324L303.217 153.187C303.441 153.403 303.608 153.673 303.608 153.997L304 156.102C304 156.102 302.601 155.67 302.21 156.911L302.322 158.098C302.434 158.368 302.378 158.692 302.266 158.962C302.266 159.016 302.266 159.07 302.266 159.124C302.378 159.448 302.21 159.771 301.874 159.825C301.818 159.825 301.762 159.825 301.706 159.825C301.203 159.825 300.699 159.879 300.196 159.933C299.804 160.041 298.573 159.717 298.182 159.933C297.79 160.149 296.951 159.771 296.951 159.771L297.175 158.8C297.175 158.8 297.007 158.314 297.231 158.152C297.455 157.991 297.287 156.533 297.119 156.102C297.119 156.102 296.448 155.454 296 155.562L296.559 153.133C296.783 152.702 297.287 152.378 297.79 152.324C298.238 152.378 298.629 152.216 299.021 152C299.021 152.108 298.573 153.025 299.972 153.133Z" fill="black"/>
<path opacity="0.1" d="M300.056 153.187C300.333 153.241 301 153.295 301.389 152.324L303.222 153.187C303.444 153.403 303.611 153.673 303.611 153.997L304 156.102C304 156.102 302.611 155.67 302.222 156.911L302.333 158.098L302.389 158.314C302.444 158.53 302.444 158.746 302.278 158.908C302.222 158.962 302.222 159.07 302.222 159.124C302.333 159.448 302.167 159.771 301.833 159.825C301.778 159.825 301.722 159.825 301.667 159.825C301.167 159.825 300.667 159.879 300.167 159.933C299.778 160.041 298.556 159.717 298.167 159.933C297.778 160.149 296.944 159.771 296.944 159.771L297.167 158.8C297.167 158.8 297 158.314 297.222 158.152C297.444 157.99 297.278 156.533 297.111 156.102C297.111 156.102 296.444 155.454 296 155.562L296.556 153.133C296.778 152.702 297.278 152.378 297.778 152.324C298.222 152.378 298.611 152.216 299 152C299 152 298.556 152.81 299.722 152.971L300.056 153.187Z" fill="black"/>
<path d="M300.028 153.187C300.308 153.241 300.979 153.295 301.371 152.324L303.217 153.187C303.441 153.403 303.608 153.673 303.608 153.997L304 156.102C304 156.102 302.601 155.67 302.21 156.911L302.322 158.098C302.434 158.368 302.378 158.692 302.266 158.962C302.266 159.016 302.266 159.07 302.266 159.124C302.378 159.448 302.21 159.771 301.874 159.825C301.818 159.825 301.762 159.825 301.706 159.825C301.203 159.825 300.699 159.879 300.196 159.933C299.804 160.041 298.573 159.717 298.182 159.933C297.79 160.149 296.951 159.771 296.951 159.771L297.175 158.8C297.175 158.8 297.007 158.314 297.231 158.152C297.455 157.99 297.287 156.533 297.119 156.102C297.119 156.102 296.448 155.454 296 155.562L296.559 153.133C296.783 152.702 297.287 152.378 297.79 152.324C298.238 152.378 298.629 152.216 299.021 152C299.021 152 298.573 152.81 299.748 152.971L300.028 153.187Z" fill="#F55F44"/>
<path opacity="0.1" d="M300.871 150L299 151.2C299.065 151.4 299.065 151.667 299.129 151.867C299.323 151.933 299.581 152 299.774 152C300.226 151.933 300.677 151.733 301 151.4C300.935 151 300.871 150.533 300.871 150Z" fill="black"/>
<path d="M299.5 152C300.328 152 301 151.328 301 150.5C301 149.672 300.328 149 299.5 149C298.672 149 298 149.672 298 150.5C298 151.328 298.672 152 299.5 152Z" fill="#FDB797"/>
<path d="M302 149C302.552 149 303 148.776 303 148.5C303 148.224 302.552 148 302 148C301.448 148 301 148.224 301 148.5C301 148.776 301.448 149 302 149Z" fill="#72351C"/>
<path d="M301.841 149.924C301.344 149.858 300.93 149.462 301.013 149V149.066C300.93 149.528 301.261 149.924 301.841 149.99C302.42 150.056 302.917 149.792 303 149.33V149.264C302.917 149.726 302.42 149.99 301.841 149.924Z" fill="#72351C"/>
<path d="M302.5 148.923C302.208 148.923 302 148.538 302 148V148.077C302 148.615 302.25 149 302.5 149C302.792 149 303 148.538 303 148.077V148C303 148.538 302.792 148.923 302.5 148.923Z" fill="#72351C"/>
<path d="M301.077 148.5C301.077 148.208 301.462 148 302 148H301.923C301.385 148 301 148.25 301 148.5C301 148.792 301.462 149 301.923 149H302C301.462 149 301.077 148.792 301.077 148.5Z" fill="#72351C"/>
<path opacity="0.1" d="M297.395 155C298 155.316 298 155.632 297.395 156C297.395 156 296.185 156.842 298 157" fill="black"/>
<path d="M296.318 165H296.682C296.864 165 297 165.214 297 165.5C297 165.786 296.864 166 296.682 166H296.318C296.136 166 296 165.786 296 165.5C296.045 165.214 296.182 165 296.318 165Z" fill="#FDB797"/>
<path d="M300 162H301.091L302 163H301.727L300 162Z" fill="#F0E4E4"/>
<path d="M296 165H296.545L297 166H296.864L296 165Z" fill="#F0E4E4"/>
<path opacity="0.1" d="M300.017 149.702C299.97 150.293 300.017 150.83 300.204 151.367C300.391 151.905 300.345 152.495 300.111 152.979C300.251 153.033 300.391 152.979 300.532 152.871C300.625 152.764 300.766 152.603 300.813 152.442C300.906 152.334 300.953 152.173 301 152.012C301 151.797 301 151.529 300.906 151.314C300.813 150.884 300.766 150.508 300.719 150.078C300.672 149.81 300.719 149.057 300.485 149.004C300.251 148.95 300.064 149.487 300.017 149.702Z" fill="black"/>
<path d="M300.017 149.702C299.97 150.293 300.017 150.83 300.204 151.367C300.391 151.905 300.345 152.495 300.111 152.979C300.251 153.033 300.391 152.979 300.532 152.871C300.625 152.764 300.766 152.603 300.813 152.442C300.906 152.334 300.953 152.173 301 152.012C301 151.797 301 151.529 300.906 151.314C300.813 150.884 300.766 150.508 300.719 150.078C300.672 149.81 300.719 149.057 300.485 149.004C300.251 148.95 300.064 149.487 300.017 149.702Z" fill="#72351C"/>
<path opacity="0.1" d="M299.813 149.512C299.915 149.63 299.965 149.866 300.067 150.042C300.271 150.278 300.525 150.396 300.779 150.396C300.83 150.396 300.932 150.396 300.983 150.455C301.084 150.514 301.084 150.75 301.186 150.867C301.339 151.044 301.593 151.044 301.746 150.867C301.898 150.691 301.949 150.396 302 150.16C302 149.866 302 149.571 302 149.276C302 148.923 301.898 148.628 301.695 148.392C301.542 148.274 301.339 148.157 301.135 148.098C300.881 147.98 300.576 147.98 300.271 148.039C300.118 148.098 300.016 148.157 299.864 148.274C299.711 148.392 299.508 148.51 299.355 148.687C299.152 148.864 298.796 149.158 299.152 149.335C299.355 149.335 299.609 149.276 299.813 149.512Z" fill="black"/>
<path d="M299.813 149.512C299.915 149.63 299.965 149.866 300.067 150.042C300.271 150.278 300.525 150.396 300.779 150.396C300.83 150.396 300.932 150.396 300.983 150.455C301.084 150.514 301.084 150.75 301.186 150.867C301.339 151.044 301.593 151.044 301.746 150.867C301.898 150.691 301.949 150.396 302 150.16C302 149.866 302 149.571 302 149.276C302 148.923 301.898 148.628 301.695 148.392C301.542 148.274 301.339 148.157 301.135 148.098C300.881 147.98 300.576 147.98 300.271 148.039C300.118 148.098 300.016 148.157 299.864 148.274C299.711 148.392 299.508 148.51 299.355 148.687C299.152 148.864 298.796 149.158 299.152 149.335C299.355 149.335 299.66 149.276 299.813 149.512Z" fill="#72351C"/>
<path d="M300 162H301.091L302 163H301.727L300 162Z" fill="#F0E4E4"/>
<defs>
<linearGradient id="paint0_linear" x1="231.988" y1="263.011" x2="231.988" y2="0.0106283" gradientUnits="userSpaceOnUse">
<stop stop-color="#808080" stop-opacity="0.25"/>
<stop offset="0.54" stop-color="#808080" stop-opacity="0.12"/>
<stop offset="1" stop-color="#808080" stop-opacity="0.1"/>
</linearGradient>
<linearGradient id="paint1_linear" x1="452.101" y1="300.09" x2="452.101" y2="85.06" gradientUnits="userSpaceOnUse">
<stop stop-color="#808080" stop-opacity="0.25"/>
<stop offset="0.54" stop-color="#808080" stop-opacity="0.12"/>
<stop offset="1" stop-color="#808080" stop-opacity="0.1"/>
</linearGradient>
<linearGradient id="paint2_linear" x1="248" y1="114.5" x2="265" y2="114.5" gradientUnits="userSpaceOnUse">
<stop offset="0.265625" stop-color="#FF4D52"/>
<stop offset="0.848958" stop-color="#F9CB28"/>
</linearGradient>
<linearGradient id="paint3_linear" x1="298.5" y1="177.023" x2="298.5" y2="146.893" gradientUnits="userSpaceOnUse">
<stop stop-color="#808080" stop-opacity="0.25"/>
<stop offset="0.54" stop-color="#808080" stop-opacity="0.12"/>
<stop offset="1" stop-color="#808080" stop-opacity="0.1"/>
</linearGradient>
</defs>
</svg>
