<svg width="573" height="416" viewBox="0 0 610 339" fill="none" xmlns="http://www.w3.org/2000/svg">
<g clip-path="url(#clip0)">
<path opacity="0.1" d="M38.0685 124.604C37.7427 121.48 37.5758 118.341 37.5678 115.194C37.5678 65.5365 77.2656 25.2815 126.222 25.2815C141.307 25.2656 156.137 29.168 169.266 36.599C203.925 13.7972 249.162 0 298.66 0C362.272 0 418.858 22.7939 454.971 58.1929C458.309 61.4832 461.48 64.8848 464.484 68.3897C465.446 69.5103 466.384 70.6469 467.306 71.7993L467.719 72.3C469.348 74.3346 470.906 76.401 472.4 78.4991C473.831 80.4861 475.198 82.5127 476.501 84.5632C477.224 85.6918 477.924 86.8283 478.615 87.9728L479.179 88.9265C480.888 88.8232 482.605 88.7675 484.337 88.7675H485.196C486.761 88.7834 488.327 88.8391 489.877 88.9344C494.176 89.2047 498.444 89.7928 502.656 90.6909C504.238 91.0247 505.796 91.3982 507.345 91.8195C511.717 93.0116 515.992 94.5376 520.125 96.3894C551.263 110.338 572.992 141.937 572.992 178.68C573.032 196.228 567.961 213.411 558.408 228.13C558.408 250.471 547.846 270.698 530.822 285.329C526.928 288.651 522.772 291.648 518.385 294.286C503.062 303.553 484.377 308.99 464.222 308.99H87.0331C75.9066 309.029 64.8834 306.844 54.6152 302.576C30.0256 292.26 13.0895 270.571 13.0895 245.472C8.89317 238.549 5.64264 231.087 3.44118 223.29C1.14435 215.207 -0.00804296 206.846 -9.5449e-05 198.445C-0.0795706 169.103 14.1226 141.556 38.0685 124.604Z" fill="url(#paint0_linear)"/>
<path d="M449.567 339H53.7888C46.4612 339 40.5165 333.055 40.5165 325.727C183.985 309.053 324.759 309.053 462.832 325.727C462.832 333.055 456.895 339 449.567 339Z" fill="#2F2E41"/>
<path d="M462.832 326.506L40.5165 325.727L89.4573 243.374L89.6878 242.984V61.4752C89.6878 52.2082 97.1982 44.6977 106.457 44.6977H394.523C403.789 44.6977 411.3 52.2082 411.3 61.4673V244.232L462.832 326.506Z" fill="#3F3D56"/>
<path d="M107.315 254.691C106.401 254.691 105.575 255.224 105.185 256.058L90.101 288.842C89.5606 290.019 90.0772 291.409 91.2455 291.95C91.5554 292.093 91.8892 292.164 92.223 292.164H409.377C410.672 292.164 411.721 291.115 411.721 289.82C411.721 289.454 411.634 289.097 411.475 288.771L395.079 255.987C394.682 255.192 393.871 254.691 392.989 254.691H107.315Z" fill="#2F2E41"/>
<path d="M250.506 53.6786C252.446 53.6786 254.019 52.1058 254.019 50.1657C254.019 48.2256 252.446 46.6528 250.506 46.6528C248.566 46.6528 246.993 48.2256 246.993 50.1657C246.993 52.1058 248.566 53.6786 250.506 53.6786Z" fill="white"/>
<path d="M219.335 298.403C218.278 298.403 217.349 299.111 217.078 300.136L213.295 314.187C212.962 315.435 213.701 316.723 214.948 317.056C215.147 317.112 215.354 317.136 215.56 317.136H287.501C288.797 317.136 289.846 316.087 289.846 314.791C289.846 314.529 289.806 314.275 289.719 314.028L284.855 299.977C284.529 299.031 283.639 298.403 282.645 298.403H219.335Z" fill="#2F2E41"/>
<path d="M411.316 240.25V243.366H89.4652L89.7036 242.976V240.25H411.316Z" fill="#2F2E41"/>
<path d="M402.24 56.6757H100.259V232.717H402.24V56.6757Z" fill="#2F2E41"/>
<path d="M393.664 78.7534H109.016V222.304H393.664V78.7534Z" fill="#282A36"/>
<path d="M402.24 56.5238H100.139V68.1989H402.24V56.5238Z" fill="#535353"/>
<path d="M108.817 64.6543C110.011 64.6543 110.979 63.6864 110.979 62.4925C110.979 61.2986 110.011 60.3307 108.817 60.3307C107.624 60.3307 106.656 61.2986 106.656 62.4925C106.656 63.6864 107.624 64.6543 108.817 64.6543Z" fill="#FF5E5B"/>
<path d="M117.035 64.6543C118.229 64.6543 119.197 63.6864 119.197 62.4925C119.197 61.2986 118.229 60.3307 117.035 60.3307C115.841 60.3307 114.874 61.2986 114.874 62.4925C114.874 63.6864 115.841 64.6543 117.035 64.6543Z" fill="#FFBB4E"/>
<path d="M125.253 64.6543C126.447 64.6543 127.415 63.6864 127.415 62.4925C127.415 61.2986 126.447 60.3307 125.253 60.3307C124.059 60.3307 123.091 61.2986 123.091 62.4925C123.091 63.6864 124.059 64.6543 125.253 64.6543Z" fill="#00CB58"/>
<path d="M154.357 98.877L137.214 115.805L154.357 132.734L158.211 128.879L145.249 115.917L158.323 102.843L154.357 98.877Z" fill="url(#paint1_linear)"/>
<path d="M168.4 98.877L185.543 115.805L168.4 132.734L164.545 128.879L177.508 115.917L164.434 102.843L168.4 98.877Z" fill="url(#paint2_linear)"/>
<path d="M223.85 103.121C222.451 103.121 221.315 103.924 221.315 104.925C221.315 105.927 222.451 106.729 223.85 106.729H343.524C344.922 106.729 346.059 105.927 346.059 104.925C346.059 103.924 344.922 103.121 343.524 103.121H223.85Z" fill="#E6E6E6"/>
<path d="M342.331 201.791H141.013C138.955 201.791 137.286 200.607 137.286 199.137V163.603C137.286 162.14 138.955 160.948 141.013 160.948H342.331C344.39 160.948 346.059 162.133 346.059 163.603V199.137C346.059 200.599 344.39 201.791 342.331 201.791ZM141.013 162.013C139.781 162.013 138.78 162.729 138.78 163.603V199.137C138.78 200.019 139.781 200.726 141.013 200.726H342.331C343.563 200.726 344.565 200.011 344.565 199.137V163.603C344.565 162.721 343.563 162.013 342.331 162.013H141.013Z" fill="#E6E6E6"/>
<path d="M161.748 190.363C166.721 190.363 170.752 186.331 170.752 181.358C170.752 176.385 166.721 172.353 161.748 172.353C156.775 172.353 152.743 176.385 152.743 181.358C152.743 186.331 156.775 190.363 161.748 190.363Z" fill="#E6E6E6"/>
<path d="M187.148 174.149C186.155 174.149 185.344 174.952 185.344 175.946C185.344 176.939 186.147 177.75 187.14 177.75H272.044C273.037 177.75 273.84 176.939 273.84 175.946C273.84 174.952 273.037 174.149 272.044 174.149H187.148Z" fill="url(#paint3_linear)"/>
<path d="M187.148 184.958C186.155 184.958 185.344 185.761 185.344 186.762C185.344 187.756 186.147 188.558 187.14 188.566H223.675C224.668 188.566 225.479 187.756 225.479 186.762C225.479 185.769 224.676 184.966 223.683 184.958H187.148Z" fill="url(#paint4_linear)"/>
<path d="M222.976 113.914C221.982 113.993 221.243 114.868 221.323 115.861C221.394 116.743 222.093 117.443 222.976 117.514H301.402C302.395 117.435 303.134 116.561 303.055 115.567C302.983 114.685 302.284 113.985 301.402 113.914H222.976Z" fill="#E6E6E6"/>
<path d="M223.492 124.699C222.284 124.699 221.315 125.502 221.315 126.503C221.315 127.504 222.292 128.307 223.492 128.307H326.301C327.509 128.307 328.479 127.504 328.479 126.503C328.479 125.502 327.501 124.699 326.301 124.699H223.492Z" fill="#E6E6E6"/>
<path d="M393.696 150.982H351.233V186.309H393.696V150.982Z" fill="#E6E6E6"/>
<path d="M368.828 172.345C371.87 172.345 374.336 169.879 374.336 166.838C374.336 163.796 371.87 161.33 368.828 161.33C365.787 161.33 363.321 163.796 363.321 166.838C363.321 169.879 365.787 172.345 368.828 172.345Z" fill="#FFB9B9"/>
<path d="M366.675 171.05C366.675 171.05 367.366 174.316 367.366 174.658C367.366 175 370.632 176.55 370.632 176.55L373.557 176.033L374.59 172.933C374.59 172.933 372.874 170.35 372.874 169.325L366.675 171.05Z" fill="#FFB9B9"/>
<path d="M364.052 162.403C364.052 162.403 365.8 158.62 369.146 159.494C372.492 160.368 374.392 161.679 374.535 162.991C374.678 164.302 374.463 166.265 374.463 166.265C374.463 166.265 374.098 163.571 371.769 164.151C369.44 164.731 365.8 164.294 365.8 164.294L365.22 169.54C365.22 169.54 364.568 168.594 363.837 169.174C363.106 169.754 361.723 163.571 364.052 162.403Z" fill="#2F2E41"/>
<path d="M386.281 184.982L384.906 178.791C384.215 176.724 382.498 175.008 382.498 175.008L374.018 172.027C373.986 173.561 372.969 174.904 371.499 175.357C368.916 176.216 367.143 173.323 367.143 173.323L359.975 178.791C359.975 178.791 357.742 180.682 357.916 184.299L357.678 186.309H386.957L386.281 184.982Z" fill="#0A72EF"/>
<path d="M393.696 78.9919H351.233V114.319H393.696V78.9919Z" fill="#E6E6E6"/>
<path d="M368.701 103.097C372.827 103.097 376.172 99.546 376.172 95.1654C376.172 90.7848 372.827 87.2336 368.701 87.2336C364.575 87.2336 361.23 90.7848 361.23 95.1654C361.23 99.546 364.575 103.097 368.701 103.097Z" fill="#2F2E41"/>
<path d="M375.329 107.158C377.498 107.158 379.255 105.401 379.255 103.232C379.255 101.064 377.498 99.3062 375.329 99.3062C373.161 99.3062 371.403 101.064 371.403 103.232C371.403 105.401 373.161 107.158 375.329 107.158Z" fill="#2F2E41"/>
<path d="M372.595 97.9709L374.702 103.447L369.369 105.688L368.9 104.631L367.263 100.92L372.595 97.9709Z" fill="#9F616A"/>
<path d="M368.383 101.555C370.982 101.555 373.088 99.4489 373.088 96.8503C373.088 94.2518 370.982 92.1453 368.383 92.1453C365.785 92.1453 363.678 94.2518 363.678 96.8503C363.678 99.4489 365.785 101.555 368.383 101.555Z" fill="#9F616A"/>
<path d="M364.545 96.3337C367.501 94.3627 368.383 93.8938 371.769 94.6488L371.976 89.7054L363.225 91.5413L364.545 96.3337Z" fill="#2F2E41"/>
<path d="M383.539 107.508L383.412 107.524C383.412 107.516 383.404 107.516 383.404 107.508C382.887 106.992 380.432 106.062 378.604 105.41C377.443 104.997 376.529 104.703 376.529 104.703L374.32 102.43C373.764 103.057 372.587 103.542 371.467 103.884C370.609 104.146 369.734 104.353 368.852 104.504L368.391 105.966C368.391 105.966 363.194 109.9 362.78 110.314V110.322C362.748 110.369 362.733 110.425 362.741 110.488V110.496C362.478 111.752 362.343 113.032 362.335 114.311H384.954V112.984C384.946 111.164 383.539 107.508 383.539 107.508Z" fill="#575A89"/>
<path d="M393.696 186.977H351.233V222.304H393.696V186.977Z" fill="#E6E6E6"/>
<path d="M372.031 195.529C371.769 195.505 371.507 195.568 371.276 195.696C371.062 195.878 370.887 196.109 370.768 196.363C370.219 197.333 369.472 198.167 368.582 198.835C367.93 199.312 367.104 199.908 367.215 200.782C367.271 201.068 367.382 201.346 367.533 201.601C368.129 202.809 369.766 203.747 369.607 205.129C370.203 204.136 369.409 203.643 370.005 202.642C370.291 202.165 370.783 201.633 371.213 201.927C371.356 202.03 371.451 202.205 371.602 202.292C371.96 202.499 372.333 202.101 372.651 201.815C373.74 200.838 375.282 201.092 376.641 201.402C377.277 201.545 377.984 201.736 378.357 202.348C378.85 203.151 377.889 204.017 377.642 204.923C377.571 205.185 377.73 205.455 378 205.527C378.055 205.543 378.119 205.543 378.175 205.543C378.58 205.503 379.065 205.471 379.089 205.288C379.597 205.304 380.225 205.249 380.448 204.716C380.511 204.51 380.551 204.287 380.551 204.065C380.63 203.174 381.012 202.356 381.258 201.505C381.513 200.655 381.616 199.661 381.195 198.906C381.044 198.652 380.853 198.43 380.638 198.231C378.222 195.91 375.059 195.529 372.031 195.529Z" fill="#2F2E41"/>
<path d="M370.132 206.878C370.132 206.878 370.656 211.241 368.733 211.583C366.81 211.925 370.474 217.862 370.474 217.862L379.192 218.911L377.102 211.933C377.102 211.933 375.703 211.408 376.577 207.919C377.459 204.438 370.132 206.878 370.132 206.878Z" fill="#9F616A"/>
<path d="M374.058 209.755C376.946 209.755 379.287 207.414 379.287 204.525C379.287 201.637 376.946 199.296 374.058 199.296C371.17 199.296 368.828 201.637 368.828 204.525C368.828 207.414 371.17 209.755 374.058 209.755Z" fill="#9F616A"/>
<path d="M365.053 222.304C365.975 218.664 367.255 213.769 367.255 213.769C367.255 213.769 367.755 213.872 368.534 213.983C369.679 214.15 370.831 214.261 371.983 214.293C373.462 214.333 375.019 214.237 376.219 213.816C376.673 213.673 377.094 213.443 377.467 213.149C377.626 213.021 377.769 212.878 377.888 212.712C379.979 209.922 380.853 220.556 380.853 220.556L381.012 222.296H365.053V222.304Z" fill="#FF5B4F"/>
<path d="M372.286 196.896C372.071 196.88 371.864 196.92 371.674 197.015C371.499 197.142 371.364 197.301 371.26 197.492C370.791 198.191 370.187 198.787 369.48 199.24C368.948 199.574 368.28 199.995 368.367 200.615C368.415 200.822 368.503 201.021 368.622 201.195C369.114 202.062 369.305 203.055 369.178 204.041L370.632 201.927C370.863 201.593 371.268 201.211 371.61 201.426C371.729 201.497 371.801 201.625 371.928 201.688C372.214 201.839 372.524 201.553 372.786 201.354C373.668 200.663 374.932 200.846 376.029 201.06C376.545 201.164 377.118 201.299 377.428 201.728C377.936 202.443 377.404 203.484 377.706 204.311C377.873 204.192 377.992 204.009 378.024 203.81C378.437 203.826 378.946 203.778 379.128 203.405C379.184 203.254 379.208 203.103 379.216 202.944C379.279 202.316 379.589 201.736 379.796 201.132C380.003 200.528 380.09 199.828 379.74 199.296C379.613 199.113 379.462 198.954 379.287 198.819C377.324 197.166 374.749 196.896 372.286 196.896Z" fill="#2F2E41"/>
<path d="M371.793 213.935C370.601 212.568 369.893 210.582 369.862 210.494C369.862 210.494 367.962 209.405 367.438 210.454C366.913 211.503 362.033 214.118 361.509 214.118C361.501 214.118 361.501 214.118 361.493 214.126C361.286 214.198 358.687 215.144 358.02 218.656C357.837 219.864 357.742 221.088 357.734 222.312H371.944C372.087 220.77 372.198 219.332 372.246 218.084C372.309 216.352 372.246 215 371.984 214.301C371.944 214.166 371.872 214.047 371.793 213.935Z" fill="#2F2E41"/>
<path d="M384.016 214.921C384.008 214.881 384 214.841 383.992 214.81C383.968 214.714 383.929 214.627 383.873 214.547V214.539C382.864 212.982 376.386 210.828 376.386 210.828L376.148 211.662C376.148 211.662 376.18 212.489 376.219 213.808C376.259 215.048 376.315 216.717 376.363 218.561C376.394 219.761 376.426 221.033 376.458 222.296H386.146C385.605 219.801 384.898 217.329 384.016 214.921Z" fill="#2F2E41"/>
<path d="M393.696 114.987H351.233V150.314H393.696V114.987Z" fill="#E6E6E6"/>
<path d="M371.968 125.025C367.891 125.025 364.576 128.697 364.576 133.227V138.981H366.349L367.374 136.851L367.12 138.981H378.492L379.422 137.042L379.192 138.981H380.471V134.467C380.463 129.245 376.657 125.025 371.968 125.025Z" fill="#2F2E41"/>
<path d="M366.007 150.314H361.199L361.151 146.396C361.151 146.356 361.151 146.317 361.151 146.277L362.113 145.196L362.129 145.18L365.8 147.509L366.007 150.314Z" fill="#D0CDE1"/>
<path d="M371.308 138.17C374.214 138.17 376.569 135.815 376.569 132.909C376.569 130.003 374.214 127.648 371.308 127.648C368.402 127.648 366.047 130.003 366.047 132.909C366.047 135.815 368.402 138.17 371.308 138.17Z" fill="#FBBEBE"/>
<path d="M368.296 136.064C368.296 136.064 369.838 144.059 369.138 144.902C368.439 145.744 376.569 143.36 376.569 143.36C376.569 143.36 373.907 137.892 375.306 134.808L368.296 136.064Z" fill="#FBBEBE"/>
<path d="M382.562 141.469C382.435 141.206 382.22 141 381.958 140.88C380.925 140.443 380.034 140.109 379.311 139.863C378.016 139.418 376.609 139.466 375.345 139.99C375.226 140.038 375.099 140.094 374.98 140.157C374.98 140.157 369.838 141.135 369.226 141.016C369.178 141.008 369.13 141 369.091 141C368.995 140.984 368.908 140.976 368.812 140.976C367.612 140.92 366.428 141.214 365.395 141.826C363.71 142.804 361.207 144.544 361.151 146.229L361.103 146.285L361.151 150.322H383.722C383.77 146.452 383.794 143.543 383.794 143.344C383.794 142.724 382.562 141.469 382.562 141.469Z" fill="#DE1D8D"/>
<path d="M374.066 127.282C373.343 126.312 372.214 125.74 371.006 125.724H370.863C368.065 125.724 365.8 128.252 365.8 131.375H366.738L366.889 130.223L367.112 131.375H372.667L373.136 130.397L373.017 131.375H374.113C374.622 133.91 373.891 136.446 371.912 138.973H373.772L374.702 137.026L374.471 138.973H378.024L378.723 134.491C378.723 131.137 376.768 128.283 374.066 127.282Z" fill="#2F2E41"/>
<path d="M375.083 127.751C376.611 127.751 377.849 126.513 377.849 124.985C377.849 123.458 376.611 122.219 375.083 122.219C373.556 122.219 372.317 123.458 372.317 124.985C372.317 126.513 373.556 127.751 375.083 127.751Z" fill="#2F2E41"/>
<path opacity="0.78" d="M366.929 246.306C366.659 246.306 366.428 246.489 366.357 246.743L365.395 250.304C365.308 250.622 365.498 250.948 365.816 251.035C365.864 251.051 365.92 251.059 365.967 251.059H384.207C384.533 251.059 384.803 250.797 384.803 250.463C384.803 250.399 384.795 250.328 384.771 250.272L383.539 246.712C383.46 246.473 383.229 246.314 382.975 246.314L366.929 246.306Z" fill="#3F3D56"/>
<path d="M251.772 219.078C255.415 219.078 258.369 216.124 258.369 212.481C258.369 208.838 255.415 205.885 251.772 205.885C248.129 205.885 245.176 208.838 245.176 212.481C245.176 216.124 248.129 219.078 251.772 219.078Z" fill="#E6E6E6"/>
<path d="M251.772 217.541C254.567 217.541 256.832 215.276 256.832 212.481C256.832 209.687 254.567 207.422 251.772 207.422C248.978 207.422 246.713 209.687 246.713 212.481C246.713 215.276 248.978 217.541 251.772 217.541Z" fill="white"/>
<path d="M254.305 215.239C254.246 215.239 254.187 215.212 254.144 215.169L249.074 210.099C248.988 210.008 248.988 209.863 249.085 209.772C249.176 209.686 249.315 209.686 249.401 209.772L254.471 214.842C254.562 214.933 254.562 215.078 254.471 215.169C254.423 215.217 254.364 215.239 254.305 215.239Z" fill="url(#paint5_linear)"/>
<path d="M251.655 213.338L250.91 212.594C250.9 212.583 250.878 212.583 250.868 212.594C250.862 212.599 250.857 212.61 250.857 212.62C250.921 213.017 251.232 213.327 251.628 213.392C251.644 213.392 251.66 213.381 251.66 213.365C251.665 213.354 251.66 213.343 251.655 213.338Z" fill="url(#paint6_linear)"/>
<path d="M251.885 211.614L252.629 212.358C252.64 212.369 252.656 212.369 252.672 212.358C252.677 212.353 252.683 212.342 252.683 212.331C252.618 211.935 252.308 211.625 251.912 211.56C251.895 211.56 251.879 211.571 251.879 211.582C251.874 211.598 251.879 211.609 251.885 211.614Z" fill="url(#paint7_linear)"/>
<path d="M255.156 212.728C255.253 212.572 255.253 212.38 255.156 212.23C254.787 211.651 254.3 211.159 253.727 210.784C253.148 210.399 252.468 210.19 251.767 210.179C251.414 210.179 251.066 210.238 250.734 210.35C250.702 210.361 250.686 210.393 250.696 210.425C250.702 210.436 250.702 210.441 250.712 210.447L251.392 211.127C251.408 211.143 251.43 211.148 251.446 211.143C252.19 210.961 252.934 211.416 253.116 212.16C253.17 212.374 253.17 212.599 253.116 212.813C253.111 212.835 253.116 212.856 253.132 212.867L254.112 213.847C254.134 213.868 254.166 213.868 254.192 213.852C254.562 213.52 254.888 213.145 255.156 212.728Z" fill="url(#paint8_linear)"/>
<path d="M251.772 213.857C251.007 213.857 250.391 213.236 250.391 212.476C250.391 212.363 250.402 212.256 250.429 212.149C250.434 212.128 250.429 212.106 250.413 212.096L249.449 211.132C249.427 211.111 249.395 211.111 249.369 211.127C248.999 211.448 248.672 211.812 248.394 212.219C248.287 212.374 248.282 212.572 248.383 212.733C248.747 213.311 249.229 213.804 249.797 214.184C250.38 214.569 251.06 214.778 251.762 214.784C252.115 214.784 252.468 214.725 252.806 214.618C252.838 214.607 252.854 214.575 252.843 214.543C252.838 214.532 252.838 214.527 252.827 214.521L252.142 213.836C252.126 213.82 252.104 213.814 252.088 213.82C251.992 213.847 251.88 213.857 251.772 213.857Z" fill="url(#paint9_linear)"/>
<path d="M226.742 219.078C230.385 219.078 233.339 216.124 233.339 212.481C233.339 208.838 230.385 205.885 226.742 205.885C223.099 205.885 220.146 208.838 220.146 212.481C220.146 216.124 223.099 219.078 226.742 219.078Z" fill="#E6E6E6"/>
<path d="M226.742 217.541C229.537 217.541 231.802 215.276 231.802 212.481C231.802 209.687 229.537 207.422 226.742 207.422C223.948 207.422 221.683 209.687 221.683 212.481C221.683 215.276 223.948 217.541 226.742 217.541Z" fill="white"/>
<path d="M228.686 215.704C228.408 215.704 228.011 215.603 227.417 215.271C226.684 214.88 226.009 214.377 225.425 213.782C224.82 213.204 224.317 212.535 223.932 211.791C223.402 210.827 223.493 210.318 223.594 210.104C223.712 209.868 223.894 209.67 224.124 209.536C224.253 209.451 224.392 209.376 224.537 209.317C224.553 209.312 224.563 209.306 224.574 209.301C224.67 209.247 224.783 209.237 224.89 209.274C225.002 209.328 225.109 209.408 225.19 209.504C225.49 209.842 225.741 210.216 225.939 210.618C226.02 210.757 226.073 210.913 226.089 211.073C226.079 211.234 226.014 211.384 225.907 211.501C225.886 211.528 225.87 211.55 225.854 211.576C225.747 211.721 225.72 211.764 225.736 211.839C225.768 211.989 226.009 212.433 226.4 212.824C226.791 213.215 227.224 213.44 227.374 213.472C227.449 213.488 227.492 213.461 227.642 213.349C227.663 213.333 227.685 213.317 227.706 213.3C227.824 213.188 227.979 213.118 228.14 213.108C228.306 213.124 228.461 213.177 228.6 213.268C228.857 213.397 229.452 213.75 229.709 214.013C229.805 214.093 229.885 214.2 229.939 214.312C229.976 214.419 229.966 214.532 229.912 214.628C229.907 214.639 229.901 214.655 229.896 214.666C229.837 214.81 229.762 214.95 229.676 215.078C229.543 215.303 229.344 215.49 229.109 215.603C228.98 215.672 228.831 215.704 228.686 215.704Z" fill="url(#paint10_linear)"/>
<path d="M276.995 219.078C280.638 219.078 283.591 216.124 283.591 212.481C283.591 208.838 280.638 205.885 276.995 205.885C273.352 205.885 270.399 208.838 270.399 212.481C270.399 216.124 273.352 219.078 276.995 219.078Z" fill="#E6E6E6"/>
<path d="M276.995 217.541C279.79 217.541 282.055 215.276 282.055 212.481C282.055 209.687 279.79 207.422 276.995 207.422C274.201 207.422 271.936 209.687 271.936 212.481C271.936 215.276 274.201 217.541 276.995 217.541Z" fill="white"/>
<path d="M277.916 215.474H276.074C275.946 215.474 275.844 215.372 275.844 215.244C275.844 215.115 275.946 215.014 276.074 215.014H277.916C278.045 215.014 278.146 215.115 278.146 215.244C278.146 215.372 278.045 215.474 277.916 215.474Z" fill="url(#paint11_linear)"/>
<path d="M276.995 214.323C275.849 214.323 274.923 213.397 274.923 212.251V211.791C274.923 211.662 275.025 211.56 275.153 211.56C275.282 211.56 275.384 211.662 275.384 211.791V212.251C275.384 213.14 276.106 213.863 276.995 213.863C277.884 213.863 278.607 213.14 278.607 212.251V211.791C278.607 211.662 278.709 211.56 278.837 211.56C278.966 211.56 279.067 211.662 279.067 211.791V212.251C279.067 213.391 278.141 214.318 276.995 214.323Z" fill="url(#paint12_linear)"/>
<path d="M276.995 215.474C276.867 215.474 276.765 215.373 276.765 215.244V214.093C276.765 213.964 276.867 213.863 276.995 213.863C277.124 213.863 277.225 213.964 277.225 214.093V215.244C277.225 215.373 277.124 215.474 276.995 215.474Z" fill="url(#paint13_linear)"/>
<path d="M276.995 213.402C276.69 213.402 276.396 213.274 276.181 213.054C275.967 212.835 275.844 212.54 275.844 212.235V210.639C275.844 210.008 276.353 209.488 276.985 209.488C276.99 209.488 276.99 209.488 276.995 209.488C277.627 209.483 278.141 209.986 278.146 210.618C278.146 210.629 278.146 210.634 278.146 210.645V212.24C278.152 212.872 277.632 213.397 276.995 213.402Z" fill="url(#paint14_linear)"/>
<path d="M230.448 208.033C230.405 208.033 230.362 208.033 230.324 208.038L230.383 207.925C230.405 207.957 230.426 207.995 230.448 208.033Z" fill="#FFB8B8"/>
</g>
<defs>
<linearGradient id="paint0_linear" x1="286.496" y1="0" x2="286.496" y2="308.99" gradientUnits="userSpaceOnUse">
<stop stop-color="#6FA7B4"/>
<stop offset="1" stop-color="#1CB4E4" stop-opacity="0.52"/>
</linearGradient>
<linearGradient id="paint1_linear" x1="137.214" y1="115.805" x2="158.323" y2="115.805" gradientUnits="userSpaceOnUse">
<stop offset="0.286458" stop-color="#007CF0"/>
<stop offset="1" stop-color="#00DFD8"/>
</linearGradient>
<linearGradient id="paint2_linear" x1="164.434" y1="115.805" x2="185.543" y2="115.805" gradientUnits="userSpaceOnUse">
<stop offset="0.286458" stop-color="#007CF0"/>
<stop offset="1" stop-color="#00DFD8"/>
</linearGradient>
<linearGradient id="paint3_linear" x1="185.344" y1="175.949" x2="273.84" y2="175.949" gradientUnits="userSpaceOnUse">
<stop offset="0.286458" stop-color="#007CF0"/>
<stop offset="1" stop-color="#00DFD8"/>
</linearGradient>
<linearGradient id="paint4_linear" x1="185.344" y1="186.762" x2="225.479" y2="186.762" gradientUnits="userSpaceOnUse">
<stop offset="0.286458" stop-color="#007CF0"/>
<stop offset="1" stop-color="#00DFD8"/>
</linearGradient>
<linearGradient id="paint5_linear" x1="249.011" y1="212.473" x2="254.539" y2="212.473" gradientUnits="userSpaceOnUse">
<stop offset="0.286458" stop-color="#007CF0"/>
<stop offset="1" stop-color="#00DFD8"/>
</linearGradient>
<linearGradient id="paint6_linear" x1="250.857" y1="212.989" x2="251.662" y2="212.989" gradientUnits="userSpaceOnUse">
<stop offset="0.286458" stop-color="#007CF0"/>
<stop offset="1" stop-color="#00DFD8"/>
</linearGradient>
<linearGradient id="paint7_linear" x1="251.877" y1="211.963" x2="252.683" y2="211.963" gradientUnits="userSpaceOnUse">
<stop offset="0.286458" stop-color="#007CF0"/>
<stop offset="1" stop-color="#00DFD8"/>
</linearGradient>
<linearGradient id="paint8_linear" x1="250.693" y1="212.021" x2="255.228" y2="212.021" gradientUnits="userSpaceOnUse">
<stop offset="0.286458" stop-color="#007CF0"/>
<stop offset="1" stop-color="#00DFD8"/>
</linearGradient>
<linearGradient id="paint9_linear" x1="248.31" y1="212.949" x2="252.847" y2="212.949" gradientUnits="userSpaceOnUse">
<stop offset="0.286458" stop-color="#007CF0"/>
<stop offset="1" stop-color="#00DFD8"/>
</linearGradient>
<linearGradient id="paint10_linear" x1="223.516" y1="212.478" x2="229.961" y2="212.478" gradientUnits="userSpaceOnUse">
<stop offset="0.286458" stop-color="#007CF0"/>
<stop offset="1" stop-color="#00DFD8"/>
</linearGradient>
<linearGradient id="paint11_linear" x1="275.844" y1="215.244" x2="278.146" y2="215.244" gradientUnits="userSpaceOnUse">
<stop offset="0.286458" stop-color="#007CF0"/>
<stop offset="1" stop-color="#00DFD8"/>
</linearGradient>
<linearGradient id="paint12_linear" x1="274.923" y1="212.942" x2="279.067" y2="212.942" gradientUnits="userSpaceOnUse">
<stop offset="0.286458" stop-color="#007CF0"/>
<stop offset="1" stop-color="#00DFD8"/>
</linearGradient>
<linearGradient id="paint13_linear" x1="276.765" y1="214.668" x2="277.225" y2="214.668" gradientUnits="userSpaceOnUse">
<stop offset="0.286458" stop-color="#007CF0"/>
<stop offset="1" stop-color="#00DFD8"/>
</linearGradient>
<linearGradient id="paint14_linear" x1="275.844" y1="211.445" x2="278.146" y2="211.445" gradientUnits="userSpaceOnUse">
<stop offset="0.286458" stop-color="#007CF0"/>
<stop offset="1" stop-color="#00DFD8"/>
</linearGradient>
<clipPath id="clip0">
<rect width="573" height="339" fill="white"/>
</clipPath>
</defs>
</svg>
