<svg width="456" height="368" viewBox="0 0 456 368" fill="none" xmlns="http://www.w3.org/2000/svg">
<path d="M211.067 301.385C110.457 293.751 -5.8759 227.437 0.233768 147.418C6.34343 67.4001 122.543 -7.09034 223.153 0.543653C323.764 8.17765 381.677 157.717 375.567 237.735C369.457 317.754 311.677 309.019 211.067 301.385Z" fill="#F2F2F2"/>
<path d="M382.12 67.0302H69.9955V311.153H382.12V67.0302Z" fill="#3F3D56"/>
<path d="M222.505 100.392H145.507C144.992 100.392 144.573 99.9785 144.569 99.4654C144.565 98.9523 144.984 98.5344 145.499 98.5303H145.503H222.505C223.019 98.5303 223.439 98.9523 223.434 99.4654C223.434 99.9743 223.019 100.392 222.505 100.392Z" fill="#F2F2F2"/>
<path d="M306.795 110.637H185.689C185.174 110.637 184.755 110.219 184.755 109.706C184.755 109.193 185.174 108.775 185.689 108.775H306.799C307.314 108.775 307.733 109.193 307.733 109.706C307.733 110.219 307.314 110.637 306.795 110.637Z" fill="#F2F2F2"/>
<path d="M222.878 120.886H145.881C145.366 120.886 144.947 120.468 144.947 119.955C144.947 119.442 145.366 119.024 145.881 119.024H222.882C223.397 119.024 223.816 119.442 223.816 119.955C223.816 120.468 223.397 120.886 222.878 120.886Z" fill="#F2F2F2"/>
<path d="M306.795 121.072H229.793C229.278 121.072 228.859 120.654 228.859 120.141C228.859 119.628 229.278 119.21 229.793 119.21H306.795C307.309 119.21 307.729 119.628 307.729 120.141C307.729 120.654 307.313 121.072 306.795 121.072Z" fill="#F2F2F2"/>
<path d="M223.065 131.135H146.067C145.553 131.135 145.134 130.717 145.134 130.204C145.134 129.691 145.553 129.273 146.067 129.273H223.069C223.584 129.273 224.003 129.691 224.003 130.204C224.003 130.717 223.584 131.135 223.065 131.135Z" fill="#F2F2F2"/>
<path d="M223.252 141.38H146.254C145.74 141.38 145.32 140.962 145.32 140.449C145.32 139.936 145.74 139.518 146.254 139.518H223.256C223.771 139.518 224.19 139.936 224.19 140.449C224.19 140.962 223.771 141.38 223.252 141.38Z" fill="#F2F2F2"/>
<path d="M258.204 100.578H236.152C235.637 100.578 235.218 100.161 235.218 99.6474C235.218 99.1344 235.637 98.7165 236.152 98.7165H258.204C258.719 98.7165 259.138 99.1344 259.138 99.6474C259.138 100.161 258.719 100.578 258.204 100.578Z" fill="#F2F2F2"/>
<path d="M258.204 131.135H236.152C235.637 131.135 235.218 130.717 235.218 130.204C235.218 129.691 235.637 129.273 236.152 129.273H258.204C258.719 129.273 259.138 129.691 259.138 130.204C259.138 130.717 258.719 131.135 258.204 131.135Z" fill="#F2F2F2"/>
<path d="M258.204 141.194H236.152C235.637 141.194 235.218 140.78 235.214 140.267C235.214 139.754 235.629 139.336 236.143 139.332H236.148H258.2C258.714 139.332 259.134 139.746 259.138 140.259C259.138 140.772 258.723 141.19 258.208 141.194H258.204Z" fill="#F2F2F2"/>
<path d="M295.206 141.194H273.154C272.639 141.194 272.22 140.772 272.224 140.259C272.224 139.746 272.644 139.332 273.154 139.332H295.206C295.721 139.332 296.14 139.746 296.144 140.259C296.144 140.772 295.729 141.19 295.215 141.194C295.21 141.194 295.21 141.194 295.206 141.194Z" fill="#F2F2F2"/>
<path d="M167.372 110.637H145.32C144.806 110.637 144.386 110.219 144.386 109.706C144.386 109.193 144.806 108.775 145.32 108.775H167.372C167.887 108.775 168.306 109.193 168.306 109.706C168.306 110.219 167.887 110.637 167.372 110.637Z" fill="#F2F2F2"/>
<path d="M222.6 251.305H145.598C145.084 251.305 144.665 250.887 144.665 250.374C144.665 249.861 145.084 249.443 145.598 249.443H222.6C223.115 249.443 223.534 249.861 223.534 250.374C223.534 250.887 223.115 251.305 222.6 251.305Z" fill="#F2F2F2"/>
<path d="M222.227 271.799H145.225C144.71 271.799 144.291 271.381 144.291 270.868C144.291 270.355 144.71 269.937 145.225 269.937H222.227C222.741 269.937 223.16 270.355 223.16 270.868C223.16 271.381 222.741 271.799 222.227 271.799Z" fill="#F2F2F2"/>
<path d="M222.413 282.048H145.412C144.897 282.048 144.478 281.63 144.478 281.117C144.478 280.604 144.897 280.186 145.412 280.186H222.413C222.928 280.186 223.347 280.604 223.347 281.117C223.347 281.63 222.928 282.048 222.413 282.048Z" fill="#F2F2F2"/>
<path d="M255.307 271.985H233.255C232.74 271.985 232.321 271.568 232.321 271.054C232.321 270.541 232.74 270.123 233.255 270.123H255.307C255.821 270.123 256.241 270.541 256.241 271.054C256.241 271.568 255.821 271.985 255.307 271.985Z" fill="#F2F2F2"/>
<path d="M255.307 282.048H233.255C232.74 282.048 232.321 281.63 232.321 281.117C232.321 280.604 232.74 280.186 233.255 280.186H255.307C255.821 280.186 256.241 280.604 256.241 281.117C256.241 281.63 255.821 282.048 255.307 282.048Z" fill="#F2F2F2"/>
<path d="M292.313 271.985H270.261C269.747 271.985 269.327 271.568 269.327 271.054C269.327 270.541 269.747 270.123 270.261 270.123H292.313C292.828 270.123 293.247 270.541 293.247 271.054C293.247 271.568 292.828 271.985 292.313 271.985Z" fill="#F2F2F2"/>
<path d="M306.89 261.554H185.78C185.266 261.554 184.846 261.136 184.846 260.623C184.846 260.11 185.266 259.692 185.78 259.692H306.89C307.405 259.692 307.824 260.11 307.824 260.623C307.824 261.136 307.405 261.554 306.89 261.554Z" fill="#F2F2F2"/>
<path d="M167.464 261.554H145.412C144.897 261.554 144.478 261.136 144.478 260.623C144.478 260.11 144.897 259.692 145.412 259.692H167.464C167.978 259.692 168.398 260.11 168.398 260.623C168.402 261.136 167.983 261.554 167.464 261.554Z" fill="#F2F2F2"/>
<path d="M306.89 292.479H185.78C185.266 292.479 184.846 292.061 184.846 291.548C184.846 291.035 185.266 290.617 185.78 290.617H306.89C307.405 290.617 307.824 291.035 307.824 291.548C307.824 292.066 307.405 292.479 306.89 292.479Z" fill="#F2F2F2"/>
<path d="M167.464 292.479H145.412C144.897 292.479 144.478 292.061 144.478 291.548C144.478 291.035 144.897 290.617 145.412 290.617H167.464C167.978 290.617 168.398 291.035 168.398 291.548C168.402 292.066 167.983 292.479 167.464 292.479Z" fill="#F2F2F2"/>
<path d="M78.2966 76.9606C80.3596 76.9606 82.0321 75.2934 82.0321 73.2367C82.0321 71.1801 80.3596 69.5128 78.2966 69.5128C76.2335 69.5128 74.561 71.1801 74.561 73.2367C74.561 75.2934 76.2335 76.9606 78.2966 76.9606Z" fill="#FF5E5B"/>
<path d="M88.258 76.9606C90.3211 76.9606 91.9935 75.2934 91.9935 73.2367C91.9935 71.1801 90.3211 69.5128 88.258 69.5128C86.1949 69.5128 84.5225 71.1801 84.5225 73.2367C84.5225 75.2934 86.1949 76.9606 88.258 76.9606Z" fill="#FFBB4E"/>
<path d="M98.2194 76.9606C100.283 76.9606 101.955 75.2934 101.955 73.2367C101.955 71.1801 100.283 69.5128 98.2194 69.5128C96.1563 69.5128 94.4839 71.1801 94.4839 73.2367C94.4839 75.2934 96.1563 76.9606 98.2194 76.9606Z" fill="#00CB58"/>
<path opacity="0.1" d="M382.12 79.4432H69.9955V80.6845H382.12V79.4432Z" fill="black"/>
<path opacity="0.1" d="M286.888 252.965L322.492 217.579L286.888 182.19L297.742 171.407L344.204 217.579L297.742 263.751L286.888 252.965Z" fill="black"/>
<path opacity="0.1" d="M185.207 220.103H199.68V205.675H185.207V220.103ZM257.868 205.675H243.394V220.103H257.868V205.675ZM214.299 220.103H228.772V205.675H214.299V220.103Z" fill="black"/>
<path opacity="0.1" d="M165.596 252.605L129.955 217.219L165.559 181.83L154.705 171.047L108.281 217.219L154.742 263.392L165.596 252.605Z" fill="black"/>
<path d="M420.193 341.304C420.193 347.279 332.064 367.996 223.347 367.996C114.631 367.996 26.5015 347.283 26.5015 341.304C26.5015 335.325 114.631 346.356 223.347 346.356C332.064 346.356 420.193 335.329 420.193 341.304Z" fill="#3F3D56"/>
<path opacity="0.1" d="M420.193 341.304C420.193 347.279 332.064 367.996 223.347 367.996C114.631 367.996 26.5015 347.283 26.5015 341.304C26.5015 335.325 114.631 346.356 223.347 346.356C332.064 346.356 420.193 335.329 420.193 341.304Z" fill="black"/>
<path d="M223.347 352.124C332.062 352.124 420.193 347.279 420.193 341.304C420.193 335.328 332.062 330.484 223.347 330.484C114.632 330.484 26.5015 335.328 26.5015 341.304C26.5015 347.279 114.632 352.124 223.347 352.124Z" fill="#3F3D56"/>
<path opacity="0.2" d="M296.339 336.955C291.139 336.996 284.253 336.148 282.867 335.304C281.812 334.663 281.389 332.362 281.248 331.303C281.152 331.307 281.094 331.307 281.094 331.307C281.094 331.307 281.385 335.01 282.771 335.854C284.157 336.694 291.043 337.547 296.244 337.505C297.746 337.493 298.265 336.959 298.236 336.173C298.033 336.649 297.46 336.947 296.339 336.955Z" fill="black"/>
<path d="M339.692 208.042C339.692 208.042 328.552 199.609 327.705 202.7C326.859 205.791 335.878 212.817 335.878 212.817L339.692 208.042Z" fill="#FFB9B9"/>
<path opacity="0.1" d="M339.692 208.042C339.692 208.042 328.552 199.609 327.705 202.7C326.859 205.791 335.878 212.817 335.878 212.817L339.692 208.042Z" fill="black"/>
<path d="M376.471 181.342C376.471 181.342 363.222 204.947 362.94 208.319C362.657 211.691 362.657 211.973 361.528 211.691C360.399 211.41 344.897 209.726 343.49 210.284C342.079 210.847 339.26 206.912 339.26 206.912C339.26 206.912 333.906 212.25 335.031 213.375C336.156 214.501 339.543 215.059 340.103 216.466C340.668 217.873 341.514 219.276 344.05 218.994C346.586 218.713 363.782 223.492 366.036 222.648C368.29 221.804 368.854 220.401 369.983 220.401C371.112 220.401 373.366 219.276 373.366 218.994C373.366 218.713 381.26 203.821 381.26 203.821C381.26 203.821 390.566 183.592 376.471 181.342Z" fill="#D0CDE1"/>
<path opacity="0.1" d="M376.471 181.342C376.471 181.342 363.222 204.947 362.94 208.319C362.657 211.691 362.657 211.973 361.528 211.691C360.399 211.41 344.897 209.726 343.49 210.284C342.079 210.847 339.26 206.912 339.26 206.912C339.26 206.912 333.906 212.25 335.031 213.375C336.156 214.501 339.543 215.059 340.103 216.466C340.668 217.873 341.514 219.276 344.05 218.994C346.586 218.713 363.782 223.492 366.036 222.648C368.29 221.804 368.854 220.401 369.983 220.401C371.112 220.401 373.366 219.276 373.366 218.994C373.366 218.713 381.26 203.821 381.26 203.821C381.26 203.821 390.566 183.592 376.471 181.342Z" fill="black"/>
<path d="M357.249 165.784C357.129 167.278 357.154 168.775 357.32 170.265C357.747 173.492 359.237 176.86 357.83 179.873C357.32 180.965 356.452 181.921 355.983 183.026C354.983 185.368 355.892 187.97 355.755 190.461C355.581 193.684 353.526 196.787 350.397 198.554C355.738 198.72 360.819 196.088 364.181 192.497C367.543 188.909 369.415 184.457 370.818 180.005C371.54 177.916 372 175.743 372.196 173.542C372.308 172.276 372.158 171.002 371.76 169.797C371.266 168.618 370.614 167.513 369.826 166.508C368.983 165.329 368.12 164.125 366.879 163.248C365.347 162.168 362.4 161.079 360.37 161.237C357.88 161.427 357.353 164.059 357.249 165.784Z" fill="#2F2E41"/>
<path d="M365.476 174.601C365.476 174.601 368.576 185.562 366.04 188.653C363.504 191.744 381.26 187.246 381.26 187.246C381.26 187.246 372.523 178.536 376.749 172.913L365.476 174.601Z" fill="#FFB9B9"/>
<path opacity="0.1" d="M365.476 174.601C365.476 174.601 368.576 185.562 366.04 188.653C363.504 191.744 381.26 187.246 381.26 187.246C381.26 187.246 372.523 178.536 376.749 172.913L365.476 174.601Z" fill="black"/>
<path d="M286.888 246.113L322.492 210.723L286.888 175.338L297.742 164.551L344.204 210.723L297.742 256.895L286.888 246.113Z" fill="url(#paint0_linear)"/>
<path d="M355.332 320.719V328.866L359.557 333.926L363.222 332.238L362.093 320.438L355.332 320.719Z" fill="#FFB9B9"/>
<path d="M357.021 328.303C357.021 328.303 355.892 324.368 353.92 327.178C351.949 329.987 349.973 336.169 348.848 336.45C347.719 336.732 339.829 345.441 347.719 345.441C355.61 345.441 358.15 341.788 358.15 341.788C358.15 341.788 366.044 338.697 366.044 338.134C366.044 337.572 364.915 327.174 364.355 327.174C363.791 327.174 363.508 329.139 362.101 329.139C360.694 329.139 357.021 328.303 357.021 328.303Z" fill="#2F2E41"/>
<path d="M374.217 322.122L373.935 329.71L380.7 332.52V321.563L374.217 322.122Z" fill="#FFB9B9"/>
<path d="M381.543 329.71C381.543 329.71 377.878 325.775 375.906 326.619C374.931 327.012 373.989 327.48 373.088 328.026C373.088 328.026 371.959 331.68 371.399 334.77C370.834 337.861 370.552 339.268 369.987 340.389C369.423 341.515 368.858 345.727 374.499 346.29C380.136 346.852 381.829 343.762 381.829 343.762L383.24 336.454C383.236 336.454 382.672 329.71 381.543 329.71Z" fill="#2F2E41"/>
<path d="M358.992 241.197C358.992 241.197 350.82 259.461 351.945 276.04C351.945 276.04 349.126 282.503 350.816 292.62C352.505 302.737 354.763 322.97 354.763 322.97C354.763 322.97 362.375 323.814 362.936 322.407C362.936 322.407 363.5 308.356 364.064 307.797C364.629 307.234 363.782 294.308 362.936 291.78C362.089 289.252 370.83 264.244 370.83 264.244L368.576 233.054L358.992 241.197Z" fill="#2F2E41"/>
<path opacity="0.1" d="M358.992 241.197C358.992 241.197 350.82 259.461 351.945 276.04C351.945 276.04 349.126 282.503 350.816 292.62C352.505 302.737 354.763 322.97 354.763 322.97C354.763 322.97 362.375 323.814 362.936 322.407C362.936 322.407 363.5 308.356 364.064 307.797C364.629 307.234 363.782 294.308 362.936 291.78C362.089 289.252 370.83 264.244 370.83 264.244L368.576 233.054L358.992 241.197Z" fill="black"/>
<path d="M356.739 240.072L362.093 251.591C362.093 251.591 364.629 277.724 366.04 281.097C366.04 281.097 366.605 290.65 369.141 293.741C371.677 296.832 373.652 324.091 373.652 324.091C373.652 324.091 380.7 326.057 381.265 324.091C381.829 322.126 383.518 308.637 383.518 308.637C383.518 308.637 384.083 297.118 380.982 289.529C377.882 281.941 384.647 254.686 384.647 254.686C384.647 254.686 391.695 241.478 381.547 230.799L356.739 240.072Z" fill="#2F2E41"/>
<path d="M371.681 177.969C378.062 177.969 383.236 172.812 383.236 166.45C383.236 160.088 378.062 154.931 371.681 154.931C365.299 154.931 360.125 160.088 360.125 166.45C360.125 172.812 365.299 177.969 371.681 177.969Z" fill="#FFB9B9"/>
<path d="M382.389 183.874C382.389 183.874 370.27 183.874 368.576 185.281C367.709 186.104 366.343 186.104 365.476 185.281C365.476 185.281 361.246 185.562 360.121 188.934C358.992 192.306 355.61 196.804 355.61 196.804C355.61 196.804 350.538 200.458 353.356 210.011C356.174 219.565 353.92 235.019 353.92 235.019C353.92 235.019 351.667 238.392 353.92 239.798C356.174 241.205 357.021 241.764 356.739 242.889C356.456 244.015 382.389 233.617 382.389 231.651C382.389 229.686 381.825 227.998 382.389 227.154C382.954 226.31 383.518 224.907 382.954 223.5C382.389 222.093 383.518 221.816 383.236 220.409C382.954 219.003 384.647 208.609 385.772 204.111C386.897 199.613 386.619 184.155 382.389 183.874Z" fill="#D0CDE1"/>
<path d="M339.692 211.414C339.692 211.414 328.552 202.982 327.705 206.072C326.859 209.163 335.878 216.189 335.878 216.189L339.692 211.414Z" fill="#FFB9B9"/>
<path d="M376.471 185.276C376.471 185.276 363.222 208.882 362.94 212.254C362.657 215.626 362.657 215.908 361.528 215.626C360.399 215.345 344.897 213.661 343.49 214.219C342.079 214.782 339.26 210.847 339.26 210.847C339.26 210.847 333.906 216.185 335.031 217.31C336.16 218.436 339.543 218.994 340.103 220.401C340.668 221.808 341.514 223.211 344.05 222.929C346.586 222.648 363.782 227.427 366.036 226.583C368.29 225.739 368.854 224.336 369.983 224.336C371.112 224.336 373.366 223.211 373.366 222.929C373.366 222.648 381.26 207.756 381.26 207.756C381.26 207.756 390.566 187.527 376.471 185.276Z" fill="#D0CDE1"/>
<path d="M365.957 173.811C365.795 172.669 365.21 171.635 364.911 170.522C364.434 168.722 364.716 166.806 365.691 165.221C367.348 162.552 370.606 161.369 372.872 159.193C372.918 160.302 373.69 161.249 374.545 161.961C375.396 162.672 376.375 163.252 377.097 164.096C377.79 164.985 378.297 166.007 378.583 167.1C379.027 168.362 379.227 169.698 379.173 171.039C379.106 172.392 378.488 173.654 377.463 174.539C376.616 175.205 375.437 175.586 375.026 176.579C374.864 177.076 374.819 177.601 374.889 178.118C375.084 181.209 375.263 184.358 374.532 187.366C373.802 190.378 372.013 193.287 369.207 194.619C371.511 194.781 373.864 194.942 376.101 194.363C378.338 193.784 380.476 192.323 381.244 190.151C381.626 189.079 381.659 187.887 382.198 186.89C383.564 184.358 387.341 184.242 389.196 182.041C389.939 181.16 390.296 180.026 390.562 178.904C392.127 172.317 391.027 165.321 388.644 158.982C387.822 156.797 386.801 154.596 385.037 153.061C383.539 151.753 381.621 151.033 379.729 150.417C376.964 149.519 374.117 148.782 371.212 148.687C369.95 148.613 368.684 148.762 367.472 149.122C366.277 149.552 365.164 150.185 364.181 150.992C359.627 154.521 356.531 160.165 356.942 165.9C357.191 169.371 358.665 172.652 360.561 175.574C361.225 176.596 362.79 178.776 364.243 178.131C365.567 177.551 366.127 175.044 365.957 173.811Z" fill="#2F2E41"/>
<path d="M185.207 213.251H199.68V198.823H185.207V213.251ZM257.868 198.819H243.394V213.247H257.868V198.819ZM214.299 213.251H228.772V198.823H214.299V213.251Z" fill="url(#paint1_linear)"/>
<path d="M101.117 155.825C107.842 155.825 113.294 151.584 113.294 146.353C113.294 141.123 107.842 136.882 101.117 136.882C94.3909 136.882 88.9387 141.123 88.9387 146.353C88.9387 151.584 94.3909 155.825 101.117 155.825Z" fill="#2F2E41"/>
<path d="M103.188 211.547C103.188 211.547 114.149 212.275 116.096 210.818C118.043 209.362 126.327 212.759 127.058 214.704C127.788 216.644 115.365 216.888 113.419 216.888C111.472 216.888 102.216 219.801 102.216 219.801L103.188 211.547Z" fill="#A0616A"/>
<path d="M80.6167 324.658C80.6167 324.658 75.5074 337.501 78.1721 339.049C80.8367 340.6 108.82 339.492 108.82 339.492C108.82 339.492 113.485 336.612 108.152 334.621C108.152 334.621 103.711 334.398 100.822 332.627C97.933 330.856 94.6042 327.534 94.6042 327.534C94.6042 327.534 94.3801 322.664 92.6036 323.768C91.5286 324.476 90.8023 325.601 90.6031 326.867L80.6167 324.658Z" fill="#2F2E41"/>
<path opacity="0.1" d="M80.6167 324.658C80.6167 324.658 75.5074 337.501 78.1721 339.049C80.8367 340.6 108.82 339.492 108.82 339.492C108.82 339.492 113.485 336.612 108.152 334.621C108.152 334.621 103.711 334.398 100.822 332.627C97.933 330.856 94.6042 327.534 94.6042 327.534C94.6042 327.534 94.3801 322.664 92.6036 323.768C91.5286 324.476 90.8023 325.601 90.6031 326.867L80.6167 324.658Z" fill="black"/>
<path d="M165.596 245.753L129.955 210.363L165.559 174.978L154.705 164.191L108.281 210.363L154.742 256.535L165.596 245.753Z" fill="url(#paint2_linear)"/>
<path d="M72.7432 328.585C72.7432 328.585 67.1399 342.669 70.0619 344.366C72.9839 346.066 103.673 344.85 103.673 344.85C103.673 344.85 108.787 341.693 102.943 339.508C102.943 339.508 98.07 339.264 94.9031 337.323C91.7362 335.383 88.0837 331.737 88.0837 331.737C88.0837 331.737 87.8388 326.396 85.8922 327.608C84.7134 328.382 83.9165 329.615 83.7007 331.009L72.7432 328.585Z" fill="#2F2E41"/>
<path d="M101.482 239.228L98.07 269.821C98.07 269.821 96.8539 284.39 93.1972 287.547C93.1972 287.547 93.1972 292.161 91.9811 293.617L90.2752 312.799C90.2752 312.799 92.7116 319.842 92.4667 321.054C92.2218 322.266 93.4421 326.152 93.1972 326.64C92.9523 327.128 81.505 326.64 81.505 326.64L83.9414 287.547L91.4913 233.158L101.482 239.228Z" fill="#2F2E41"/>
<path opacity="0.1" d="M101.482 239.228L98.07 269.821C98.07 269.821 96.8539 284.39 93.1972 287.547C93.1972 287.547 93.1972 292.161 91.9811 293.617L90.2752 312.799C90.2752 312.799 92.7116 319.842 92.4667 321.054C92.2218 322.266 93.4421 326.152 93.1972 326.64C92.9523 327.128 81.505 326.64 81.505 326.64L83.9414 287.547L91.4913 233.158L101.482 239.228Z" fill="black"/>
<path d="M95.3929 238.259C95.3929 238.259 92.7116 263.267 91.4955 268.609C90.7318 272.126 90.242 275.701 90.0345 279.293C90.0345 279.293 89.7896 287.063 87.5981 289.248C86.3031 290.526 85.5975 292.285 85.6515 294.105C85.6515 294.105 83.46 318.629 84.6761 321.542C85.8922 324.455 87.1125 326.884 85.8922 328.829C84.6761 330.769 71.278 330.769 71.278 329.313C71.278 327.856 71.278 326.64 70.5475 325.912C69.817 325.183 70.5475 320.57 70.5475 320.57C70.5475 320.57 67.6255 298.959 70.3026 292.645C72.9839 286.331 74.2 269.093 74.2 269.093C74.2 269.093 72.2534 249.427 69.817 246.27C67.3806 243.113 70.3026 231.945 70.3026 231.945L95.3929 238.259Z" fill="#2F2E41"/>
<path d="M88.5361 160.591C88.8184 161.232 89.4991 161.592 90.1134 161.932C93.6912 163.897 96.6837 166.744 99.6306 169.557C98.896 167.071 99.0496 164.406 100.075 162.023C100.428 161.212 100.888 160.335 100.635 159.486C100.448 158.862 99.917 158.411 99.3982 158.013C98.1945 157.087 96.9369 156.23 95.6295 155.452C94.7164 154.91 92.8444 153.462 91.7943 153.619C91.7404 155.03 91.7113 156.288 91.0929 157.608C90.9518 157.918 88.644 160.835 88.5361 160.591Z" fill="#A0616A"/>
<path d="M100.996 163.715C106.511 163.715 110.982 159.258 110.982 153.76C110.982 148.262 106.511 143.805 100.996 143.805C95.4809 143.805 91.0099 148.262 91.0099 153.76C91.0099 159.258 95.4809 163.715 100.996 163.715Z" fill="#A0616A"/>
<path d="M101.482 177.311C101.482 177.311 103.188 168.813 98.3148 165.9C93.442 162.987 87.8429 159.586 87.8429 159.586C87.8429 159.586 86.137 159.342 85.4065 162.987C85.4065 162.987 71.5228 165.66 70.0618 178.768C68.6008 191.876 71.0372 211.062 71.0372 211.062C71.0372 211.062 68.8457 227.816 66.1644 236.799C66.1644 236.799 63.9729 238.739 73.7143 235.826C83.4557 232.913 100.506 244.081 100.506 244.081C100.506 244.081 102.212 242.38 102.212 241.168C102.212 239.956 104.159 232.913 104.159 232.913C104.159 232.913 105.865 203.048 106.595 199.647C107.33 196.25 103.673 177.796 101.482 177.311Z" fill="#575A89"/>
<path d="M98.6427 154.782C99.2445 154.451 99.9169 154.273 100.602 154.261C101.287 154.252 101.959 154.049 102.54 153.685C103.482 152.965 103.553 151.567 104.242 150.603C105.242 149.204 107.234 149.035 108.953 149.105C110.007 149.146 111.14 149.208 112.024 148.642C112.933 148.058 113.344 146.962 113.651 145.927C114.012 144.707 114.249 143.209 113.348 142.303C112.726 141.674 111.738 141.55 111.045 140.995C110.327 140.42 110.032 139.489 109.638 138.657C109.194 137.644 108.488 136.766 107.6 136.109C106.292 135.202 104.62 135 103.03 135.016C101.436 135.033 99.8381 135.244 98.2567 135.045C96.9617 134.884 95.6709 134.458 94.3801 134.648C92.7364 134.892 91.375 136.129 90.5657 137.573C89.7563 139.021 89.4077 140.672 89.0715 142.294L88.1542 146.709C87.8678 148.079 87.5855 149.486 87.8055 150.863C88.2621 153.727 90.8023 156.002 90.9766 158.895C91.3169 157.273 92.45 155.928 93.9941 155.316C94.185 155.225 94.4008 155.196 94.6083 155.241C94.8615 155.32 95.0068 155.572 95.1687 155.783C95.5879 156.338 96.8953 157.173 97.6383 156.784C98.3024 156.449 97.8043 155.349 98.6427 154.782Z" fill="#2F2E41"/>
<path d="M73.4737 200.135C73.4737 200.135 71.7678 210.818 78.8321 209.846C78.8321 209.846 82.4846 209.362 82.9743 209.846C83.46 210.33 101.486 207.173 103.922 204.504C103.922 204.504 106.844 203.532 108.305 204.988C109.766 206.445 124.381 207.901 119.998 203.532C115.615 199.163 108.791 198.194 108.791 198.194L99.5352 198.678C99.5352 198.678 94.6624 200.135 91.7404 198.678C88.8184 197.222 80.538 197.706 80.538 197.706L73.4737 200.135Z" fill="#A0616A"/>
<path d="M83.46 166.384C83.46 166.384 72.4983 167.596 72.4983 183.381V203.536C72.4983 203.536 78.5872 200.863 79.8075 201.107C81.0236 201.351 85.8964 197.95 85.8964 197.95C85.8964 197.95 91.4997 184.838 91.0099 181.197C90.5201 177.556 90.765 166.872 83.46 166.384Z" fill="#575A89"/>
<path d="M100.996 152.423C106.174 152.423 110.372 150.249 110.372 147.566C110.372 144.883 106.174 142.708 100.996 142.708C95.8179 142.708 91.62 144.883 91.62 147.566C91.62 150.249 95.8179 152.423 100.996 152.423Z" fill="#2F2E41"/>
<path d="M92.226 156.553C94.0415 156.553 95.5132 152.911 95.5132 148.418C95.5132 143.925 94.0415 140.283 92.226 140.283C90.4105 140.283 88.9387 143.925 88.9387 148.418C88.9387 152.911 90.4105 156.553 92.226 156.553Z" fill="#2F2E41"/>
<defs>
<linearGradient id="paint0_linear" x1="286.888" y1="210.723" x2="344.204" y2="210.723" gradientUnits="userSpaceOnUse">
<stop offset="0.265625" stop-color="#FF4D52"/>
<stop offset="0.848958" stop-color="#F9CB28"/>
</linearGradient>
<linearGradient id="paint1_linear" x1="185.207" y1="206.035" x2="257.868" y2="206.035" gradientUnits="userSpaceOnUse">
<stop offset="0.265625" stop-color="#FF4D52"/>
<stop offset="0.848958" stop-color="#F9CB28"/>
</linearGradient>
<linearGradient id="paint2_linear" x1="108.281" y1="210.363" x2="165.596" y2="210.363" gradientUnits="userSpaceOnUse">
<stop offset="0.265625" stop-color="#FF4D52"/>
<stop offset="0.848958" stop-color="#F9CB28"/>
</linearGradient>
</defs>
</svg>
