<svg width="475" height="318" viewBox="0 0 475 318" fill="none" xmlns="http://www.w3.org/2000/svg">
<g clip-path="url(#clip0)">
<path opacity="0.1" d="M281.478 51.0957C251.868 50.0637 223.667 40.4821 196.734 29.9969C169.8 19.5117 143.132 7.89362 114.231 2.33914C95.6424 -1.2339 74.3865 -1.73843 59.4076 8.25139C44.9961 17.8834 40.3386 34.4643 37.8315 49.8619C35.9511 61.4524 34.8394 73.6439 40.0046 84.4914C43.5869 92.0227 49.9509 98.3524 54.3521 105.567C69.6604 130.666 58.8403 161.617 42.2464 186.123C34.4688 197.618 25.4375 208.598 19.4304 220.826C13.4233 233.054 10.6463 247.085 15.8985 259.57C21.1095 271.954 33.5217 281.238 46.9634 287.774C74.2721 301.048 106.44 304.85 137.834 307.001C207.293 311.767 277.127 309.703 346.769 307.639C372.545 306.873 398.431 306.097 423.786 302.102C437.868 299.883 452.408 296.36 462.629 287.884C475.604 277.091 478.82 258.813 470.127 245.283C455.542 222.583 415.226 216.941 405.019 192.581C399.406 179.174 405.17 164.236 413.323 151.801C430.818 125.12 460.14 101.719 461.686 71.2221C462.748 50.2793 448.652 29.3043 426.856 19.3925C404.008 9.00361 372.33 10.3108 355.485 27.5063C338.118 45.1926 307.62 52.0039 281.478 51.0957Z" fill="#536DFE"/>
<path d="M205.298 298.818C204.841 297.158 204.383 295.479 203.468 294.035C202.62 292.809 201.612 291.704 200.471 290.746C197.154 287.728 193.083 284.664 188.686 285.425C187.326 285.727 186.012 286.208 184.779 286.856C184.138 287.155 183.493 287.453 182.834 287.705C180.98 288.482 178.93 288.662 176.969 288.219C175.963 287.948 175.025 287.462 174.032 287.159C173.561 287.017 173.079 286.913 172.591 286.847C173.55 286.417 174.481 285.925 175.377 285.375C180.309 282.348 184.244 276.876 183.695 271.023C183.507 269.055 182.834 267.17 182.166 265.313L180.41 260.442C179.65 258.332 178.863 256.181 177.477 254.428C175.935 252.475 173.739 251.149 171.47 250.163C166.597 248.039 161.272 247.292 156.015 246.567L155.649 246.516V189.582C155.649 188.609 155.264 187.675 154.577 186.987C153.891 186.299 152.96 185.912 151.989 185.912H145.081C144.776 184.041 144.471 182.173 144.166 180.307C143.296 174.982 142.395 169.561 139.948 164.768C138.346 161.63 135.798 158.635 132.362 158.021C131.687 157.96 131.023 157.805 130.39 157.562C129.384 157.067 128.835 155.966 128.061 155.154C126.067 153.058 122.823 153.026 120.151 151.943C117.79 151.003 115.86 149.233 113.709 147.87C111.559 146.508 108.887 145.54 106.508 146.426C106.508 146.6 106.476 146.774 106.458 146.944L104.93 146.238C103.283 145.472 101.604 144.687 100.281 143.43C98.5841 141.825 97.6782 139.697 96.9737 137.436C96.9005 137.202 96.8318 136.977 96.7586 136.725C99.683 133.734 101.663 129.945 102.45 125.831L102.821 127.038C102.904 127.309 103.002 127.575 103.113 127.836C103.303 128.34 103.618 128.787 104.028 129.134C104.146 129.226 104.275 129.302 104.413 129.358C104.539 129.409 104.671 129.443 104.806 129.459C104.996 129.483 105.189 129.469 105.374 129.418C105.683 129.322 105.967 129.158 106.204 128.937C106.442 128.716 106.627 128.445 106.746 128.143C106.819 127.963 106.873 127.775 106.906 127.583C106.924 127.468 106.935 127.352 106.938 127.235C106.938 127.198 106.938 127.161 106.938 127.125C106.938 127.088 106.938 126.964 106.938 126.886C106.938 126.808 106.938 126.804 106.938 126.758C106.938 126.712 106.938 126.606 106.915 126.528V126.409C106.915 126.318 106.888 126.226 106.87 126.139C106.851 126.051 106.87 126.088 106.87 126.065C106.847 125.951 106.819 125.831 106.796 125.717C106.796 125.689 106.796 125.657 106.796 125.63C106.796 125.602 106.755 125.441 106.732 125.345C106.709 125.249 106.7 125.221 106.687 125.157V125.13C106.641 124.946 106.6 124.767 106.558 124.584C106.226 122.992 106.141 121.358 106.307 119.74C106.581 117.366 107.018 115.013 107.615 112.7L107.711 112.282C107.748 112.122 107.785 111.961 107.817 111.796C107.89 111.466 107.963 111.136 108.032 110.801L108.196 109.957L108.32 109.205V109.108C108.577 107.404 108.63 105.675 108.48 103.957C108.27 101.559 107.528 99.2881 105.904 97.481C104.756 96.2013 103.242 95.2564 102.176 93.9125C101.178 92.6558 100.615 91.1055 99.5815 89.8716C96.7266 86.4546 89.3973 83.8218 84.9 83.3631C79.7484 82.8402 71.4263 84.1612 67.2721 87.2114C65.7349 88.3351 64.6826 89.9634 63.6121 91.5045C61.6448 94.3712 59.4121 97.2333 56.2599 98.8432C55.0704 99.4487 53.707 99.9073 52.9155 100.962C52.4446 101.677 52.1398 102.489 52.0234 103.338C51.4172 106.325 51.1016 109.363 51.0809 112.411C51.0809 112.791 51.0809 113.172 51.0809 113.557C51.0903 114.7 51.3332 115.829 51.7946 116.874C51.8678 117.029 51.9502 117.181 52.0371 117.332L52.092 117.428C52.6454 118.221 53.1349 119.057 53.556 119.928C53.6609 120.172 53.7362 120.428 53.7802 120.69C53.8586 121.362 53.8152 122.042 53.6521 122.699C53.6521 122.8 53.6109 122.9 53.5926 123.001L53.5514 123.199C53.5514 123.267 53.5514 123.336 53.5148 123.4C53.4782 123.598 53.4462 123.795 53.4188 123.987C53.3494 124.518 53.3836 125.057 53.5194 125.574C53.5821 125.863 53.705 126.134 53.8801 126.372C54.0551 126.609 54.2784 126.806 54.5351 126.95C54.7957 127.076 55.0731 127.162 55.3586 127.207C55.6468 127.258 55.9396 127.29 56.2233 127.354C56.5881 127.437 56.9403 127.569 57.271 127.744C57.5878 127.896 57.8844 128.087 58.154 128.313C58.2874 128.434 58.4141 128.563 58.5337 128.698C58.7753 128.975 58.9927 129.273 59.1834 129.588C59.281 129.75 59.3725 129.915 59.4579 130.083C59.7857 130.747 60.0478 131.441 60.2402 132.156C60.3592 132.583 60.4598 133.014 60.5468 133.445C60.5879 133.638 60.6245 133.831 60.6566 134.019C60.6886 134.207 60.7206 134.399 60.7481 134.587C60.8729 134.58 60.9961 134.555 61.1141 134.514C61.7866 134.271 62.1618 133.487 62.3722 132.725C62.4088 132.597 62.4408 132.473 62.4683 132.349C62.5735 131.89 62.6833 131.386 62.7886 130.904C64.592 134.744 67.4998 137.954 71.1381 140.123C71.2662 140.504 71.3897 140.88 71.4995 141.266C72.0989 143.343 72.3871 145.517 71.3486 147.334C70.6074 148.623 69.363 149.416 67.9721 149.966C67.7716 149.699 67.5136 149.479 67.2172 149.324C66.014 148.719 64.5683 149.453 63.5572 150.356C61.7271 152.017 60.2357 154.397 57.8292 154.943C56.9599 155.145 55.9991 155.104 55.2763 155.636C54.7982 156.086 54.3978 156.613 54.0913 157.195C53.5691 157.947 52.8669 158.555 52.0491 158.964C51.2313 159.373 50.3241 159.569 49.411 159.534C48.5737 159.493 47.5809 159.3 47.0091 159.915C46.5836 160.374 46.5515 161.098 46.094 161.534C45.481 162.14 44.4745 161.846 43.6189 161.809C41.9902 161.741 40.4758 162.795 39.5471 164.149C38.6183 165.502 38.1746 167.121 37.717 168.735V168.763C37.5996 168.848 37.4881 168.942 37.3831 169.043C36.9395 169.516 36.5956 170.075 36.372 170.685C32.6721 179.13 30.4883 188.164 29.9211 197.37C29.9301 197.819 29.8296 198.263 29.6283 198.663C29.4236 198.925 29.1987 199.171 28.9557 199.397C28.7383 199.664 28.5766 199.972 28.4801 200.303C28.3836 200.633 28.3544 200.98 28.394 201.322C28.4337 201.664 28.5416 201.995 28.7111 202.295C28.8807 202.594 29.1086 202.857 29.3812 203.067C29.5129 202.827 29.6777 202.608 29.8708 202.415C29.8204 202.626 29.7747 202.833 29.7427 203.021C29.5589 204.359 29.542 205.715 29.6923 207.057C30.1254 213.43 30.5631 219.797 31.0054 226.161C31.1289 227.963 31.2524 229.761 31.4171 231.559C31.7374 235.039 32.1949 238.505 32.7897 241.957C32.8171 242.113 32.8491 242.274 32.8903 242.416C29.1616 243.604 25.8447 245.75 24.4493 249.333C23.9643 250.571 23.7447 251.92 23.1499 253.107C22.4957 254.41 21.4206 255.451 20.7068 256.726C19.4761 258.919 19.4212 261.607 19.8696 264.065C20.7343 268.858 23.3192 273.142 26.7322 276.628C26.5813 276.628 26.4257 276.628 26.2747 276.628C25.1597 276.752 24.0893 277.137 23.1499 277.752C15.9304 281.981 11.8037 291.053 13.3089 299.337C13.6063 300.956 14.1233 302.598 15.203 303.832C16.1005 304.813 17.2544 305.521 18.5337 305.877C19.3337 306.119 20.1574 306.273 20.9905 306.336C26.6179 306.795 32.0668 304.18 37.7079 303.96C39.5766 303.93 41.4454 304.018 43.3032 304.222C46.0208 304.448 48.743 304.592 51.4698 304.653C55.903 304.758 58.3965 303.575 61.2239 300.254C61.9188 299.428 62.499 298.512 62.9487 297.53C65.3552 297.392 68.0133 297.181 69.9349 297.025L69.9623 297.291C70.0675 298.208 70.2277 299.263 70.9597 299.841C71.3715 300.126 71.8396 300.318 72.3322 300.405C76.9531 301.543 81.6288 302.699 86.3869 302.699C88.6198 302.654 90.8483 302.482 93.062 302.185L101.421 301.217C103.856 301.527 106.26 302.052 108.604 302.786C111.019 303.607 113.275 304.827 115.635 305.795C121.126 308.024 127.027 308.822 132.874 309.602C133.872 309.735 135.016 309.827 135.752 309.143C136.704 308.226 136.388 306.694 136.118 305.41C136.008 304.882 135.926 304.355 135.862 303.823C139.808 304.865 143.668 306.209 147.41 307.84L148.064 308.129C148.256 309.129 149.175 309.927 150.058 311.005C150.348 311.46 150.687 311.882 151.07 312.262C151.506 312.546 152.003 312.725 152.52 312.785C158.692 313.938 164.995 314.223 171.246 313.633C172.525 313.459 173.819 313.414 175.107 313.5C176.054 313.63 176.987 313.84 177.898 314.129L183.191 315.652C187.094 316.771 191.088 317.904 195.137 317.651C195.958 317.6 196.773 317.482 197.575 317.298C200.778 316.555 203.761 314.762 205.298 311.877C207.471 307.955 206.469 303.13 205.298 298.818Z" fill="url(#paint0_linear)"/>
<path d="M57.1977 297.924C56.2324 295.722 55.3174 293.191 56.2827 290.989C56.9128 289.692 57.9953 288.672 59.3252 288.122C60.6411 287.584 62.0282 287.241 63.4427 287.104C67.8826 286.52 72.3753 286.459 76.8295 286.921C77.1543 289.498 76.468 292.113 75.8779 294.603C75.3426 296.897 75.036 297.236 72.6753 297.355C71.1472 297.438 57.5592 298.736 57.1977 297.924Z" fill="#FBBEBE"/>
<path d="M97.939 283.072C134.072 283.072 163.363 274.858 163.363 264.726C163.363 254.593 134.072 246.379 97.939 246.379C61.8064 246.379 32.5151 254.593 32.5151 264.726C32.5151 274.858 61.8064 283.072 97.939 283.072Z" fill="#464353"/>
<path opacity="0.1" d="M97.939 283.072C134.072 283.072 163.363 274.858 163.363 264.726C163.363 254.593 134.072 246.379 97.939 246.379C61.8064 246.379 32.5151 254.593 32.5151 264.726C32.5151 274.858 61.8064 283.072 97.939 283.072Z" fill="black"/>
<path d="M109.67 167.873C107.427 172.217 103.702 175.61 99.1743 177.432C96.501 178.408 93.6874 178.944 90.8431 179.019C87.7366 179.161 84.5661 178.959 81.6472 177.895C77.7309 176.473 74.478 173.565 72.0395 170.176C69.6009 166.786 67.9219 162.915 66.4624 159.012C65.6938 156.98 64.9618 154.815 65.3232 152.668C67.6794 152.131 70.2597 151.343 71.4767 149.246C72.5153 147.448 72.227 145.293 71.6277 143.238C71.4584 142.655 71.2617 142.077 71.065 141.522C70.6074 140.192 69.029 137.665 70.1499 136.528C70.8499 135.807 73.7826 135.441 74.7937 134.973C77.9093 133.532 80.7825 131.45 84.2046 130.767C87.1647 130.175 90.2209 130.73 93.1764 131.345C93.5684 131.402 93.945 131.537 94.2836 131.744C94.6696 132.07 94.9552 132.499 95.1071 132.982C95.9489 135.037 96.443 137.307 97.1201 139.449C97.8247 141.692 98.7306 143.797 100.428 145.389C101.75 146.632 103.434 147.412 105.081 148.169L109.134 150.031C109.855 150.301 110.509 150.726 111.051 151.274C111.581 152.004 111.898 152.868 111.966 153.769C112.693 158.595 111.889 163.529 109.67 167.873Z" fill="#FBBEBE"/>
<path opacity="0.1" d="M97.1017 139.449C93.8738 142.819 89.6217 145.018 85.0123 145.704C80.4029 146.39 75.6969 145.522 71.6322 143.238C71.4629 142.655 71.2662 142.077 71.0694 141.522C70.6119 140.192 69.0335 137.665 70.1544 136.528C70.8544 135.807 73.787 135.441 74.7981 134.973C77.9138 133.532 80.7869 131.45 84.2091 130.767C87.1692 130.175 90.2253 130.73 93.1809 131.345C93.5729 131.402 93.9494 131.537 94.288 131.744C94.6741 132.07 94.9597 132.499 95.1115 132.982C95.9305 135.037 96.4246 137.307 97.1017 139.449Z" fill="black"/>
<path d="M81.9262 145.013C93.5492 145.013 102.972 135.567 102.972 123.914C102.972 112.262 93.5492 102.815 81.9262 102.815C70.3031 102.815 60.8807 112.262 60.8807 123.914C60.8807 135.567 70.3031 145.013 81.9262 145.013Z" fill="#FBBEBE"/>
<path d="M146.046 192.389L144.317 181.885C143.443 176.615 142.542 171.244 140.099 166.497C138.493 163.387 135.944 160.424 132.508 159.809C131.832 159.749 131.167 159.595 130.532 159.351C129.526 158.865 128.977 157.773 128.203 156.966C126.209 154.893 122.96 154.86 120.288 153.806C117.928 152.888 115.997 151.122 113.847 149.774C111.696 148.425 109.02 147.48 106.641 148.343C106.257 152.448 105.849 156.645 104.111 160.383C102.979 162.816 101.32 164.966 99.2528 166.673C97.1862 168.381 94.7649 169.604 92.1661 170.253C89.5673 170.902 86.8567 170.96 84.2325 170.424C81.6082 169.888 79.1368 168.77 76.9989 167.153C72.9225 164.075 70.3101 159.328 69.0931 154.361C68.7957 153.15 68.4572 151.76 67.3454 151.205C66.1422 150.599 64.6964 151.333 63.6853 152.223C61.8553 153.87 60.3592 156.227 57.9527 156.782C57.0835 156.984 56.1227 156.943 55.3998 157.47C54.9194 157.915 54.5173 158.437 54.2103 159.016C53.6837 159.762 52.9801 160.365 52.163 160.77C51.3459 161.175 50.441 161.37 49.53 161.337C48.6927 161.296 47.7 161.103 47.1281 161.713C46.7026 162.172 46.6706 162.887 46.213 163.314C45.5954 163.915 44.5935 163.621 43.7333 163.589C42.1046 163.52 40.5903 164.566 39.6569 165.882C38.7236 167.199 38.2844 168.827 37.8269 170.405C42.8275 181.569 47.4026 192.747 52.4032 203.911C52.6374 204.331 52.7618 204.805 52.7646 205.287C52.6643 205.787 52.4515 206.257 52.1424 206.663C49.6901 210.612 49.7679 215.579 50.0378 220.221C50.3078 224.863 50.6372 229.766 48.5692 233.926C48.0065 235.068 47.2745 236.114 46.7392 237.256C45.4856 239.843 45.0327 248.117 45.7647 250.897H149.198C147.227 245.461 147.977 234.554 148.389 228.784C148.677 224.748 147.931 220.716 147.611 216.68C146.911 208.438 147.405 200.617 146.046 192.389Z" fill="#536DFE"/>
<path d="M29.9028 204.406C29.7198 205.733 29.7014 207.078 29.8479 208.41L31.161 227.339C31.2845 229.124 31.408 230.903 31.5727 232.683C31.8884 236.137 32.3597 239.563 32.9453 242.985C32.9584 243.47 33.1634 243.931 33.515 244.266C33.8667 244.6 34.3364 244.781 34.8211 244.769C40.6085 245.998 46.5882 245.948 52.4946 245.613C61.5076 245.108 70.5068 243.957 79.5335 244.154C81.8576 244.205 84.5661 244.154 85.9752 242.32C87.3843 240.485 86.5654 237.517 84.7262 236.036C82.887 234.554 80.389 234.201 78.0282 234.201C74.9035 234.169 71.7787 234.614 68.663 234.43C65.8036 234.261 63.0082 233.568 60.2357 232.876L52.458 230.935C52.7554 228.573 53.6521 226.349 54.5031 224.106C56.0312 220.129 57.4586 216.02 57.4861 211.758C57.5135 207.497 55.9122 203.016 52.4306 200.576C49.5666 198.572 45.8791 198.2 42.3883 198.283C39.8491 198.356 35.4616 197.746 33.142 198.741C31.3074 199.549 30.246 202.603 29.9028 204.406Z" fill="#FBBEBE"/>
<path d="M151.34 247.686C152.863 247.103 154.542 247.314 156.175 247.535C161.432 248.255 166.767 248.993 171.639 251.098C173.927 252.08 176.105 253.392 177.651 255.323C179.023 257.061 179.824 259.189 180.584 261.285L182.34 266.111C183.008 267.945 183.685 269.817 183.873 271.766C184.422 277.541 180.483 282.985 175.528 285.985C170.573 288.984 164.74 290.053 159.058 291.172C153.375 292.291 147.67 293.53 142.011 294.842C139.371 295.528 136.693 296.057 133.991 296.424C127.933 297.112 121.601 296.098 115.846 298.107C113.558 298.91 111.312 300.103 108.938 300.658C107.36 300.99 105.766 301.234 104.161 301.387L93.2679 302.634C91.0527 302.931 88.8226 303.103 86.5882 303.148C81.8301 303.148 77.1498 302.02 72.529 300.891C72.0377 300.805 71.57 300.616 71.1564 300.337C70.4244 299.759 70.2643 298.736 70.1591 297.809C69.6924 293.709 69.2837 289.604 68.9329 285.494C68.8231 284.159 68.7408 282.714 69.4682 281.591C70.3832 280.215 72.1675 279.784 73.7963 279.518C80.7026 278.385 87.6991 277.898 94.6953 278.064C97.3534 275.399 101.736 275.385 105.218 273.936C106.499 273.346 107.738 272.67 108.928 271.913C115.156 268.27 122.116 266.065 129.301 265.459C130.708 265.416 132.106 265.216 133.469 264.863C136.164 264.024 138.621 261.74 141.389 262.299C141.732 261.35 141.97 260.079 142.761 259.428C143.155 259.093 143.64 258.868 144.001 258.511C144.765 257.735 144.834 256.515 144.719 255.433C144.605 254.35 144.349 253.24 144.628 252.185C144.744 251.786 144.915 251.405 145.136 251.053C146.508 248.677 148.581 247.457 151.34 247.686Z" fill="#464353"/>
<path opacity="0.05" d="M151.34 247.686C152.863 247.103 154.542 247.314 156.175 247.535C161.432 248.255 166.767 248.993 171.639 251.098C173.927 252.08 176.105 253.392 177.651 255.323C179.023 257.061 179.824 259.189 180.584 261.285L182.34 266.111C183.008 267.945 183.685 269.817 183.873 271.766C184.422 277.541 180.483 282.985 175.528 285.985C170.573 288.984 164.74 290.053 159.058 291.172C153.375 292.291 147.67 293.53 142.011 294.842C139.371 295.528 136.693 296.057 133.991 296.424C127.933 297.112 121.601 296.098 115.846 298.107C113.558 298.91 111.312 300.103 108.938 300.658C107.36 300.99 105.766 301.234 104.161 301.387L93.2679 302.634C91.0527 302.931 88.8226 303.103 86.5882 303.148C81.8301 303.148 77.1498 302.02 72.529 300.891C72.0377 300.805 71.57 300.616 71.1564 300.337C70.4244 299.759 70.2643 298.736 70.1591 297.809C69.6924 293.709 69.2837 289.604 68.9329 285.494C68.8231 284.159 68.7408 282.714 69.4682 281.591C70.3832 280.215 72.1675 279.784 73.7963 279.518C80.7026 278.385 87.6991 277.898 94.6953 278.064C97.3534 275.399 101.736 275.385 105.218 273.936C106.499 273.346 107.738 272.67 108.928 271.913C115.156 268.27 122.116 266.065 129.301 265.459C130.708 265.416 132.106 265.216 133.469 264.863C136.164 264.024 138.621 261.74 141.389 262.299C141.732 261.35 141.97 260.079 142.761 259.428C143.155 259.093 143.64 258.868 144.001 258.511C144.765 257.735 144.834 256.515 144.719 255.433C144.605 254.35 144.349 253.24 144.628 252.185C144.744 251.786 144.915 251.405 145.136 251.053C146.508 248.677 148.581 247.457 151.34 247.686Z" fill="black"/>
<path d="M61.407 300.759C58.575 304.047 56.0816 305.221 51.6483 305.116C48.9215 305.052 46.1978 304.91 43.4772 304.689C41.6176 304.488 39.7475 304.401 37.8772 304.428C32.2316 304.648 26.7826 307.24 21.1507 306.786C20.3179 306.72 19.4944 306.566 18.6939 306.327C17.4162 305.974 16.2615 305.272 15.3586 304.3C14.2789 303.075 13.7619 301.451 13.4645 299.846C11.9593 291.617 16.0861 282.655 23.3101 278.467C24.2527 277.857 25.3242 277.475 26.4395 277.353C27.5332 277.348 28.6143 277.586 29.6055 278.05L29.6741 278.077C32.6091 279.288 35.2747 281.072 37.5158 283.325C37.8558 283.715 38.2615 284.043 38.7145 284.292C39.1665 284.464 39.645 284.554 40.1282 284.558L46.1399 284.939C47.1584 284.97 48.1707 285.11 49.1594 285.357C50.2494 285.738 51.3106 286.198 52.3345 286.733C55.5691 288.182 59.156 288.567 62.6514 289.127C62.9882 289.145 63.3097 289.274 63.5664 289.494C63.7059 289.668 63.803 289.872 63.8501 290.09C64.3413 291.933 64.3755 293.869 63.9497 295.728C63.5239 297.588 62.6509 299.315 61.407 300.759Z" fill="#3F3D56"/>
<path opacity="0.1" d="M29.6741 278.082C27.3417 280.315 25.3183 282.851 23.6579 285.622C20.9933 290.197 19.3191 295.282 18.7442 300.548C18.5262 302.468 18.5093 304.407 18.6939 306.331C17.4162 305.979 16.2615 305.277 15.3586 304.304C14.2789 303.079 13.7619 301.456 13.4645 299.85C11.9593 291.622 16.0861 282.659 23.3101 278.472C24.2527 277.862 25.3242 277.48 26.4395 277.357C27.5332 277.353 28.6143 277.591 29.6055 278.054L29.6741 278.082Z" fill="black"/>
<path d="M146.106 289.494C149.468 289.402 153.243 289.232 155.713 291.503C158.07 293.649 158.381 297.19 158.536 300.378L158.715 304.079C158.77 305.208 158.815 306.373 158.362 307.419C157.557 309.253 155.347 310.139 153.33 310.033C151.312 309.928 149.459 309.042 147.615 308.244C142.61 306.082 137.398 304.436 132.06 303.332C132.234 300.772 132.524 298.225 132.929 295.69C133.209 293.934 133.254 290.994 134.425 289.535C135.665 287.994 137.28 288.829 138.964 289.113C141.326 289.475 143.718 289.602 146.106 289.494Z" fill="#FBBEBE"/>
<path d="M57.2391 252.3C57.2391 252.759 56.5208 252.3 56.4567 251.809C55.9535 248.099 53.0163 245.039 49.5941 243.553C46.1719 242.067 42.2739 241.989 38.5681 242.342C32.9636 242.875 26.6729 245.026 24.6232 250.277C24.1383 251.507 23.9187 252.837 23.3239 254.016C22.6651 255.309 21.5899 256.341 20.8762 257.598C19.6455 259.772 19.5952 262.437 20.039 264.895C21.2331 271.454 25.7075 277.064 31.129 280.949C36.5505 284.834 42.887 287.154 49.2052 289.246C65.9119 294.77 83.0528 298.874 100.446 301.515C103.265 301.942 106.11 302.336 108.81 303.245C111.225 304.056 113.485 305.272 115.846 306.226C121.336 308.437 127.243 309.226 133.094 310.001C134.092 310.129 135.235 310.221 135.972 309.542C136.923 308.657 136.608 307.116 136.338 305.845C135.345 301.014 136.178 295.986 138.676 291.737C139.655 290.085 140.927 288.393 140.744 286.48C140.524 284.251 138.31 282.673 136.105 282.315C133.899 281.958 131.658 282.485 129.443 282.774C128.679 282.875 127.847 282.939 127.179 282.549C126.849 282.327 126.551 282.061 126.291 281.761C124.766 280.285 122.813 279.332 120.714 279.038C118.615 278.744 116.477 279.124 114.606 280.123C113.787 280.582 112.547 279.559 111.696 279.174L102.075 274.807C91.0216 269.794 79.9132 264.758 68.2193 261.584C67.2863 261.4 66.3995 261.03 65.6115 260.497C65.0305 260.038 64.6141 259.414 64.0788 258.905C62.9122 257.8 61.288 257.359 59.888 256.575C58.4881 255.791 56.9188 253.873 57.2391 252.3Z" fill="#464353"/>
<path d="M205.568 312.244C204.031 315.101 201.048 316.881 197.845 317.615C197.042 317.797 196.225 317.913 195.402 317.963C191.353 318.216 187.355 317.092 183.452 315.982L178.154 314.487C177.243 314.199 176.31 313.991 175.363 313.863C174.075 313.777 172.781 313.821 171.502 313.996C165.24 314.58 158.928 314.296 152.744 313.152C152.227 313.096 151.73 312.918 151.294 312.634C150.912 312.258 150.573 311.841 150.283 311.391C148.842 309.652 147.291 308.639 148.997 306.345C149.981 305.015 151.806 304.35 152.57 302.823C153.334 301.295 152.845 299.126 152.392 297.548C151.774 295.369 149.743 294.429 149.015 292.429C148.471 290.92 149.386 289.168 150.763 288.347C152.14 287.526 153.842 287.462 155.43 287.673C157.017 287.884 158.573 288.333 160.169 288.457C164.863 288.833 169.663 286.407 174.169 287.774C175.162 288.077 176.1 288.558 177.106 288.824C179.069 289.264 181.119 289.086 182.976 288.315C183.635 288.067 184.28 287.769 184.921 287.476C186.156 286.831 187.471 286.354 188.832 286.058C193.229 285.302 197.305 288.352 200.622 291.328C201.761 292.276 202.769 293.371 203.619 294.585C204.534 296.016 205.019 297.681 205.449 299.323C206.662 303.566 207.664 308.345 205.568 312.244Z" fill="#3F3D56"/>
<path opacity="0.1" d="M205.568 312.244C204.031 315.101 201.048 316.881 197.845 317.615C199.091 315.188 199.653 312.467 199.469 309.744C199.195 305.382 197.283 301.272 194.844 297.649C193.344 295.418 191.637 293.334 189.747 291.425C188.293 289.957 186.504 288.792 184.939 287.448C186.174 286.803 187.49 286.327 188.851 286.031C193.247 285.274 197.324 288.324 200.641 291.301C201.779 292.248 202.787 293.343 203.637 294.557C204.552 295.988 205.037 297.653 205.467 299.295C206.662 303.566 207.663 308.345 205.568 312.244Z" fill="black"/>
<path d="M37.5661 170.744C37.1204 171.212 36.7748 171.766 36.5504 172.372C32.8522 180.728 30.6678 189.677 30.0995 198.801C30.1095 199.246 30.0072 199.686 29.8022 200.081C29.6 200.343 29.3749 200.587 29.1296 200.81C28.9069 201.075 28.7407 201.382 28.6413 201.714C28.5419 202.046 28.5114 202.394 28.5517 202.738C28.592 203.082 28.7022 203.414 28.8756 203.713C29.049 204.013 29.2818 204.274 29.5597 204.479C30.3146 203.053 32.1217 202.59 33.7276 202.466C41.4183 201.856 48.9306 205.443 56.6442 205.172C56.0998 203.287 55.3175 201.475 54.8737 199.567C52.911 191.095 57.8063 181.871 54.805 173.712C54.2057 172.079 53.2038 170.474 51.6254 169.758C50.9718 169.493 50.2879 169.312 49.5894 169.217C47.6404 168.864 43.7608 167.355 41.8758 167.96C41.1804 168.185 40.9059 168.841 40.3294 169.235C39.4556 169.799 38.2935 170.006 37.5661 170.744Z" fill="#536DFE"/>
<path d="M152.168 187.44H57.4357C55.4218 187.44 53.7893 189.076 53.7893 191.095V248.915C53.7893 250.934 55.4218 252.571 57.4357 252.571H152.168C154.181 252.571 155.814 250.934 155.814 248.915V191.095C155.814 189.076 154.181 187.44 152.168 187.44Z" fill="#3F3D56"/>
<path d="M104.573 222.757C106.089 222.757 107.318 221.525 107.318 220.005C107.318 218.485 106.089 217.253 104.573 217.253C103.057 217.253 101.828 218.485 101.828 220.005C101.828 221.525 103.057 222.757 104.573 222.757Z" fill="white"/>
<path d="M67.3867 89.6699C65.8494 90.7845 64.7972 92.3852 63.7266 93.9218C61.7547 96.7609 59.5221 99.5955 56.3699 101.178C55.1758 101.779 53.8124 102.233 53.0209 103.279C52.5511 103.986 52.2462 104.79 52.1287 105.632C51.5249 108.591 51.2092 111.601 51.1863 114.621C51.1863 116.126 51.2503 117.676 51.9137 119.043C52.5405 120.327 53.6706 121.414 53.9039 122.813C54.0823 123.905 53.6797 124.992 53.5379 126.088C53.396 127.184 53.6431 128.482 54.6542 129.005C55.199 129.211 55.768 129.345 56.347 129.404C59.3894 130.083 60.4097 133.661 60.8717 136.619C61.9057 136.56 62.3724 135.372 62.5874 134.404L65.7579 120.272C66.1011 118.74 66.673 116.965 68.1965 116.429C69.2167 116.075 70.333 116.406 71.399 116.497C75.5852 116.841 79.1264 113.599 83.2211 112.704C84.5318 112.439 85.8718 112.35 87.206 112.438C90.436 112.599 94.1921 113.929 94.8784 116.952C94.9928 117.442 95.0614 118.029 95.5189 118.273C95.9764 118.516 96.4568 118.309 96.9372 118.273C98.9868 118.066 100.195 120.378 100.785 122.268L102.935 129.148C103.255 130.189 103.795 131.413 104.921 131.546C105.959 131.675 106.842 130.689 106.998 129.712C107.153 128.735 106.815 127.721 106.591 126.74C105.58 122.222 107.126 117.598 108.068 113.071C109.011 108.544 109.18 103.343 106.019 99.8569C104.87 98.5956 103.361 97.6553 102.29 96.3252C101.293 95.0776 100.73 93.5456 99.696 92.321C96.8365 88.9406 89.5027 86.3308 85.0054 85.8996C79.8675 85.3401 71.5409 86.6473 67.3867 89.6699Z" fill="#3F3D56"/>
<g opacity="0.1">
<path opacity="0.1" d="M104.939 128.336C103.814 128.198 103.274 126.96 102.953 125.937C102.237 123.64 101.52 121.347 100.803 119.057C100.213 117.163 99.0052 114.851 96.9555 115.062C96.4751 115.112 95.9581 115.3 95.5372 115.062C95.1163 114.823 95.0111 114.232 94.8967 113.741C94.2105 110.714 90.4543 109.388 87.2243 109.228C85.8903 109.14 84.5506 109.228 83.2394 109.489C79.1447 110.406 75.6036 113.617 71.4173 113.282C70.3376 113.195 69.2213 112.865 68.2148 113.218C66.673 113.75 66.1194 115.511 65.7763 117.062L62.6057 131.189C62.3907 132.161 61.924 133.349 60.8901 133.404C60.4325 130.45 59.4077 126.873 56.3653 126.194C55.787 126.13 55.2186 125.996 54.6725 125.795C54.2745 125.577 53.9629 125.229 53.7895 124.809C53.7072 125.235 53.6111 125.662 53.5562 126.088C53.4189 127.18 53.6614 128.482 54.6725 129.005C55.2173 129.211 55.7863 129.345 56.3653 129.404C59.4077 130.083 60.428 133.661 60.8901 136.619C61.924 136.56 62.3907 135.372 62.6057 134.404L65.7763 120.272C66.1194 118.74 66.6913 116.965 68.2148 116.429C69.235 116.075 70.3514 116.406 71.4173 116.497C75.6036 116.841 79.1447 113.599 83.2394 112.704C84.5501 112.439 85.8901 112.35 87.2243 112.438C90.4543 112.599 94.2105 113.929 94.8967 116.952C95.0111 117.442 95.0797 118.029 95.5372 118.273C95.9947 118.516 96.4751 118.309 96.9555 118.273C99.0052 118.066 100.213 120.378 100.803 122.268C101.517 124.564 102.234 126.857 102.953 129.148C103.274 130.189 103.814 131.413 104.939 131.546C105.978 131.675 106.861 130.689 107.016 129.712C107.086 128.89 106.993 128.062 106.742 127.276C106.578 127.611 106.32 127.89 106 128.078C105.679 128.267 105.31 128.356 104.939 128.336Z" fill="black"/>
<path opacity="0.1" d="M53.9084 119.603C53.6751 118.204 52.5359 117.117 51.9182 115.832C51.5211 114.966 51.2914 114.032 51.2411 113.08C51.2411 113.594 51.1954 114.108 51.1908 114.626C51.1908 116.13 51.2548 117.681 51.9182 119.048C52.4261 120.089 53.2633 121.006 53.6842 122.066C53.9061 121.265 53.9821 120.43 53.9084 119.603Z" fill="black"/>
<path opacity="0.1" d="M108.087 109.842C107.254 113.842 105.955 117.915 106.357 121.923C106.618 118.965 107.478 115.988 108.087 113.053C108.594 110.824 108.773 108.532 108.617 106.251C108.518 107.458 108.341 108.658 108.087 109.842Z" fill="black"/>
</g>
<g opacity="0.8">
<path opacity="0.8" d="M150.997 133.239H436.967" stroke="#3F3D56" stroke-width="3" stroke-miterlimit="10"/>
<path opacity="0.8" d="M176.402 133.234C176.402 133.234 190.077 135.138 182.995 120.428C175.912 105.719 202.21 108.503 202.21 108.503" stroke="#3F3D56" stroke-width="3" stroke-miterlimit="10"/>
<path opacity="0.8" d="M267.478 133.234C267.478 133.234 281.153 131.335 274.071 146.045C266.989 160.754 293.286 157.97 293.286 157.97" stroke="#3F3D56" stroke-width="3" stroke-miterlimit="10"/>
<path opacity="0.8" d="M398.614 133.234C398.614 133.234 384.935 131.335 392.022 146.045C399.109 160.754 372.806 157.97 372.806 157.97" stroke="#3F3D56" stroke-width="3" stroke-miterlimit="10"/>
<path opacity="0.8" d="M372.806 157.966H297.349" stroke="#3F3D56" stroke-width="3" stroke-miterlimit="10"/>
<path opacity="0.8" d="M150.997 141.609C155.608 141.609 159.346 137.862 159.346 133.239C159.346 128.616 155.608 124.868 150.997 124.868C146.385 124.868 142.647 128.616 142.647 133.239C142.647 137.862 146.385 141.609 150.997 141.609Z" fill="#536DFE"/>
<path opacity="0.8" d="M202.352 116.754C206.963 116.754 210.702 113.007 210.702 108.384C210.702 103.761 206.963 100.013 202.352 100.013C197.741 100.013 194.002 103.761 194.002 108.384C194.002 113.007 197.741 116.754 202.352 116.754Z" fill="#3ACC6C"/>
<path opacity="0.8" d="M202.352 141.609C206.963 141.609 210.702 137.862 210.702 133.239C210.702 128.616 206.963 124.868 202.352 124.868C197.741 124.868 194.002 128.616 194.002 133.239C194.002 137.862 197.741 141.609 202.352 141.609Z" fill="#536DFE"/>
<path opacity="0.8" d="M235.494 141.609C240.105 141.609 243.843 137.862 243.843 133.239C243.843 128.616 240.105 124.868 235.494 124.868C230.882 124.868 227.144 128.616 227.144 133.239C227.144 137.862 230.882 141.609 235.494 141.609Z" fill="#536DFE"/>
<path opacity="0.8" d="M293.424 166.213C298.035 166.213 301.773 162.465 301.773 157.842C301.773 153.219 298.035 149.471 293.424 149.471C288.812 149.471 285.074 153.219 285.074 157.842C285.074 162.465 288.812 166.213 293.424 166.213Z" fill="#FF6584"/>
<path opacity="0.8" d="M337.198 166.213C341.81 166.213 345.548 162.465 345.548 157.842C345.548 153.219 341.81 149.471 337.198 149.471C332.587 149.471 328.849 153.219 328.849 157.842C328.849 162.465 332.587 166.213 337.198 166.213Z" fill="#FF6584"/>
<path opacity="0.8" d="M334.915 141.609C339.527 141.609 343.265 137.862 343.265 133.239C343.265 128.616 339.527 124.868 334.915 124.868C330.304 124.868 326.566 128.616 326.566 133.239C326.566 137.862 330.304 141.609 334.915 141.609Z" fill="#536DFE"/>
<path opacity="0.8" d="M434.854 141.609C439.465 141.609 443.203 137.862 443.203 133.239C443.203 128.616 439.465 124.868 434.854 124.868C430.242 124.868 426.504 128.616 426.504 133.239C426.504 137.862 430.242 141.609 434.854 141.609Z" fill="#536DFE"/>
<path opacity="0.8" d="M393.971 141.609C398.582 141.609 402.32 137.862 402.32 133.239C402.32 128.616 398.582 124.868 393.971 124.868C389.359 124.868 385.621 128.616 385.621 133.239C385.621 137.862 389.359 141.609 393.971 141.609Z" fill="#536DFE"/>
<path opacity="0.8" d="M164.983 56.2604H136.969V75.6162H164.983V56.2604Z" fill="#536DFE"/>
<path opacity="0.8" d="M216.462 56.2604H188.448V75.6162H216.462V56.2604Z" fill="#3ACC6C"/>
<path opacity="0.8" d="M307.314 56.2604H279.3V75.6162H307.314V56.2604Z" fill="#FF6584"/>
</g>
<g opacity="0.1">
<path opacity="0.1" d="M39.5059 137.307C39.5059 137.307 5.29788 122.887 0.814286 148.907C0.814286 148.907 -1.52359 152.962 1.72931 156.31C1.72931 156.31 2.42929 154.512 5.73251 156.369C6.91233 157.024 8.16556 157.535 9.46579 157.892C11.2218 158.378 13.0876 158.278 14.7821 157.608C14.7821 157.608 26.0322 156.998 35.4935 142.242C35.4935 142.242 39.5516 139.729 39.7529 138.784L32.9726 139.243C32.9726 139.243 33.4942 144.219 30.6851 147.205C30.6851 147.205 33.1739 139.481 31.9798 139.266C31.7373 139.22 28.3975 139.66 28.3975 139.66C28.3975 139.66 29.2622 148.315 24.7375 152.792C24.7375 152.792 28.9374 143.99 27.1119 139.816L22.1068 140.784C22.1068 140.784 23.4793 149.888 18.5291 155.182C18.5291 155.182 22.6009 145.825 21.0271 141.073L16.2369 142.687C16.2369 142.687 17.3899 151.59 13.2494 155.989C13.2494 155.989 16.8637 144.701 15.1618 143.146C15.1618 143.146 10.852 144.898 9.93245 145.898C9.93245 145.898 10.6141 152.319 7.98346 154.636C7.98346 154.636 9.59847 146.838 8.79783 146.517C8.79783 146.517 3.79267 150.297 2.26459 153.558C2.26459 153.558 4.16783 148.577 8.17104 145.76C8.17104 145.76 4.80834 145.192 2.22342 146.6C2.22342 146.6 3.9528 143.293 9.38344 144.861C9.38344 144.861 13.4049 142.068 14.2102 142.109C14.2102 142.109 9.07233 139.816 5.36193 140.1C5.36193 140.1 9.34227 137.807 15.4637 141.637L20.2447 139.908C20.2447 139.908 13.6108 136.5 10.2893 136.514C10.2893 136.514 14.7088 134.798 21.4846 139.568L26.3799 138.569C26.3799 138.569 20.8898 135.197 17.1886 134.413C17.1886 134.413 21.6264 133.707 27.7936 138.335L31.138 138.055C31.138 138.055 27.0891 135.661 25.8629 135.078C24.6368 134.496 24.6917 134.119 24.6917 134.119C27.6014 134.619 30.3159 135.918 32.5334 137.871C32.5334 137.871 39.4784 137.734 39.5059 137.307Z" fill="#536DFE"/>
</g>
<g opacity="0.1">
<path opacity="0.1" d="M38.2432 111.457C38.2432 111.457 26.1284 83.3539 8.67439 96.2425C8.67439 96.2425 4.98686 97.3158 5.01431 101.15C5.01431 101.15 6.45089 100.481 7.36134 103.476C7.69518 104.538 8.15604 105.556 8.73387 106.508C9.49756 107.801 10.6626 108.807 12.0508 109.374C12.0508 109.374 19.0827 115.438 33.0962 112.076C33.0962 112.076 36.9393 112.897 37.5936 112.457L33.3113 108.847C33.3113 108.847 30.7904 112.103 27.414 112.259C27.414 112.259 33.2838 109.094 32.6982 108.283C32.5793 108.117 30.342 106.475 30.342 106.475C30.342 106.475 25.9408 112.108 20.7343 112.195C20.7343 112.195 28.2329 109.36 29.5185 105.842L25.9957 103.549C25.9957 103.549 21.5533 109.746 15.6057 110.067C15.6057 110.067 23.3421 106.833 25.1081 103.109L21.3428 101.334C21.3428 101.334 16.969 107.296 12.0234 107.521C12.0234 107.521 20.5879 102.879 20.4553 100.985C20.4553 100.985 16.9004 99.5633 15.7704 99.6459C15.7704 99.6459 12.5358 103.843 9.64889 103.723C9.64889 103.723 15.0429 100.013 14.7501 99.3661C14.7501 99.3661 9.62601 98.7515 6.86723 99.8248C6.86723 99.8248 10.8293 97.9534 14.805 98.568C14.805 98.568 13.1305 96.3068 10.8018 95.6784C10.8018 95.6784 13.7116 94.7014 16.0449 98.7285C16.0449 98.7285 20.016 99.3707 20.4827 99.8477C20.4827 99.8477 18.7396 95.5408 16.3651 93.6006C16.3651 93.6006 20.0252 94.518 21.4892 100.283L25.314 101.985C25.314 101.985 23.3101 96.1692 21.3245 94.284C21.3245 94.284 24.9251 95.7885 26.2428 102.494L29.7198 104.691C29.7198 104.691 28.3747 99.5541 26.6225 96.9718C26.6225 96.9718 29.6603 99.0909 30.6897 105.361L32.84 107.104C32.84 107.104 31.7923 103.37 31.3943 102.325C30.9963 101.279 31.2433 101.086 31.2433 101.086C32.6886 103.053 33.5583 105.385 33.7551 107.819C33.7551 107.819 37.9824 111.691 38.2432 111.457Z" fill="#536DFE"/>
</g>
</g>
<defs>
<linearGradient id="paint0_linear" x1="109.834" y1="317.702" x2="109.834" y2="83.2301" gradientUnits="userSpaceOnUse">
<stop stop-color="#808080" stop-opacity="0.25"/>
<stop offset="0.54" stop-color="#808080" stop-opacity="0.12"/>
<stop offset="1" stop-color="#808080" stop-opacity="0.1"/>
</linearGradient>
<clipPath id="clip0">
<rect width="475" height="318" fill="white"/>
</clipPath>
</defs>
</svg>
