<svg width="441" height="323" viewBox="0 0 441 323" fill="none" xmlns="http://www.w3.org/2000/svg">
<g clip-path="url(#clip0)">
<path opacity="0.1" d="M143.853 204.954C158.434 199.235 181.33 198.066 202.179 198.525C267.65 199.944 326.729 213.886 377.827 229.623C396.336 235.342 414.553 241.478 426.544 249.325C450.986 265.313 443.758 287.478 409.748 300.626C398.174 305.093 384.178 308.557 369.763 311.605C344.151 317.031 316.534 321.372 287.496 322.624C266.773 323.501 245.799 322.791 225.2 321.539C167.668 318.075 111.18 310.519 63.8416 297.454C43.0764 291.735 23.5228 284.639 14.9577 275.414C6.39255 266.189 11.8659 254.46 33.0907 249.033C41.8647 246.779 52.3518 245.736 62.63 244.775C77.7547 243.356 93.0884 241.979 106.709 239.099C120.789 236.135 137.46 230.416 134.661 223.863C131.694 216.85 129.271 210.672 143.853 204.954Z" fill="#3F3D56"/>
<path opacity="0.1" d="M210.326 12.5643L208.739 104.814C208.739 104.814 266.355 104.814 315.406 120.718L316.367 27.508C316.325 27.508 237.693 8.76581 210.326 12.5643Z" fill="black"/>
<path d="M209.491 11.3124L207.903 103.562C207.903 103.562 265.519 103.562 314.57 119.466L315.531 26.256C315.489 26.256 236.857 7.51386 209.491 11.3124Z" fill="#F5F5FB"/>
<path opacity="0.1" d="M185.759 12.5226L187.347 104.773C187.347 104.773 129.73 104.773 80.6794 120.676L79.7184 27.4663C79.7602 27.4663 158.392 8.68233 185.759 12.5226Z" fill="black"/>
<path d="M186.595 11.2702L188.182 103.52C188.182 103.52 130.566 103.52 81.515 119.424L80.5541 26.2138C80.5959 26.2138 159.228 7.42989 186.595 11.2702Z" fill="#F5F5FB"/>
<path opacity="0.1" d="M330.238 40.6567V131.947C330.238 131.947 349.04 129.734 388.481 178.364L391.991 87.0739C391.991 87.1156 350.92 42.9108 330.238 40.6567Z" fill="black"/>
<path d="M329.403 39.8218V131.112C329.403 131.112 348.204 128.899 387.645 177.529L391.155 86.2389C391.155 86.2807 350.084 42.0758 329.403 39.8218Z" fill="#F5F5FB"/>
<path opacity="0.1" d="M66.8917 43.3701V134.66C66.8917 134.66 48.0902 132.448 8.64881 181.077L5.13919 89.7873C5.09741 89.829 46.1683 45.6242 66.8917 43.3701Z" fill="black"/>
<path d="M67.7273 42.1177V133.408C67.7273 133.408 48.9258 131.195 9.48438 179.825L5.97476 88.5348C5.93298 88.5766 47.0039 44.3717 67.7273 42.1177Z" fill="#F5F5FB"/>
<path d="M279.14 196.062C279.14 199.193 259.377 217.142 214.379 217.142C169.381 217.142 145.022 199.819 145.022 196.688C145.022 193.558 170.216 201.28 215.215 201.28C260.213 201.28 279.14 192.932 279.14 196.062Z" fill="#F7F7FD"/>
<path opacity="0.1" d="M205.187 241.227C210.494 241.227 214.797 240.741 214.797 240.142C214.797 239.543 210.494 239.057 205.187 239.057C199.88 239.057 195.578 239.543 195.578 240.142C195.578 240.741 199.88 241.227 205.187 241.227Z" fill="#6C63FF"/>
<path opacity="0.1" d="M267.859 267.525C273.166 267.525 277.469 267.039 277.469 266.439C277.469 265.84 273.166 265.354 267.859 265.354C262.552 265.354 258.249 265.84 258.249 266.439C258.249 267.039 262.552 267.525 267.859 267.525Z" fill="#6C63FF"/>
<path opacity="0.1" d="M184.923 260.47C190.231 260.47 194.533 259.984 194.533 259.385C194.533 258.786 190.231 258.3 184.923 258.3C179.616 258.3 175.314 258.786 175.314 259.385C175.314 259.984 179.616 260.47 184.923 260.47Z" fill="#6C63FF"/>
<path opacity="0.1" d="M107.252 257.674C112.56 257.674 116.862 257.188 116.862 256.588C116.862 255.989 112.56 255.503 107.252 255.503C101.945 255.503 97.6426 255.989 97.6426 256.588C97.6426 257.188 101.945 257.674 107.252 257.674Z" fill="#6C63FF"/>
<path opacity="0.1" d="M86.9883 276.875C92.2956 276.875 96.598 276.389 96.598 275.789C96.598 275.19 92.2956 274.704 86.9883 274.704C81.6811 274.704 77.3787 275.19 77.3787 275.789C77.3787 276.389 81.6811 276.875 86.9883 276.875Z" fill="#6C63FF"/>
<g opacity="0.1">
<path opacity="0.1" d="M212.583 128.315C247.68 128.315 276.132 115.626 276.132 99.9722C276.132 84.3189 247.68 71.6294 212.583 71.6294C177.485 71.6294 149.033 84.3189 149.033 99.9722C149.033 115.626 177.485 128.315 212.583 128.315Z" fill="black"/>
<path opacity="0.1" d="M277.26 110.115C274.46 124.892 246.676 136.496 212.791 136.496C178.614 136.496 150.663 124.683 148.24 109.74H147.989V133.825C159.144 145.471 183.879 153.611 212.624 153.611C241.37 153.611 266.062 145.513 277.26 133.825V110.115Z" fill="black"/>
<path opacity="0.1" d="M277.26 139.419C274.46 154.195 246.676 165.8 212.791 165.8C178.614 165.8 150.663 153.987 148.24 139.043H147.989V163.128C159.144 174.774 183.879 182.914 212.624 182.914C241.37 182.914 266.062 174.816 277.26 163.128V139.419Z" fill="black"/>
<path opacity="0.1" d="M277.26 171.643C274.46 186.42 246.676 198.024 212.791 198.024C178.614 198.024 150.663 186.211 148.24 171.268H147.989V197.231C147.989 198.358 148.448 199.402 149.284 200.195C160.983 210.923 184.965 215.138 212.624 215.138C240.283 215.138 264.224 210.923 275.965 200.195C276.8 199.443 277.26 198.358 277.26 197.231V171.643Z" fill="black"/>
</g>
<path d="M212.583 126.645C247.68 126.645 276.132 113.956 276.132 98.3023C276.132 82.649 247.68 69.9595 212.583 69.9595C177.485 69.9595 149.033 82.649 149.033 98.3023C149.033 113.956 177.485 126.645 212.583 126.645Z" fill="url(#paint0_linear)"/>
<path d="M277.26 108.446C274.46 123.223 246.676 134.827 212.791 134.827C178.614 134.827 150.663 123.014 148.24 108.07H147.989V132.155C159.144 143.802 183.879 151.941 212.624 151.941C241.37 151.941 266.062 143.843 277.26 132.155V108.446Z" fill="url(#paint1_linear)"/>
<path d="M277.26 137.749C274.46 152.525 246.676 164.13 212.791 164.13C178.614 164.13 150.663 152.317 148.24 137.373H147.989V161.458C159.144 173.104 183.879 181.244 212.624 181.244C241.37 181.244 266.062 173.146 277.26 161.458V137.749Z" fill="url(#paint2_linear)"/>
<path d="M277.26 169.974C274.46 184.751 246.676 196.355 212.791 196.355C178.614 196.355 150.663 184.542 148.24 169.598H147.989V195.562C147.989 196.689 148.448 197.732 149.284 198.525C160.983 209.253 184.965 213.469 212.624 213.469C240.283 213.469 264.224 209.253 275.965 198.525C276.8 197.774 277.26 196.689 277.26 195.562V169.974Z" fill="url(#paint3_linear)"/>
<path opacity="0.1" d="M306.256 242.73C319.409 242.73 330.071 240.805 330.071 238.431C330.071 236.056 319.409 234.131 306.256 234.131C293.103 234.131 282.441 236.056 282.441 238.431C282.441 240.805 293.103 242.73 306.256 242.73Z" fill="#6C63FF"/>
<path d="M292.886 183.874C294.097 184.583 295.978 185.042 298.359 183.498V186.879C298.526 189.217 301.409 197.649 301.409 197.649L303.415 204.619C304.877 209.545 305.629 214.638 305.629 219.772C305.629 221.483 305.796 223.236 306.256 224.53C307.342 227.452 305.838 231.209 305.169 232.587C304.083 232.962 302.955 233.254 301.827 233.505C301.743 233.547 301.618 233.547 301.535 233.588C301.535 233.588 298.484 234.799 297.147 234.632C296.145 234.507 295.518 235.759 296.312 236.677C295.643 236.886 294.975 236.97 294.306 236.928C292.969 236.761 292.259 239.098 294.808 239.766C297.356 240.434 311.729 239.766 311.729 239.766C312.565 239.349 312.983 238.43 312.815 237.512L314.612 237.429C314.612 237.429 317.161 236.26 314.612 233.129L314.487 233.213L313.944 231.627V229.498C313.944 229.498 317.161 214.053 316.158 212.258C315.155 210.463 314.612 201.113 314.612 201.113L314.946 191.012C315.865 189.133 316.325 186.169 316.576 183.832C316.91 182.747 317.119 181.578 317.202 180.451C317.244 179.908 317.286 179.324 317.286 178.739C317.286 177.445 317.077 176.151 316.659 174.899C317.787 173.188 319.083 171.601 320.503 170.099C321.673 169.013 322.258 167.386 322.049 165.799L321.213 160.164L319.166 150.563C319.417 147.892 318.874 146.348 318.247 145.513C318.372 144.636 318.539 143.801 318.623 142.925C319.083 139.168 318.874 135.369 318.038 131.654C317.746 130.36 317.328 129.066 316.45 128.065C315.406 126.937 313.776 126.27 313.4 124.85C313.359 124.475 313.275 124.099 313.15 123.765C312.774 122.805 311.604 122.471 310.559 122.346C308.721 122.137 306.089 121.97 304.334 122.68C302.788 123.348 301.534 124.558 300.741 126.019C300.365 126.645 300.197 127.355 300.323 128.106C300.365 128.357 300.49 128.607 300.615 128.816C299.404 132.114 301.075 135.787 304.334 137.039C304.376 137.164 304.417 137.29 304.459 137.415C304.543 137.707 304.585 137.999 304.626 138.333C304.585 138.917 304.543 139.502 304.543 140.086L304.459 140.337C302.997 140.963 301.576 141.714 300.198 142.507C301.2 144.01 300.03 150.313 300.03 150.313C297.482 151.816 294.975 155.614 297.649 159.58C300.323 163.545 298.819 167.886 298.819 167.886L298.401 174.356L298.317 175.65H298.359L298.317 176.151H298.401V176.694C297.231 177.111 295.476 177.988 294.432 179.616C293.93 180.409 293.345 181.16 292.677 181.787C292.134 182.246 292.05 183.081 292.552 183.623C292.635 183.707 292.76 183.79 292.886 183.874ZM313.317 166.634C313.233 165.507 313.442 164.38 313.902 163.378H315.113C315.155 163.629 315.197 163.921 315.239 164.171C315.615 165.674 314.236 166.342 313.317 166.634Z" fill="url(#paint4_linear)"/>
<path d="M313.651 230.917L314.32 232.879L312.189 235.008L305.211 236.636L300.156 236.135L300.49 234.34C300.699 233.547 301.284 232.962 302.078 232.754C304.167 232.253 308.094 231.168 308.93 229.623L313.651 230.917Z" fill="#DB8B8B"/>
<path opacity="0.1" d="M313.651 230.917L314.32 232.879L312.189 235.008L305.211 236.636L300.156 236.135L300.49 234.34C300.699 233.547 301.284 232.962 302.078 232.754C304.167 232.253 308.094 231.168 308.93 229.623L313.651 230.917Z" fill="black"/>
<path d="M301.785 235.634L302.746 234.34L301.785 232.837C301.785 232.837 298.861 234.006 297.565 233.839C296.27 233.672 295.602 235.968 298.067 236.594C300.532 237.22 314.32 236.594 314.32 236.594C314.32 236.594 316.743 235.467 314.32 232.378L312.189 234.006C312.189 234.006 308.596 235.968 306.841 235.634H301.785Z" fill="#C17174"/>
<path d="M297.398 238.389L302.454 238.89L309.431 237.262L311.562 235.133L311.395 234.632L311.144 233.923L310.893 233.213L306.172 231.919C305.922 232.295 305.587 232.629 305.211 232.879C303.665 233.923 300.95 234.674 299.32 235.05C299.237 235.05 299.195 235.091 299.111 235.133C298.777 235.217 298.526 235.425 298.276 235.634C297.983 235.926 297.774 236.26 297.691 236.636L297.398 238.389Z" fill="#DB8B8B"/>
<path opacity="0.1" d="M297.398 238.389L302.454 238.89L309.431 237.262L311.562 235.133L311.395 234.632L309.431 236.135C309.431 236.135 305.838 238.096 304.083 237.762H299.028L299.989 236.469L299.111 235.133C298.777 235.216 298.526 235.425 298.276 235.634C297.983 235.926 297.774 236.26 297.691 236.635L297.398 238.389Z" fill="black"/>
<path d="M298.986 237.93L299.947 236.636L298.986 235.133C298.986 235.133 296.061 236.302 294.766 236.135C293.471 235.968 292.802 238.264 295.267 238.89C297.732 239.516 311.52 238.89 311.52 238.89C311.52 238.89 313.943 237.763 311.52 234.674L309.389 236.302C309.389 236.302 305.796 238.264 304.041 237.93H298.986Z" fill="#C17174"/>
<path d="M303.081 143.676C303.081 143.676 310.894 144.511 309.766 141.255C309.431 140.337 309.348 139.335 309.515 138.375C309.724 137.164 310.183 136.037 310.894 135.077L303.582 136.204C304.042 136.956 304.376 137.749 304.585 138.542C305.42 142.006 303.081 143.676 303.081 143.676Z" fill="#DB8B8B"/>
<path d="M316.409 180.701C316.409 180.701 316.241 187.672 314.612 191.095L314.278 201.03C314.278 201.03 314.779 210.129 315.74 211.924C316.701 213.719 313.609 228.83 313.609 228.83V231.418C313.609 231.418 308.387 233.38 306.924 231.084L308.387 211.757L307.718 184.959L316.409 180.701Z" fill="#474463"/>
<path opacity="0.1" d="M316.409 180.701C316.409 180.701 316.241 187.672 314.612 191.095L314.278 201.03C314.278 201.03 314.779 210.129 315.74 211.924C316.701 213.719 313.609 228.83 313.609 228.83V231.418C313.609 231.418 308.387 233.38 306.924 231.084L308.387 211.757L307.718 184.959L316.409 180.701Z" fill="black"/>
<path d="M319.667 158.286L320.628 160.874L321.464 166.384C321.673 167.928 321.13 169.514 320.002 170.6C318.038 172.561 315.448 176.61 315.448 176.61L312.356 167.344C312.356 167.344 315.448 166.843 314.946 164.756C314.445 162.669 314.612 158.745 314.612 158.745L319.667 158.286Z" fill="#FF748E"/>
<path opacity="0.05" d="M319.709 158.244L320.67 160.832L321.506 166.342C321.715 167.887 321.172 169.473 320.044 170.558C318.08 172.52 315.49 176.569 315.49 176.569L312.398 167.302C312.398 167.302 315.49 166.801 314.988 164.714C314.487 162.627 314.654 158.703 314.654 158.703L319.709 158.244Z" fill="black"/>
<path opacity="0.1" d="M305.211 232.879C307.3 236.176 310.559 234.298 311.144 233.922L310.894 233.213L306.172 231.877C305.922 232.294 305.587 232.628 305.211 232.879Z" fill="black"/>
<path d="M298.693 187.046C298.861 189.3 301.618 197.607 301.618 197.607L303.582 204.411C304.961 209.253 305.713 214.22 305.713 219.229C305.671 220.815 305.88 222.402 306.339 223.904C307.635 227.494 305.044 232.336 305.044 232.336C307.342 236.385 311.228 233.63 311.228 233.63V231.042C311.228 231.042 314.32 216.892 313.526 214.137C312.69 211.382 312.398 203.91 312.398 203.91V190.427C314.988 187.839 316.576 184.374 316.868 180.743C316.91 180.2 316.952 179.658 316.952 179.073C317.077 175.4 314.57 171.101 313.609 169.556C313.359 169.18 313.233 168.972 313.233 168.972L298.861 174.649H298.819V175.191V176.402L298.693 187.046Z" fill="#474463"/>
<path opacity="0.1" d="M303.54 136.204C304 136.956 304.334 137.749 304.543 138.542C306.13 139.168 307.927 139.084 309.473 138.375C309.682 137.164 310.141 136.037 310.852 135.077L303.54 136.204Z" fill="black"/>
<path d="M306.799 138.625C310.306 138.625 313.15 135.784 313.15 132.28C313.15 128.776 310.306 125.936 306.799 125.936C303.291 125.936 300.448 128.776 300.448 132.28C300.448 135.784 303.291 138.625 306.799 138.625Z" fill="#DB8B8B"/>
<path opacity="0.1" d="M298.693 176.485H298.777C305.587 177.905 314.152 170.809 314.152 170.809C313.944 170.433 313.735 170.015 313.568 169.598C313.317 169.222 313.192 169.014 313.192 169.014L298.819 174.691L298.777 175.275L298.693 176.485Z" fill="black"/>
<path d="M300.49 143.509C300.49 143.509 309.598 137.999 312.523 140.254L316.576 145.471C316.576 145.471 319.166 146.306 318.707 151.524L320.67 160.958L314.821 162.419C314.821 162.419 311.395 165.674 314.194 170.391C314.194 170.391 305.587 177.529 298.735 176.068L299.237 168.429C299.237 168.429 300.699 164.214 298.108 160.29C295.518 156.366 297.941 152.651 300.406 151.19C300.323 151.148 301.451 144.97 300.49 143.509Z" fill="#FF748E"/>
<path d="M299.989 176.652C299.989 176.652 296.563 177.32 294.933 179.908C294.474 180.701 293.889 181.411 293.22 182.037C292.677 182.496 292.677 183.331 293.137 183.874C293.22 183.957 293.304 184.041 293.429 184.124C294.724 184.917 296.813 185.376 299.487 183.206C304.083 179.407 299.989 176.652 299.989 176.652Z" fill="#DB8B8B"/>
<path opacity="0.1" d="M305.002 146.598C305.002 146.598 308.261 146.264 309.055 154.738C309.849 163.212 311.186 165.132 311.186 165.132C311.186 165.132 312.022 169.515 310.058 172.103C308.094 174.691 304.376 180.242 304.376 180.242C304.376 180.242 300.323 181.369 299.487 177.32L304.543 167.887C304.543 167.887 305.337 164.631 303.415 162.377C301.493 160.123 299.989 144.97 305.002 146.598Z" fill="black"/>
<path d="M304.71 146.097C304.71 146.097 307.969 145.763 308.763 154.237C309.556 162.711 310.893 164.631 310.893 164.631C310.893 164.631 311.729 169.014 309.765 171.602C307.802 174.19 304.083 179.741 304.083 179.741C304.083 179.741 300.03 180.868 299.195 176.819L304.25 167.386C304.25 167.386 305.086 164.13 303.122 161.876C301.158 159.622 299.654 144.469 304.71 146.097Z" fill="#FF748E"/>
<path opacity="0.1" d="M301.994 152.191C301.994 152.191 301.66 157.242 303.122 159.997C304.585 162.752 304.585 166.342 303.122 168.304" fill="black"/>
<path opacity="0.1" d="M301.2 146.014C301.2 146.014 302.496 144.72 306.256 144.553C310.016 144.386 311.604 143.259 311.604 143.259" fill="black"/>
<path opacity="0.1" d="M310.225 124.099C311.228 124.224 312.356 124.558 312.69 125.477C312.774 125.811 312.857 126.186 312.899 126.562C313.275 127.981 314.863 128.649 315.865 129.734C316.743 130.694 317.119 131.988 317.411 133.241C318.205 136.872 318.414 140.587 317.996 144.302C317.662 147.016 317.035 149.645 316.826 152.359C316.617 155.072 316.993 157.91 318.456 160.206C319.083 161.166 319.918 162.043 320.378 163.128C319.459 163.879 318.163 164.005 316.952 164.046C315.573 164.088 314.152 164.088 312.774 164.046C312.022 164.088 311.311 163.921 310.643 163.587C310.183 163.295 309.807 162.878 309.515 162.377C308.721 161.041 308.512 159.371 308.554 157.827C308.595 156.282 308.846 154.696 308.888 153.11C308.971 152.233 308.763 151.399 308.345 150.647C307.927 150.188 307.467 149.771 306.966 149.395C305.211 147.85 304.626 145.388 304.584 143.05C304.543 140.713 304.919 138.417 304.71 136.079C304.626 135.161 304.292 134.076 303.415 133.909C303.122 133.909 302.871 133.867 302.579 133.783C301.869 133.491 301.952 132.489 301.743 131.78C301.534 130.945 300.824 130.319 300.615 129.484C300.156 127.522 302.663 125.185 304.292 124.475C305.921 123.765 308.47 123.891 310.225 124.099Z" fill="black"/>
<path d="M310.392 123.765C311.395 123.89 312.523 124.224 312.857 125.143C312.941 125.477 313.024 125.852 313.066 126.228C313.442 127.647 315.03 128.315 316.033 129.4C316.91 130.36 317.286 131.654 317.578 132.907C318.372 136.538 318.581 140.253 318.163 143.968C317.829 146.682 317.202 149.311 317.035 152.025C316.868 154.738 317.202 157.576 318.665 159.872C319.291 160.874 320.127 161.709 320.587 162.794C319.667 163.545 318.372 163.671 317.161 163.712C315.782 163.754 314.361 163.754 312.982 163.712C312.23 163.754 311.52 163.587 310.852 163.253C310.392 162.961 310.016 162.544 309.724 162.043C308.93 160.707 308.721 159.037 308.763 157.493C308.804 155.948 309.055 154.362 309.097 152.776C309.097 151.899 309.055 151.023 308.554 150.313C308.136 149.854 307.676 149.437 307.175 149.061C305.42 147.516 304.835 145.054 304.793 142.716C304.752 140.379 305.128 138.083 304.919 135.745C304.835 134.827 304.501 133.742 303.623 133.575C303.331 133.575 303.08 133.533 302.788 133.449C302.078 133.157 302.161 132.155 301.952 131.446C301.743 130.611 301.033 129.985 300.824 129.15C300.365 127.188 302.871 124.851 304.501 124.141C306.13 123.431 308.679 123.557 310.392 123.765Z" fill="#464353"/>
<path opacity="0.7" d="M132.237 52.5947C127.391 52.5947 123.463 56.5185 123.463 61.3606C123.463 66.2026 127.391 70.1264 132.237 70.1264C137.084 70.1264 141.011 66.2026 141.011 61.3606C141.011 56.5185 137.042 52.5947 132.237 52.5947ZM132.237 54.2644C136.165 54.2644 139.34 57.4368 139.34 61.3606C139.34 65.2843 136.165 68.4567 132.237 68.4567C128.31 68.4567 125.135 65.2843 125.135 61.3606C125.135 57.4368 128.31 54.2644 132.237 54.2644ZM137.167 58.8978L136.374 58.1047C136.207 57.9377 135.956 57.9377 135.789 58.1047L130.775 63.072L128.644 60.9431C128.477 60.7762 128.226 60.7762 128.059 60.9431L127.265 61.7362C127.098 61.9032 127.098 62.1537 127.265 62.3206L130.482 65.5765C130.65 65.7435 130.9 65.7435 131.067 65.5765L137.167 59.5239C137.335 59.3152 137.335 59.0648 137.167 58.8978C137.209 58.8978 137.167 58.8978 137.167 58.8978Z" fill="#3ACC6C"/>
<path opacity="0.7" d="M35.0962 96.967C30.3749 98.0523 27.4502 102.769 28.5365 107.486C29.6229 112.203 34.3441 115.125 39.0654 114.039C43.7867 112.954 46.7113 108.237 45.625 103.52C44.5387 98.8036 39.8175 95.8817 35.0962 96.967ZM35.4722 98.6367C39.2743 97.7601 43.1182 100.098 43.9956 103.938C44.873 107.736 42.5332 111.577 38.6894 112.453C34.8873 113.33 31.0434 110.992 30.166 107.152V107.11C29.2886 103.312 31.6701 99.5133 35.4722 98.6367ZM41.3634 102.018L40.4024 101.392C40.1935 101.266 39.9428 101.308 39.8175 101.517L36.0572 107.486L33.5085 105.858C33.2996 105.733 33.0489 105.775 32.9236 105.983L32.3386 106.943C32.2133 107.152 32.2551 107.403 32.464 107.528L36.3078 109.949C36.5167 110.074 36.7674 110.032 36.8928 109.824L41.4887 102.56C41.614 102.393 41.5723 102.143 41.3634 102.018Z" fill="#3ACC6C"/>
<path opacity="0.7" d="M260.088 53.8472C255.241 53.8472 251.314 57.7709 251.314 62.613C251.314 67.4551 255.241 71.3788 260.088 71.3788C264.934 71.3788 268.862 67.4551 268.862 62.613C268.862 57.7709 264.934 53.8472 260.088 53.8472ZM260.088 55.5586C264.015 55.5586 267.19 58.731 267.19 62.6547C267.19 66.5785 264.015 69.7509 260.088 69.7509C256.16 69.7509 252.985 66.5785 252.985 62.6547C252.985 58.731 256.16 55.5586 260.088 55.5586ZM265.06 60.1502L264.266 59.3571C264.099 59.1901 263.848 59.1901 263.681 59.3571L258.667 64.3244L256.536 62.1956C256.369 62.0286 256.118 62.0286 255.951 62.1956L255.157 62.9887C254.99 63.1556 254.99 63.4061 255.157 63.5731L258.375 66.8289C258.542 66.9959 258.792 66.9959 258.96 66.8289L265.06 60.7764C265.227 60.6094 265.227 60.3589 265.06 60.1502C265.06 60.192 265.06 60.192 265.06 60.1502Z" fill="#3ACC6C"/>
<path opacity="0.7" d="M360.78 97.1339C355.934 96.7582 351.714 100.348 351.338 105.19C350.962 110.032 354.555 114.248 359.401 114.624C364.248 115 368.426 111.41 368.844 106.568C369.22 101.726 365.585 97.5096 360.78 97.1339ZM360.613 98.8454C364.54 99.1375 367.465 102.56 367.173 106.442C366.88 110.366 363.454 113.288 359.569 112.996C355.683 112.704 352.716 109.281 353.009 105.399V105.357C353.301 101.433 356.727 98.5532 360.613 98.8454ZM365.209 103.813L364.457 102.936C364.29 102.769 364.039 102.727 363.872 102.894L358.482 107.444L356.519 105.148C356.393 104.981 356.101 104.94 355.934 105.107L355.056 105.858C354.889 106.025 354.847 106.275 355.014 106.442L357.981 109.907C358.148 110.074 358.399 110.116 358.566 109.949L365.125 104.397C365.334 104.272 365.376 104.021 365.209 103.813Z" fill="#3ACC6C"/>
</g>
<defs>
<linearGradient id="paint0_linear" x1="149.033" y1="98.3023" x2="276.132" y2="98.3023" gradientUnits="userSpaceOnUse">
<stop offset="0.197917" stop-color="#7928CA"/>
<stop offset="1" stop-color="#FF0080"/>
</linearGradient>
<linearGradient id="paint1_linear" x1="147.989" y1="130.006" x2="277.26" y2="130.006" gradientUnits="userSpaceOnUse">
<stop offset="0.197917" stop-color="#7928CA"/>
<stop offset="1" stop-color="#FF0080"/>
</linearGradient>
<linearGradient id="paint2_linear" x1="147.989" y1="159.308" x2="277.26" y2="159.308" gradientUnits="userSpaceOnUse">
<stop offset="0.197917" stop-color="#7928CA"/>
<stop offset="1" stop-color="#FF0080"/>
</linearGradient>
<linearGradient id="paint3_linear" x1="147.989" y1="191.534" x2="277.26" y2="191.534" gradientUnits="userSpaceOnUse">
<stop offset="0.197917" stop-color="#7928CA"/>
<stop offset="1" stop-color="#FF0080"/>
</linearGradient>
<linearGradient id="paint4_linear" x1="307.155" y1="240.063" x2="307.155" y2="122.166" gradientUnits="userSpaceOnUse">
<stop stop-color="#808080" stop-opacity="0.25"/>
<stop offset="0.54" stop-color="#808080" stop-opacity="0.12"/>
<stop offset="1" stop-color="#808080" stop-opacity="0.1"/>
</linearGradient>
<clipPath id="clip0">
<rect width="441" height="323" fill="white"/>
</clipPath>
</defs>
</svg>
