<svg width="475" height="281" viewBox="0 0 475 281" fill="none" xmlns="http://www.w3.org/2000/svg">
<g clip-path="url(#clip0)">
<path d="M57.0727 27.0255C54.1408 26.9418 51.1362 27.0255 48.3863 27.8702C40.9039 30.1712 37.3573 37.7004 38.5104 44.2065C39.6635 50.7127 44.4068 56.3814 49.3284 61.5623C54.25 66.7432 59.5826 71.8658 62.2816 78.0588C63.6275 81.1499 64.2568 84.6123 62.8891 87.6997C60.7793 92.4582 54.4173 95.116 48.3099 95.6694C42.2025 96.2228 36.0696 95.1451 29.9403 94.7847C27.3686 94.6354 24.7241 94.6172 22.3015 95.3126C19.6425 96.0699 17.4272 97.6172 15.3902 99.2301C7.4422 105.558 1.08015 114.19 2.10957 123.26C3.27358 133.538 13.6551 141.66 25.026 146.018C28.7909 147.475 32.774 148.632 36.0878 150.693C44.8178 156.129 46.7785 166.323 45.9091 175.319C45.0397 184.316 42.0788 193.323 43.7266 202.24C45.6654 212.612 54.2463 221.984 65.821 226.36C76.1334 230.259 89.0393 230.001 98.195 224.5C102.658 221.813 106.034 218.081 108.969 214.222C113.327 208.524 116.928 202.28 119.682 195.653C120.959 192.562 122.159 189.238 125.138 187.09C126.957 185.769 129.314 185.03 131.646 184.454C138.673 182.721 146.076 182.248 153.169 180.704C160.262 179.161 167.399 176.273 171.255 171.14C176.711 163.858 174.165 154.53 174.19 145.967C174.234 126.431 188.417 108.944 193.651 89.8987C195.361 83.6766 195.997 76.7918 192.178 71.2396C189.584 67.4713 185.208 64.7516 180.611 62.6509C170.495 58.0307 158.996 55.9736 147.687 53.9712C131.969 51.1896 112.883 50.8292 100.701 41.8291C89.0102 33.1894 73.016 27.0255 57.0727 27.0255Z" fill="#D0CDE1" fill-opacity="0.68"/>
<path d="M261.8 281C379.547 281 475 255.403 475 223.827C475 192.251 379.547 166.653 261.8 166.653C144.053 166.653 48.6003 192.251 48.6003 223.827C48.6003 255.403 144.053 281 261.8 281Z" fill="#717079" fill-opacity="0.69"/>
<path d="M304.5 197.659H239.394V201.893H304.5V197.659Z" fill="#2F2E41"/>
<path d="M424.735 192.806H395.281C395.96 191.443 396.313 189.937 396.308 188.412V54.0831C396.308 48.6284 391.893 44.2068 386.446 44.2068H158.419C152.972 44.2022 148.557 48.6238 148.552 54.0785V54.0831V188.417C148.547 189.941 148.9 191.447 149.579 192.811H119.085C117.645 192.811 116.476 193.982 116.476 195.423V197.531C116.485 205.594 123.014 212.127 131.065 212.127H412.755C420.81 212.127 427.344 205.584 427.344 197.517V195.41C427.339 193.972 426.175 192.806 424.735 192.806ZM243.222 201.163L240.709 198.293H303.395L300.598 201.167L243.222 201.163Z" fill="#3F3D56"/>
<path d="M162.018 46.1079H382.829C388.721 46.1079 393.494 50.8877 393.494 56.7877V186.025C393.494 191.925 388.721 196.705 382.829 196.705H162.018C156.127 196.705 151.354 191.925 151.354 186.025V56.7877C151.354 50.8877 156.131 46.1079 162.018 46.1079Z" fill="#2F2E41"/>
<path d="M387.882 68.0598H156.447V191.089H387.882V68.0598Z" fill="white"/>
<path d="M272.166 59.3819C273.293 59.3819 274.207 58.4671 274.207 57.3386C274.207 56.2102 273.293 55.2954 272.166 55.2954C271.04 55.2954 270.126 56.2102 270.126 57.3386C270.126 58.4671 271.04 59.3819 272.166 59.3819Z" fill="white"/>
<path d="M384.906 184.349C384.906 184.349 376.194 180.676 369.317 177.921C362.44 175.166 366.566 184.349 366.566 184.349C366.566 184.349 378.028 187.563 378.028 188.022C378.028 188.481 387.657 188.94 387.657 188.94L384.906 184.349Z" fill="#F7C4A7"/>
<path opacity="0.05" d="M384.906 184.349C384.906 184.349 376.194 180.676 369.317 177.921C362.44 175.166 366.566 184.349 366.566 184.349C366.566 184.349 378.028 187.563 378.028 188.022C378.028 188.481 387.657 188.94 387.657 188.94L384.906 184.349Z" fill="black"/>
<path d="M328.529 246.104C328.529 246.146 328.502 246.196 328.488 246.233C328.172 247.018 327.933 247.831 327.768 248.662C327.878 248.304 328.007 247.936 328.153 247.569C328.332 247.096 328.461 246.605 328.529 246.104Z" fill="#DDDBE2"/>
<path d="M284.927 249.048C284.684 249.112 284.445 249.438 284.221 249.883L284.294 249.856C284.496 249.801 284.84 249.397 285.257 248.8C285.17 248.905 285.055 248.993 284.927 249.048Z" fill="#DDDBE2"/>
<path d="M286.793 128.034H156.425V171.874H286.793V128.034Z" fill="url(#paint0_linear)"/>
<path d="M286.793 84.1946H156.425V128.034H286.793V84.1946Z" fill="url(#paint1_linear)"/>
<path d="M387.886 171.874H156.425V191.672H387.886V171.874Z" fill="url(#paint2_linear)"/>
<path d="M387.881 84.1946H286.788V171.874H387.881V84.1946Z" fill="#FF5B4F"/>
<path d="M387.886 67.688H156.425V84.1898H387.886V67.688Z" fill="url(#paint3_linear)"/>
<path d="M228.518 72.385H130.891C125.953 72.3804 121.946 76.3842 121.936 81.3293V216.779C121.946 221.724 125.953 225.727 130.891 225.723H228.518C233.456 225.727 237.463 221.724 237.472 216.779V81.3293C237.463 76.3842 233.456 72.3804 228.518 72.385Z" fill="#8786A3"/>
<path d="M132.477 74.2217H226.927C231.994 74.2217 236.097 78.3311 236.097 83.4047V215.181C236.097 220.254 231.994 224.364 226.927 224.364H132.477C127.411 224.364 123.307 220.254 123.307 215.181V83.4047C123.307 78.3311 127.416 74.2217 132.477 74.2217Z" fill="#3F3D56"/>
<path d="M230.366 88.4233H129.039V210.162H230.366V88.4233Z" fill="white"/>
<path d="M179.244 221.15C181.523 221.15 183.37 219.3 183.37 217.017C183.37 214.735 181.523 212.885 179.244 212.885C176.965 212.885 175.117 214.735 175.117 217.017C175.117 219.3 176.965 221.15 179.244 221.15Z" fill="white"/>
<path d="M230.366 147.672H128.695V190.717H230.366V147.672Z" fill="url(#paint4_linear)"/>
<path d="M230.366 104.627H128.695V147.672H230.366V104.627Z" fill="url(#paint5_linear)"/>
<path d="M230.366 190.722H128.695V210.162H230.366V190.722Z" fill="url(#paint6_linear)"/>
<path d="M230.366 88.4233H128.695V104.627H230.366V88.4233Z" fill="url(#paint7_linear)"/>
<path d="M154.104 118.3H103.977C101.24 118.295 99.0163 120.513 99.0117 123.254V233.184C99.0163 235.925 101.24 238.143 103.977 238.138H154.104C156.842 238.143 159.065 235.925 159.07 233.184V123.254C159.065 120.513 156.842 118.295 154.104 118.3Z" fill="#8786A3"/>
<path d="M104.509 119.219H153.568C156.356 119.219 158.611 121.478 158.611 124.269V232.629C158.611 235.42 156.356 237.679 153.568 237.679H104.509C101.721 237.679 99.4657 235.42 99.4657 232.629V124.269C99.4657 121.478 101.726 119.219 104.509 119.219Z" fill="#3F3D56"/>
<path d="M123.078 125.187C123.331 125.187 123.537 124.982 123.537 124.728C123.537 124.475 123.331 124.269 123.078 124.269C122.825 124.269 122.62 124.475 122.62 124.728C122.62 124.982 122.825 125.187 123.078 125.187Z" fill="white"/>
<path d="M125.829 124.269H134.999C135.251 124.269 135.457 124.476 135.457 124.728C135.457 124.981 135.251 125.187 134.999 125.187H125.829C125.577 125.187 125.371 124.981 125.371 124.728C125.371 124.476 125.577 124.269 125.829 124.269Z" fill="white"/>
<path d="M128.809 234.465C130.582 234.465 132.019 233.026 132.019 231.251C132.019 229.476 130.582 228.037 128.809 228.037C127.037 228.037 125.6 229.476 125.6 231.251C125.6 233.026 127.037 234.465 128.809 234.465Z" fill="white"/>
<path d="M154.256 178.38H103.134V214.203H154.256V178.38Z" fill="url(#paint8_linear)"/>
<path d="M154.256 143.195H103.134V178.38H154.256V143.195Z" fill="url(#paint9_linear)"/>
<path d="M154.256 130.077H103.134V143.195H154.256V130.077Z" fill="url(#paint10_linear)"/>
<path d="M154.256 214.203H103.134V226.66H154.256V214.203Z" fill="url(#paint11_linear)"/>
<path d="M179.244 82.4863C180.003 82.4863 180.619 81.8696 180.619 81.1089C180.619 80.3481 180.003 79.7314 179.244 79.7314C178.484 79.7314 177.868 80.3481 177.868 81.1089C177.868 81.8696 178.484 82.4863 179.244 82.4863Z" fill="white"/>
</g>
<defs>
<linearGradient id="paint0_linear" x1="156.423" y1="149.952" x2="286.79" y2="149.952" gradientUnits="userSpaceOnUse">
<stop stop-color="#007CF0"/>
<stop offset="1" stop-color="#00DFD8"/>
</linearGradient>
<linearGradient id="paint1_linear" x1="156.423" y1="106.113" x2="286.79" y2="106.113" gradientUnits="userSpaceOnUse">
<stop offset="0.0119" stop-color="#7928CA"/>
<stop offset="1" stop-color="#FF0080"/>
</linearGradient>
<linearGradient id="paint2_linear" x1="156.423" y1="181.772" x2="387.882" y2="181.772" gradientUnits="userSpaceOnUse">
<stop offset="0.0119" stop-color="#7928CA"/>
<stop offset="1" stop-color="#FF0080"/>
</linearGradient>
<linearGradient id="paint3_linear" x1="156.423" y1="75.9412" x2="387.882" y2="75.9412" gradientUnits="userSpaceOnUse">
<stop offset="0.00171755" stop-color="#FF4D52"/>
<stop offset="1" stop-color="#F9CB28"/>
</linearGradient>
<linearGradient id="paint4_linear" x1="128.694" y1="169.197" x2="230.366" y2="169.197" gradientUnits="userSpaceOnUse">
<stop stop-color="#007CF0"/>
<stop offset="1" stop-color="#00DFD8"/>
</linearGradient>
<linearGradient id="paint5_linear" x1="128.694" y1="126.151" x2="230.366" y2="126.151" gradientUnits="userSpaceOnUse">
<stop offset="0.0119" stop-color="#7928CA"/>
<stop offset="1" stop-color="#FF0080"/>
</linearGradient>
<linearGradient id="paint6_linear" x1="128.694" y1="200.441" x2="230.366" y2="200.441" gradientUnits="userSpaceOnUse">
<stop offset="0.0119" stop-color="#7928CA"/>
<stop offset="1" stop-color="#FF0080"/>
</linearGradient>
<linearGradient id="paint7_linear" x1="128.694" y1="96.5257" x2="230.366" y2="96.5257" gradientUnits="userSpaceOnUse">
<stop offset="0.00171755" stop-color="#FF4D52"/>
<stop offset="1" stop-color="#F9CB28"/>
</linearGradient>
<linearGradient id="paint8_linear" x1="103.132" y1="196.292" x2="154.256" y2="196.292" gradientUnits="userSpaceOnUse">
<stop stop-color="#007CF0"/>
<stop offset="1" stop-color="#00DFD8"/>
</linearGradient>
<linearGradient id="paint9_linear" x1="103.132" y1="160.789" x2="154.256" y2="160.789" gradientUnits="userSpaceOnUse">
<stop offset="0.0119" stop-color="#7928CA"/>
<stop offset="1" stop-color="#FF0080"/>
</linearGradient>
<linearGradient id="paint10_linear" x1="103.132" y1="136.637" x2="154.256" y2="136.637" gradientUnits="userSpaceOnUse">
<stop offset="0.00171755" stop-color="#FF4D52"/>
<stop offset="1" stop-color="#F9CB28"/>
</linearGradient>
<linearGradient id="paint11_linear" x1="103.132" y1="220.431" x2="154.256" y2="220.431" gradientUnits="userSpaceOnUse">
<stop offset="0.0119" stop-color="#7928CA"/>
<stop offset="1" stop-color="#FF0080"/>
</linearGradient>
<clipPath id="clip0">
<rect width="475" height="281" fill="white"/>
</clipPath>
</defs>
</svg>
