<svg width="476" height="245" viewBox="0 0 476 245" fill="none" xmlns="http://www.w3.org/2000/svg">
<g clip-path="url(#clip0)">
<path d="M207.755 2.84598L169.434 137.469L409.681 204.948L448.002 70.3254L207.755 2.84598Z" fill="#3F3D56"/>
<path d="M211.912 10.4662C213.011 10.4662 213.901 9.58197 213.901 8.49126C213.901 7.40055 213.011 6.51636 211.912 6.51636C210.814 6.51636 209.924 7.40055 209.924 8.49126C209.924 9.58197 210.814 10.4662 211.912 10.4662Z" fill="#FF5B4F"/>
<path d="M218.036 12.1849C219.134 12.1849 220.025 11.3007 220.025 10.21C220.025 9.1193 219.134 8.23511 218.036 8.23511C216.938 8.23511 216.048 9.1193 216.048 10.21C216.048 11.3007 216.938 12.1849 218.036 12.1849Z" fill="#FF5B4F"/>
<path d="M224.165 13.9083C225.263 13.9083 226.153 13.0241 226.153 11.9334C226.153 10.8427 225.263 9.9585 224.165 9.9585C223.067 9.9585 222.177 10.8427 222.177 11.9334C222.177 13.0241 223.067 13.9083 224.165 13.9083Z" fill="#FF5B4F"/>
<path d="M335.258 88.2793C332.041 87.6738 328.736 87.753 325.552 88.5076C326.48 85.3449 326.715 82.0239 326.236 78.7635C322.959 79.9419 319.991 81.8423 317.557 84.3249C316.793 80.9433 315.269 77.7807 313.098 75.0698C310.973 77.599 309.421 80.552 308.545 83.7287C306.228 81.4324 303.452 79.6438 300.395 78.484C300.395 78.484 298.946 85.806 302.435 91.8099C305.539 97.1571 311.503 99.6583 312.779 100.143L312.807 100.18L312.821 100.161C312.952 100.208 313.023 100.236 313.023 100.236C313.023 100.236 313.051 100.096 313.088 99.8446C313.112 99.8167 313.135 99.7887 313.159 99.7561C313.163 99.798 313.168 99.8307 313.173 99.8679C313.074 100.101 313.023 100.236 313.023 100.236C313.023 100.236 313.098 100.255 313.234 100.278L313.238 100.301L313.281 100.287C314.622 100.539 321.022 101.507 326.49 98.5684C332.637 95.2707 335.258 88.2793 335.258 88.2793Z" fill="#FF5B4F"/>
<path d="M323.352 69.5781C326.209 69.5781 328.524 67.2779 328.524 64.4405C328.524 61.6031 326.209 59.303 323.352 59.303C320.496 59.303 318.18 61.6031 318.18 64.4405C318.18 67.2779 320.496 69.5781 323.352 69.5781Z" fill="#FF5B4F"/>
<path d="M232.838 87.478L231.881 90.8396L387.352 134.507L388.309 131.146L232.838 87.478Z" fill="#FF5B4F"/>
<path d="M242.63 108.298L235.05 134.927L261.858 142.456L269.438 115.827L242.63 108.298Z" fill="#FF5B4F"/>
<path d="M292.409 122.279L284.829 148.908L311.637 156.437L319.217 129.809L292.409 122.279Z" fill="#FF5B4F"/>
<path d="M342.188 136.26L334.608 162.889L361.415 170.419L368.995 143.79L342.188 136.26Z" fill="#FF5B4F"/>
<path d="M236.979 141.223L236.329 143.505L256.242 149.098L256.892 146.816L236.979 141.223Z" fill="#FF5B4F"/>
<path d="M286.764 155.201L286.114 157.483L306.027 163.076L306.676 160.794L286.764 155.201Z" fill="#FF5B4F"/>
<path d="M336.542 169.183L335.893 171.464L355.806 177.057L356.455 174.776L336.542 169.183Z" fill="#FF5B4F"/>
<path d="M135.795 189.572C209.342 189.572 268.964 187.383 268.964 184.682C268.964 181.981 209.342 179.791 135.795 179.791C62.2477 179.791 2.62579 181.981 2.62579 184.682C2.62579 187.383 62.2477 189.572 135.795 189.572Z" fill="#D0CDE1"/>
<path d="M372.372 245C429.604 245 476 242.81 476 240.109C476 237.408 429.604 235.219 372.372 235.219C315.14 235.219 268.744 237.408 268.744 240.109C268.744 242.81 315.14 245 372.372 245Z" fill="#D0CDE1"/>
<path d="M38.4644 170.517L37.4563 181.915L45.5543 181.244V171.523L38.4644 170.517Z" fill="#FFB8B8"/>
<path d="M31.0416 170.517L32.0544 181.915L23.9564 181.244V171.523L31.0416 170.517Z" fill="#FFB8B8"/>
<path d="M52.3018 83.0391C52.3018 83.0391 55.0027 99.1271 55.0027 101.475C55.0027 103.822 53.9899 118.904 52.3018 121.922C50.6137 124.941 50.2761 126.277 50.9514 127.619C51.6266 128.96 51.289 128.625 50.9514 129.631C50.6137 130.637 49.9385 130.302 50.9514 131.643C51.8001 132.854 51.8001 134.456 50.9514 135.667C50.2761 136.674 52.3018 163.824 49.6009 165.831C46.9 167.839 46.2248 174.546 46.2248 174.546L37.4516 173.54V166.167C37.4516 166.167 35.4259 160.806 36.7763 157.452C38.1268 154.098 38.802 136.338 38.802 136.338C38.802 136.338 38.4644 134.661 38.802 133.655C39.1396 132.649 38.802 131.979 38.1268 131.643C37.4516 131.308 37.1139 129.966 37.1139 129.966L36.1058 105.494L32.0545 129.626C32.0545 129.626 36.1058 162.473 32.0545 166.833V174.541H23.2812L24.6317 166.162C24.6317 166.162 21.9308 158.453 23.2812 156.777C24.6317 155.1 19.2299 128.285 19.9051 127.283C20.5803 126.282 20.2427 125.942 19.9051 125.271C19.5675 124.601 18.5547 123.93 18.8923 123.259C19.2299 122.588 18.8923 121.247 18.8923 121.247C18.8923 121.247 12.4823 89.7416 15.5162 86.7234C18.5594 83.7051 52.3018 83.0391 52.3018 83.0391Z" fill="#2F2E41"/>
<path d="M39.477 177.555C39.477 177.555 40.1523 174.341 45.5494 175.445C45.5494 175.445 46.8998 178.226 46.8998 179.567C46.8998 180.909 48.2502 189.959 48.2502 189.959C48.2502 189.959 53.6473 199.009 46.8998 199.009C40.1523 199.009 37.789 196.661 37.4514 194.319C37.1137 191.976 37.789 191.3 36.4385 190.294C35.0881 189.288 34.4129 189.288 34.7505 187.947C35.0881 186.605 35.7633 179.903 35.7633 179.903C35.7633 179.903 36.1009 174.877 37.9578 176.214L39.8146 177.555" fill="#2F2E41"/>
<path d="M30.0287 177.555C30.0287 177.555 29.3535 174.341 23.9564 175.445C23.9564 175.445 22.606 178.226 22.606 179.567C22.606 180.909 21.2555 189.959 21.2555 189.959C21.2555 189.959 15.8584 199.009 22.606 199.009C29.3535 199.009 31.7168 196.661 32.0544 194.319C32.392 191.976 31.7168 191.3 33.0672 190.294C34.4177 189.288 35.0929 189.288 34.7553 187.947C34.4177 186.605 33.7425 179.903 33.7425 179.903C33.7425 179.903 33.4049 174.877 31.548 176.214L29.6911 177.555" fill="#2F2E41"/>
<path d="M39.8148 21.3653C44.8466 21.3653 48.9256 17.3135 48.9256 12.3152C48.9256 7.317 44.8466 3.26514 39.8148 3.26514C34.783 3.26514 30.704 7.317 30.704 12.3152C30.704 17.3135 34.783 21.3653 39.8148 21.3653Z" fill="#FFB8B8"/>
<path d="M32.3918 13.6567C32.3918 13.6567 28.6781 28.068 28.0076 28.4033C27.337 28.7387 43.5283 30.0801 43.5283 30.0801C43.5283 30.0801 39.477 17.6764 43.5283 15.6689L32.3918 13.6567Z" fill="#FFB8B8"/>
<path d="M30.0241 22.4368L18.897 30.0802L20.9226 90.0773C20.9226 90.0773 35.7682 88.4004 39.1443 88.7358C42.5204 89.0712 53.3146 85.7176 53.3146 85.7176L48.5834 29.3443C48.3911 27.0666 46.5577 25.2687 44.2648 25.1103L42.2391 24.9706C42.2391 24.9706 40.2134 29.9498 34.1223 27.3787C32.0404 26.4751 30.5164 24.6399 30.0241 22.4368Z" fill="#D0CDE1"/>
<path d="M30.2912 21.8916L16.5335 28.4032L13.8326 66.9465C13.8326 66.9465 8.4355 90.0724 12.8198 96.775C17.204 103.478 24.6315 104.148 24.6315 104.148C24.6315 104.148 34.4176 65.605 31.7167 52.5306C29.0158 39.4561 30.2912 21.8916 30.2912 21.8916Z" fill="#575A89"/>
<path d="M4.38425 80.0208V85.0465C4.38425 85.0465 2.35858 96.1088 8.76852 95.7734C15.1785 95.4381 12.1446 83.7051 12.1446 83.7051L10.119 80.0161L4.38425 80.0208Z" fill="#FFB8B8"/>
<path d="M63.7713 90.0772L63.0961 95.7737C63.0961 95.7737 66.4722 107.171 60.0576 107.507C53.6429 107.842 58.2992 95.8436 58.2992 95.8436L60.3952 89.4065L63.7713 90.0772Z" fill="#FFB8B8"/>
<path d="M42.0375 23.7966C48.1848 25.3011 53.882 28.2448 58.6555 32.3763L58.7117 32.4275L53.9899 57.2303L53.3146 66.2804C53.3146 66.2804 65.8016 110.525 51.289 104.153C51.289 104.153 38.802 65.6097 40.4901 47.8448C42.1781 30.08 42.0375 23.7966 42.0375 23.7966Z" fill="#575A89"/>
<path d="M54.3275 32.0923C54.6651 31.7569 58.7117 32.5581 58.7117 32.5581C58.7117 32.5581 66.1345 58.5719 66.1345 62.9269C66.1345 67.2819 67.1473 92.0894 67.1473 92.0894L58.2381 92.979L51.0264 58.516L54.3275 32.0923Z" fill="#575A89"/>
<path d="M18.8969 28.4033H16.5336C16.5336 28.4033 9.78606 31.0862 9.44844 34.0998C9.11083 37.1134 0 67.6173 0 67.6173L2.36328 83.0346L11.1365 81.6931L12.8246 64.599L21.5978 45.8281L18.8969 28.4033Z" fill="#575A89"/>
<path d="M38.0469 14.8398L38.3939 12.4224C38.4736 11.8588 38.8065 11.1182 39.3599 11.2719C39.8288 11.4023 40.851 11.8029 41.0245 11.6818C41.6669 11.23 42.6375 12.0218 43.3127 11.6166C43.5941 11.4489 43.7816 11.0903 44.1099 11.0623C44.3303 11.0763 44.5366 11.1694 44.696 11.3231C45.1321 11.7004 45.6479 11.9799 46.2059 12.1383C46.7779 12.292 47.3828 12.1289 47.7955 11.7051C47.8658 11.5933 47.9643 11.5048 48.0768 11.4349C48.2081 11.3977 48.3535 11.4023 48.4801 11.4536L50.2056 11.9193C50.7167 10.0702 50.3932 8.09529 49.3194 6.50233C48.6207 5.56145 47.772 4.73702 46.8108 4.06164C45.7417 3.25584 44.6397 2.49662 43.505 1.78398C42.2999 0.936263 40.9354 0.344723 39.4911 0.0466242C38.0375 -0.172292 36.4104 0.218963 35.4961 1.36478C35.0647 1.05737 34.7411 0.619533 34.5723 0.121149C34.1831 0.470483 34.155 1.06668 34.5114 1.44862C34.5489 1.49054 34.5911 1.5278 34.638 1.56041L33.1703 0.652137C32.7624 1.076 33.5595 1.85385 33.2125 2.32894C33.1047 2.44539 32.9734 2.53389 32.8186 2.58512C32.0262 2.89254 31.2994 3.34434 30.6804 3.92191C29.8927 4.81155 29.3206 5.86421 28.997 7.00071C28.1296 9.474 27.4965 12.3153 28.7298 14.6348C28.8704 14.8957 30.7179 19.2321 30.9618 19.4044C31.7917 19.9773 31.2525 18.594 31.848 19.4044C32.3169 20.0425 32.2278 17.6065 32.9218 18.1375C33.4798 18.5334 34.216 18.566 34.8068 18.2213C35.0928 18.0211 35.0037 16.9218 34.8443 15.9111C34.7458 15.259 35.1913 14.6535 35.8478 14.551C35.9978 14.5277 36.1525 14.5324 36.3026 14.5696C37.1748 14.7699 38.0329 14.9423 38.0469 14.8398Z" fill="#2F2E41"/>
<path opacity="0.2" d="M55.1667 62.4238L58.8805 92.9231H56.5172L55.1667 62.4238Z" fill="black"/>
<path opacity="0.2" d="M16.0271 50.6907L14.1515 62.4237L17.7152 50.6907H16.7023H16.0271Z" fill="black"/>
<path d="M350.69 180.406L325.66 204.962L350.69 229.518L356.321 223.924L337.392 205.12L356.476 186.163L350.69 180.406Z" fill="#FF5B4F"/>
<path d="M401.58 180.406L426.61 204.962L401.58 229.518L395.948 223.924L414.878 205.12L395.789 186.158L401.58 180.406Z" fill="#FF5B4F"/>
<path d="M374.205 231.194L366.89 229.695L378.125 175.031L385.44 176.531L374.205 231.194Z" fill="#FF5B4F"/>
<path d="M98.8593 181.975H88.7262V164.439H73.7166V181.975H63.5226V139.981H73.7166V156.651H88.7262V139.981H98.8593V181.975Z" fill="#3F3D56"/>
<path d="M137.652 147.796H124.963V181.975H114.774V147.796H102.315V139.981H137.652V147.796Z" fill="#3F3D56"/>
<path d="M155.334 139.981L164.769 169.199L174.175 139.981H187.59V181.975H177.368V172.171L178.358 152.096L168.135 181.975H161.397L151.147 152.068L152.136 172.171V181.975H141.942V139.981H155.334Z" fill="#3F3D56"/>
<path d="M204.264 174.188H222.003V181.975H194.07V139.981H204.264V174.188Z" fill="#3F3D56"/>
</g>
<defs>
<clipPath id="clip0">
<rect width="476" height="245" fill="white"/>
</clipPath>
</defs>
</svg>
