<?xml version="1.0" encoding="utf-8"?>
<!-- Generator: Adobe Illustrator 24.3.0, SVG Export Plug-In . SVG Version: 6.00 Build 0)  -->
<svg version="1.1" id="Blisk-logo-text-dark-1587-512_xA0_Imagen_1_"
	 xmlns="http://www.w3.org/2000/svg" xmlns:xlink="http://www.w3.org/1999/xlink" x="0px" y="0px" viewBox="0 0 1587 512"
	 style="enable-background:new 0 0 1587 512;" xml:space="preserve">
<style type="text/css">
	.st0{fill:#303030;}
	.st1{fill:#009AE2;}
	.st2{fill:#0077B2;}
	.st3{fill:#FEFEFE;}
	.st4{fill:#B1B3C3;}
	.st5{fill:#B8B5C4;}
	.st6{fill:#3E3D6F;}
	.st7{fill:#453B73;}
	.st8{fill:#3E346E;}
	.st9{fill:#443A73;}
	.st10{fill:#3A396C;}
	.st11{fill:#B5B7C6;}
	.st12{fill:#AAACBE;}
	.st13{fill:#454474;}
</style>
<g>
	<path class="st0" d="M670.9,244.7c5.1,3,10.2,5.8,14.6,9.6c16,13.7,21.2,31.7,20.7,51.9c-0.5,21.3-6.2,40.5-23.5,54.5
		c-14.2,11.5-31.2,15.9-48.9,18.3c-9.9,1.3-19.9,1.8-29.9,1.8c-35-0.1-70-0.1-105,0.1c-3.9,0-5-0.9-5-4.9
		c0.1-60.6,0-121.2,0.2-181.8c0-4.6-1.2-6-5.8-5.7c-5.6,0.4-11.3,0-17,0.2c-2.6,0.1-3.4-0.7-3.4-3.3c0.1-17.7,0.1-35.3,0-53
		c0-3,1.1-3.5,3.8-3.5c47,0.1,94-0.2,140.9,0.4c21.7,0.3,41.9,6.3,59.1,20.8c26.8,22.8,27.8,73,0.3,93.3
		C671.6,243.7,671.4,244.1,670.9,244.7z"/>
	<path class="st0" d="M1520.5,128.9c-8,11.8-15.3,22.6-22.7,33.4c-20.5,30.1-41,60.3-61.6,90.3c-1.8,2.6-1.6,4.1,0.3,6.4
		c14.1,17.5,28.4,34.9,42.1,52.7c8.6,11.2,19.9,14.7,33.3,14.5c8-0.1,8,0.1,8,7.8c0,15.2-0.1,30.3,0.1,45.5c0,3.3-0.6,4.7-4.3,4.5
		c-12.5-0.6-25,0.5-37.4-0.8c-14.8-1.5-26.9-7.9-37-18.7c-17.5-18.9-32-40.1-46.8-61c-7-9.9-14.1-14.6-26.4-13.2
		c-10,1.2-10.1,0.2-10.1,10.3c0,25.1-0.1,50.3,0.1,75.4c0,3.6-0.7,4.9-4.6,4.8c-18.5-0.2-37-0.2-55.5,0c-3.5,0-4.4-0.9-4.4-4.4
		c0.1-79.9,0.1-159.9,0-239.8c0-3.2,0.8-4.2,4.1-4.2c18.7,0.2,37.3,0.2,56,0c3.6,0,4.4,1.2,4.4,4.5c-0.1,27.6,0,55.3-0.2,82.9
		c0,3.9,0.9,5.2,5,5c5.6-0.4,11.3-0.4,17,0c3.5,0.2,5.4-1.2,7.2-4c19.1-29.3,38.4-58.4,57.5-87.7c2.2-3.4,4.6-4.4,8.4-4.4
		C1475.1,128.9,1497.2,128.9,1520.5,128.9z"/>
	<path class="st0" d="M1068,306.6c10.7,5.7,21.2,10.5,32.4,13.9c22.6,6.9,45.6,9.2,69.1,6.7c4.3-0.5,8.6-1.3,12.6-3
		c11.1-4.7,13.8-17.2,5.8-26.2c-3.4-3.8-7.9-6-12.5-7.9c-13.6-5.7-28.2-7.7-42.5-10.9c-8.8-1.9-17.5-4.1-26.1-6.6
		c-33.5-9.8-51.5-37-49.2-73.4c1.3-20.3,7.5-38.2,23.9-51.3c11.5-9.2,24.9-14,39.3-16.3c28.8-4.6,57.5-4.5,85.4,4.8
		c25.8,8.5,41.5,26.1,45.5,53.5c0.6,4.3,0.4,6.7-5.2,7.4c-18.5,2.3-36.9,5.3-55.3,8.3c-2.8,0.5-3.8-0.1-4.3-2.9
		c-2-10.9-8.8-17.1-19.6-19.1c-9.8-1.8-19.6-2.1-29.2,0.7c-12.4,3.5-18.5,13.6-15.2,24.5c1.5,4.9,4.8,8.2,9,10.9
		c8.5,5.4,18.3,6.8,28,8.5c18.7,3.2,37.4,6,55.4,12.6c31.9,11.7,41.2,36.4,41.7,61.6c0.2,8.7-0.3,17.3-2.4,25.8
		c-6,24.6-22,40-45.3,48.4c-13.4,4.8-27.2,7.7-41.6,7.3c-15.6-0.4-31.3,1-46.9-0.9c-19.1-2.4-37.4-7.7-54.8-16.2
		c-3.8-1.9-5.1-3.7-4.4-8.3c2.3-15.3,3.8-30.7,5.7-46.1C1067.4,310.6,1067.7,308.9,1068,306.6z"/>
	<path class="st1" d="M236,444c-4.5,0.6-8.5-0.8-12.4-3c-47.7-27.2-95.4-54.5-143.1-81.8c-8.4-4.8-12.6-12.1-12.6-21.8
		c0-54,0.1-107.9,0-161.9c0-10.5,4.4-18.1,13.4-23.3c47.1-26.9,94.3-53.8,141.4-80.7c4.1-2.3,8.3-4.2,13.2-3.5
		c1.3,1.5,1.6,3.3,1.6,5.1c0,18.1,0.2,36.2-0.1,54.3c0,0.8-0.2,1.7-0.3,2.5c-0.2,0.9-0.6,1.7-1.2,2.4c-9.6,6.7-20,12-30,17.8
		c-24.1,14-48.1,27.9-72.3,41.7c-2.9,1.7-4.3,3.8-4.3,7.2c0,38,0.1,75.9,0,113.9c0,3.6,1.5,5.8,4.6,7.6
		c32.7,18.7,65.3,37.5,97.9,56.4c1.4,0.8,2.9,1.6,4.1,2.8c0.6,0.7,1,1.5,1.3,2.4c1,8.5,0.4,16.9,0.5,25.4c0.1,9.8,0.1,19.6,0,29.4
		C237.6,439.3,237.8,441.9,236,444z"/>
	<path class="st2" d="M236.1,131c0-21,0-42-0.1-63c4.5-0.7,8.5,0.8,12.4,3c47.7,27.2,95.4,54.5,143.1,81.8
		c8.4,4.8,12.5,12,12.5,21.8c0,54.3,0,108.6,0,162.9c0,9.7-4.2,17-12.5,21.8c-47.7,27.3-95.4,54.5-143.1,81.8
		c-3.8,2.2-7.8,3.7-12.4,3c0-21,0-42,0.1-63c0.9-2.7,3.4-3.5,5.5-4.7c31.7-18.4,63.5-36.5,95.1-55c2-1.2,4.1-2.2,5.5-4.2
		c0.7-1.8,0.5-3.6,0.5-5.5c0-37.1,0-74.2,0-111.2c0-1.8,0.2-3.7-0.5-5.4c-4.4-4.8-10.4-7.1-15.8-10.2c-28.2-16.4-56.5-32.6-84.7-49
		C239.5,134.5,236.9,133.7,236.1,131z"/>
	<path class="st0" d="M740.5,256.5c0-39.6,0.1-79.3-0.1-118.9c0-4.2,1.1-5.3,5.2-5.2c17.8,0.2,35.7,0.3,53.5,0
		c4.7-0.1,6.1,0.9,6.1,5.9c-0.2,59.5-0.1,118.9-0.2,178.4c0,4.7,1,6.1,5.9,6.1c33.2-0.2,66.3,0,99.5-0.2c4.1,0,5.4,0.9,5.3,5.2
		c-0.3,16.2-0.2,32.3,0,48.5c0,3.8-1,4.7-4.8,4.7c-55.2-0.1-110.3-0.1-165.5,0c-4.5,0-5-1.6-5-5.4
		C740.6,335.8,740.5,296.2,740.5,256.5z"/>
	<path class="st0" d="M1019.9,257c0,39.6-0.1,79.3,0.1,118.9c0,4-1.1,4.9-5,4.9c-18.5-0.2-37-0.2-55.5,0c-3.5,0-4.5-0.9-4.5-4.4
		c0.1-80,0.1-159.9,0-239.9c0-3.5,1.2-4.1,4.3-4.1c18.7,0.1,37.3,0.2,56,0c3.8,0,4.7,0.9,4.7,4.7
		C1019.9,177.1,1019.9,217,1019.9,257z"/>
	<path class="st3" d="M591,282.9c8,0,16-0.1,23.9,0c3.5,0.1,7,0.4,10.4,1.1c10.7,2.2,16.1,8.9,16.1,19.6c0,10.8-5.1,17.3-15.9,19.8
		c-2.7,0.6-5.6,1.1-8.4,1.2c-18.5,0.1-36.9,0-55.4,0.1c-2.6,0-3.5-0.7-3.5-3.4c0.1-11.6,0.1-23.3,0-34.9c0-2.9,1-3.6,3.7-3.6
		C571.7,283,581.3,282.9,591,282.9z"/>
	<path class="st3" d="M558.4,209.8c0-6.7,0.1-13.3-0.1-20c-0.1-2.6,0.8-3.5,3.4-3.5c13.6,0.4,27.3-0.7,40.9,0.7
		c3.3,0.4,6.6,1.1,9.7,2.1c11.8,3.8,17.4,12.1,16.5,24.1c-0.9,10.8-7.8,17.6-19.9,19.7c-7.1,1.2-14.3,0.8-21.4,0.9
		c-8.3,0-16.7-0.1-25,0.1c-3.2,0.1-4.4-0.7-4.3-4.1C558.6,223.2,558.4,216.5,558.4,209.8z"/>
	<path class="st3" d="M235.1,380.2c-34.9-20.1-69.7-40.2-104.6-60.2c-1.8-1-2.5-2.2-2.5-4.3c0.1-39.8,0.1-79.5,0-119.3
		c0-2.1,0.7-3.3,2.5-4.3c34.9-20,69.8-40.1,104.6-60.2c4.3,3.5,1.8,8.1,1.9,12.3c-0.2,0.8-0.7,1.5-1.2,2.1
		c-14.1,9-29,16.8-43.4,25.4c-8.5,5.1-17.3,9.9-25.9,15c-0.8,0.5-1.7,0.9-2.6,1.4c-5.8,3.5-11.8,6.7-17.6,10.2c-1.7,1-3.4,2-4.5,3.8
		c-0.6,1.6-0.4,3.3-0.4,5c0,32.7,0,65.5,0,98.2c0,1.7-0.1,3.3,0.5,4.9c4.4,5,10.7,7,16.1,10.5c1.9,1.3,4,2.3,6,3.5
		c0.8,0.5,1.7,0.9,2.5,1.4c21.3,12.6,42.8,24.7,64.2,37.1c1.7,1,3.5,1.9,5,3.3c0.6,0.6,1,1.3,1.3,2.1c0.6,2.6,0.5,5.3,0.4,7.9
		C237.3,377.5,237.5,379.5,235.1,380.2z"/>
	<path class="st4" d="M235.1,380.2c2-4.3,0.4-8.8,0.9-13.2c1-2.6,3.5-3.4,5.6-4.7c28.5-16.5,57.1-33,85.6-49.4
		c0.7-0.4,1.4-0.9,2.1-1.3c0.8-0.5,1.7-0.9,2.5-1.4c0.3-0.4,0.6-0.8,0.8-1.3c0.1-35.3,0.1-70.6,0-105.8c-0.2-0.4-0.4-0.9-0.8-1.2
		c-0.7-0.6-1.6-1-2.4-1.5c-24.8-14.6-49.9-28.8-74.8-43.2c-4.9-2.8-9.7-5.8-14.7-8.5c-1.6-0.8-3.3-1.7-3.9-3.7
		c-0.4-4.4,1.1-8.9-0.9-13.2c0.3-0.3,0.6-0.6,1-0.8c33.9,19.6,67.8,39.2,101.7,58.9c1.6,0.9,3.1,2,4.6,2.9c0.8,2.1,0.6,4.2,0.6,6.4
		c0,37.9,0,75.7,0,113.6c0,2.2,0.2,4.3-0.6,6.4c-16.5,9.6-32.9,19.2-49.4,28.8c-18.9,11-37.9,22-56.8,33
		C235.8,380.7,235.4,380.5,235.1,380.2z"/>
	<path class="st5" d="M342.4,319.2c-1.5-2-0.3-4.1-0.3-6.2c-0.1-38-0.1-76,0-114.1c0-2-1.2-4.2,0.3-6.2c2.3,0.7,1.6,2.6,1.6,4.2
		c0,39.3,0,78.7,0,118C344,316.6,344.6,318.5,342.4,319.2z"/>
	<path class="st6" d="M236,145c30.2,17.4,60.4,34.9,90.6,52.3c1.3,0.7,2.5,1.7,3.7,2.5c1.1,2.3,1.1,4.8,1.1,7.3
		c0,32.6,0,65.1,0,97.7c0,2.5,0,5-1.1,7.3c-15.9,9.3-31.8,18.6-47.7,27.9c-15.5,9-31.1,17.9-46.6,26.9c-0.3-0.3-0.7-0.6-1-0.9
		c-0.9-1.7-0.5-3.6-0.5-5.4c0.1-15.6,0-31.1,0-46.7c0-2.9,0-5.5-3.2-7.1c-2.3-1.1-1.1-2.4,0.6-2.9c2.6-0.8,5.3-0.1,7.9-0.7
		c39.3-6.4,52.9-44.9,35.7-72.3c-6.1-9.7-14.8-16.5-26.1-19.7c-3.2-0.9-6.4-1.7-9.7-2.4c-2.6-0.8-5.3,0-7.9-0.8
		c-1.8-0.6-2.8-1.8-0.6-2.9c3.2-1.6,3.2-4.3,3.2-7.1c0-15.6,0-31.1,0-46.7c0-1.8-0.3-3.6,0.5-5.4C235.3,145.7,235.7,145.3,236,145z"
		/>
	<path class="st7" d="M241,304.1c-3,2-6.5,0.2-9.8,1.2c1.1,1.6,3.8-0.2,4.4,1.7c0.5,1.7,0.4,3.6,0.4,5.4c0,15.8,0,31.6,0,47.4
		c0,2.2,0.2,4.3-1.1,6.3c-23.3-12.9-46.4-26.3-69.2-39.9c-0.2-1-1-1.1-1.8-1c-7.6-3.9-15.1-8.2-22.3-12.9c-0.8-2.1-0.6-4.2-0.6-6.4
		c0-33.2,0-66.4,0-99.5c0-2.2-0.2-4.3,0.6-6.4c7.2-4.7,14.7-9,22.3-12.9c0.8,0,1.6,0,1.8-1c22.9-13.7,45.9-27,69.2-39.9
		c1.1,1.8,1.1,3.8,1.1,5.8c0,16.3-0.1,32.6,0.1,48.9c0,3.8-0.5,6.3-5.4,5.6c3.6,1.8,7.2-0.4,10.3,1.7c-1.5,1.8-3.6,1.3-5.6,1.4
		c-18.5,0.5-32.3,9.1-40.8,25.1c-8.3,15.8-7.6,32,2.3,47c8.8,13.3,21.5,21,38,21.2C237,302.7,239.3,302.2,241,304.1z"/>
	<path class="st8" d="M141.7,199.8c1.5,1.8,0.3,3.8,0.3,5.7c0.1,33.7,0.1,67.4,0,101c0,1.9,1.2,3.9-0.3,5.7
		c-2.4-0.6-1.6-2.6-1.6-4.1c0-34.7,0-69.4,0-104.1C140.1,202.5,139.2,200.5,141.7,199.8z"/>
	<path class="st9" d="M165.7,185.9c0.8,0.4,0.9,1,0.2,1.5c-0.8,0.7-1.5,0.4-2-0.5C164.6,186.6,165.2,186.3,165.7,185.9z"/>
	<path class="st9" d="M164,325.1c0.5-0.9,1.2-1.1,2-0.5c0.7,0.5,0.5,1.1-0.2,1.5C165.2,325.8,164.6,325.4,164,325.1z"/>
	<path class="st10" d="M330.3,312.2c-1.4-1.8-0.2-3.8-0.2-5.7c-0.1-33.6-0.1-67.3,0-100.9c0-1.9-1.1-3.9,0.2-5.7
		c0.6,0.4,1.2,0.8,1.8,1.2c0.3,0.6,0.4,1.2,0.4,1.8c-0.2,35.4-0.2,70.8,0,106.3c0,0.7-0.1,1.3-0.4,1.8
		C331.5,311.4,330.9,311.8,330.3,312.2z"/>
	<path class="st11" d="M333,201c1.6-0.3,1,0.9,1,1.5c0,35.6,0,71.2,0,106.9c0,0.5-0.1,1-0.2,1.4c0,0.1-0.5,0.1-0.8,0.1
		c-1.2-2-1-4.2-1-6.3c0-32.4,0-64.9,0-97.3C332,205.2,331.8,203,333,201z"/>
	<path class="st12" d="M333,201c0,36.6,0,73.3,0,109.9c-0.3,0-0.6,0-0.9,0c-0.1-0.3-0.2-0.7-0.3-1c-0.5-1.1-0.3-2.3-0.3-3.4
		c0-33.7,0-67.3,0-101c0-1.2-0.2-2.3,0.3-3.4c0.1-0.3,0.2-0.7,0.3-1C332.4,201,332.7,201,333,201z"/>
	<path class="st3" d="M241,304.1c-16.2,1.1-30.1-3.9-40.9-16.1c-12.2-13.9-15.5-30.1-9.6-47.4c5.9-17.1,18.1-27.7,36.1-31.5
		c4.8-1,9.6-0.6,14.3-1c18.2,3,32,12.1,39.2,29.4c11.3,27.1-3.2,57.4-32.1,65.3C245.8,303.2,243.4,303.6,241,304.1z"/>
	<path class="st13" d="M331.8,202.1c0,36,0,71.9,0,107.9c-1.3-1.4-0.8-3.2-0.8-4.8c0-32.8,0-65.6,0-98.3
		C331,205.2,330.5,203.5,331.8,202.1z"/>
</g>
</svg>
