<svg width="338" height="275" viewBox="0 0 338 275" fill="none" xmlns="http://www.w3.org/2000/svg">
<path d="M139.724 172.616C142.822 172.816 145.613 171.817 147.562 169.81C149.514 167.806 150.486 164.936 150.292 161.75C149.284 145.405 143.904 93.1005 115.781 64.1827C91.0184 38.7212 55.0633 34.4105 35.4724 54.5546C15.8815 74.6987 20.0738 111.669 44.8361 137.131C72.9597 166.049 123.828 171.58 139.724 172.616Z" fill="#C0C5DA"/>
<path d="M75.6265 59.3687C70.9226 64.2054 68.7732 71.2727 69.6512 79.0157C70.5293 86.7587 74.3627 94.5432 80.3084 100.657L147.562 169.81C149.514 167.806 150.486 164.936 150.292 161.75C149.284 145.405 143.905 93.1008 115.781 64.1827L115.766 64.1678C109.82 58.06 102.252 54.1235 94.7248 53.2236C87.1979 52.3236 80.3284 54.534 75.6265 59.3687Z" fill="#DBDEF2"/>
<path d="M105.581 68.8964C106.169 68.2918 107.028 68.0155 107.97 68.1284C108.911 68.2412 109.857 68.734 110.601 69.4981L110.711 69.6117C121.163 80.4146 129.623 97.1676 135.187 118.069C137.446 126.671 139.159 135.287 140.315 143.858C140.449 144.829 140.204 145.725 139.635 146.349C139.066 146.973 138.219 147.274 137.281 147.185C136.343 147.097 135.39 146.627 134.632 145.879C133.874 145.13 133.373 144.164 133.239 143.193C132.129 134.953 130.483 126.669 128.312 118.399C123.159 99.0387 115.536 83.7414 106.269 74.1623L106.168 74.0584C105.799 73.68 105.492 73.2463 105.263 72.7821C105.035 72.3179 104.889 71.8322 104.835 71.3529C104.78 70.8735 104.818 70.4098 104.946 69.9884C105.074 69.5669 105.29 69.1958 105.581 68.8964Z" fill="#C0C5DA"/>
<path d="M154.955 177.818C155.607 175.825 155.464 173.828 154.555 172.21C153.647 170.591 152.036 169.465 150.031 169.049C139.742 166.921 106.449 161.522 83.7532 174.995C63.77 186.859 54.97 209.654 64.0978 225.91C73.2256 242.166 96.8247 245.728 116.808 233.865C139.504 220.391 151.603 188.045 154.955 177.818Z" fill="#C0C5DA"/>
<path d="M73.9255 200.453C76.1172 204.356 80.1251 206.968 85.0676 207.714C90.0102 208.46 95.4824 207.278 100.281 204.43L154.555 172.21C153.647 170.591 152.036 169.465 150.031 169.049C139.742 166.921 106.449 161.522 83.7532 174.995L83.7415 175.002C78.9468 177.852 75.2195 182.134 73.3788 186.906C71.5381 191.679 71.7348 196.551 73.9255 200.453Z" fill="#DBDEF2"/>
<path d="M197.97 172.616C194.872 172.816 192.08 171.817 190.131 169.81C188.18 167.806 187.208 164.936 187.402 161.75C188.41 145.405 193.79 93.1005 221.913 64.1827C246.675 38.7212 282.631 34.4105 302.221 54.5546C321.812 74.6987 317.62 111.669 292.858 137.131C264.734 166.049 213.866 171.58 197.97 172.616Z" fill="#C0C5DA"/>
<path d="M262.067 59.3687C266.771 64.2054 268.921 71.2727 268.043 79.0157C267.165 86.7587 263.331 94.5432 257.385 100.657L190.131 169.81C188.18 167.806 187.208 164.936 187.402 161.75C188.41 145.405 193.789 93.1008 221.913 64.1827L221.928 64.1678C227.874 58.06 235.442 54.1235 242.969 53.2236C250.496 52.3236 257.365 54.534 262.067 59.3687Z" fill="#DBDEF2"/>
<path d="M232.112 68.8964C231.525 68.2918 230.665 68.0155 229.724 68.1284C228.783 68.2412 227.836 68.734 227.093 69.4981L226.983 69.6117C216.531 80.4146 208.071 97.1676 202.506 118.069C200.247 126.671 198.534 135.287 197.379 143.858C197.245 144.829 197.49 145.725 198.059 146.349C198.628 146.973 199.474 147.274 200.413 147.185C201.351 147.097 202.304 146.627 203.062 145.879C203.82 145.13 204.321 144.164 204.455 143.193C205.565 134.953 207.211 126.669 209.382 118.399C214.535 99.0387 222.158 83.7414 231.425 74.1623L231.526 74.0584C231.895 73.68 232.202 73.2463 232.43 72.7821C232.659 72.3179 232.805 71.8322 232.859 71.3529C232.914 70.8735 232.876 70.4098 232.748 69.9884C232.62 69.5669 232.404 69.1958 232.112 68.8964Z" fill="#C0C5DA"/>
<path d="M110.173 2.94294C110.932 2.16242 112.041 1.80578 113.257 1.95147C114.472 2.09716 115.693 2.73324 116.653 3.71979L116.796 3.86641C130.289 17.8126 141.211 39.4404 148.394 66.4239C151.31 77.5287 153.522 88.6515 155.013 99.7168C155.186 100.97 154.87 102.126 154.136 102.932C153.401 103.737 152.308 104.126 151.097 104.012C149.885 103.898 148.655 103.291 147.676 102.325C146.698 101.358 146.051 100.112 145.878 98.8585C144.446 88.2202 142.321 77.5264 139.518 66.85C132.866 41.8558 123.025 22.1075 111.06 9.74112L110.93 9.6069C110.455 9.11844 110.058 8.55857 109.763 7.95928C109.467 7.35999 109.279 6.73303 109.209 6.11419C109.139 5.49535 109.188 4.89678 109.353 4.35265C109.519 3.80851 109.797 3.32949 110.173 2.94294Z" fill="#FBBF24"/>
<path d="M226.498 2.94294C225.739 2.16242 224.63 1.80578 223.415 1.95146C222.2 2.09715 220.978 2.73324 220.019 3.71979L219.876 3.86641C206.383 17.8126 195.461 39.4404 188.278 66.4239C185.362 77.5287 183.15 88.6515 181.658 99.7168C181.486 100.97 181.801 102.126 182.536 102.932C183.27 103.737 184.364 104.126 185.575 104.012C186.786 103.898 188.017 103.291 188.995 102.325C189.974 101.358 190.621 100.112 190.793 98.8585C192.226 88.2202 194.351 77.5264 197.154 66.85C203.806 41.8558 213.647 22.1074 225.611 9.74112L225.742 9.6069C226.217 9.11844 226.614 8.55857 226.909 7.95928C227.204 7.35999 227.392 6.73302 227.463 6.11419C227.533 5.49535 227.484 4.89678 227.318 4.35265C227.153 3.80851 226.874 3.32949 226.498 2.94294Z" fill="#FBBF24"/>
<path d="M182.885 177.816C182.233 175.823 182.375 173.826 183.285 172.208C184.193 170.589 185.804 169.463 187.809 169.047C198.098 166.919 231.391 161.52 254.087 174.994C274.07 186.857 282.87 209.652 273.742 225.908C264.614 242.164 241.015 245.726 221.032 233.863C198.336 220.389 186.237 188.043 182.885 177.816Z" fill="#C0C5DA"/>
<path d="M263.914 200.451C261.723 204.354 257.715 206.966 252.772 207.712C247.83 208.458 242.357 207.277 237.559 204.428L183.285 172.208C184.193 170.589 185.804 169.463 187.809 169.047C198.098 166.919 231.391 161.52 254.087 174.994L254.098 175C258.893 177.85 262.62 182.132 264.461 186.904C266.302 191.677 266.105 196.549 263.914 200.451Z" fill="#DBDEF2"/>
<path fill-rule="evenodd" clip-rule="evenodd" d="M168.847 94.6582C141.52 94.6582 119.366 116.811 119.366 144.139V216.169C119.366 240.601 137.074 260.897 160.354 264.924C159.983 266.524 160.089 268.267 160.806 269.953C163.629 276.597 173.046 276.597 175.87 269.953C176.562 268.323 176.684 266.64 176.356 265.083C200.12 261.465 218.327 240.943 218.327 216.169V144.139C218.327 116.811 196.174 94.6582 168.847 94.6582Z" fill="#1D1D1B"/>
<path fill-rule="evenodd" clip-rule="evenodd" d="M168.847 94.6582C141.52 94.6582 119.366 116.811 119.366 144.139V216.169C119.366 216.228 119.367 216.287 119.367 216.345H218.327C218.327 216.287 218.327 216.228 218.327 216.169V144.139C218.327 116.811 196.174 94.6582 168.847 94.6582ZM130.805 247.812C127.671 244.048 125.086 239.813 123.17 235.228H214.524C212.608 239.813 210.023 244.048 206.889 247.812H130.805Z" fill="#FBBF24"/>
<rect x="119.366" y="94.6582" width="98.961" height="102.805" rx="49.4805" fill="#1D1D1B"/>
<path d="M206.62 180.002C205.568 181.228 204.205 181.905 202.793 181.904C201.38 181.905 200.017 181.228 198.966 180.002C195.163 170.801 193.888 159.219 192.62 137.319C191.53 118.499 190.784 103.929 204.973 103.929C219.162 103.929 228.484 113.378 228.484 131.819C228.484 152.763 212.011 173.708 206.62 180.002Z" fill="#2887C3"/>
<path d="M202.837 155.035C202.229 155.744 201.441 156.135 200.625 156.135C199.809 156.135 199.021 155.744 198.413 155.035C196.215 149.717 195.478 143.022 194.745 130.364C194.115 119.485 193.683 111.063 201.885 111.063C210.086 111.063 215.475 116.525 215.475 127.185C215.475 139.291 205.953 151.397 202.837 155.035Z" fill="#28AAE1"/>
<path d="M131.069 180.004C132.12 181.23 133.483 181.907 134.896 181.906C136.308 181.907 137.671 181.23 138.723 180.004C142.526 170.803 143.801 159.221 145.069 137.321C146.159 118.5 146.905 103.931 132.716 103.931C118.527 103.931 109.204 113.38 109.204 131.821C109.204 152.765 125.677 173.709 131.069 180.004Z" fill="#2887C3"/>
<path d="M134.874 155.088C135.482 155.796 136.27 156.188 137.086 156.187C137.903 156.188 138.691 155.796 139.298 155.088C141.497 149.769 142.234 143.075 142.967 130.416C143.597 119.537 144.028 111.115 135.826 111.115C127.624 111.115 122.236 116.577 122.236 127.236C122.236 139.343 131.758 151.449 134.874 155.088Z" fill="#28AAE1"/>
</svg>
