<svg width="1003" height="165" viewBox="0 0 1003 165" fill="none" xmlns="http://www.w3.org/2000/svg">
<path d="M67.1913 70.5739C77.9029 73.9809 83.2587 81.2818 83.2587 92.9632C83.2587 104.645 79.3636 113.892 71.0864 120.707C62.8092 127.521 51.1238 131.415 35.0563 131.415H0L22.884 13.627H59.401C79.3636 13.627 89.5884 21.9013 89.5884 37.9632C89.5884 44.7774 87.6408 51.1048 84.2325 56.9455C80.8243 62.7862 74.9816 67.6535 67.1913 70.5739ZM39.9252 107.565C45.768 107.565 50.15 106.105 53.0714 103.184C55.9927 100.264 57.4534 96.3703 57.4534 91.9898C57.4534 85.1756 53.0714 81.7685 44.7942 81.7685H35.0563L30.1874 107.565H39.9252ZM63.2961 46.2376C63.2961 43.3172 62.3223 40.8836 60.8617 39.4234C59.401 37.9632 56.4796 36.9898 53.0714 36.9898H43.8204L38.9515 62.2995H45.768C52.0976 62.2995 56.4796 60.8393 59.401 57.4323C61.8354 54.9986 63.2961 51.1048 63.2961 46.2376Z" fill="#F59E0B"/>
<path d="M159.701 98.3179H115.394V98.8046C115.394 107.566 119.289 111.946 126.592 111.946C133.896 111.946 140.712 109.026 146.555 103.672L154.832 123.628C150.937 126.548 146.068 128.982 139.738 130.929C133.409 132.875 126.592 133.849 119.776 133.849C110.038 133.849 102.248 130.929 96.8917 125.575C91.5359 120.221 88.6145 112.433 88.6145 102.698C88.6145 86.6365 92.9965 73.4949 102.248 63.7604C111.498 54.0259 122.697 48.6719 135.843 48.6719C146.068 48.6719 153.858 52.5657 158.727 60.3533C163.596 68.1409 164.083 81.2825 159.701 98.3179ZM131.461 71.548C128.54 71.548 126.105 72.5214 123.671 74.9551C121.236 77.3887 119.289 80.309 117.828 84.2028H138.764C139.738 75.9285 137.304 71.548 131.461 71.548Z" fill="#F59E0B"/>
<path d="M238.578 98.3175H194.27V98.8042C194.27 107.565 198.166 111.946 205.469 111.946C212.772 111.946 219.589 109.025 225.432 103.671L233.709 123.627C229.814 126.548 224.945 128.981 218.128 131.415C211.799 133.362 204.982 134.335 198.166 134.335C188.428 134.335 180.637 131.415 175.282 126.061C169.926 120.707 167.004 112.919 167.004 103.185C167.004 87.1228 171.386 73.9812 180.637 64.2467C189.888 54.5122 201.087 49.1582 214.233 49.1582C224.458 49.1582 232.248 53.052 237.117 60.8396C241.986 68.6272 242.96 81.2821 238.578 98.3175ZM210.338 71.5476C207.417 71.5476 204.982 72.521 202.548 74.9547C200.113 77.3883 198.166 80.3086 196.705 84.2024H217.641C218.615 75.9281 216.181 71.5476 210.338 71.5476Z" fill="#F59E0B"/>
<path d="M275.095 133.365C260.975 133.365 251.237 126.064 244.907 111.462L252.211 104.648C254.645 110.976 257.566 115.843 261.462 118.763C264.87 121.684 269.739 123.63 276.068 123.63C282.398 123.63 287.754 121.684 292.136 117.79C296.518 113.896 298.952 108.542 298.952 102.215C298.952 96.3739 297.492 91.0199 295.057 86.6393C292.136 82.2588 287.754 78.365 281.911 73.4978C275.582 68.6305 270.713 63.7632 267.304 59.3827C264.383 54.5154 262.435 48.6747 262.435 42.3473C262.435 33.0995 265.357 25.7986 271.199 19.9579C277.042 14.6039 284.346 11.6836 293.597 11.6836C307.23 11.6836 316.967 19.4712 322.81 35.0464L315.02 40.8871C310.151 28.2323 302.848 21.9048 293.11 21.9048C287.267 21.9048 282.398 23.8517 278.503 27.2588C274.608 30.6659 272.66 35.5332 272.66 41.8606C272.66 46.7278 274.121 51.1084 276.555 54.5154C278.99 57.9225 283.372 62.3031 288.728 66.1969C295.057 71.0641 300.413 75.9314 303.821 81.7721C307.23 87.6128 309.177 93.9402 309.177 101.728C309.177 111.462 305.769 119.25 299.439 125.091C293.11 130.445 284.832 133.365 275.095 133.365Z" fill="#1D1D1B"/>
<path d="M348.129 133.363C340.338 133.363 334.009 130.929 329.14 125.575C324.758 120.708 322.323 113.407 322.323 103.673C322.323 88.5841 326.218 75.9293 334.496 65.708C342.773 55.0001 352.998 50.1328 365.17 50.1328C373.447 50.1328 379.777 52.5664 384.159 57.9204C388.541 63.2744 390.975 70.5753 390.975 79.8231C390.975 94.9116 387.08 107.566 378.803 117.788C370.526 128.496 360.301 133.363 348.129 133.363ZM349.589 124.115C357.866 124.115 365.17 119.735 371.499 111.46C377.342 102.699 380.75 92.9647 380.75 81.2833C380.75 74.4691 379.29 69.6018 376.368 65.708C373.447 61.8142 369.065 60.354 363.709 60.354C354.945 60.354 347.642 64.7346 341.799 73.4956C335.956 82.2567 333.035 92.4779 333.035 104.159C333.035 110.487 334.496 115.354 337.417 119.248C340.338 122.168 344.233 124.115 349.589 124.115Z" fill="#1D1D1B"/>
<path d="M447.942 0C453.785 0 458.653 1.9469 463.035 5.84071L458.167 13.6283C455.245 10.2212 452.324 8.76106 447.942 8.76106C444.047 8.76106 440.638 10.2212 438.204 12.6549C435.769 15.5752 433.822 19.9558 432.848 25.7965L427.979 51.5929H443.073L441.125 59.8673H426.032L406.069 164.513H395.844L416.294 59.8673H407.53L409.477 51.5929H417.754L422.623 26.2832C424.571 17.0354 427.492 10.2212 431.387 5.84071C435.769 1.9469 441.125 0 447.942 0Z" fill="#1D1D1B"/>
<path d="M470.339 60.3559L461.088 107.082C460.114 112.922 460.114 117.303 461.088 120.223C462.062 122.657 464.496 124.117 468.391 124.117C473.26 124.117 477.642 122.17 482.024 118.276L483.972 126.551C478.616 131.418 472.286 133.365 464.496 133.365C451.837 133.365 447.455 124.604 450.863 107.568L460.114 60.3559H450.376L452.324 52.0816H462.062L466.931 26.2852H477.155L472.286 52.0816H493.223L491.762 60.3559H470.339Z" fill="#1D1D1B"/>
<path d="M577.942 33.5859L573.073 59.8691L542.886 74.9576L566.744 90.0461L561.875 114.382L519.515 83.7187L522.923 64.2496L577.942 33.5859Z" fill="#F59E0B"/>
<path d="M701.613 51.5918H724.984L709.403 131.415H685.059L686.519 122.654C680.19 129.955 671.912 133.848 661.688 133.848C654.871 133.848 649.028 131.415 644.646 126.061C640.264 120.707 638.317 112.919 638.317 103.185C638.317 87.6095 642.212 74.4679 650.489 64.2467C658.766 54.0255 668.991 49.1582 681.163 49.1582C690.414 49.1582 696.744 53.052 699.178 60.8396L701.613 51.5918ZM674.347 110.972C677.755 110.972 681.163 109.512 684.085 106.592C687.006 103.671 688.954 99.7777 689.927 94.4237L690.414 90.5299C691.388 84.6892 691.388 80.3086 689.927 77.3883C688.467 74.4679 686.032 72.521 682.624 72.521C677.755 72.521 673.373 75.4414 669.965 80.7954C666.557 86.1494 665.096 92.4768 665.096 98.8042C665.583 106.592 668.504 110.972 674.347 110.972Z" fill="#1D1D1B"/>
<path d="M833.074 133.849C822.85 133.849 814.572 131.902 808.73 128.008L817.007 108.052C818.954 109.513 821.389 110.973 824.797 112.433C828.205 113.893 831.127 114.38 834.535 114.38C840.378 114.38 843.299 112.433 843.299 108.052C843.299 105.132 840.865 102.212 835.996 99.2913C825.771 94.4241 820.415 87.1232 820.415 77.3887C820.415 68.6276 823.336 61.8135 829.179 56.4595C835.022 51.1055 843.299 48.6719 854.011 48.6719C863.262 48.6719 871.539 50.6188 877.868 54.5126L867.644 73.4949C863.262 70.0878 858.393 68.6276 853.037 68.6276C847.681 68.6276 845.247 70.5745 845.247 74.4683C845.247 77.3887 847.681 79.8223 852.063 82.2559C862.775 87.6099 868.131 95.3975 868.131 105.619C868.131 114.38 865.209 121.681 858.88 126.548C852.55 131.415 843.786 133.849 833.074 133.849Z" fill="#1D1D1B"/>
<path d="M952.363 14.1172H927.045L873 131.418H898.318L952.363 14.1172Z" fill="#F59E0B"/>
<path d="M944.573 114.382L999.592 83.7187L1003 64.2496L960.153 33.5859L955.284 57.4355L979.629 73.0107L949.442 88.0992L944.573 114.382Z" fill="#F59E0B"/>
<path d="M571.613 131.412H630.04L634.909 107.076H602.287L619.815 14.1113H594.497L571.613 131.412Z" fill="#1D1D1B"/>
<path d="M746.407 14.1137L724.01 131.415H747.381L749.329 121.193C751.763 129.954 758.093 133.848 768.318 133.848C780.003 133.848 789.741 128.981 797.531 119.246C805.321 109.512 809.217 96.3703 809.217 79.8216C809.217 69.6004 807.269 61.8128 802.887 56.4588C798.992 51.1048 793.149 48.6712 786.333 48.6712C776.108 48.6712 767.831 52.565 761.501 60.3526L770.752 13.627H746.407V14.1137ZM763.449 76.9013C766.37 73.9809 769.778 72.5208 773.186 72.5208C779.029 72.5208 782.437 76.4146 782.437 84.2022C782.437 91.0163 780.49 96.857 777.082 102.698C773.673 108.052 769.778 110.972 764.909 110.972C761.501 110.972 759.067 109.512 757.606 106.105C756.145 103.184 756.145 98.3172 757.119 92.4765L757.606 89.5562C758.58 84.2022 760.527 80.3084 763.449 76.9013Z" fill="#1D1D1B"/>
</svg>
