<svg id="icon" height="512" viewBox="0 0 128 128" width="512" xmlns="http://www.w3.org/2000/svg"><path d="m100.094 49.063-8.654-1.783v22.24l8.655-1.783a3.5 3.5 0 0 0 2.792-3.426v-11.822a3.5 3.5 0 0 0 -2.793-3.426z" fill="#9297ab"/><path d="m91.439 70.521a1 1 0 0 1 -1-1v-22.241a1 1 0 0 1 1.2-.979l8.655 1.783a4.516 4.516 0 0 1 3.591 4.406v11.821a4.516 4.516 0 0 1 -3.591 4.406l-8.653 1.783a1.006 1.006 0 0 1 -.202.021zm1-22.014v19.786l7.453-1.536a2.508 2.508 0 0 0 1.994-2.447v-11.821a2.508 2.508 0 0 0 -1.994-2.447z" fill="#2f3a5a"/><path d="m29.49 107.644-5.509-34.644h-12.3l5.813 36.554a6.076 6.076 0 0 0 12-1.908z" fill="#5fc4f8"/><path d="m29.491 107.642-5.509-34.642h-3.694l5.154 32.4a6.073 6.073 0 0 1 -6 7.031 5.406 5.406 0 0 1 -.7-.041 6.075 6.075 0 0 0 10.745-4.748z" fill="#3dbce9"/><path d="m23.489 115.675a7.045 7.045 0 0 1 -6.989-5.965l-5.812-36.554a1 1 0 0 1 .988-1.156h12.3a1 1 0 0 1 .988.843l5.509 34.646a7.077 7.077 0 0 1 -6.989 8.188zm-10.641-41.675 5.629 35.4a5.076 5.076 0 1 0 10.023-1.6l-5.373-33.8z" fill="#2f3a5a"/><path d="m5.769 44.069h24.839a0 0 0 0 1 0 0v33.485a0 0 0 0 1 0 0h-24.839a4.769 4.769 0 0 1 -4.769-4.769v-23.947a4.769 4.769 0 0 1 4.769-4.769z" fill="#5fc4f8"/><path d="m30.608 44.06v33.433c42.992 6.117 58.03 28.841 58.03 28.841v-91.114s-15.038 22.723-58.03 28.84z" fill="#d9e2e9"/><path d="m30.611 70.18v7.37h-24.844a4.766 4.766 0 0 1 -4.767-4.764v-7.37a4.766 4.766 0 0 0 4.767 4.764z" fill="#3dbce9"/><g opacity=".5"><path d="m88.636 98.962v7.37s-15.036-22.722-58.025-28.842v-7.37c42.989 6.12 58.025 28.842 58.025 28.842z" fill="#d1ccec"/></g><path d="m30.608 78.554h-24.839a5.775 5.775 0 0 1 -5.769-5.769v-23.947a5.775 5.775 0 0 1 5.769-5.769h24.839a1 1 0 0 1 1 1v33.485a1 1 0 0 1 -1 1zm-24.839-33.485a3.773 3.773 0 0 0 -3.769 3.769v23.947a3.773 3.773 0 0 0 3.769 3.769h23.839v-31.485z" fill="#2f3a5a"/><path d="m88.638 107.333a1 1 0 0 1 -.833-.447c-.148-.224-15.354-22.43-57.337-28.4a1 1 0 0 1 -.859-.99v-33.436a1 1 0 0 1 .859-.99c41.982-5.97 57.188-28.179 57.332-28.403a1 1 0 0 1 1.833.553v91.114a1 1 0 0 1 -1 1zm-57.03-30.705c34.606 5.142 50.911 20.772 56.03 26.786v-85.274c-5.119 6.019-21.423 21.644-56.03 26.786z" fill="#2f3a5a"/><path d="m89.409 13.325a4.518 4.518 0 0 0 -4.518 4.518v85.867a4.518 4.518 0 1 0 9.037 0v-85.866a4.518 4.518 0 0 0 -4.519-4.519z" fill="#81dafc"/><g opacity=".5"><path d="m93.93 95.955v7.759a4.522 4.522 0 0 1 -9.044 0v-7.759a4.522 4.522 0 1 0 9.044 0z" fill="#3dbce9"/></g><g fill="#2f3a5a"><path d="m89.409 109.228a5.525 5.525 0 0 1 -5.518-5.518v-85.866a5.518 5.518 0 1 1 11.036 0v85.866a5.525 5.525 0 0 1 -5.518 5.518zm0-94.9a3.522 3.522 0 0 0 -3.518 3.519v85.863a3.518 3.518 0 0 0 7.036 0v-85.866a3.522 3.522 0 0 0 -3.518-3.519z"/><path d="m127 59.4h-9.892a1 1 0 0 1 0-2h9.892a1 1 0 0 1 0 2z"/><path d="m114.662 95.6a1 1 0 0 1 -.707-.293l-8.873-8.873a1 1 0 0 1 1.418-1.414l8.873 8.873a1 1 0 0 1 -.707 1.707z"/><path d="m105.789 32.074a1 1 0 0 1 -.707-1.707l8.873-8.874a1 1 0 0 1 1.414 1.414l-8.869 8.874a1 1 0 0 1 -.711.293z"/><path d="m114.333 45.021a1 1 0 0 1 -.373-1.929l7.283-2.919a1 1 0 0 1 .744 1.856l-7.283 2.919a1 1 0 0 1 -.371.073z"/><path d="m121.951 78a1 1 0 0 1 -.393-.081l-7.957-3.4a1 1 0 1 1 .786-1.839l7.957 3.4a1 1 0 0 1 -.394 1.92z"/></g><path d="m46.3 48.28a1 1 0 0 1 -.261-1.966 94.033 94.033 0 0 0 31.421-15 1 1 0 1 1 1.255 1.558 96.308 96.308 0 0 1 -32.152 15.373 1.01 1.01 0 0 1 -.263.035z" fill="#fff"/></svg>