<svg width="245" height="188" viewBox="0 0 245 188" fill="none" xmlns="http://www.w3.org/2000/svg">
  <g filter="url(#filter0_d)">
    <path d="M139.398 3L106 61.4473L139.398 119.895H205.602L239 61.4473L205.602 3H139.398Z" fill="white"/>
  </g>
  <g filter="url(#filter1_d)">
    <path d="M39.3978 62L6 120.447L39.3978 178.895H105.602L139 120.447L105.602 62H39.3978Z" fill="white"/>
  </g>
  <path d="M206.737 67.9126C206.329 66.68 205.261 65.8216 203.879 65.6156C203.228 65.5185 202.482 65.5599 201.6 65.7415C200.061 66.0583 198.92 66.1789 198.087 66.2023C201.231 60.9038 203.788 54.8616 205.259 49.1738C207.639 39.9769 206.368 35.7871 204.881 33.892C200.948 28.8759 195.21 26.1811 188.287 26.0987C184.594 26.0536 181.352 26.7814 179.661 27.3047C178.086 27.0274 176.393 26.8726 174.617 26.8439C171.287 26.7909 168.344 27.5155 165.83 29.0047C164.438 28.5349 162.204 27.8726 159.625 27.45C153.557 26.4558 148.667 27.2305 145.09 29.7526C140.759 32.8063 138.751 38.112 139.122 45.5223C139.24 47.875 140.559 55.0334 142.635 61.8221C143.828 65.7243 145.101 68.9646 146.417 71.4541C148.283 74.9843 150.281 77.0631 152.523 77.8097C153.779 78.2276 156.063 78.5202 158.464 76.5239C158.769 76.8918 159.175 77.2575 159.714 77.5971C160.398 78.0279 161.235 78.38 162.071 78.5886C165.084 79.3403 167.905 79.1523 170.313 78.0987C170.328 78.5261 170.339 78.9344 170.349 79.287C170.364 79.8589 170.38 80.4196 170.401 80.944C170.544 84.4898 170.786 87.2468 171.502 89.1759C171.541 89.2819 171.594 89.4437 171.65 89.6152C172.007 90.707 172.605 92.5348 174.124 93.9662C175.698 95.449 177.602 95.9037 179.346 95.9037C180.22 95.9037 181.054 95.7892 181.786 95.6327C184.395 95.0746 187.357 94.2247 189.5 91.1789C191.526 88.2996 192.511 83.963 192.689 77.1299C192.713 76.9367 192.734 76.7521 192.754 76.5764L192.797 76.2152L193.274 76.2571L193.397 76.2654C196.054 76.3863 199.302 75.8239 201.298 74.8989C202.874 74.1688 207.926 71.5066 206.737 67.9126Z" fill="#0E0F0D"/>
  <path d="M202.194 68.6114C194.294 70.2379 193.751 67.5684 193.751 67.5684C202.092 55.2154 205.578 39.5351 202.57 35.6975C194.361 25.229 180.151 30.1799 179.914 30.3083L179.838 30.322C178.277 29.9986 176.53 29.8061 174.567 29.774C170.993 29.7157 168.281 30.7094 166.224 32.2667C166.224 32.2667 140.875 21.8436 142.054 45.3756C142.305 50.3817 149.243 83.2548 157.519 73.3256C160.543 69.6947 163.466 66.6248 163.466 66.6248C164.917 67.5872 166.655 68.0782 168.477 67.9019L168.618 67.7821C168.574 68.2328 168.594 68.6737 168.675 69.1957C166.543 71.5731 167.17 71.9904 162.908 72.8661C158.595 73.7532 161.129 75.3323 162.783 75.7454C164.788 76.2457 169.427 76.9546 172.561 72.575L172.436 73.0748C173.271 73.7426 173.858 77.4183 173.76 80.7507C173.661 84.0828 173.596 86.3705 174.254 88.1575C174.912 89.9444 175.568 93.965 181.171 92.7669C185.852 91.7655 188.278 89.1708 188.615 84.8423C188.855 81.7653 189.397 82.2203 189.431 79.4691L189.866 78.1668C190.367 73.9956 189.945 72.6498 192.829 73.2757L193.53 73.3372C195.653 73.4335 198.431 72.9963 200.062 72.2399C203.573 70.6136 205.656 67.8979 202.194 68.6114Z" fill="url(#paint0_linear)"/>
  <path d="M167.708 47.6142C166.996 47.5153 166.351 47.6068 166.025 47.8534C165.842 47.992 165.785 48.1527 165.769 48.2633C165.729 48.5562 165.934 48.8802 166.061 49.0472C166.418 49.5202 166.94 49.8453 167.457 49.9168C167.532 49.9275 167.607 49.9322 167.681 49.9322C168.543 49.9322 169.327 49.2623 169.396 48.7678C169.482 48.1485 168.581 47.7357 167.708 47.6145V47.6142ZM191.291 47.6339C191.223 47.1484 190.358 47.01 189.536 47.124C188.716 47.238 187.921 47.6076 187.987 48.0941C188.04 48.4724 188.725 49.1183 189.535 49.1183C189.603 49.1183 189.673 49.1138 189.742 49.104C190.283 49.0292 190.68 48.6864 190.868 48.4889C191.155 48.1877 191.322 47.8521 191.291 47.6339Z" fill="#C4C4C4"/>
  <path d="M204.822 68.4265C204.521 67.5174 203.552 67.225 201.941 67.5569C197.158 68.5421 195.446 67.8597 194.883 67.4464C198.601 61.7939 201.659 54.9611 203.309 48.5862C204.09 45.5664 204.522 42.7619 204.557 40.476C204.596 37.9671 204.168 36.1235 203.285 34.9972C199.725 30.4569 194.5 28.0215 188.176 27.9547C183.828 27.9059 180.154 29.0165 179.442 29.3288C177.942 28.9566 176.307 28.7281 174.527 28.6989C171.263 28.6461 168.442 29.4261 166.106 31.0161C165.091 30.6391 162.469 29.7406 159.262 29.2249C153.718 28.3341 149.312 29.0091 146.168 31.2322C142.417 33.885 140.685 38.627 141.021 45.3262C141.133 47.58 142.42 54.5136 144.451 61.1536C147.123 69.8932 150.029 74.8407 153.086 75.8585C153.443 75.9776 153.856 76.0608 154.311 76.0608C155.426 76.0608 156.793 75.5592 158.216 73.8523C159.951 71.775 161.745 69.748 163.597 67.7741C164.799 68.4178 166.119 68.7773 167.469 68.8134C167.472 68.8486 167.476 68.8839 167.479 68.9189C167.246 69.1955 167.019 69.4761 166.796 69.7607C165.861 70.946 165.666 71.1929 162.654 71.8117C161.798 71.9882 159.523 72.4562 159.489 74.048C159.453 75.7872 162.179 76.5176 162.489 76.5951C163.571 76.8655 164.614 76.9988 165.608 76.9988C168.026 76.9988 170.154 76.2056 171.855 74.6708C171.802 80.871 172.061 86.9805 172.807 88.842C173.418 90.3659 174.91 94.0901 179.624 94.0899C180.316 94.0899 181.077 94.0095 181.915 93.8303C186.834 92.7778 188.971 90.6074 189.797 85.8227C190.239 83.2656 190.998 77.1595 191.355 73.8841C192.109 74.1188 193.078 74.2262 194.127 74.2259C196.313 74.2259 198.837 73.7622 200.419 73.0291C202.196 72.2051 205.404 70.1833 204.822 68.4265ZM193.107 46.2939C193.091 47.2608 192.957 48.1387 192.816 49.0549C192.664 50.0404 192.506 51.0593 192.467 52.2961C192.428 53.4997 192.578 54.7511 192.724 55.9614C193.018 58.4059 193.32 60.9225 192.151 63.4056C191.957 63.0622 191.784 62.7072 191.633 62.3427C191.488 61.9912 191.172 61.4265 190.736 60.6449C189.036 57.6023 185.055 50.4773 187.093 47.57C187.7 46.7046 189.24 45.8148 193.107 46.2939ZM188.42 29.9126C194.087 30.0375 198.57 32.1535 201.743 36.2014C204.177 39.3063 201.497 53.434 193.737 65.6221C193.659 65.523 193.581 65.4243 193.502 65.3259L193.404 65.2034C195.409 61.8981 195.017 58.6278 194.668 55.7284C194.524 54.5385 194.389 53.4146 194.423 52.3589C194.459 51.2401 194.607 50.2803 194.751 49.3524C194.927 48.2089 195.106 47.0257 195.057 45.6308C195.094 45.4845 195.108 45.3116 195.089 45.1064C194.963 43.7689 193.433 39.7657 190.314 36.1425C188.609 34.1607 186.121 31.943 182.725 30.4471C184.185 30.1449 186.183 29.8631 188.42 29.9126ZM156.71 72.6031C155.143 74.4839 154.061 74.1233 153.705 74.005C151.386 73.233 148.695 68.3409 146.323 60.5834C144.27 53.8709 143.071 47.1211 142.976 45.2284C142.676 39.2424 144.13 35.0706 147.297 32.8287C152.451 29.1806 160.925 31.3642 164.33 32.4716C164.281 32.5199 164.23 32.5649 164.182 32.614C158.594 38.2463 158.727 47.8693 158.74 48.4576C158.74 48.6845 158.759 49.0059 158.785 49.4478C158.881 51.0664 159.06 54.0788 158.582 57.4901C158.138 60.6602 159.117 63.763 161.268 66.003C161.489 66.2325 161.721 66.4509 161.963 66.6574C161.006 67.6808 158.925 69.9439 156.71 72.6031ZM162.681 64.6512C160.948 62.8457 160.16 60.3344 160.521 57.7606C161.026 54.157 160.839 51.0184 160.739 49.3322C160.725 49.0963 160.713 48.8895 160.706 48.7264C161.522 48.004 165.305 45.9811 168.002 46.598C169.233 46.8793 169.983 47.716 170.295 49.1551C171.909 56.6059 170.509 59.7114 169.384 62.207C169.152 62.7211 168.932 63.207 168.745 63.7097L168.6 64.0984C168.233 65.0809 167.892 65.9946 167.68 66.862C165.837 66.8567 164.044 66.0709 162.681 64.6509V64.6512ZM162.964 74.6994C162.426 74.5653 161.942 74.3322 161.658 74.1389C161.895 74.0276 162.317 73.8759 163.049 73.7253C166.592 72.9976 167.139 72.4838 168.334 70.9696C168.608 70.6223 168.918 70.2289 169.348 69.7495L169.349 69.749C169.989 69.0332 170.282 69.1546 170.814 69.3746C171.244 69.5523 171.664 70.091 171.834 70.6838C171.914 70.9638 172.004 71.4951 171.709 71.9087C169.213 75.3967 165.576 75.3519 162.964 74.6994ZM181.505 91.9198C177.171 92.8467 175.636 90.6395 174.625 88.1163C173.972 86.4874 173.651 79.1418 173.879 71.0298C173.882 70.9219 173.866 70.8177 173.837 70.7196C173.81 70.5259 173.77 70.3344 173.716 70.1464C173.377 68.9661 172.552 67.9788 171.563 67.5694C171.17 67.4069 170.448 67.1086 169.581 67.33C169.766 66.5696 170.087 65.7109 170.435 64.7811L170.58 64.39C170.745 63.9491 170.951 63.4923 171.169 63.0087C172.346 60.3978 173.959 56.8215 172.208 48.7423C171.553 45.7162 169.364 44.2384 166.045 44.5817C164.055 44.7872 162.235 45.5884 161.327 46.0479C161.132 46.1465 160.953 46.2419 160.787 46.3347C161.04 43.2858 161.997 37.5877 165.578 33.9826C167.833 31.7131 170.836 30.5921 174.495 30.6526C181.704 30.7703 186.327 34.463 188.936 37.5403C191.184 40.1918 192.402 42.8629 192.887 44.3036C189.234 43.9327 186.749 44.6525 185.489 46.4501C182.749 50.3601 186.988 57.9491 189.026 61.5964C189.4 62.2648 189.722 62.8425 189.824 63.088C190.487 64.6931 191.346 65.7647 191.973 66.5468C192.166 66.7865 192.352 67.019 192.494 67.2221C191.387 67.5405 189.4 68.2762 189.581 71.9538C189.435 73.799 188.396 82.4384 187.868 85.4908C187.171 89.5233 185.685 91.0253 181.505 91.9201V91.9198ZM199.595 71.257C198.463 71.7812 196.569 72.1744 194.771 72.2589C192.784 72.3517 191.772 72.0368 191.534 71.8429C191.423 69.5512 192.277 69.3118 193.182 69.0583C193.324 69.0186 193.462 68.9796 193.596 68.9329C193.679 69.0005 193.771 69.0676 193.87 69.1334C195.467 70.1854 198.316 70.2989 202.337 69.4703L202.381 69.4616C201.839 69.9677 200.911 70.647 199.595 71.257Z" fill="#C4C4C4"/>
  <path fill-rule="evenodd" clip-rule="evenodd" d="M74.3511 155L72.4785 154.363C72.4785 154.363 72.7072 144.864 69.2808 144.182C66.9974 141.545 69.6471 32.3635 77.869 143.818C77.869 143.818 75.0367 145.227 74.5342 147.636C73.9858 150 74.3511 155 74.3511 155Z" fill="white"/>
  <path fill-rule="evenodd" clip-rule="evenodd" d="M74.3511 155L72.4785 154.363C72.4785 154.363 72.7072 144.864 69.2808 144.182C66.9974 141.545 69.6471 32.3635 77.869 143.818C77.869 143.818 75.0367 145.227 74.5342 147.636C73.9858 150 74.3511 155 74.3511 155Z" fill="#737373"/>
  <path fill-rule="evenodd" clip-rule="evenodd" d="M75.3566 145.82C75.3566 145.82 91.7559 135.092 87.9182 112.774C84.2185 96.547 75.4937 91.2288 74.5344 89.1832C73.484 87.7287 72.4786 85.1836 72.4786 85.1836L73.1642 130.319C73.1642 130.365 71.748 144.138 75.3571 145.82" fill="white"/>
  <path opacity="0.7" fill-rule="evenodd" clip-rule="evenodd" d="M75.3566 145.82C75.3566 145.82 91.7559 135.092 87.9182 112.774C84.2185 96.547 75.4937 91.2288 74.5344 89.1832C73.484 87.7287 72.4786 85.1836 72.4786 85.1836L73.1642 130.319C73.1642 130.365 71.748 144.138 75.3571 145.82" fill="url(#paint1_linear)"/>
  <path fill-rule="evenodd" clip-rule="evenodd" d="M71.5198 146.409C71.5198 146.409 56.1254 135.954 57.0391 117.546C57.9069 99.1366 68.7785 90.0911 70.8798 88.4548C72.2505 87.0003 72.296 86.4545 72.3876 85C73.3469 87.0456 73.1642 115.591 73.3008 118.954C73.7117 131.909 72.5702 143.955 71.5198 146.409Z" fill="white"/>
  <path fill-rule="evenodd" clip-rule="evenodd" d="M71.5198 146.409C71.5198 146.409 56.1254 135.954 57.0391 117.546C57.9069 99.1366 68.7785 90.0911 70.8798 88.4548C72.2505 87.0003 72.296 86.4545 72.3876 85C73.3469 87.0456 73.1642 115.591 73.3008 118.954C73.7117 131.909 72.5702 143.955 71.5198 146.409Z" fill="#B7B7B7"/>
  <defs>
    <filter id="filter0_d" x="100" y="0" width="145" height="128.895" filterUnits="userSpaceOnUse" color-interpolation-filters="sRGB">
      <feFlood flood-opacity="0" result="BackgroundImageFix"/>
      <feColorMatrix in="SourceAlpha" type="matrix" values="0 0 0 0 0 0 0 0 0 0 0 0 0 0 0 0 0 0 127 0"/>
      <feOffset dy="3"/>
      <feGaussianBlur stdDeviation="3"/>
      <feColorMatrix type="matrix" values="0 0 0 0 0 0 0 0 0 0 0 0 0 0 0 0 0 0 0.25 0"/>
      <feBlend mode="normal" in2="BackgroundImageFix" result="effect1_dropShadow"/>
      <feBlend mode="normal" in="SourceGraphic" in2="effect1_dropShadow" result="shape"/>
    </filter>
    <filter id="filter1_d" x="0" y="59" width="145" height="128.895" filterUnits="userSpaceOnUse" color-interpolation-filters="sRGB">
      <feFlood flood-opacity="0" result="BackgroundImageFix"/>
      <feColorMatrix in="SourceAlpha" type="matrix" values="0 0 0 0 0 0 0 0 0 0 0 0 0 0 0 0 0 0 127 0"/>
      <feOffset dy="3"/>
      <feGaussianBlur stdDeviation="3"/>
      <feColorMatrix type="matrix" values="0 0 0 0 0 0 0 0 0 0 0 0 0 0 0 0 0 0 0.25 0"/>
      <feBlend mode="normal" in2="BackgroundImageFix" result="effect1_dropShadow"/>
      <feBlend mode="normal" in="SourceGraphic" in2="effect1_dropShadow" result="shape"/>
    </filter>
    <linearGradient id="paint0_linear" x1="172.992" y1="29.0273" x2="172.992" y2="92.9862" gradientUnits="userSpaceOnUse">
      <stop stop-color="#444444"/>
      <stop offset="1" stop-color="#444444" stop-opacity="0"/>
    </linearGradient>
    <linearGradient id="paint1_linear" x1="72.4786" y1="115.502" x2="88.5001" y2="115.502" gradientUnits="userSpaceOnUse">
      <stop stop-color="#0E0F0D"/>
      <stop offset="1" stop-color="#444444"/>
    </linearGradient>
  </defs>
</svg>
