<svg width="363" height="276" viewBox="0 0 363 276" fill="none" xmlns="http://www.w3.org/2000/svg">
<path d="M331.431 73.7076C291.559 18.143 207.305 -4.36387 124.424 19.8765C80.6398 32.7291 38.4083 58.4341 17.4717 108.2C-19.9512 197.181 58.5982 225.576 109.969 234.633C134.818 239.027 158.204 246.38 179.588 256.393C218.057 274.416 286.123 290.377 337.464 215.324C374.678 160.925 358.012 110.681 331.431 73.7076Z" fill="#3F3D56"/>
<path d="M100.203 84.6771C100.084 83.7804 99.8745 82.9435 99.5459 82.1066C99.4563 81.7778 99.2473 81.5387 98.9486 81.3892C98.7694 81.3294 98.5603 81.3294 98.3512 81.3892L95.3347 81.8376C95.0958 81.8376 94.827 81.9571 94.6478 82.1066C94.2595 82.525 94.6478 83.1826 94.6179 83.7505C94.6179 84.3782 94.0504 84.9162 93.4232 85.0955C92.796 85.2151 92.139 85.2151 91.5118 85.0656L87.3006 84.4081C88.555 84.0195 89.66 83.2723 90.4963 82.2859C91.0638 81.6283 91.3326 80.4029 90.556 80.104C90.3171 80.0442 90.0782 80.0143 89.8392 80.0442C87.9278 80.0442 86.4344 78.46 84.6424 77.8025C82.283 76.9656 79.6846 77.7427 78.1614 79.7453L80.4014 79.8649C80.6104 79.8649 80.8195 79.8947 80.9987 80.0143C81.4766 80.4328 80.8792 81.2099 80.939 81.8376C81.0286 82.6745 82.1336 82.8239 82.94 82.9136C83.7464 83.0032 84.7918 83.6608 84.4035 84.3782C80.2819 85.8129 76.0707 81.5984 71.7101 82.1066C70.6051 82.2261 69.5597 82.6745 68.5144 82.9435C61.9437 84.6173 55.1938 80.1637 48.4738 81.1202C46.9805 81.3593 45.517 81.7479 44.1133 82.2859C43.1874 82.5848 42.2616 82.9136 41.5746 83.601C40.9176 84.2885 40.6488 85.4841 41.276 86.2014C39.5437 86.3509 37.8114 86.1715 36.1389 85.7232C37.0648 86.2313 37.6322 87.2177 37.6322 88.2638C34.9442 88.7121 32.3159 89.5192 29.8071 90.655C30.285 91.4321 30.8226 92.1495 31.4199 92.807L28.0151 95.0188C29.1799 95.3177 29.7773 96.872 29.0903 97.8584C30.285 97.3203 31.0317 95.9454 32.3159 95.6764C33.1522 95.4971 34.0183 95.8259 34.7949 96.1547C35.5714 96.4834 36.4674 96.7823 37.3037 96.5432C38.14 96.3041 38.7373 95.2281 38.1997 94.5406C41.724 93.5244 45.3677 92.9565 49.0413 92.8369C49.3101 92.807 49.6088 92.8668 49.8477 92.9864C50.3256 93.3151 50.2061 94.0325 50.1762 94.6004C50.1464 95.1683 50.5944 95.9454 51.132 95.6764C50.5346 96.2144 51.0424 97.2008 51.6397 97.7687C52.237 98.3366 52.924 99.0838 52.5656 99.8311C52.476 100.01 52.3266 100.16 52.237 100.369C51.9682 100.937 52.3864 101.595 52.8941 101.953C53.4018 102.312 53.9992 102.581 54.3576 103.119C54.716 103.657 54.5368 104.554 53.9394 104.613L52.1773 102.372C51.58 102.999 51.1618 103.776 50.9826 104.613C52.8344 106.138 53.133 109.246 51.58 111.07C50.7736 111.996 49.6386 112.564 48.653 113.311C47.6674 114.058 46.7416 115.075 46.7416 116.3C46.7416 118.422 46.5624 120.395 47.3688 122.368C48.8322 126.014 50.5346 129.541 52.4461 132.949C52.9538 133.845 53.6109 134.832 54.6264 134.981C53.3421 131.843 52.1773 128.674 51.1618 125.446C51.8189 125.446 52.5954 125.506 53.0136 126.044C53.3421 126.493 53.2824 127.12 53.372 127.658C53.4914 128.196 53.7005 128.704 53.9992 129.153L60.1219 140.092C60.6296 140.989 61.2269 141.975 62.1827 142.334C62.8099 142.573 63.5267 142.513 64.0941 142.872C64.5421 143.141 64.8408 143.619 65.2888 143.858C66.5731 144.576 68.3651 143.201 69.5896 144.068C69.948 144.307 70.1571 144.695 70.4856 144.964C71.5907 145.921 73.4424 145.293 74.7267 146.01C75.5629 146.489 75.9811 147.415 76.4291 148.252C77.5341 150.374 79.3262 152.437 81.7155 152.586C82.4622 152.646 83.2387 152.496 83.9555 152.676C84.6723 152.855 85.3891 153.483 85.2995 154.23C85.0904 155.485 85.7176 156.89 85.5683 158.175C85.2696 160.507 81.9843 161.523 81.6856 163.825C81.6259 164.333 81.7155 164.871 81.596 165.349C81.4467 165.947 80.9987 166.455 80.8195 167.053C80.5208 168.188 81.3272 169.354 82.2232 170.131C83.1192 170.908 84.1944 171.566 84.7022 172.642C85.2099 173.778 84.971 175.123 85.1502 176.378C85.5086 179.098 87.868 181.101 90.2872 182.416C91.0339 182.804 91.8104 183.193 92.2883 183.88C92.9155 184.777 92.8558 185.973 93.0648 187.019C93.5726 189.649 95.7827 191.801 95.8424 194.491C95.8723 196.404 94.827 198.108 94.1998 199.901C93.0051 203.368 93.3934 207.194 95.2451 210.363C95.723 211.17 96.2905 211.917 96.619 212.784C97.2163 214.338 97.0073 216.071 97.5747 217.626C98.2915 219.688 100.293 221.392 100.113 223.574C101.009 225.457 103.01 226.383 105.041 226.951L108.655 227.968C109.342 228.147 110.059 228.356 110.776 228.207C111.493 228.057 112.15 227.489 112.12 226.772C110.358 226.383 108.536 225.935 107.072 224.859C105.609 223.783 104.623 221.87 105.161 220.136C105.43 219.329 105.967 218.403 105.43 217.745C105.131 217.357 104.593 217.267 104.265 216.908C103.757 216.37 103.936 215.474 104.295 214.816C104.653 214.159 105.221 213.591 105.37 212.843C105.519 212.006 105.131 211.14 104.414 210.721C105.071 210.482 105.698 210.094 106.206 209.585C106.684 209.047 106.893 208.211 106.535 207.613C107.64 207.762 108.924 207.822 109.641 206.985C110.208 206.327 110.178 205.311 109.94 204.474C109.701 203.637 109.342 202.801 109.312 201.904C111.851 202.023 114.36 201.934 116.898 201.635C116.54 200.409 115.704 199.363 114.599 198.736C115.734 198.556 116.779 197.181 117.137 196.075C117.496 194.969 117.406 193.774 117.197 192.638C117.108 192.339 117.108 192.04 117.167 191.741C117.287 191.323 117.705 191.084 118.063 190.875L123.708 187.617C124.037 187.437 124.365 187.228 124.604 186.959C125.201 186.272 125.112 185.225 124.813 184.359C124.514 183.492 124.037 182.685 123.917 181.788C123.559 179.068 126.456 177.125 127.441 174.585C127.83 173.598 127.889 172.493 127.979 171.417C128.069 170.281 128.069 168.936 127.173 168.188C126.336 167.471 124.992 167.65 124.126 166.963C123.32 166.365 123.021 165.17 122.155 164.691C121.349 164.243 120.333 164.542 119.437 164.333C117.854 163.974 116.869 162.151 115.256 161.971C114.36 161.882 113.314 162.33 112.568 161.792C111.911 161.314 111.881 160.387 111.761 159.58C111.313 157.04 109.342 155.067 106.804 154.619C105.878 154.469 104.862 154.529 104.056 154.021C103.249 153.513 102.891 152.526 102.234 151.809C101.218 150.643 99.6057 150.225 98.1123 149.866L91.9896 148.431C90.9144 148.162 89.5107 148.043 88.9134 148.999C88.7342 149.358 88.6147 149.747 88.555 150.135C88.107 151.6 86.763 152.616 85.2398 152.646C84.732 151.779 83.8958 151.122 82.9102 150.853C82.283 150.673 81.6259 150.673 81.0286 150.404C79.7144 149.776 79.1768 148.192 79.804 146.877C79.8339 146.847 79.8339 146.788 79.8638 146.758C80.5806 145.472 80.3715 143.858 79.2963 142.812C78.251 141.886 76.7576 141.647 75.3539 141.736C74.9955 140.929 75.5928 140.032 76.2499 139.465C76.907 138.897 77.7134 138.299 77.8627 137.432C78.1016 136.057 76.3395 135.041 75.0253 135.43C73.7112 135.818 72.8749 137.133 72.3075 138.389C71.9789 139.106 71.7101 139.883 71.2024 140.481C70.6947 141.079 69.8883 141.527 69.1117 141.348C68.0365 141.079 67.6184 139.763 67.3795 138.687C67.0509 137.223 66.7224 135.728 66.812 134.234C66.9016 132.739 67.3795 131.185 68.4845 130.169C70.2765 128.495 73.0541 128.674 75.5032 128.943C74.9357 128.286 75.0552 127.21 75.6824 126.582C76.3395 125.984 77.2654 125.775 78.1016 125.984C78.8483 126.134 79.5054 126.522 79.9832 127.12C80.6702 127.957 80.8792 129.093 81.387 130.079C81.8947 131.066 83.0894 131.843 84.0451 131.335C84.8814 130.886 85.0008 129.721 84.7918 128.824C84.5827 127.927 84.1347 127.001 84.2243 126.074C84.3736 124.281 86.2254 123.205 87.868 122.457C89.5107 121.71 91.3923 120.724 91.6611 118.93C91.6611 118.572 91.7507 118.243 91.8702 117.914C92.0494 117.615 92.3182 117.376 92.6168 117.227C97.3955 114.058 102.294 110.86 107.759 109.127C108.058 109.037 108.088 109.127 108.357 109.067C108.775 108.828 108.506 108.17 108.118 107.931C107.729 107.692 107.222 107.483 107.102 107.005C107.042 106.676 107.222 106.347 107.281 105.988C107.401 105.151 106.415 104.374 105.639 104.703C105.191 104.105 106.057 103.448 106.774 103.238C108.894 102.671 111.045 102.312 113.255 102.192C113.494 102.162 113.762 102.192 114.001 102.312C114.36 102.581 114.33 103.149 114.061 103.507C113.792 103.866 113.404 104.105 113.076 104.404C112.359 105.122 112.09 106.168 112.389 107.124C113.524 107.692 114.778 108.29 116.032 108.11C117.287 107.931 118.422 106.496 117.824 105.361C117.257 104.314 115.614 104.075 115.316 102.91C114.987 101.565 116.898 100.339 116.48 99.024C116.301 98.4561 115.704 98.0975 115.256 97.679C114.181 96.6329 113.852 95.0189 114.449 93.614C112.986 93.883 111.463 93.4048 110.417 92.3587C109.462 91.3723 108.685 89.848 107.311 89.8778C106.057 89.9077 104.982 91.4022 103.787 90.9539C103.488 90.8343 103.19 90.6251 102.921 90.7446C102.742 90.8642 102.622 91.0734 102.592 91.2827C102.294 92.7174 102.801 94.3314 102.025 95.5867C101.189 96.9318 99.2174 97.1111 98.1721 98.3366C97.6046 98.9942 97.3955 99.8908 96.8878 100.578C96.3801 101.266 95.275 101.714 94.6776 101.116C95.3048 99.8311 94.9464 98.2768 93.8414 97.41C93.2739 97.0513 92.6467 96.7225 92.0195 96.5133C91.3027 96.2144 90.6158 95.8259 89.9587 95.3775C89.6302 95.1982 89.3912 94.8993 89.212 94.5705C89.0627 94.152 89.0926 93.7037 89.2718 93.2853C89.899 91.462 91.5118 90.1469 93.4232 89.848C94.2296 89.7284 95.1854 89.7882 95.7529 89.1605C96.0515 88.8317 96.2009 88.3236 96.619 88.204C96.8878 88.1443 97.1566 88.1741 97.3955 88.2937L100.442 89.3697C100.77 89.5192 101.159 89.579 101.517 89.5491C101.905 89.4893 102.174 89.1605 102.144 88.7719C102.055 88.2638 101.278 88.0247 101.338 87.5166C101.368 87.3372 101.457 87.1878 101.607 87.0981C103.847 84.707 107.013 83.4516 110.298 83.6608C110.686 84.2885 110.059 85.0357 109.551 85.6036C109.044 86.1715 108.625 87.128 109.253 87.5166C109.492 87.6361 109.79 87.6959 110.059 87.6959C110.806 87.7856 111.552 88.0247 112.239 88.3535C113.285 88.8018 114.33 89.3099 115.345 89.8778C115.256 89.2203 115.166 88.5029 115.435 87.8752C115.704 87.2476 116.421 86.7693 117.048 87.0085C117.645 87.2476 117.974 88.0546 118.601 88.1144C119.467 88.204 119.796 86.9487 119.437 86.1417C119.079 85.3346 118.362 84.6771 118.302 83.8103C118.272 83.2125 118.481 82.4951 118.004 82.1365C117.824 82.0169 117.645 81.9571 117.466 81.9571L105.788 79.8051C105.101 79.6855 104.086 79.7752 104.056 80.4925C104.026 80.8811 104.384 81.2697 104.235 81.6283C104.056 82.0169 103.518 81.987 103.13 82.1066C102.503 82.3158 102.204 83.063 102.264 83.6907C102.383 84.3483 102.622 84.9461 102.981 85.4841C102.114 85.0656 100.95 85.0058 100.203 84.6771Z" fill="#CCCCCC"/>
<path d="M90.8844 74.7836C89.3911 74.2755 87.7185 74.7836 86.7329 76.039C86.5537 76.2781 86.3745 76.6368 86.5537 76.9058C86.7927 77.2943 87.3601 77.1449 87.8081 76.9954C88.4353 76.7563 89.1521 76.7563 89.7793 76.9357C90.1975 77.0851 90.5559 77.3242 90.9441 77.4438C91.3623 77.6231 91.8103 77.5335 92.1687 77.2644C92.4375 76.9656 92.4673 76.5471 92.4673 76.1286C92.4972 75.8596 92.4076 75.5906 92.2284 75.3814C92.0791 75.2917 91.87 75.232 91.6908 75.232C91.2727 75.1423 90.8844 74.9331 90.6156 74.6043" fill="#CCCCCC"/>
<path d="M95.0956 73.588C94.5579 73.5582 94.1099 73.9766 94.0801 74.4847C94.0801 74.6342 94.1099 74.7836 94.1697 74.9331C94.6774 75.0825 95.215 75.1124 95.7228 75.0227C96.2604 74.9331 96.6785 74.5445 96.798 74.0364C96.2006 74.1559 95.5436 74.0364 95.0358 73.7076" fill="#CCCCCC"/>
<path d="M109.222 71.6452C107.848 71.9441 106.504 72.3925 105.25 72.9903C106.475 73.4685 107.251 74.694 107.161 76.0091C107.102 76.2482 107.102 76.5172 107.191 76.7563C107.341 77.115 107.759 77.2346 108.147 77.3242C108.804 77.5335 109.521 77.6231 110.208 77.5933C110.925 77.5634 111.552 77.1748 111.91 76.5471C112 76.2482 112.119 75.9792 112.269 75.7102C113.165 74.3353 115.823 76.0091 116.779 74.6641C117.107 74.1858 117.077 73.4984 117.525 73.1397C117.764 72.9903 118.003 72.8707 118.302 72.8408C120.243 72.4522 122.184 72.1832 124.126 72.0039C125.052 71.9142 126.276 71.5854 126.276 70.6589C122.782 69.9714 119.138 70.4496 115.972 72.0338C114.807 72.6017 113.314 73.8272 112.179 73.05C111.761 72.7511 111.791 72.0039 111.223 71.6751C110.596 71.3762 109.849 71.4958 109.222 71.6452Z" fill="#CCCCCC"/>
<path d="M120.662 73.7674L122.304 74.0962C121.14 74.0364 120.124 74.963 120.094 76.1287C120.094 76.2183 120.094 76.308 120.094 76.3977C121.617 76.9058 123.32 76.3977 124.933 76.4873C126.545 76.5471 128.427 77.7128 128.158 79.3268C128.069 79.8051 127.8 80.2833 127.949 80.7615C128.039 81.0903 128.337 81.3294 128.517 81.6283C128.845 82.256 128.576 83.063 128.158 83.6309C127.74 84.1988 127.143 84.6472 126.784 85.2748C125.859 86.7992 126.366 88.742 126.934 90.4457C127.083 91.0734 127.382 91.6712 127.8 92.1793C128.636 93.0461 129.98 93.1358 131.175 93.1657C132.041 93.1657 133.056 93.1358 133.624 92.4483C134.341 91.5517 133.833 90.1767 134.311 89.1306C134.759 88.1741 135.864 87.7856 136.849 87.4867C138.671 86.9487 140.553 86.5003 142.285 85.7232C144.436 84.7368 146.467 83.1826 148.826 83.063C149.483 83.0331 150.17 83.0929 150.827 82.9136C151.484 82.7342 152.081 82.1663 152.022 81.5088C151.992 80.9409 151.514 80.5224 151.126 80.104C150.737 79.6855 150.469 79.0279 150.797 78.5796L157.009 77.4139C156.561 76.2183 156.233 74.6342 157.248 73.857C157.607 73.588 158.115 73.4685 158.413 73.1098C158.951 72.5419 158.682 71.5257 158.055 71.0474C157.428 70.5692 156.621 70.4496 155.845 70.36C153.127 70.1209 150.379 70.2703 147.661 70.4198C142.315 70.7186 136.999 71.0175 131.653 71.2865C130.577 71.3463 129.353 71.2567 128.367 71.6153C127.531 71.9142 126.934 72.4821 125.978 72.6914C124.186 73.05 122.245 72.781 120.662 73.7674Z" fill="#CCCCCC"/>
<path d="M150.08 86.7693C149.901 86.7394 149.752 86.7693 149.602 86.8889C149.513 86.9786 149.453 87.128 149.453 87.2476C149.334 87.8454 149.483 88.473 149.811 88.9812C150.17 89.4893 150.767 89.7882 151.364 89.7284C152.111 89.6387 152.649 89.0111 153.336 88.6823C154.381 88.204 158.831 87.4568 155.755 85.8129C154.68 85.245 154.023 85.7531 153.186 86.1118C152.201 86.6199 151.126 86.8291 150.08 86.7693Z" fill="#3F3D56"/>
<path d="M177.02 72.8408C176.662 72.9903 176.363 73.2593 176.154 73.588C175.975 73.9467 176.094 74.3951 176.423 74.5744C176.542 74.6342 176.692 74.6342 176.841 74.6342L178.304 74.6641C178.932 74.694 179.708 74.8135 179.858 75.4113C179.977 75.8596 179.708 76.4275 180.037 76.7563C180.186 76.8759 180.365 76.9357 180.544 76.9357C181.022 77.0552 181.53 77.0851 182.008 76.9954C183.083 76.6966 182.516 76.0689 182.844 75.4711C183.352 74.5744 183.262 75.1124 184.158 74.6043C184.815 74.2157 185.682 73.5582 185.144 72.6017C184.218 70.9877 178.454 72.1235 177.02 72.8408Z" fill="#3F3D56"/>
<path d="M205.871 72.0039L205.035 72.1235C203.124 72.3925 201.212 72.6316 199.36 73.1995C200.167 73.5283 201.003 73.7076 201.839 73.7973C202.317 73.8272 202.765 73.8869 203.243 74.0065C204.049 74.2456 204.886 74.8733 205.662 74.5445C206.14 74.3353 206.319 73.8272 206.708 73.5582C206.976 73.3788 208.052 73.0799 208.171 72.8707C209.097 71.4061 206.588 71.9142 205.871 72.0039Z" fill="#3F3D56"/>
<path d="M209.575 75.8596C208.44 76.4873 207.394 77.2645 206.439 78.1611C206.05 78.5497 205.632 78.998 205.662 79.5361C205.722 80.2534 206.469 80.6719 207.155 80.9708L209.873 82.1066C210.202 81.6283 209.903 81.0006 209.575 80.5523C209.246 80.104 208.828 79.5659 208.977 79.0279C209.157 78.4003 209.903 78.191 210.56 78.0715C211.606 77.8921 214.413 77.922 214.085 76.2183C213.666 74.2755 210.65 75.2917 209.575 75.8596Z" fill="#3F3D56"/>
<path d="M209.037 187.975C208.768 188.723 208.768 189.619 209.186 190.247C209.694 190.994 210.68 191.263 211.546 191.054C212.412 190.815 213.189 190.337 213.756 189.649C214.264 189.081 214.712 188.424 215.01 187.706C215.458 186.6 215.787 185.435 215.936 184.269L216.773 179.845C216.952 178.859 216.952 175.81 215.13 176.827C214.622 177.096 213.487 179.218 212.979 179.845C212.054 180.921 211.904 181.997 211.426 183.313C210.859 184.956 209.605 186.331 209.037 187.975Z" fill="#3F3D56"/>
<path d="M304.969 210.632C304.372 210.392 303.804 210.123 303.237 209.795C302.669 211.319 302.371 212.933 302.371 214.577L306.432 212.276C307.03 211.917 307.747 211.439 307.717 210.751C307.717 210.572 307.627 210.392 307.478 210.303C307.388 210.273 307.299 210.243 307.179 210.273C306.582 210.333 306.014 210.632 305.447 210.841C304.879 211.05 304.222 211.17 303.685 210.841" fill="#CCCCCC"/>
<path d="M326.413 212.007C325.965 212.126 325.517 212.276 325.099 212.485C324.173 212.963 323.516 213.86 322.68 214.487C321.874 215.085 320.918 215.414 319.962 215.743C319.693 215.982 319.813 216.49 320.112 216.699C320.44 216.879 320.799 216.968 321.187 216.938C322.172 216.968 323.218 216.968 324.084 216.49C324.562 216.161 325.04 215.802 325.458 215.414C326.473 214.577 327.668 214.009 328.892 213.471C329.34 213.292 329.729 213.053 330.087 212.754C330.834 212.007 330.893 210.871 329.818 210.602C328.922 210.392 327.25 211.738 326.413 212.007Z" fill="#CCCCCC"/>
<path d="M335.911 205.789C336 204.743 335.642 203.727 334.866 203.01C334.866 204.026 334.836 205.132 334.238 205.969C333.82 206.567 333.193 206.985 332.745 207.553C332.297 208.121 332.088 209.047 332.626 209.556C332.954 209.825 333.372 209.944 333.79 209.974C334.836 210.094 336.06 210.153 336.777 209.406C337.165 208.988 337.374 208.39 337.852 208.061C338.031 207.971 338.211 207.882 338.33 207.732C338.539 207.403 338.211 206.985 337.852 206.865C337.494 206.746 337.106 206.806 336.717 206.686C336.329 206.567 336.03 206.178 336.21 205.849" fill="#CCCCCC"/>
<path d="M319.066 168.248C318.529 168.368 317.931 168.428 317.394 168.338C316.468 168.159 315.721 167.471 314.975 166.873C313.183 165.498 311.002 164.751 308.762 164.691C306.702 164.661 304.641 165.199 302.64 164.811C302.759 165.528 303.386 166.096 304.073 166.425C304.76 166.754 305.477 166.903 306.164 167.232C307.239 167.74 308.105 168.637 308.553 169.743C308.762 170.251 308.912 170.789 309.24 171.237C309.897 172.134 311.182 172.343 312.287 172.253C313.75 172.164 315.273 171.745 316.617 172.283C317.663 172.702 318.409 173.598 319.275 174.316C320.142 175.033 321.366 175.541 322.352 175.033C320.231 174.346 318.798 172.343 318.827 170.131C319.813 170.221 322.62 170.191 322.471 168.517C322.292 167.142 319.903 168.099 319.066 168.248Z" fill="#CCCCCC"/>
<path d="M306.283 179.696C306.462 178.739 307.418 177.903 307.119 176.976C306.91 176.348 306.163 176.019 305.506 176.019C304.849 175.99 304.192 176.199 303.505 176.229C303.057 176.199 302.639 176.199 302.191 176.259C300.877 176.468 300.041 177.873 298.786 178.351C298.04 178.65 297.174 178.59 296.367 178.799C294.575 179.277 293.44 180.981 292.186 182.326C290.155 184.538 287.527 186.062 284.6 186.75C283.584 186.989 282.479 187.138 281.673 187.796C280.598 188.663 280.329 190.187 280.09 191.562C279.433 195.328 278.417 199.034 277.073 202.651L281.344 203.189C282.151 203.279 282.987 203.398 283.763 203.159C284.331 202.95 284.868 202.651 285.376 202.292C287.288 201.127 289.408 200.35 291.618 200.051C292.723 199.901 293.918 199.871 294.963 200.29C296.009 200.708 296.905 201.635 296.994 202.771C297.92 202.472 298.936 202.741 299.623 203.398C300.28 204.086 300.728 204.953 300.877 205.909C300.996 206.507 301.116 207.194 301.654 207.433C302.102 207.643 302.609 207.403 303.087 207.374C304.73 207.254 306.074 209.167 307.687 208.838C309.419 208.48 309.837 205.909 311.51 205.371C312.465 205.072 313.839 205.431 314.287 204.534C314.705 203.727 313.869 202.83 313.959 201.934C314.048 200.828 315.362 200.379 316.348 199.901C319.783 198.287 321.395 193.684 319.753 190.277C318.767 188.244 316.826 186.66 316.467 184.448C316.199 182.745 316.856 180.742 315.781 179.397C315.213 178.71 314.287 178.351 313.959 177.514C313.75 177.006 313.839 176.408 313.72 175.87C313.6 175.332 313.122 174.764 312.615 174.914C311.062 175.332 310.554 180.114 309.747 181.28C308.463 183.044 305.865 181.878 306.283 179.696Z" fill="#CCCCCC"/>
<path d="M277.581 170.042C277.043 169.892 276.476 169.743 275.968 169.952C275.46 170.161 275.162 170.908 275.58 171.297C278.776 171.177 281.971 171.058 285.137 171.476C288.781 171.984 292.395 173.21 296.068 172.851C293.978 172.224 291.857 171.745 289.707 171.387L286.123 170.699C285.167 170.49 284.181 170.34 283.226 170.251C281.135 170.071 279.582 170.609 277.581 170.042Z" fill="#CCCCCC"/>
<path d="M280.777 158.923C280.508 158.893 280.18 158.893 280.06 159.102C279.941 159.311 280.09 159.61 280.001 159.849C279.911 160.178 279.463 160.268 279.134 160.208C278.806 160.148 278.418 160.058 278.119 160.208C277.79 160.417 277.671 160.836 277.79 161.194C277.91 161.553 278.119 161.882 278.388 162.151C278.836 162.719 279.343 163.227 279.911 163.675C281.016 164.482 282.509 164.871 283.196 166.066C283.286 166.305 283.435 166.485 283.644 166.664C283.973 166.873 284.421 166.724 284.779 166.544L286.034 165.977C286.273 165.887 286.452 165.767 286.631 165.588C286.93 165.199 286.75 164.661 286.512 164.243C286.273 163.825 285.974 163.406 286.004 162.898C286.093 162.031 287.198 161.702 287.646 160.985C288.094 160.238 287.796 159.311 287.856 158.444C287.915 157.428 288.542 156.113 287.527 155.366C286.661 154.708 285.825 155.306 285.197 156.023C283.824 157.518 283.196 159.132 280.777 158.923Z" fill="#CCCCCC"/>
<path d="M288.363 143.799C288.781 144.606 289.677 145.114 290.155 145.891C290.663 146.758 290.603 147.864 291.141 148.7C291.708 149.567 292.843 150.016 293.142 151.002C293.5 152.078 292.694 153.363 293.321 154.29C293.799 154.888 294.665 155.007 295.262 154.559C295.292 154.529 295.322 154.499 295.352 154.469C295.89 153.871 295.86 152.945 295.292 152.377C294.934 152.048 294.396 151.899 294.098 151.51C293.948 151.271 293.829 151.032 293.799 150.763C293.62 149.986 293.65 149.149 293.888 148.372C293.978 148.162 293.978 147.953 293.948 147.744C293.799 147.355 293.261 147.326 292.873 147.116C292.007 146.698 292.037 145.472 292.186 144.516C292.096 145.144 289.827 144.068 289.588 143.709C289.11 142.992 289.379 141.617 289.289 140.81C288.244 141.348 287.855 142.812 288.363 143.799Z" fill="#CCCCCC"/>
<path d="M265.545 156.412C265.127 155.934 264.5 155.455 263.932 155.724C263.514 155.934 263.395 156.532 263.544 156.98C263.753 157.428 264.052 157.787 264.47 158.056C265.635 159.012 266.889 159.879 267.905 161.015C269.726 163.018 270.682 165.737 272.683 167.591C273.071 168.009 273.609 168.308 274.177 168.398C274.744 168.457 275.401 168.069 275.461 167.501C275.521 167.023 275.192 166.604 274.863 166.246C274.087 165.409 273.251 164.632 272.534 163.765C272.205 163.436 271.996 162.988 271.937 162.509C271.937 162.031 272.355 161.553 272.833 161.673C272.265 161.523 271.877 160.596 271.041 160.417C270.354 160.268 270.204 160.686 269.368 160.357C267.845 159.7 266.62 157.608 265.545 156.412Z" fill="#CCCCCC"/>
<path d="M301.892 110.771C301.444 110.651 301.026 110.472 300.578 110.292C299.443 109.934 297.92 110.801 298.069 111.996C298.159 112.773 298.906 113.311 299.324 113.999C299.921 115.015 299.772 116.3 299.443 117.436C299.354 117.795 299.204 118.123 298.995 118.422C298.697 118.721 298.368 118.99 297.98 119.17C296.427 120.036 295.053 121.202 293.948 122.607C293.828 122.726 293.739 122.906 293.709 123.055C293.649 123.444 294.067 123.743 294.276 124.071C294.784 124.819 294.426 125.805 294.456 126.732C294.426 127.001 294.545 127.24 294.784 127.389C295.083 127.539 295.441 127.27 295.62 126.971C296.158 125.984 295.77 124.37 296.785 123.892C296.994 123.802 297.203 123.773 297.353 123.593C297.562 123.324 297.353 122.906 297.472 122.607C297.621 122.129 298.308 122.099 298.816 122.129C299.712 122.159 300.578 122.039 301.415 121.77C301.743 121.68 302.042 121.531 302.281 121.262C302.579 120.873 302.549 120.335 302.49 119.827C302.191 117.376 301.415 115.015 300.22 112.893C301.116 113.012 302.101 113.102 302.908 112.624C303.356 112.355 303.864 111.578 303.655 111.04C303.296 110.203 302.669 110.92 301.892 110.771Z" fill="#CCCCCC"/>
<path d="M185.771 124.191C185.89 124.759 185.98 125.387 185.801 125.955C185.622 126.522 185.024 126.971 184.457 126.821C184.009 126.702 183.77 126.253 183.441 125.895C181.709 124.012 177.797 125.118 176.721 122.786C176.273 121.83 176.572 120.694 176.273 119.708C175.885 118.512 174.75 117.735 173.496 117.825C172.958 117.914 172.421 118.064 171.913 118.303C168.538 119.648 164.954 120.545 161.34 120.963C160.653 120.993 159.966 121.142 159.309 121.322C157.816 121.86 156.8 123.235 156.083 124.669C155.367 126.074 154.829 127.598 153.843 128.854C152.828 130.169 151.394 131.096 150.05 132.082C149.543 132.411 149.095 132.859 148.796 133.397C148.497 133.995 148.527 134.682 148.557 135.34L148.826 143.35C148.856 144.396 148.915 145.442 149.363 146.369C149.931 147.535 151.066 148.282 151.872 149.298C152.679 150.344 153.097 151.63 153.067 152.975C153.037 153.513 153.007 154.14 153.425 154.469C153.664 154.619 153.963 154.708 154.262 154.708L165.103 155.605C167.015 155.754 169.135 156.023 170.36 157.458C170.957 158.146 171.405 159.132 172.331 159.192C172.719 159.222 173.108 159.072 173.466 159.042C174.452 158.953 175.288 159.7 175.825 160.507C176.632 161.762 177.02 163.227 176.871 164.721C176.781 165.648 176.482 166.545 176.423 167.501C176.184 171.058 179.2 174.136 179.26 177.693C179.29 179.786 178.304 181.728 177.349 183.582C178.902 185.943 177.617 189.111 178.245 191.861C178.842 194.491 181.022 196.554 181.56 199.184C181.799 200.379 181.829 201.874 182.874 202.502C183.352 202.741 183.86 202.83 184.367 202.801C187.503 202.83 190.58 202.143 193.387 200.738C194.701 200.081 196.075 199.124 196.284 197.66C196.463 196.494 195.866 195.179 196.493 194.162C197.21 192.967 199.032 193.057 200.077 192.13C201.78 190.635 200.465 187.766 201.152 185.614C201.78 183.671 203.9 182.655 204.945 180.921C205.364 180.174 205.662 179.367 205.841 178.53C206.319 176.528 206.618 174.495 206.737 172.433C206.767 171.177 206.857 169.922 207.006 168.697C208.141 161.643 215.13 156.89 217.4 150.105C217.609 149.448 217.728 148.581 217.131 148.222C216.802 148.073 216.414 148.013 216.026 148.103L211.038 148.73C210.411 148.82 209.754 148.88 209.186 148.611C208.619 148.342 208.201 147.624 208.5 147.086C209.336 145.562 207.604 143.589 206.827 142.035C204.736 137.791 202.257 133.756 199.39 129.96C199.211 129.78 199.092 129.511 199.062 129.242L200.495 129.302C200.017 127.569 199.211 125.686 197.568 125.058C196.613 124.699 195.597 124.819 194.582 124.878C191.685 125.088 188.608 124.639 185.771 124.191Z" fill="#3F3D56"/>
<path d="M194.582 85.4542C195.328 86.2612 196.165 87.0981 197.27 87.2476C199.181 87.4867 200.585 85.514 201.451 83.7804C201.511 84.7069 202.317 85.3944 203.213 85.3645C203.691 85.2749 204.139 85.0955 204.557 84.8564C208.38 82.7641 212.621 81.6582 216.982 81.6582C216.892 80.9708 217.34 80.3431 217.997 80.1936C218.893 80.0143 219.67 80.7914 220.088 81.5685C220.506 82.3756 220.775 83.2723 221.462 83.87C222.149 84.4678 223.463 84.4379 223.702 83.5711C223.971 82.7342 223.104 82.0468 222.388 81.5685C221.671 81.0903 220.924 80.1936 221.402 79.4763C225.046 78.6693 228.719 77.8622 232.453 77.6829C233.08 77.7128 233.707 77.5932 234.305 77.3541C234.872 77.0851 235.32 76.4275 235.171 75.8298C233.498 76.2183 231.766 75.5608 230.78 74.1559C235.947 73.7375 241.473 73.3489 246.072 75.7999C246.61 76.9954 243.802 77.9818 244.579 79.0279C244.818 79.3567 245.295 79.4165 245.714 79.4165C248.909 79.4763 252.105 79.5361 255.271 79.0578C256.436 78.8785 257.601 78.6394 258.735 78.7888C260.677 79.0279 262.319 80.3132 264.201 80.7316C264.978 80.911 265.844 80.911 266.501 80.4626C267.158 80.0143 267.427 78.998 266.889 78.4003C268.681 76.6368 271.638 77.0851 273.997 77.922C276.357 78.7589 278.597 80.104 281.076 80.3132C282.868 80.4327 284.69 79.9545 286.452 80.2833C287.557 80.4626 288.602 80.9708 289.677 81.2696C291.738 81.8376 293.889 81.718 296.039 81.7479C301.475 81.8077 306.851 82.8837 311.898 84.9162C312.555 85.1254 313.153 85.4841 313.66 85.9623C314.138 86.4704 314.377 87.2476 314.049 87.8752L308.822 87.0981C309.3 88.0546 310.584 88.2339 311.629 88.5627C312.675 88.8915 313.72 90.0273 313.123 90.924C312.018 90.5653 311.002 91.7011 310.435 92.7173C309.867 93.7336 309.18 94.9889 308.016 95.0487C306.97 95.1085 305.686 94.2118 304.999 95.0188C305.955 96.2144 306.761 97.4997 307.418 98.8746C308.105 100.279 308.583 102.073 307.657 103.328C307.508 103.567 307.299 103.717 307.03 103.806C306.283 103.986 305.805 103.089 305.268 102.521C304.581 101.834 303.565 101.624 302.669 101.296C301.773 100.967 300.788 100.309 300.728 99.3528C300.698 98.755 300.997 98.1871 301.236 97.6192C301.624 96.6927 301.803 95.6764 301.744 94.6602C301.684 93.8531 301.475 92.9864 300.877 92.4185C300.28 91.8506 299.265 91.6712 298.637 92.1793C298.339 92.4184 298.1 92.807 297.712 92.8369C297.025 92.8668 296.517 91.6712 295.979 92.0897C296.039 92.5081 295.949 92.9565 295.74 93.3151C294.128 94.7199 291.649 94.1222 289.558 94.6303C288.572 94.9292 287.617 95.3177 286.721 95.8557C286.392 96.0052 286.123 96.2443 285.914 96.5432C285.645 97.0513 285.944 97.7089 286.392 98.0377C286.87 98.3366 287.437 98.5159 288.005 98.5757C290.544 99.0539 293.142 99.8012 295.143 101.445C297.144 103.089 298.458 105.779 297.831 108.29L292.754 103.418C292.933 105.42 293.052 107.453 293.082 109.485C293.112 109.874 293.052 110.292 292.933 110.651C292.574 111.428 291.619 111.697 290.753 111.877C289.827 112.056 289.229 112.953 289.409 113.879C289.409 113.939 289.438 113.999 289.468 114.058C289.767 115.045 290.514 115.822 291.201 116.569C291.888 117.316 292.574 118.213 292.664 119.229C292.754 120.246 291.977 121.411 290.962 121.352C290.185 121.292 289.618 120.604 289.259 119.887C288.901 119.17 288.722 118.392 288.244 117.795C286.721 115.971 283.346 116.749 282.002 114.806C281.315 115.613 281.076 116.689 281.374 117.705C282.002 117.316 282.868 117.675 283.346 118.243C283.824 118.811 284.033 119.558 284.421 120.186C284.929 121.053 285.705 121.83 285.795 122.816C285.765 123.205 285.795 123.563 285.825 123.952C285.944 124.55 286.452 124.998 286.81 125.506C287.646 126.672 287.587 128.316 287.049 129.631C286.512 130.946 285.556 132.082 284.6 133.158C282.957 135.041 281.255 136.924 279.284 138.508C278.716 138.956 278.119 139.405 277.79 140.032C277.462 140.66 277.432 141.527 277.97 142.005C277.581 142.035 276.894 142.214 276.506 142.244C276.357 140.72 276.357 139.166 276.417 137.611C274.893 136.894 273.281 138.837 273.46 140.511C273.639 142.185 274.864 143.53 275.73 144.964C276.357 146.01 276.835 147.236 276.626 148.461C276.417 149.687 275.341 150.793 274.117 150.673C272.175 150.494 271.369 147.714 269.428 147.385C269.249 147.355 269.069 147.355 268.92 147.445C268.621 147.595 268.591 147.983 268.562 148.312C268.472 149.896 268.412 151.57 269.039 153.034C269.965 155.186 272.295 157.01 271.817 159.281C269.159 158.056 267.755 155.067 267.128 152.168C266.501 149.268 266.381 146.279 265.276 143.559C264.41 144.665 262.618 143.739 261.842 142.603C261.095 141.497 260.647 140.242 259.93 139.136C259.213 138.03 258.108 137.044 256.794 136.984C255.42 136.924 254.226 137.88 253.15 138.777C252.284 139.524 251.388 140.272 250.881 141.288C250.134 142.782 250.343 144.516 250.313 146.16C250.283 147.953 249.895 149.836 248.67 151.151C247.446 152.467 245.206 152.915 243.862 151.749C243.145 151.122 242.817 150.225 242.518 149.328C241.054 145.054 239.83 140.72 238.874 136.326C238.635 137.342 237.769 138.628 236.933 138.03C236.754 137.88 236.604 137.671 236.485 137.462C234.902 134.802 232.005 133.188 229.078 132.231C226.151 131.275 223.045 130.827 220.148 129.78C218.505 129.183 216.952 128.405 215.518 127.479C214.772 128.585 214.682 130.019 215.309 131.215C215.966 132.351 217.4 133.008 218.654 132.62C219.311 132.411 219.849 131.962 220.476 131.753C221.103 131.544 221.97 131.634 222.268 132.261C222.537 132.859 222.119 133.576 222.328 134.174C222.627 135.101 224.06 135.19 224.538 136.027C224.896 136.655 224.598 137.522 224.09 138.03C223.582 138.538 222.866 138.837 222.208 139.196C220.118 140.361 218.654 142.334 216.832 143.888C215.011 145.442 212.442 146.548 210.262 145.562C210.77 142.932 207.663 141.019 207.096 138.418C206.917 137.552 207.006 136.655 206.738 135.818C206.349 134.593 205.274 133.786 204.378 132.859C202.228 130.587 201.063 127.539 201.182 124.4C201.242 123.324 201.421 122.218 201.182 121.172C200.943 120.126 200.077 119.11 199.002 119.14C196.553 119.259 193.447 119.439 192.163 117.346C191.715 116.599 191.506 115.493 192.163 114.925C192.64 114.507 193.327 114.567 193.955 114.626L199.51 115.164C200.794 115.284 202.198 115.403 203.333 114.716C204.468 114.029 204.916 112.235 203.9 111.428C203.154 110.83 201.81 110.89 201.571 109.964C201.391 109.186 202.258 108.32 201.78 107.662C201.451 107.214 200.704 107.333 200.256 107.662C199.808 107.991 199.48 108.529 198.972 108.768C198.076 109.216 197.031 108.798 196.075 108.499C195.119 108.2 193.835 108.17 193.387 109.067C192.879 110.053 193.835 111.339 193.327 112.355C192.64 113.67 190.341 112.923 189.415 114.058C188.31 115.344 190.161 117.287 189.803 118.93C188.847 119.409 187.712 119.349 186.816 118.751C185.92 118.153 185.443 117.107 185.562 116.031C185.652 115.284 186.04 114.537 185.771 113.819C185.562 113.251 184.995 112.923 184.457 112.624L179.081 109.635C178.573 110.561 179.2 111.727 180.007 112.415C180.813 113.102 181.799 113.64 182.307 114.567C182.993 115.882 182.516 117.526 181.261 118.273C181.112 118.392 180.903 118.422 180.724 118.363C180.544 118.273 180.425 118.094 180.365 117.884C179.409 115.463 177.976 113.042 175.706 111.787C173.436 110.532 170.151 110.771 168.657 112.923C168.299 113.431 168.06 113.999 167.761 114.537C166.119 117.406 162.595 118.751 159.279 118.661C158.951 118.691 158.622 118.602 158.353 118.452C157.816 118.094 157.846 117.316 157.935 116.659L158.294 113.939C158.353 113.401 158.473 112.773 158.891 112.444C159.488 111.966 160.384 112.265 161.161 112.265C162.356 112.205 163.401 111.398 163.759 110.263C164.088 109.097 163.729 107.871 162.863 107.034C162.505 106.706 162.027 106.287 162.206 105.839C162.356 105.6 162.624 105.42 162.893 105.361C164.297 104.942 165.76 104.853 167.134 104.374C168.508 103.896 169.852 102.91 170.151 101.505C170.24 101.057 170.3 100.548 170.688 100.339C170.897 100.25 171.107 100.22 171.316 100.22C172.869 100.01 173.974 98.6355 173.884 97.0812C174.541 96.6329 175.467 96.9617 176.094 97.4399C176.721 97.9181 177.289 98.5757 178.065 98.7849C179.499 99.1735 180.903 97.8882 182.396 97.8882C183.023 97.8882 183.68 98.0975 184.278 97.8882C184.875 97.679 185.233 97.0812 185.711 96.6329C186.189 96.1845 186.966 95.9155 187.414 96.3938L187.055 93.7037C188.519 94.0624 190.102 93.7934 191.356 92.9266L186.667 91.3424C186.518 91.3125 186.368 91.2229 186.219 91.1033C185.891 90.7446 186.219 90.1767 186.488 89.7583C187.145 88.7719 187.264 87.128 186.159 86.6199C185.413 86.2911 184.576 86.6797 183.86 87.0981L180.455 89.011C180.335 89.6686 181.142 90.0273 181.62 90.4756C182.426 91.193 182.516 92.4483 181.769 93.2554C181.411 93.6738 180.873 93.9129 180.305 93.9129C180.753 94.5107 180.933 95.2878 180.753 96.0052L178.454 96.1845C178.185 96.2443 177.916 96.1845 177.707 96.0351C177.468 95.8259 177.498 95.4373 177.438 95.1085C177.289 94.3314 176.542 93.7635 175.766 93.6439C174.989 93.5244 174.183 93.6738 173.406 93.8531C173.078 93.9727 172.719 93.9727 172.391 93.8233C172.212 93.7037 172.062 93.5244 172.003 93.3151C171.674 92.4782 171.973 91.5218 172.51 90.8343C173.048 90.1468 173.795 89.6088 174.481 89.0409C176.094 87.6361 177.259 85.8129 177.886 83.7804C179.141 83.2424 180.455 82.525 181.739 81.987C183.68 81.0006 185.891 80.5822 188.071 80.7615L192.342 80.8512C193.596 80.8811 194.91 80.911 196.075 81.3892C197.24 81.8674 198.285 82.9136 198.375 84.1988C198.435 84.4977 198.315 84.7966 198.106 84.976C197.927 85.0656 197.748 85.0955 197.568 85.0955C196.254 85.0955 195.747 85.3944 194.582 85.4542Z" fill="#CCCCCC"/>
<path d="M160.414 98.8746C160.743 98.5458 160.892 98.0676 160.743 97.6192C159.907 97.2905 158.981 97.4698 158.324 98.0676C158.055 98.3366 157.846 98.6056 157.667 98.9344C157.099 99.861 156.592 100.967 156.92 101.983C156.98 102.222 157.129 102.402 157.308 102.521C157.458 102.581 157.607 102.611 157.756 102.581C158.384 102.581 159.011 102.551 159.608 102.461C159.996 102.402 160.414 102.312 160.564 101.953C160.743 101.505 160.295 100.967 160.414 100.489C160.504 100.279 160.653 100.07 160.803 99.9207C160.982 99.7713 161.072 99.5322 161.042 99.2931C160.982 99.0539 160.653 98.9344 160.504 99.1436" fill="#3F3D56"/>
<path d="M163.64 94.7199C163.102 94.6004 162.535 94.5705 161.967 94.6004C161.848 94.6004 161.728 94.6303 161.609 94.69C161.489 94.7797 161.429 94.8694 161.4 95.0188C161.161 95.796 161.549 96.6628 162.325 96.9617C162.535 97.0214 162.714 97.0812 162.893 97.2008C163.371 97.5595 163.072 98.3366 163.162 98.9344C163.251 99.5919 163.908 100.16 163.789 100.817C163.699 101.355 163.132 101.744 163.221 102.282C163.311 102.82 164.028 102.999 164.565 103.029C164.894 103.089 165.223 103.059 165.521 102.91C165.82 102.7 166.029 102.402 166.119 102.043C166.357 101.355 166.447 100.638 166.387 99.9207C166.387 99.5919 166.298 99.2632 166.148 98.9942C165.969 98.755 165.79 98.5458 165.581 98.3665C164.536 97.141 165.641 95.2878 163.64 94.7199Z" fill="#3F3D56"/>
<path d="M303.714 191.861C303.714 191.861 222.118 144.994 186.995 153.871C186.995 153.871 112.537 161.882 103.906 179.517C103.906 179.517 80.2516 105.51 71.6201 103.029" stroke="#FF5B4F" stroke-miterlimit="10"/>
<path d="M103.936 179.517C117.615 142.992 240.875 102.551 240.875 102.551C223.373 107.005 186.995 153.871 186.995 153.871C186.995 153.871 110.088 97.8583 71.6201 103.059C71.6201 103.059 240.964 108.619 303.714 191.861" stroke="#FF5B4F" stroke-miterlimit="10"/>
<path d="M71.6206 106.646C73.6 106.646 75.2046 105.04 75.2046 103.059C75.2046 101.078 73.6 99.4724 71.6206 99.4724C69.6412 99.4724 68.0366 101.078 68.0366 103.059C68.0366 105.04 69.6412 106.646 71.6206 106.646Z" fill="url(#paint0_linear)"/>
<path d="M103.936 183.103C105.915 183.103 107.52 181.497 107.52 179.517C107.52 177.536 105.915 175.93 103.936 175.93C101.957 175.93 100.352 177.536 100.352 179.517C100.352 181.497 101.957 183.103 103.936 183.103Z" fill="url(#paint1_linear)"/>
<path d="M240.875 106.138C242.854 106.138 244.459 104.532 244.459 102.551C244.459 100.57 242.854 98.9643 240.875 98.9643C238.896 98.9643 237.291 100.57 237.291 102.551C237.291 104.532 238.896 106.138 240.875 106.138Z" fill="url(#paint2_linear)"/>
<path d="M303.714 195.448C305.694 195.448 307.298 193.842 307.298 191.861C307.298 189.88 305.694 188.274 303.714 188.274C301.735 188.274 300.13 189.88 300.13 191.861C300.13 193.842 301.735 195.448 303.714 195.448Z" fill="url(#paint3_linear)"/>
<path d="M186.996 157.458C188.975 157.458 190.58 155.852 190.58 153.871C190.58 151.89 188.975 150.285 186.996 150.285C185.016 150.285 183.412 151.89 183.412 153.871C183.412 155.852 185.016 157.458 186.996 157.458Z" fill="#6C63FF"/>
<path d="M171.047 62.0507C169.763 63.1267 168.867 64.5016 167.463 65.4581C165.76 66.6238 163.55 67.0721 161.489 67.6998C159.429 68.3275 157.308 69.3138 156.472 71.0175C155.755 72.4821 156.173 74.1559 155.576 75.6504C154.919 77.2346 153.276 78.3405 151.992 79.6257C149.483 82.1364 148.348 85.6036 149.005 88.8317C149.453 91.0734 150.678 93.1358 151.424 95.3177C152.32 97.9779 152.44 100.788 152.559 103.537C152.798 108.738 153.007 113.969 151.842 119.08C151.544 120.365 150.737 139.853 149.184 139.823C153.336 139.465 157.487 139.435 161.669 139.375L224.09 138.777C221.223 135.011 219.371 112.743 218.774 108.32C217.728 100.668 220.267 93.0162 220.566 85.3047C220.596 84.3184 220.596 83.3021 220.207 82.3457C219.789 81.3593 218.923 80.5224 218.624 79.5361C218.206 78.0715 219.043 76.6069 219.072 75.1124C219.132 72.1235 216.086 69.822 213.667 67.6101C211.337 65.488 209.426 63.0669 207.006 60.9746C204.587 58.8824 201.6 57.1189 198.166 56.7901C195.358 56.5211 192.551 57.2683 189.863 57.9857C186.637 58.8525 183.591 59.9285 180.186 59.8687C176.423 59.809 174.093 60.1377 171.047 62.0507Z" fill="#2F2E41"/>
<g opacity="0.1">
<path opacity="0.1" d="M214.025 73.8272C214.114 74.1559 214.234 74.4548 214.413 74.7537C214.383 74.0663 214.204 73.4087 213.935 72.8109C213.905 73.1397 213.965 73.4984 214.025 73.8272Z" fill="black"/>
<path opacity="0.1" d="M153.485 121.8L153.126 121.83C153.276 121.83 153.395 121.83 153.485 121.8Z" fill="black"/>
</g>
<path d="M218.326 229.522C217.938 229.821 217.49 230 217.012 230.06C209.366 231.614 201.66 232.959 193.895 233.407C187.026 233.796 180.126 233.437 173.257 233.108C166.388 232.78 159.518 232.421 152.798 231.046C155.576 225.457 157.338 219.389 157.965 213.172C158.234 210.452 158.324 207.702 158.174 204.953C158.144 204.624 158.115 204.295 158.055 203.966C157.726 201.994 156.95 199.154 157.667 197.719C158.592 195.896 162.117 195.836 163.849 195.478C166.776 194.91 169.733 194.431 172.69 194.013C184.427 192.429 196.314 192.04 208.141 191.682C209.724 191.622 211.636 191.741 212.442 193.116C212.89 193.864 212.89 194.82 212.86 195.717C212.801 197.66 212.83 199.572 212.92 201.515C213.338 210.094 215.16 218.552 218.356 226.533C218.744 227.519 219.102 228.775 218.326 229.522Z" fill="#FBBEBE"/>
<path d="M171.853 123.085C170.599 124.609 168.837 125.656 167.074 126.552C164.954 127.658 162.774 128.615 160.563 129.452C160.115 130.139 160.474 131.036 160.862 131.783C164.357 138.598 169.046 145.353 176.124 148.282C179.768 149.776 183.74 150.135 187.653 150.494C188.877 150.613 190.102 150.703 191.296 150.404C192.491 150.105 193.596 149.388 194.582 148.641C201.063 143.739 205.334 136.446 206.439 128.405C206.528 127.688 206.528 126.821 205.931 126.433C205.573 126.194 205.095 126.253 204.647 126.253C201.78 126.283 199.241 124.161 197.927 121.621C196.613 119.08 196.254 116.151 195.926 113.311C195.926 113.251 179.081 112.893 177.558 112.893C175.198 112.863 174.392 113.162 174.183 115.583C173.914 118.273 173.615 120.903 171.853 123.085Z" fill="#FBBEBE"/>
<path opacity="0.1" d="M171.853 123.085C170.599 124.609 168.837 125.656 167.074 126.552C164.954 127.658 162.774 128.615 160.563 129.452C160.115 130.139 160.474 131.036 160.862 131.783C164.357 138.598 169.046 145.353 176.124 148.282C179.768 149.776 183.74 150.135 187.653 150.494C188.877 150.613 190.102 150.703 191.296 150.404C192.491 150.105 193.596 149.388 194.582 148.641C201.063 143.739 205.334 136.446 206.439 128.405C206.528 127.688 206.528 126.821 205.931 126.433C205.573 126.194 205.095 126.253 204.647 126.253C201.78 126.283 199.241 124.161 197.927 121.621C196.613 119.08 196.254 116.151 195.926 113.311C195.926 113.251 179.081 112.893 177.558 112.893C175.198 112.863 174.392 113.162 174.183 115.583C173.914 118.273 173.615 120.903 171.853 123.085Z" fill="black"/>
<path d="M185.233 119.887C197.934 119.887 208.231 109.583 208.231 96.872C208.231 84.1612 197.934 73.857 185.233 73.857C172.532 73.857 162.236 84.1612 162.236 96.872C162.236 109.583 172.532 119.887 185.233 119.887Z" fill="#FBBEBE"/>
<path d="M202.108 124.161C202.347 127.389 167.701 130.408 166.387 126.433C165.611 127.359 164.177 127.419 163.042 127.031C161.907 126.642 160.951 125.865 159.876 125.327C158.084 124.4 156.053 124.042 154.082 123.713C150.856 123.175 147.093 122.756 144.704 124.998C143.868 125.775 143.3 126.791 142.494 127.569C141.03 128.914 138.999 129.332 137.118 129.96C134.43 130.856 131.921 132.291 129.382 133.546C123.409 136.476 117.077 138.538 110.507 139.644C109.103 139.883 107.699 140.062 106.325 140.391C104.384 140.869 102.443 141.647 101.128 143.141C102.681 145.114 104.892 146.19 107.281 146.967L130.308 154.499C133.773 155.635 137.297 156.801 140.314 158.833C145.361 162.211 148.646 167.74 150.438 173.539C152.23 179.337 152.708 185.465 153.156 191.532C153.365 194.162 153.515 196.912 152.499 199.363C157.875 199.991 163.281 199.901 168.627 199.094C173.764 198.317 178.842 196.853 184.038 196.912C189.713 196.972 195.209 198.795 200.794 199.812C206.379 200.828 212.561 200.828 217.28 197.66C216.265 196.314 216.115 194.372 216.085 192.698L215.966 184.747C215.906 183.791 215.966 182.834 216.145 181.878C216.533 180.174 217.668 178.739 218.385 177.155C219.789 174.077 219.58 170.58 219.669 167.202C219.759 163.825 220.207 160.208 222.507 157.727C224 156.113 226.091 155.186 228.211 154.648C231.825 153.692 235.618 153.602 239.381 153.363C251.597 152.496 263.544 149.388 274.624 144.187C273.967 142.782 272.414 141.975 271.01 141.348C267.695 139.823 264.171 138.239 260.497 138.568C258.735 138.747 256.973 139.345 255.211 139.136C253.538 138.927 252.075 137.97 250.462 137.522C249.237 137.193 247.953 137.133 246.699 136.924C243.802 136.476 241.054 135.28 238.366 134.084L231.556 131.096C229.764 130.318 227.913 129.452 226.658 127.927C226.27 127.419 225.941 126.881 225.493 126.403C224.747 125.596 223.701 125.118 222.656 124.789C221.342 124.34 219.938 124.191 218.564 124.34C217.609 124.52 216.683 124.759 215.787 125.088C211.307 126.253 206.677 124.968 202.108 124.161Z" fill="url(#paint4_linear)"/>
<path opacity="0.1" d="M185.114 225.517C184.815 226.503 184.995 227.549 185.562 228.386C185.95 227.489 185.771 226.473 185.084 225.786L185.114 225.517Z" fill="black"/>
<path d="M172.032 128.914C173.197 128.286 174.452 127.718 175.766 127.688C177.737 127.658 179.529 128.884 180.992 130.229C182.336 131.454 183.591 132.829 184.666 134.294C185.204 135.041 185.711 135.818 185.801 136.745C185.89 137.671 185.383 138.658 184.517 138.897C183.949 138.986 183.382 138.867 182.904 138.568C180.873 137.432 179.35 134.862 177.02 135.131C175.437 135.31 174.362 136.775 173.496 138.12C172.719 139.315 171.943 140.541 171.584 141.916C171.226 143.29 171.405 144.904 172.361 145.951C173.108 146.758 174.213 147.146 175.228 147.565C177.468 148.491 179.529 149.836 181.321 151.51C182.187 152.317 182.993 153.303 183.113 154.499C183.232 155.695 182.336 157.01 181.142 156.92C180.604 156.83 180.096 156.621 179.678 156.292C177.528 154.888 175.348 153.393 172.839 152.885C170.3 152.347 167.642 152.885 165.073 153.274C162.236 153.692 159.399 153.991 156.561 154.17C155.725 154.26 154.859 154.2 154.023 154.021C151.215 153.154 150.379 149.567 150.708 146.967C151.066 144.187 153.097 143.559 155.217 142.185C161.221 138.239 165.671 132.381 172.032 128.914Z" fill="#FBBEBE"/>
<path d="M194.134 128.914C192.969 128.286 191.715 127.718 190.4 127.688C188.429 127.658 186.637 128.884 185.174 130.229C183.83 131.454 182.575 132.829 181.5 134.294C180.962 135.041 180.455 135.818 180.365 136.745C180.276 137.671 180.783 138.658 181.649 138.897C182.217 138.986 182.784 138.867 183.262 138.568C185.293 137.432 186.816 134.862 189.146 135.131C190.729 135.31 191.804 136.775 192.67 138.12C193.447 139.315 194.223 140.541 194.582 141.916C194.94 143.29 194.761 144.904 193.805 145.951C193.059 146.758 191.953 147.146 190.938 147.565C188.698 148.491 186.607 149.836 184.845 151.51C183.979 152.317 183.173 153.303 183.053 154.499C182.934 155.695 183.83 157.01 185.024 156.92C185.562 156.83 186.07 156.621 186.488 156.292C188.638 154.888 190.819 153.393 193.327 152.885C195.866 152.347 198.524 152.885 201.093 153.274C203.9 153.722 206.737 154.021 209.605 154.2C210.441 154.29 211.307 154.23 212.143 154.051C214.951 153.184 215.787 149.597 215.459 146.997C215.1 144.217 213.069 143.589 210.919 142.214C204.945 138.239 200.495 132.381 194.134 128.914Z" fill="#FBBEBE"/>
<path d="M169.314 88.5627C170.658 86.4405 172.241 84.139 174.422 83.8999C177.468 83.5711 179.828 87.3372 182.844 87.8453C186.727 88.473 190.55 83.5114 194.193 85.3346C195.985 86.2313 197.329 88.7121 199.271 88.6823C200.615 88.6524 201.72 87.397 202.616 86.1416C204.109 84.0494 205.453 81.8376 206.588 79.5361C202.885 75.2917 197.479 74.3054 192.461 73.5283L184.009 72.2131C181.978 71.8843 179.887 71.5854 177.886 72.0338C176.064 72.4224 174.362 73.4087 172.689 74.4548C170.718 75.7102 166.059 77.6829 164.864 80.0143C164.028 81.6283 165.193 82.3756 166.268 83.9896C167.254 85.4841 168.299 87.0383 169.314 88.5627Z" fill="#2F2E41"/>
<path opacity="0.1" d="M156.502 140.511C152.828 141.258 149.095 141.497 145.361 141.318C143.898 141.228 142.434 141.079 140.971 141.228C139.209 141.407 137.506 141.975 135.804 142.394C126.904 144.576 117.615 142.454 108.536 141.228C106.923 141.019 105.28 140.839 103.697 141.138C102.234 141.437 100.89 142.095 99.6054 142.842C97.5148 144.038 95.5137 145.353 93.6321 146.847C91.6609 148.402 89.6598 150.374 89.5105 152.885C89.391 155.037 90.7051 157.04 92.2881 158.504C96.5889 162.48 102.98 163.675 108.745 162.599C110.925 162.181 113.075 161.493 115.285 161.254C117.555 161.015 119.855 161.254 122.125 161.134C126.754 160.925 131.175 159.311 135.684 158.205C142.703 156.442 149.961 155.874 157.159 156.531C156.92 156.621 156.651 156.531 156.561 156.292C156.561 156.262 156.531 156.233 156.531 156.203C155.994 154.738 155.964 153.154 155.994 151.6C155.994 147.834 156.173 144.247 156.502 140.511Z" fill="black"/>
<path d="M155.904 140.81C152.231 141.557 148.497 141.796 144.764 141.617C143.301 141.527 141.837 141.378 140.374 141.527C138.612 141.706 136.909 142.274 135.207 142.693C126.306 144.875 117.018 142.752 107.938 141.527C106.326 141.318 104.683 141.138 103.1 141.437C101.637 141.736 100.293 142.394 99.0083 143.141C96.9176 144.337 94.9165 145.652 93.0349 147.146C91.0637 148.7 89.0626 150.673 88.9133 153.184C88.7938 155.336 90.108 157.339 91.6909 158.803C95.9917 162.778 102.383 163.974 108.147 162.898C110.328 162.48 112.478 161.792 114.688 161.553C116.958 161.314 119.258 161.553 121.528 161.433C126.157 161.224 130.577 159.61 135.087 158.504C142.106 156.741 149.364 156.173 156.561 156.83C156.322 156.92 156.054 156.83 155.964 156.591C155.964 156.561 155.934 156.532 155.934 156.502C155.397 155.037 155.367 153.453 155.397 151.899C155.397 148.133 155.576 144.546 155.904 140.81Z" fill="url(#paint5_linear)"/>
<path opacity="0.1" d="M210.351 138.927C214.891 139.973 225.852 140.421 230.511 140.272C232.632 140.212 234.752 140.003 236.903 140.032C240.546 140.032 244.19 140.63 247.834 140.391C252.553 140.062 257.152 138.329 261.841 138.777C264.141 138.986 266.381 139.734 268.561 140.481C270.742 141.228 273.161 142.035 274.714 143.828C276.147 145.472 276.655 147.714 277.133 149.866C277.402 151.062 277.671 152.287 277.432 153.483C276.984 155.754 274.893 157.309 272.892 158.444C270.503 159.819 267.874 160.985 265.127 160.925C263.484 160.895 261.901 160.417 260.348 159.939C255.898 158.534 251.328 156.95 246.669 157.309C243.414 157.548 240.158 158.773 236.962 158.116C235.081 157.727 233.378 156.741 231.586 156.083C227.226 154.499 216.145 154.917 211.516 155.336C211.785 152.736 211.755 150.105 212.024 147.505C212.233 145.502 212.442 143.44 211.785 141.557C211.367 140.331 211.247 139.734 210.351 138.927Z" fill="black"/>
<path d="M210.65 139.524C215.19 140.57 226.151 141.019 230.81 140.869C232.93 140.81 235.051 140.6 237.201 140.63C240.845 140.63 244.489 141.228 248.133 140.989C252.852 140.66 257.451 138.927 262.14 139.375C264.44 139.584 266.68 140.331 268.86 141.079C271.04 141.826 273.46 142.633 275.013 144.426C276.446 146.07 276.954 148.312 277.432 150.464C277.701 151.66 277.969 152.885 277.731 154.081C277.283 156.352 275.192 157.906 273.191 159.042C270.801 160.417 268.173 161.583 265.425 161.523C263.783 161.493 262.2 161.015 260.647 160.537C256.197 159.132 251.627 157.548 246.968 157.906C243.712 158.146 240.457 159.371 237.261 158.713C235.38 158.325 233.677 157.339 231.885 156.681C227.525 155.097 216.444 155.515 211.815 155.934C212.084 153.333 212.054 150.703 212.322 148.103C212.532 146.1 212.741 144.038 212.083 142.155C211.665 140.929 211.546 140.331 210.65 139.524Z" fill="url(#paint6_linear)"/>
<path d="M163.192 94.0026C162.505 93.8233 162.236 92.9266 161.609 92.5679C160.981 92.2092 160.175 92.5081 159.727 93.0162C159.309 93.5841 159.07 94.2716 159.07 94.9591C158.95 98.0676 160.802 100.907 163.669 102.043C163.042 99.3229 162.803 96.5133 162.953 93.7336L163.192 94.0026Z" fill="#FBBEBE"/>
<path d="M207.275 94.0026C207.962 93.8233 208.23 92.9266 208.858 92.5679C209.485 92.2092 210.291 92.5081 210.739 93.0162C211.157 93.5841 211.396 94.2716 211.396 94.9591C211.516 98.0676 209.664 100.907 206.797 102.043C207.424 99.3229 207.663 96.5133 207.514 93.7336L207.275 94.0026Z" fill="#FBBEBE"/>
<g opacity="0.1">
<path opacity="0.1" d="M178.633 160.268C179.2 162.36 179.469 164.512 179.469 166.664C179.469 170.43 178.723 173.688 177.618 175.452C177.528 176.289 177.408 177.125 177.319 177.932C178.872 176.737 180.007 172.821 180.007 168.159C180.007 164.99 179.469 162.151 178.633 160.268Z" fill="black"/>
</g>
<g opacity="0.1">
<path opacity="0.1" d="M187.055 160.268C186.488 162.36 186.219 164.512 186.219 166.664C186.219 170.43 186.965 173.688 188.07 175.452C188.16 176.289 188.28 177.125 188.369 177.932C186.816 176.737 185.681 172.821 185.681 168.159C185.681 164.99 186.219 162.151 187.055 160.268Z" fill="black"/>
</g>
<path opacity="0.1" d="M202.586 84.6173C201.69 85.8428 200.585 87.128 199.241 87.1579C197.3 87.2177 195.956 84.7368 194.164 83.8103C190.52 81.987 186.727 86.9785 182.814 86.321C179.798 85.8427 177.438 82.0468 174.392 82.3756C172.212 82.6147 170.629 84.9162 169.285 87.0383C168.239 85.514 167.224 83.9597 166.179 82.4353C165.581 81.5387 164.924 80.911 164.655 80.2235C164.088 81.6582 165.163 82.4055 166.179 83.9298C167.194 85.4542 168.239 87.0084 169.285 88.5328C170.629 86.4107 172.212 84.1092 174.392 83.87C177.438 83.5413 179.798 87.3073 182.814 87.8155C186.697 88.4431 190.52 83.4815 194.164 85.3047C195.956 86.2014 197.3 88.6823 199.241 88.6524C200.585 88.6225 201.69 87.3671 202.586 86.1118C204.079 84.0195 205.423 81.8077 206.558 79.5062C206.409 79.3268 206.23 79.1475 206.051 78.9682C205.035 80.9409 203.87 82.8239 202.586 84.6173Z" fill="black"/>
<path d="M191.117 250.235C203.691 249.398 216.146 247.515 228.391 244.556C225.793 237.293 224.239 228.655 218.326 223.275C218.027 223.514 217.699 223.753 217.37 223.992C217.967 225.905 220.297 229.611 216.982 230.03C195.986 234.782 173.944 234.304 152.768 230.986C153.545 229.402 154.232 227.818 154.859 226.174C154.232 225.875 153.605 225.546 152.978 225.188C151.036 227.28 150.738 230.09 150.499 232.81C148.796 236.277 146.377 239.415 144.943 243.032C151.902 245.184 158.682 247.575 165.312 250.205C165.342 250.235 191.117 250.235 191.117 250.235Z" fill="#2F2E41"/>
<defs>
<linearGradient id="paint0_linear" x1="68.0366" y1="103.059" x2="75.2046" y2="103.059" gradientUnits="userSpaceOnUse">
<stop offset="0.265625" stop-color="#FF4D52"/>
<stop offset="0.848958" stop-color="#F9CB28"/>
</linearGradient>
<linearGradient id="paint1_linear" x1="100.352" y1="179.517" x2="107.52" y2="179.517" gradientUnits="userSpaceOnUse">
<stop offset="0.265625" stop-color="#FF4D52"/>
<stop offset="0.848958" stop-color="#F9CB28"/>
</linearGradient>
<linearGradient id="paint2_linear" x1="237.291" y1="102.551" x2="244.459" y2="102.551" gradientUnits="userSpaceOnUse">
<stop offset="0.265625" stop-color="#FF4D52"/>
<stop offset="0.848958" stop-color="#F9CB28"/>
</linearGradient>
<linearGradient id="paint3_linear" x1="300.13" y1="191.861" x2="307.298" y2="191.861" gradientUnits="userSpaceOnUse">
<stop offset="0.265625" stop-color="#FF4D52"/>
<stop offset="0.848958" stop-color="#F9CB28"/>
</linearGradient>
<linearGradient id="paint4_linear" x1="101.128" y1="161.85" x2="274.624" y2="161.85" gradientUnits="userSpaceOnUse">
<stop offset="0.286458" stop-color="#007CF0"/>
<stop offset="1" stop-color="#00DFD8"/>
</linearGradient>
<linearGradient id="paint5_linear" x1="88.9058" y1="152.042" x2="156.561" y2="152.042" gradientUnits="userSpaceOnUse">
<stop offset="0.286458" stop-color="#007CF0"/>
<stop offset="1" stop-color="#00DFD8"/>
</linearGradient>
<linearGradient id="paint6_linear" x1="210.65" y1="150.413" x2="277.823" y2="150.413" gradientUnits="userSpaceOnUse">
<stop offset="0.286458" stop-color="#007CF0"/>
<stop offset="1" stop-color="#00DFD8"/>
</linearGradient>
</defs>
</svg>
