<svg width="71" height="70" viewBox="0 0 71 70" fill="none" xmlns="http://www.w3.org/2000/svg">
<path d="M69.2378 31.8822L38.4264 1.32068C38.0044 0.901978 37.5034 0.569842 36.952 0.343238C36.4006 0.116633 35.8096 0 35.2128 0C34.616 0 34.025 0.116633 33.4736 0.343238C32.9222 0.569842 32.4212 0.901978 31.9993 1.32068L25.6013 7.66782L33.7175 15.718C34.6715 15.3962 35.6973 15.3458 36.6787 15.5726C37.6601 15.7994 38.5578 16.2943 39.2702 17.0013C39.9865 17.7127 40.4865 18.6096 40.7133 19.5895C40.94 20.5694 40.8844 21.5928 40.5526 22.5429L48.3734 30.302C50.2658 29.6555 52.4497 30.074 53.9606 31.5754C54.4629 32.0733 54.8614 32.6646 55.1333 33.3154C55.4051 33.9662 55.5451 34.6638 55.5451 35.3682C55.5451 36.0727 55.4051 36.7702 55.1333 37.421C54.8614 38.0718 54.4629 38.6631 53.9606 39.1611C53.0768 40.0386 51.9138 40.5851 50.6695 40.7077C49.4252 40.8303 48.1765 40.5214 47.1359 39.8335C46.0954 39.1456 45.3274 38.1213 44.9626 36.9348C44.5977 35.7484 44.6587 34.4733 45.135 33.3264L37.8408 26.091L37.8402 45.1324C38.3689 45.3917 38.8519 45.7343 39.2702 46.1469C39.7725 46.645 40.171 47.2364 40.4428 47.8873C40.7146 48.5382 40.8546 49.2358 40.8546 49.9404C40.8546 50.6449 40.7146 51.3425 40.4428 51.9934C40.171 52.6443 39.7725 53.2357 39.2702 53.7339C37.1572 55.8299 33.7327 55.8299 31.623 53.7339C30.9927 53.1091 30.5279 52.3396 30.2697 51.4936C30.0115 50.6477 29.9681 49.7516 30.1432 48.885C30.3184 48.0184 30.7067 47.2081 31.2736 46.5263C31.8406 45.8444 32.5686 45.3121 33.3929 44.9767V25.7578C32.7298 25.4892 32.1279 25.091 31.623 24.587C30.0227 23.0015 29.6379 20.6722 30.4579 18.7227L22.4576 10.7855L1.33156 31.7403C0.909404 32.159 0.574531 32.6562 0.346062 33.2033C0.117592 33.7504 0 34.3368 0 34.929C0 35.5212 0.117592 36.1076 0.346062 36.6547C0.574531 37.2018 0.909404 37.6989 1.33156 38.1177L32.143 68.6799C32.9954 69.5251 34.1513 70 35.3565 70C36.5618 70 37.7177 69.5251 38.5701 68.6799L69.2378 38.2602C70.0901 37.4143 70.5689 36.2672 70.5689 35.0712C70.5689 33.8752 70.0901 32.7282 69.2378 31.8822Z" fill="url(#paint0_linear)"/>
<defs>
<linearGradient id="paint0_linear" x1="0" y1="35" x2="70.5689" y2="35" gradientUnits="userSpaceOnUse">
<stop stop-color="#0E0F0D"/>
<stop offset="1" stop-color="#444444"/>
</linearGradient>
</defs>
</svg>
