<svg width="72" height="70" viewBox="0 0 72 70" fill="none" xmlns="http://www.w3.org/2000/svg">
<path d="M35.7143 0C15.9818 0 0 15.901 0 35.5338C0 52.2331 11.5167 66.0928 27.0547 70C26.8754 69.5555 26.7872 68.9325 26.7872 68.3125V62.2703H22.3222C19.9119 62.2703 17.6778 61.2058 16.696 59.2491C15.535 57.1171 15.3556 53.8299 12.4103 51.7855C11.5167 51.0749 12.231 50.3642 13.2128 50.4519C15.0881 50.9841 16.6049 52.2301 18.0334 54.093C19.462 55.9589 20.0881 56.4034 22.766 56.4034C24.0152 56.4034 25.9787 56.3157 27.766 56.0466C28.7477 53.5577 30.4438 51.338 32.4985 50.2735C20.535 48.8521 14.8207 42.9883 14.8207 34.9924C14.8207 31.5268 16.3374 28.2395 18.8389 25.3968C18.0365 22.6418 16.9635 16.9564 19.1976 14.7367C24.5562 14.7367 27.769 18.2024 28.5714 19.0884C31.2492 18.1993 34.1976 17.6671 37.231 17.6671C40.3556 17.6671 43.2128 18.1993 45.8906 19.0884C46.693 18.1993 49.9088 14.7367 55.2644 14.7367C57.4073 16.8687 56.4255 22.6418 55.5319 25.3968C58.0334 28.1518 59.462 31.5268 59.462 34.9924C59.462 42.9883 53.8359 48.8521 41.9635 50.095C45.2675 51.7825 47.5897 56.5788 47.5897 60.1322V68.2248C47.5897 68.491 47.5015 68.7571 47.5015 69.0232C61.4286 64.2269 71.4286 51.0809 71.4286 35.5338C71.4286 15.901 55.4468 0 35.7143 0Z" fill="url(#paint0_linear)"/>
<defs>
<linearGradient id="paint0_linear" x1="0" y1="35" x2="71.4286" y2="35" gradientUnits="userSpaceOnUse">
<stop stop-color="#0E0F0D"/>
<stop offset="1" stop-color="#444444"/>
</linearGradient>
</defs>
</svg>
