<svg width="60" height="71" viewBox="0 0 60 71" fill="none" xmlns="http://www.w3.org/2000/svg">
<path d="M10.5454 63.0947L10.5458 63.0948C11.1545 63.2258 11.7678 63.2475 12.3648 63.1655L8.87106 68.616L9.29201 68.8858L8.87106 68.616C7.95081 70.0517 6.04007 70.4713 4.60247 69.5498C3.16588 68.6289 2.74778 66.7178 3.66866 65.2812L3.66866 65.2812L6.90906 60.226C7.58446 61.6319 8.87791 62.7347 10.5454 63.0947Z" stroke="url(#paint0_linear)"/>
<path d="M19.0612 48.6179L23.2383 46.2026L17.7247 54.8042L19.0612 48.6179Z" stroke="url(#paint1_linear)"/>
<path d="M34.921 40.251L34.872 40.4615L34.9919 40.6414L40.8716 49.4648C40.8716 49.4649 40.8716 49.4649 40.8716 49.4649C41.3502 50.1832 41.5066 51.0687 41.3029 51.9074C41.3029 51.9074 41.3029 51.9074 41.3029 51.9074L37.4727 67.6779L37.4727 67.6779C37.0697 69.3378 35.3969 70.3536 33.7412 69.9511L33.7411 69.9511C32.0829 69.5484 31.0652 67.8777 31.4679 66.2195C31.4679 66.2195 31.4679 66.2195 31.4679 66.2195L34.9268 51.9778L34.9785 51.7648L34.857 51.5825L29.0374 42.8491C30.2355 42.1564 33.2242 40.4282 35.1368 39.3222L34.921 40.251Z" stroke="url(#paint2_linear)"/>
<path d="M40.948 6.19972C40.948 9.34758 38.3962 11.8994 35.2483 11.8994C32.1004 11.8994 29.5486 9.34758 29.5486 6.19972C29.5486 3.05185 32.1004 0.5 35.2483 0.5C38.3962 0.5 40.948 3.05185 40.948 6.19972Z" stroke="url(#paint3_linear)"/>
<path d="M59.1749 21.0493L59.1749 21.0493C59.854 22.246 59.4343 23.7665 58.2375 24.4456C58.2375 24.4456 58.2375 24.4457 58.2375 24.4457L57.8615 24.6589L55.1101 20.4909L55.7786 20.1117L55.7786 20.1117C56.9754 19.4325 58.4959 19.8525 59.1749 21.0493Z" stroke="url(#paint4_linear)"/>
<path d="M48.6343 17.7716L48.4849 18.0375L48.6529 18.292L55.5766 28.7803C55.9079 29.2823 55.7696 29.9577 55.2677 30.289C54.7658 30.6203 54.0901 30.4815 53.7591 29.98L53.7591 29.98L51.0317 25.8483L50.7721 25.455L50.3642 25.6909L32.933 35.7705C33.0803 34.9335 33.0571 34.0869 32.8803 33.2851L49.1109 23.8999L49.5702 23.6344L49.2779 23.1916L46.8354 19.4915L46.6675 19.237L46.3643 19.2698C45.2685 19.3886 44.179 18.8982 43.5544 17.9519L43.5544 17.9519C42.6477 16.5784 43.0271 14.7306 44.3994 13.8248L44.3994 13.8247C45.7726 12.9183 47.6203 13.2969 48.5266 14.6698C49.1618 15.6323 49.1644 16.828 48.6343 17.7716Z" stroke="url(#paint5_linear)"/>
<path d="M24.5002 40.6472L15.5601 45.8167L15.3684 45.9276L15.3216 46.144L12.7217 58.1773L12.7217 58.1774C12.5952 58.7629 12.0181 59.1388 11.4273 59.0116C10.8407 58.8851 10.466 58.306 10.5932 57.7173L13.0049 46.5548L13.05 46.3459L12.9302 46.1689C12.9119 46.1419 12.8988 46.1227 12.8898 46.1096L12.8862 46.1043C12.8811 46.0941 12.8744 46.0809 12.8652 46.0633L12.7566 45.856L12.5279 45.8066L1.35921 43.3935L1.35918 43.3935C0.771441 43.2666 0.397907 42.687 0.524881 42.0993L0.524885 42.0993C0.651929 41.5112 1.23094 41.1376 1.81892 41.2648L1.81908 41.2648L14.197 43.9392L14.3857 43.9799L14.5529 43.8833L22.3765 39.3592C22.9927 39.9246 23.7093 40.3622 24.5002 40.6472ZM12.877 46.0908C12.8769 46.0906 12.8769 46.0906 12.877 46.0908L12.877 46.0908Z" stroke="url(#paint6_linear)"/>
<path d="M21.0886 24.3318L21.0273 24.5861L21.2013 24.7814L28.5269 33.007C29.4419 34.0344 29.3508 35.6094 28.3232 36.5245L28.3232 36.5246C27.2957 37.4398 25.7237 37.3476 24.8088 36.3243C24.805 36.32 24.8014 36.3161 24.7981 36.3125L16.4393 26.9268L16.4392 26.9266C15.9093 26.3319 15.6841 25.4903 15.8777 24.6863L17.5592 17.7067C18.3917 14.2048 21.9323 12.0114 25.4475 12.8287L25.4476 12.8288L33.281 14.6492C33.2816 14.6494 33.2822 14.6495 33.2828 14.6497C33.2865 14.6505 33.29 14.6513 33.2932 14.652L38.8959 15.9543C38.8207 17.4248 39.1956 18.9322 40.0677 20.2533C40.7697 21.3169 41.7257 22.1542 42.828 22.7068L40.9817 23.7744L40.1982 21.6066L39.6236 20.0169L39.2409 21.6634L38.4038 25.2651L30.7554 29.6878L23.9193 22.0117L24.7813 18.303L24.8945 17.8158L24.4074 17.7027C23.3666 17.4611 22.5916 18.0834 22.405 18.8672C22.4049 18.8674 22.4049 18.8676 22.4048 18.8678L21.0886 24.3318ZM33.2871 14.6506C33.2866 14.6505 33.2861 14.6504 33.2856 14.6503L33.2871 14.6506ZM33.3289 14.6584C33.3294 14.6585 33.327 14.6582 33.3242 14.6577L33.3276 14.6582L33.3286 14.6584L33.3288 14.6584L33.3289 14.6584Z" stroke="url(#paint7_linear)"/>
<defs>
<linearGradient id="paint0_linear" x1="2.67969" y1="64.8227" x2="13.4852" y2="64.8227" gradientUnits="userSpaceOnUse">
<stop stop-color="#0E0F0D"/>
<stop offset="1" stop-color="#444444"/>
</linearGradient>
<linearGradient id="paint1_linear" x1="16.6511" y1="51.0724" x2="24.7703" y2="51.0724" gradientUnits="userSpaceOnUse">
<stop stop-color="#0E0F0D"/>
<stop offset="1" stop-color="#444444"/>
</linearGradient>
<linearGradient id="paint2_linear" x1="28.3258" y1="54.4256" x2="41.8902" y2="54.4256" gradientUnits="userSpaceOnUse">
<stop stop-color="#0E0F0D"/>
<stop offset="1" stop-color="#444444"/>
</linearGradient>
<linearGradient id="paint3_linear" x1="29.0486" y1="6.19972" x2="41.448" y2="6.19972" gradientUnits="userSpaceOnUse">
<stop stop-color="#0E0F0D"/>
<stop offset="1" stop-color="#444444"/>
</linearGradient>
<linearGradient id="paint4_linear" x1="54.3982" y1="22.3055" x2="60" y2="22.3055" gradientUnits="userSpaceOnUse">
<stop stop-color="#0E0F0D"/>
<stop offset="1" stop-color="#444444"/>
</linearGradient>
<linearGradient id="paint5_linear" x1="32.1211" y1="24.8245" x2="56.2569" y2="24.8245" gradientUnits="userSpaceOnUse">
<stop stop-color="#0E0F0D"/>
<stop offset="1" stop-color="#444444"/>
</linearGradient>
<linearGradient id="paint6_linear" x1="0" y1="49.1366" x2="25.8169" y2="49.1366" gradientUnits="userSpaceOnUse">
<stop stop-color="#0E0F0D"/>
<stop offset="1" stop-color="#444444"/>
</linearGradient>
<linearGradient id="paint7_linear" x1="15.3091" y1="24.9066" x2="43.9558" y2="24.9066" gradientUnits="userSpaceOnUse">
<stop stop-color="#0E0F0D"/>
<stop offset="1" stop-color="#444444"/>
</linearGradient>
</defs>
</svg>
