<svg width="79" height="70" viewBox="0 0 79 70" fill="none" xmlns="http://www.w3.org/2000/svg">
<path d="M79 35.008C79 29.8009 72.4462 24.8661 62.3981 21.8059C64.7169 11.6159 63.6863 3.50881 59.1453 0.913252C58.0987 0.304417 56.8748 0.0160217 55.5383 0.0160217V3.58892C56.279 3.58892 56.8749 3.73312 57.374 4.00549C59.564 5.25521 60.5141 10.0137 59.7733 16.1341C59.5962 17.6402 59.3064 19.2264 58.9521 20.8446C55.796 20.0755 52.35 19.4827 48.7269 19.0982C46.553 16.1341 44.2986 13.4424 42.0281 11.0872C47.2776 6.23255 52.2051 3.5729 55.5544 3.5729V0C51.1262 0 45.3292 3.14031 39.4678 8.58778C33.6064 3.17235 27.8094 0.0640881 23.3812 0.0640881V3.63699C26.7144 3.63699 31.658 6.28061 36.9075 11.1032C34.6531 13.4585 32.3987 16.1341 30.257 19.0982C26.6178 19.4827 23.1718 20.0755 20.0157 20.8606C19.6453 19.2584 19.3716 17.7043 19.1784 16.2142C18.4215 10.0938 19.3555 5.33532 21.5294 4.06958C22.0124 3.78119 22.6404 3.65301 23.3812 3.65301V0.0801099C22.0285 0.0801099 20.8047 0.368505 19.7419 0.97734C15.2171 3.5729 14.2026 11.664 16.5375 21.8219C6.52161 24.8981 0 29.8169 0 35.008C0 40.2151 6.55381 45.1499 16.6019 48.2101C14.2831 58.4001 15.3137 66.5072 19.8547 69.1028C20.9013 69.7116 22.1252 70 23.4778 70C27.906 70 33.703 66.8597 39.5644 61.4122C45.4258 66.8276 51.2228 69.9359 55.651 69.9359C57.0037 69.9359 58.2275 69.6475 59.2903 69.0387C63.8151 66.4431 64.8296 58.352 62.4947 48.1941C72.4784 45.1339 79 40.1991 79 35.008ZM58.0342 24.3214C57.4384 26.3882 56.6977 28.5191 55.8604 30.65C55.2002 29.3683 54.5077 28.0865 53.7509 26.8048C53.0102 25.523 52.2212 24.2733 51.4321 23.0556C53.7187 23.3921 55.9248 23.8086 58.0342 24.3214ZM50.6592 41.3848C49.4032 43.5477 48.115 45.5985 46.7784 47.5051C44.3791 47.7134 41.9476 47.8256 39.5 47.8256C37.0685 47.8256 34.637 47.7134 32.2538 47.5212C30.9172 45.6146 29.6129 43.5798 28.3569 41.4328C27.1331 39.3339 26.022 37.203 25.0075 35.0561C26.0059 32.9091 27.1331 30.7622 28.3408 28.6633C29.5968 26.5003 30.885 24.4495 32.2216 22.5429C34.6209 22.3346 37.0524 22.2225 39.5 22.2225C41.9315 22.2225 44.363 22.3346 46.7462 22.5269C48.0828 24.4335 49.3871 26.4683 50.6431 28.6152C51.8669 30.7141 52.978 32.845 53.9925 34.992C52.978 37.1389 51.8669 39.2859 50.6592 41.3848ZM55.8604 39.3019C56.7299 41.4488 57.4707 43.5958 58.0826 45.6786C55.9731 46.1913 53.7509 46.6239 51.4482 46.9604C52.2373 45.7267 53.0263 44.461 53.767 43.1632C54.5078 41.8814 55.2002 40.5837 55.8604 39.3019ZM39.5322 56.3973C38.0347 54.8592 36.5371 53.1449 35.0556 51.2703C36.5049 51.3344 37.9863 51.3825 39.4839 51.3825C40.9976 51.3825 42.4951 51.3504 43.9605 51.2703C42.5112 53.1449 41.0137 54.8592 39.5322 56.3973ZM27.5518 46.9604C25.2652 46.6239 23.0591 46.2074 20.9497 45.6947C21.5455 43.6278 22.2862 41.4969 23.1235 39.366C23.7837 40.6477 24.4762 41.9295 25.233 43.2113C25.9898 44.493 26.7627 45.7427 27.5518 46.9604ZM39.4517 13.6187C40.9493 15.1568 42.4468 16.8711 43.9283 18.7457C42.479 18.6816 40.9976 18.6336 39.5 18.6336C37.9863 18.6336 36.4888 18.6656 35.0234 18.7457C36.4727 16.8711 37.9702 15.1568 39.4517 13.6187ZM27.5357 23.0556C26.7466 24.2893 25.9576 25.555 25.2169 26.8528C24.4762 28.1346 23.7837 29.4163 23.1235 30.6981C22.254 28.5512 21.5133 26.4042 20.9013 24.3214C23.0108 23.8247 25.233 23.3921 27.5357 23.0556ZM12.9627 43.1151C7.26233 40.6958 3.57481 37.5235 3.57481 35.008C3.57481 32.4926 7.26233 29.3042 12.9627 26.9009C14.3475 26.3081 15.8612 25.7794 17.4232 25.2827C18.341 28.423 19.5487 31.6915 21.0463 35.0401C19.5648 38.3726 18.3732 41.6251 17.4715 44.7494C15.8773 44.2527 14.3636 43.7079 12.9627 43.1151ZM21.626 66.0105C19.436 64.7608 18.4859 60.0023 19.2267 53.8819C19.4038 52.3758 19.6936 50.7896 20.0479 49.1714C23.204 49.9405 26.65 50.5333 30.2731 50.9178C32.447 53.8819 34.7014 56.5736 36.9719 58.9288C31.7224 63.7835 26.7949 66.4431 23.4456 66.4431C22.721 66.4271 22.1091 66.2829 21.626 66.0105ZM59.8217 53.8018C60.5785 59.9222 59.6445 64.6807 57.4706 65.9464C56.9876 66.2348 56.3596 66.363 55.6188 66.363C52.2856 66.363 47.342 63.7194 42.0925 58.8968C44.3469 56.5415 46.6013 53.8659 48.743 50.9018C52.3822 50.5173 55.8282 49.9245 58.9843 49.1394C59.3547 50.7576 59.6445 52.3117 59.8217 53.8018ZM66.0212 43.1151C64.6364 43.7079 63.1227 44.2367 61.5607 44.7333C60.6429 41.593 59.4352 38.3246 57.9376 34.976C59.4191 31.6434 60.6107 28.3909 61.5124 25.2666C63.1066 25.7633 64.6203 26.3081 66.0373 26.9009C71.7377 29.3202 75.4252 32.4926 75.4252 35.008C75.4091 37.5235 71.7216 40.7118 66.0212 43.1151Z" fill="url(#paint0_linear)"/>
<path d="M39.4839 42.3301C43.5482 42.3301 46.8429 39.0519 46.8429 35.0081C46.8429 30.9642 43.5482 27.686 39.4839 27.686C35.4197 27.686 32.125 30.9642 32.125 35.0081C32.125 39.0519 35.4197 42.3301 39.4839 42.3301Z" fill="url(#paint1_linear)"/>
<defs>
<linearGradient id="paint0_linear" x1="0" y1="35" x2="79" y2="35" gradientUnits="userSpaceOnUse">
<stop stop-color="#0E0F0D"/>
<stop offset="1" stop-color="#444444"/>
</linearGradient>
<linearGradient id="paint1_linear" x1="32.125" y1="35.0081" x2="46.8429" y2="35.0081" gradientUnits="userSpaceOnUse">
<stop stop-color="#0E0F0D"/>
<stop offset="1" stop-color="#444444"/>
</linearGradient>
</defs>
</svg>
