<svg width="70" height="70" viewBox="0 0 70 70" fill="none" xmlns="http://www.w3.org/2000/svg">
<path d="M67.8787 14.8089C69.0483 14.8089 70 13.8572 70 12.6876V7.12379C70 5.95421 69.0483 5.00252 67.8787 5.00252H64.3839V2.258C64.3839 1.08841 63.4327 0.136719 62.2626 0.136719H49.8516C48.682 0.136719 47.7303 1.08841 47.7303 2.258V20.1105C47.7303 20.6776 48.1902 21.1369 48.7568 21.1369C49.324 21.1369 49.7832 20.6776 49.7832 20.1105V2.258C49.7832 2.22061 49.8142 2.18964 49.8516 2.18964H62.2626C62.3005 2.18964 62.3315 2.22061 62.3315 2.258V41.6378H56.3474V26.2575C56.3474 25.0879 55.3957 24.1362 54.2261 24.1362H2.12128C0.951691 24.1362 0 25.0879 0 26.2575V50.1181C0 51.2877 0.951691 52.2394 2.12128 52.2394H34.7495V67.6192C34.7495 68.7888 35.7012 69.7404 36.8708 69.7404H64.465C65.6346 69.7404 66.5863 68.7888 66.5863 67.6192V43.7591C66.5863 42.589 65.6346 41.6378 64.465 41.6378H64.3839V39.2906H67.8787C69.0483 39.2906 70 38.3389 70 37.1693V31.6055C70 30.4354 69.0483 29.4843 67.8787 29.4843H64.3839V27.0495H67.8787C69.0483 27.0495 70 26.0978 70 24.9282V19.3644C70 18.1948 69.0483 17.2431 67.8787 17.2431H64.3839V14.8089H67.8787ZM2.12128 50.1865C2.08336 50.1865 2.05292 50.1555 2.05292 50.1181V26.2575C2.05292 26.2201 2.08389 26.1891 2.12128 26.1891H54.2261C54.264 26.1891 54.2944 26.2201 54.2944 26.2575V41.6378H50.814C49.9776 40.0415 48.3146 39.0124 46.471 39.0124C44.6269 39.0124 42.9639 40.0415 42.1275 41.6378H38.5937C37.7573 40.0415 36.0943 39.0124 34.2502 39.0124C31.5468 39.0124 29.3475 41.2122 29.3475 43.9156C29.3475 46.6195 31.5468 48.8187 34.2502 48.8187C34.4179 48.8187 34.5845 48.8107 34.7495 48.7936V50.1865H2.12128ZM48.1827 41.6378H44.7594C45.2416 41.2757 45.8376 41.0653 46.471 41.0653C47.1039 41.0653 47.6999 41.2757 48.1827 41.6378ZM34.7495 46.7199C34.5861 46.7482 34.4195 46.7658 34.2507 46.7658C32.679 46.7658 31.3999 45.4873 31.3999 43.9156C31.3999 42.3438 32.679 41.0653 34.2507 41.0653C34.9594 41.0653 35.6216 41.328 36.1301 41.7735C35.3252 42.0752 34.7495 42.8501 34.7495 43.7591V46.7199ZM64.5334 43.7591V67.6192C64.5334 67.6571 64.5024 67.6875 64.465 67.6875H36.8708C36.8329 67.6875 36.8024 67.6571 36.8024 67.6192V47.482C36.8024 47.4783 36.8024 47.4745 36.8024 47.4708V43.7591C36.8024 43.7212 36.8329 43.6907 36.8708 43.6907H37.9362H37.9517H50.1325C50.1352 43.6907 50.1384 43.6913 50.1411 43.6913C50.1437 43.6913 50.1464 43.6907 50.1491 43.6907H64.465C64.5024 43.6907 64.5334 43.7212 64.5334 43.7591ZM67.8787 7.05544C67.9161 7.05544 67.9471 7.08588 67.9471 7.12379V12.6871C67.9471 12.725 67.9161 12.7554 67.8787 12.7554H64.3839V7.05544H67.8787ZM67.8787 31.5366C67.9161 31.5366 67.9471 31.5676 67.9471 31.6055V37.1693C67.9471 37.2067 67.9161 37.2377 67.8787 37.2377H64.3839V31.5366H67.8787ZM67.8787 19.296C67.9161 19.296 67.9471 19.3265 67.9471 19.3644V24.9282C67.9471 24.9656 67.9161 24.9966 67.8787 24.9966H64.3839V19.296H67.8787Z" fill="url(#paint0_linear)"/>
<path d="M12.0788 22.4064H39.6527C40.8223 22.4064 41.774 21.4547 41.774 20.2851V7.87415C41.774 6.70403 40.8223 5.75287 39.6527 5.75287H36.8703V2.258C36.8703 1.08841 35.9191 0.136719 34.749 0.136719H29.1852C28.0156 0.136719 27.0639 1.08841 27.0639 2.258C27.0639 2.82463 27.5237 3.28445 28.0904 3.28445C28.6575 3.28445 29.1168 2.82463 29.1168 2.258C29.1168 2.22061 29.1478 2.18964 29.1852 2.18964H34.749C34.7869 2.18964 34.8174 2.22061 34.8174 2.258V5.75287H24.6297V2.258C24.6297 1.08841 23.678 0.136719 22.5084 0.136719H16.9446C15.775 0.136719 14.8233 1.08841 14.8233 2.258V5.75287H12.0788C10.9092 5.75287 9.95752 6.70403 9.95752 7.87415V20.2851C9.95752 21.4547 10.9092 22.4064 12.0788 22.4064ZM16.8762 2.258C16.8762 2.22061 16.9072 2.18964 16.9446 2.18964H22.5084C22.5463 2.18964 22.5768 2.22061 22.5768 2.258V5.75287H16.8762V2.258ZM12.0104 7.87415C12.0104 7.83623 12.0414 7.80525 12.0788 7.80525H39.6527C39.6906 7.80525 39.7211 7.83623 39.7211 7.87415V20.2851C39.7211 20.3225 39.6906 20.3535 39.6527 20.3535H12.0788C12.0414 20.3535 12.0104 20.3225 12.0104 20.2851V7.87415Z" fill="url(#paint1_linear)"/>
<path d="M9.76903 27.5566C7.06509 27.5566 4.86584 29.7564 4.86584 32.4598C4.86584 35.1638 7.06509 37.3635 9.76903 37.3635C12.4724 37.3635 14.6717 35.1638 14.6717 32.4598C14.6717 29.7564 12.4724 27.5566 9.76903 27.5566ZM9.76903 35.3106C8.1973 35.3106 6.91823 34.0316 6.91823 32.4598C6.91823 30.8886 8.1973 29.6096 9.76903 29.6096C11.3402 29.6096 12.6193 30.8886 12.6193 32.4598C12.6193 34.0316 11.3402 35.3106 9.76903 35.3106Z" fill="url(#paint2_linear)"/>
<path d="M9.76903 39.0122C7.06509 39.0122 4.86584 41.212 4.86584 43.9154C4.86584 46.6193 7.06509 48.8186 9.76903 48.8186C12.4724 48.8186 14.6717 46.6193 14.6717 43.9154C14.6717 41.212 12.4724 39.0122 9.76903 39.0122ZM9.76903 46.7657C8.1973 46.7657 6.91823 45.4871 6.91823 43.9154C6.91823 42.3437 8.1973 41.0651 9.76903 41.0651C11.3402 41.0651 12.6193 42.3437 12.6193 43.9154C12.6193 45.4871 11.3402 46.7657 9.76903 46.7657Z" fill="url(#paint3_linear)"/>
<path d="M21.9893 27.5566C20.4448 27.5566 19.0221 28.2621 18.0858 29.4921C17.7425 29.9433 17.8295 30.5874 18.2808 30.9308C18.7315 31.2737 19.3756 31.1872 19.719 30.7359C20.2637 30.0202 21.091 29.6096 21.9887 29.6096C23.5605 29.6096 24.8395 30.8886 24.8395 32.4598C24.8395 34.0321 23.5605 35.3106 21.9887 35.3106C21.0931 35.3106 20.2664 34.9015 19.7217 34.188C19.3777 33.7373 18.7337 33.6513 18.2829 33.9952C17.8327 34.3392 17.7462 34.9832 18.0901 35.434C19.0269 36.6602 20.448 37.363 21.9887 37.363C24.6927 37.363 26.8925 35.1638 26.8925 32.4598C26.8925 29.7564 24.6927 27.5566 21.9893 27.5566Z" fill="url(#paint4_linear)"/>
<path d="M21.9892 39.0122C19.2853 39.0122 17.0861 41.212 17.0861 43.9154C17.0861 46.6193 19.2853 48.8186 21.9892 48.8186C24.6926 48.8186 26.8924 46.6193 26.8924 43.9154C26.8924 41.212 24.6926 39.0122 21.9892 39.0122ZM21.9892 46.7657C20.4175 46.7657 19.1384 45.4871 19.1384 43.9154C19.1384 42.3437 20.4175 41.0651 21.9892 41.0651C23.561 41.0651 24.8395 42.3437 24.8395 43.9154C24.8395 45.4871 23.561 46.7657 21.9892 46.7657Z" fill="url(#paint5_linear)"/>
<path d="M34.2507 37.3635C36.9541 37.3635 39.1539 35.1638 39.1539 32.4598C39.1539 29.7564 36.9541 27.5566 34.2507 27.5566C31.5468 27.5566 29.3475 29.7564 29.3475 32.4598C29.3475 35.1638 31.5468 37.3635 34.2507 37.3635ZM34.2507 29.6096C35.8224 29.6096 37.101 30.8886 37.101 32.4598C37.101 34.0321 35.8224 35.3106 34.2507 35.3106C32.679 35.3106 31.3999 34.0316 31.3999 32.4598C31.3999 30.8886 32.679 29.6096 34.2507 29.6096Z" fill="url(#paint6_linear)"/>
<path d="M46.4711 37.3635C49.1745 37.3635 51.3742 35.1638 51.3742 32.4598C51.3742 29.7564 49.1745 27.5566 46.4711 27.5566C43.7671 27.5566 41.5679 29.7564 41.5679 32.4598C41.5679 35.1638 43.7671 37.3635 46.4711 37.3635ZM46.4711 29.6096C48.0423 29.6096 49.3213 30.8886 49.3213 32.4598C49.3213 34.0321 48.0423 35.3106 46.4711 35.3106C44.8993 35.3106 43.6208 34.0316 43.6208 32.4598C43.6208 30.8886 44.8993 29.6096 46.4711 29.6096Z" fill="url(#paint7_linear)"/>
<path d="M44.5575 45.0586C41.8541 45.0586 39.6543 47.2578 39.6543 49.9618C39.6543 52.6652 41.8541 54.865 44.5575 54.865C47.2614 54.865 49.4607 52.6652 49.4607 49.9618C49.4607 47.2578 47.2614 45.0586 44.5575 45.0586ZM44.5575 52.812C42.9857 52.812 41.7072 51.533 41.7072 49.9618C41.7072 48.39 42.9863 47.1115 44.5575 47.1115C46.1292 47.1115 47.4077 48.39 47.4077 49.9618C47.4077 51.533 46.1292 52.812 44.5575 52.812Z" fill="url(#paint8_linear)"/>
<path d="M44.5575 56.5137C41.8541 56.5137 39.6543 58.7135 39.6543 61.4168C39.6543 64.1208 41.8541 66.32 44.5575 66.32C47.2614 66.32 49.4607 64.1208 49.4607 61.4168C49.4607 58.7135 47.2614 56.5137 44.5575 56.5137ZM44.5575 64.2671C42.9857 64.2671 41.7072 62.9886 41.7072 61.4168C41.7072 59.8451 42.9863 58.5666 44.5575 58.5666C46.1292 58.5666 47.4077 59.8451 47.4077 61.4168C47.4077 62.9886 46.1292 64.2671 44.5575 64.2671Z" fill="url(#paint9_linear)"/>
<path d="M51.8746 49.9618C51.8746 52.6652 54.0744 54.865 56.7778 54.865C59.4818 54.865 61.6815 52.6652 61.6815 49.9618C61.6815 47.2578 59.4818 45.0586 56.7778 45.0586C54.0744 45.0586 51.8746 47.2578 51.8746 49.9618ZM56.7778 47.1115C58.3495 47.1115 59.6286 48.39 59.6286 49.9618C59.6286 51.5335 58.3495 52.812 56.7778 52.812C55.2061 52.812 53.9276 51.533 53.9276 49.9618C53.9276 48.39 55.2061 47.1115 56.7778 47.1115Z" fill="url(#paint10_linear)"/>
<path d="M56.7778 56.5137C54.0744 56.5137 51.8746 58.7135 51.8746 61.4168C51.8746 64.1208 54.0744 66.32 56.7778 66.32C59.4818 66.32 61.6815 64.1208 61.6815 61.4168C61.6815 58.7135 59.4818 56.5137 56.7778 56.5137ZM56.7778 64.2671C55.2061 64.2671 53.9276 62.9886 53.9276 61.4168C53.9276 59.8451 55.2066 58.5666 56.7778 58.5666C58.3495 58.5666 59.6286 59.8451 59.6286 61.4168C59.6286 62.9886 58.3495 64.2671 56.7778 64.2671Z" fill="url(#paint11_linear)"/>
<defs>
<linearGradient id="paint0_linear" x1="0" y1="34.9386" x2="70" y2="34.9386" gradientUnits="userSpaceOnUse">
<stop stop-color="#0E0F0D"/>
<stop offset="1" stop-color="#444444"/>
</linearGradient>
<linearGradient id="paint1_linear" x1="9.95752" y1="11.2716" x2="41.774" y2="11.2716" gradientUnits="userSpaceOnUse">
<stop stop-color="#0E0F0D"/>
<stop offset="1" stop-color="#444444"/>
</linearGradient>
<linearGradient id="paint2_linear" x1="4.86584" y1="32.4601" x2="14.6717" y2="32.4601" gradientUnits="userSpaceOnUse">
<stop stop-color="#0E0F0D"/>
<stop offset="1" stop-color="#444444"/>
</linearGradient>
<linearGradient id="paint3_linear" x1="4.86584" y1="43.9154" x2="14.6717" y2="43.9154" gradientUnits="userSpaceOnUse">
<stop stop-color="#0E0F0D"/>
<stop offset="1" stop-color="#444444"/>
</linearGradient>
<linearGradient id="paint4_linear" x1="17.876" y1="32.4598" x2="26.8925" y2="32.4598" gradientUnits="userSpaceOnUse">
<stop stop-color="#0E0F0D"/>
<stop offset="1" stop-color="#444444"/>
</linearGradient>
<linearGradient id="paint5_linear" x1="17.0861" y1="43.9154" x2="26.8924" y2="43.9154" gradientUnits="userSpaceOnUse">
<stop stop-color="#0E0F0D"/>
<stop offset="1" stop-color="#444444"/>
</linearGradient>
<linearGradient id="paint6_linear" x1="29.3475" y1="32.4601" x2="39.1539" y2="32.4601" gradientUnits="userSpaceOnUse">
<stop stop-color="#0E0F0D"/>
<stop offset="1" stop-color="#444444"/>
</linearGradient>
<linearGradient id="paint7_linear" x1="41.5679" y1="32.4601" x2="51.3742" y2="32.4601" gradientUnits="userSpaceOnUse">
<stop stop-color="#0E0F0D"/>
<stop offset="1" stop-color="#444444"/>
</linearGradient>
<linearGradient id="paint8_linear" x1="39.6543" y1="49.9618" x2="49.4607" y2="49.9618" gradientUnits="userSpaceOnUse">
<stop stop-color="#0E0F0D"/>
<stop offset="1" stop-color="#444444"/>
</linearGradient>
<linearGradient id="paint9_linear" x1="39.6543" y1="61.4168" x2="49.4607" y2="61.4168" gradientUnits="userSpaceOnUse">
<stop stop-color="#0E0F0D"/>
<stop offset="1" stop-color="#444444"/>
</linearGradient>
<linearGradient id="paint10_linear" x1="51.8746" y1="49.9618" x2="61.6815" y2="49.9618" gradientUnits="userSpaceOnUse">
<stop stop-color="#0E0F0D"/>
<stop offset="1" stop-color="#444444"/>
</linearGradient>
<linearGradient id="paint11_linear" x1="51.8746" y1="61.4168" x2="61.6815" y2="61.4168" gradientUnits="userSpaceOnUse">
<stop stop-color="#0E0F0D"/>
<stop offset="1" stop-color="#444444"/>
</linearGradient>
</defs>
</svg>
