<svg height="512pt" viewBox="0 -1 512 512" width="512pt" xmlns="http://www.w3.org/2000/svg"><path d="m512 87.089844v-42.425782c0-4.417968-3.582031-8-8-8h-46.183594v58.425782h46.183594c4.417969 0 8-3.582032 8-8zm0 0" fill="#f288e8"/><path d="m512 179.324219v-42.421875c0-4.417969-3.582031-8-8-8h-46.183594v58.421875h46.183594c4.417969 0 8-3.582031 8-8zm0 0" fill="#f288e8"/><path d="m512 271.5625v-42.421875c0-4.417969-3.582031-8-8-8h-46.183594v58.421875h46.183594c4.417969 0 8-3.582031 8-8zm0 0" fill="#f288e8"/><path d="m503.75 36.664062h-12.1875v34.589844c0 4.554688-3.695312 8.25-8.25 8.25h-25.496094v15.582032h45.933594c4.554688 0 8.25-3.691407 8.25-8.25v-41.921876c0-4.558593-3.695312-8.25-8.25-8.25zm0 0" fill="#d866d3"/><path d="m503.75 128.902344h-12.1875v34.589844c0 4.554687-3.695312 8.25-8.25 8.25h-25.496094v15.582031h45.933594c4.554688 0 8.25-3.691407 8.25-8.25v-41.921875c0-4.558594-3.695312-8.25-8.25-8.25zm0 0" fill="#d866d3"/><path d="m503.75 221.140625h-12.1875v34.589844c0 4.554687-3.695312 8.25-8.25 8.25h-25.496094v15.582031h45.933594c4.554688 0 8.25-3.695312 8.25-8.25v-41.921875c0-4.558594-3.695312-8.25-8.25-8.25zm0 0" fill="#d866d3"/><path d="m359.660156 305.238281v-297.238281c0-4.417969 3.582032-8 8-8h94.023438c4.417968 0 8 3.582031 8 8v297.238281c0 4.417969-3.582032 8-8 8h-94.023438c-4.417968 0-8-3.582031-8-8zm0 0" fill="#f288e8"/><path d="m162.121094 0h-42.425782c-4.417968 0-8 3.582031-8 8v46.183594h58.425782v-46.183594c0-4.417969-3.582032-8-8-8zm0 0" fill="#f96058"/><path d="m254.359375 0h-42.425781c-4.417969 0-8 3.582031-8 8v46.183594h58.425781v-46.183594c0-4.417969-3.582031-8-8-8zm0 0" fill="#f96058"/><path d="m161.871094 0h-22.6875c4.554687 0 8.25 3.695312 8.25 8.25v45.933594h22.6875v-45.933594c0-4.558594-3.691406-8.25-8.25-8.25zm0 0" fill="#e94141"/><path d="m254.109375 0h-22.6875c4.554687 0 8.25 3.695312 8.25 8.25v45.933594h22.6875v-45.933594c0-4.558594-3.695313-8.25-8.25-8.25zm0 0" fill="#e94141"/><path d="m291.308594 152.335938h-208.273438c-4.417968 0-8-3.582032-8-8v-94.019532c0-4.417968 3.582032-8 8-8h208.273438c4.417968 0 8 3.582032 8 8v94.023438c0 4.417968-3.582032 7.996094-8 7.996094zm0 0" fill="#f96058"/><path d="m461.433594 0h-20.132813v287.804688c0 4.554687-3.695312 8.25-8.25 8.25h-73.386719v8.933593c0 4.558594 3.691407 8.25 8.25 8.25h93.519532c4.554687 0 8.25-3.691406 8.25-8.25v-296.738281c0-4.558594-3.695313-8.25-8.25-8.25zm0 0" fill="#d866d3"/><path d="m291.058594 42.316406h-20.128906v84.582032c0 4.558593-3.695313 8.25-8.25 8.25h-187.644532v8.9375c0 4.558593 3.691406 8.25 8.25 8.25h207.773438c4.558594 0 8.25-3.691407 8.25-8.25v-93.519532c0-4.554687-3.691406-8.25-8.25-8.25zm0 0" fill="#e94141"/><path d="m401.125 377.136719h-393.125c-4.417969 0-8-3.582031-8-8v-180.292969c0-4.417969 3.582031-8 8-8h393.125c4.417969 0 8 3.582031 8 8v180.292969c0 4.417969-3.582031 8-8 8zm0 0" fill="#ffa511"/><g fill="#ffdc13"><path d="m95.089844 235.832031c0 16.132813-13.082032 29.210938-29.214844 29.210938s-29.210938-13.078125-29.210938-29.210938c0-16.132812 13.078126-29.210937 29.210938-29.210937s29.214844 13.078125 29.214844 29.210937zm0 0"/><path d="m95.089844 322.148438c0 16.136718-13.082032 29.214843-29.214844 29.214843s-29.210938-13.078125-29.210938-29.214843c0-16.132813 13.078126-29.210938 29.210938-29.210938s29.214844 13.078125 29.214844 29.210938zm0 0"/><path d="m187.171875 235.832031c0 16.132813-13.078125 29.210938-29.210937 29.210938-16.136719 0-29.214844-13.078125-29.214844-29.210938 0-16.132812 13.078125-29.210937 29.214844-29.210937 16.132812 0 29.210937 13.078125 29.210937 29.210937zm0 0"/><path d="m187.171875 322.148438c0 16.136718-13.078125 29.214843-29.210937 29.214843-16.136719 0-29.214844-13.078125-29.214844-29.214843 0-16.132813 13.078125-29.210938 29.214844-29.210938 16.132812 0 29.210937 13.078125 29.210937 29.210938zm0 0"/><path d="m279.5625 235.832031c0 16.132813-13.078125 29.210938-29.210938 29.210938-16.132812 0-29.210937-13.078125-29.210937-29.210938 0-16.132812 13.078125-29.210937 29.210937-29.210937 16.132813 0 29.210938 13.078125 29.210938 29.210937zm0 0"/><path d="m279.5625 322.148438c0 16.136718-13.078125 29.214843-29.210938 29.214843-16.132812 0-29.210937-13.078125-29.210937-29.214843 0-16.132813 13.078125-29.210938 29.210937-29.210938 16.132813 0 29.210938 13.078125 29.210938 29.210938zm0 0"/><path d="m371.648438 235.832031c0 16.132813-13.078126 29.210938-29.210938 29.210938-16.136719 0-29.214844-13.078125-29.214844-29.210938 0-16.132812 13.078125-29.210937 29.214844-29.210937 16.132812 0 29.210938 13.078125 29.210938 29.210937zm0 0"/><path d="m371.648438 322.148438c0 16.136718-13.078126 29.214843-29.210938 29.214843-16.136719 0-29.214844-13.078125-29.214844-29.214843 0-16.132813 13.078125-29.210938 29.214844-29.210938 16.132812 0 29.210938 13.078125 29.210938 29.210938zm0 0"/></g><path d="m400.875 180.84375h-20.464844v166.609375c0 4.558594-3.695312 8.25-8.25 8.25h-372.160156v13.183594c0 4.554687 3.695312 8.25 8.25 8.25h392.625c4.554688 0 8.25-3.695313 8.25-8.25v-179.792969c0-4.554688-3.695312-8.25-8.25-8.25zm0 0" fill="#f48500"/><path d="m478.277344 509.015625h-208.429688c-4.417968 0-8-3.582031-8-8v-180.296875c0-4.417969 3.582032-8 8-8h208.429688c4.417968 0 8 3.582031 8 8v180.296875c0 4.417969-3.582032 8-8 8zm0 0" fill="#0064db"/><path d="m478.027344 312.71875h-20.464844v166.609375c0 4.558594-3.691406 8.25-8.25 8.25h-187.464844v13.1875c0 4.554687 3.691406 8.25 8.25 8.25h207.929688c4.554687 0 8.25-3.695313 8.25-8.25v-179.796875c0-4.554688-3.695313-8.25-8.25-8.25zm0 0" fill="#0050c4"/><path d="m357.230469 367.707031c0 16.132813-13.078125 29.214844-29.210938 29.214844-16.132812 0-29.210937-13.082031-29.210937-29.214844 0-16.132812 13.078125-29.210937 29.210937-29.210937 16.132813 0 29.210938 13.078125 29.210938 29.210937zm0 0" fill="#0b9cff"/><path d="m357.230469 454.027344c0 16.132812-13.078125 29.210937-29.210938 29.210937-16.132812 0-29.210937-13.078125-29.210937-29.210937 0-16.132813 13.078125-29.210938 29.210937-29.210938 16.132813 0 29.210938 13.078125 29.210938 29.210938zm0 0" fill="#0b9cff"/><path d="m449.316406 367.707031c0 16.132813-13.078125 29.214844-29.214844 29.214844-16.132812 0-29.210937-13.082031-29.210937-29.214844 0-16.132812 13.078125-29.210937 29.210937-29.210937 16.136719 0 29.214844 13.078125 29.214844 29.210937zm0 0" fill="#0b9cff"/><path d="m449.316406 454.027344c0 16.132812-13.078125 29.210937-29.214844 29.210937-16.132812 0-29.210937-13.078125-29.210937-29.210937 0-16.132813 13.078125-29.210938 29.210937-29.210938 16.136719 0 29.214844 13.078125 29.214844 29.210938zm0 0" fill="#0b9cff"/></svg>